<svg width="72" height="190" viewBox="0 0 72 190" fill="none" xmlns="http://www.w3.org/2000/svg">
<path fill-rule="evenodd" clip-rule="evenodd" d="M51.8405 39.2825H21.6004V43.6025H17.2804H12.9604V47.9225H8.64033V82.4827H4.32031V95.4427H8.64033L12.9604 95.4427V104.083H17.2804V108.403H21.6004H25.9204V112.723H51.8405V108.403H56.1606V104.083H60.4806V47.9225H56.1606V43.6025H51.8405V39.2825Z" fill="#FAE6CE"/>
<path fill-rule="evenodd" clip-rule="evenodd" d="M30.2388 39.2825H51.8389V43.6025H56.1589L56.1589 47.9225H47.5189V43.6025H30.2388V39.2825ZM56.1589 47.9225H60.4789V82.4827H56.1589V47.9225ZM8.63867 47.9225H12.9587V82.4827H8.63867V47.9225ZM17.2787 104.083H12.9587V91.1227H8.63867V86.8027H12.9587V82.4827L17.2787 82.4827V104.083ZM30.2388 108.403V104.083H17.2787V108.403H25.9188V112.723H51.8389V108.403H30.2388ZM12.9587 47.9225V43.6025H17.2787V47.9225H12.9587Z" fill="#714A1C" fill-opacity="0.25" style="mix-blend-mode:multiply"/>
<path fill-rule="evenodd" clip-rule="evenodd" d="M30.2404 47.9226H25.9204V52.2426H30.2404V47.9226ZM34.5605 47.9226H47.5205V52.2426H34.5605V47.9226ZM51.8405 56.5626V52.2426H47.5205L47.5205 56.5626H51.8405ZM51.8405 56.5626V60.8827H56.1606V56.5626H51.8405ZM4.32031 82.4828H8.64033V86.8028H4.32031V82.4828Z" fill="#FFFCF9" fill-opacity="0.7" style="mix-blend-mode:lighten"/>
<path fill-rule="evenodd" clip-rule="evenodd" d="M34.5603 78.1626H30.2402V91.1227H34.5603V78.1626ZM47.5202 99.7627H38.8802V95.4427H34.5602V99.7627H38.8802V104.083H47.5202V99.7627ZM51.8402 78.1626H47.5202V91.1227H51.8402V78.1626Z" fill="black"/>
<path d="M34.5605 78.1626H38.8806V86.8026H34.5605V78.1626Z" fill="#714A1C" fill-opacity="0.25" style="mix-blend-mode:multiply"/>
<path fill-rule="evenodd" clip-rule="evenodd" d="M21.6001 34.9624H51.8402V39.2824H21.6001V34.9624ZM12.9601 43.6024V39.2824H21.6001V43.6024H12.9601ZM8.64004 47.9225V43.6024H12.9601V47.9225H8.64004ZM8.64004 82.4826V47.9225H4.32002V82.4826H0V95.4427H4.32002V99.7627H8.64004V104.083H12.9601V108.403H17.2801V112.723H25.9201V117.043H51.8402V112.723H56.1603V108.403H60.4803L60.4803 104.083H64.8003V47.9225H60.4803V43.6024H56.1603V39.2824H51.8402V43.6024H56.1603V47.9225H60.4803L60.4803 104.083H56.1603V108.403H51.8402V112.723H25.9201V108.403H17.2801V104.083H12.9601V99.7627V95.4427L4.32002 95.4427V82.4826H8.64004ZM8.64004 82.4826V86.8027H12.9601V82.4826H8.64004Z" fill="black"/>
<path fill-rule="evenodd" clip-rule="evenodd" d="M48.1062 114.97H31.592V119.098H35.7205V123.227H43.9776V119.098H48.1062V114.97ZM56.3633 139.741H60.4918V143.87H64.6204V152.127H60.4918H56.3633V139.741ZM15.0778 143.87H19.2063H23.3349V152.127H19.2063V156.255H15.0778H10.9492V147.998H15.0778V143.87Z" fill="#FAE6CE"/>
<path fill-rule="evenodd" clip-rule="evenodd" d="M48.1046 114.97H31.5904V119.098H48.1046V114.97ZM56.3617 139.741H60.4902V143.87H64.6188V152.127H60.4902V147.998H56.3617V139.741ZM19.2047 143.87H23.3333V156.255H19.2047H15.0762V147.998H19.2047V143.87Z" fill="#714A1C" fill-opacity="0.25" style="mix-blend-mode:multiply"/>
<path fill-rule="evenodd" clip-rule="evenodd" d="M27.4634 114.97H23.3349V119.098H19.2063V123.227H15.0778V131.484H10.9492V139.741H15.0778H19.2063H23.3349V123.227H27.4634V152.127H23.3349V164.512H19.2063V172.769H15.0778V176.898H19.2063H23.3349H27.4634H31.592H35.7205H43.9776H48.1062H52.2347H56.3633H60.4918V168.641H56.3633V152.127H52.2347V135.612H56.3633H60.4918V131.484H56.3633V123.227H52.2347V119.098H48.1062V123.227H43.9776V127.355H35.7205V123.227H31.592V119.098H27.4634V114.97Z" fill="#CF0000"/>
<path fill-rule="evenodd" clip-rule="evenodd" d="M23.3356 114.97H27.4641V119.098H23.3356V114.97ZM27.4641 119.098H31.5927V123.227H27.4641V119.098ZM48.1069 119.098H52.2354V123.227H48.1069V119.098ZM48.1069 123.227V127.355H43.9783V123.227H48.1069ZM52.2354 123.227H56.364V131.484H52.2354V123.227ZM43.9783 160.384H48.1069V168.641H43.9783V160.384ZM43.9783 168.641V176.898H39.8498V168.641H43.9783ZM48.1069 152.127H43.9783V156.255H48.1069V152.127ZM43.9783 139.741H48.1069V147.998H43.9783V139.741ZM35.7212 164.512H31.5927V168.641H27.4641V172.769H31.5927V168.641H35.7212V164.512ZM35.7212 164.512H39.8498V156.255H35.7212V164.512ZM31.5927 139.741H27.4641V152.127H23.3356V160.384H27.4641V152.127H31.5927V139.741ZM23.3356 164.512H19.207V168.641H23.3356V164.512ZM56.364 168.641H60.4925V176.898H56.364V168.641ZM56.364 152.127H52.2354V160.384H56.364V152.127Z" fill="black" fill-opacity="0.2" style="mix-blend-mode:multiply"/>
<path fill-rule="evenodd" clip-rule="evenodd" d="M27.4645 119.098H23.3359V123.227H27.4645V119.098ZM43.9787 143.87H39.8501V152.127H43.9787V143.87ZM31.593 160.384H35.7216V164.512H31.593V160.384ZM27.4645 168.641V164.512H31.593V168.641H27.4645ZM27.4645 168.641V176.898H23.3359V168.641H27.4645ZM35.7216 168.641H39.8501V176.898H35.7216V168.641ZM39.8501 168.641V164.512H43.9787V168.641H39.8501Z" fill="white" fill-opacity="0.3" style="mix-blend-mode:lighten"/>
<path fill-rule="evenodd" clip-rule="evenodd" d="M31.593 181.027H23.3359V185.155H31.593V181.027ZM52.2358 181.027H43.9787V185.155H52.2358V181.027Z" fill="#BA6434"/>
<path fill-rule="evenodd" clip-rule="evenodd" d="M27.4645 181.027H23.3359V185.155H27.4645V181.027ZM48.1072 181.027H43.9787V185.155H48.1072V181.027Z" fill="black" fill-opacity="0.2" style="mix-blend-mode:multiply"/>
<path fill-rule="evenodd" clip-rule="evenodd" d="M23.3345 110.841H27.4631V114.97H23.3345V110.841ZM19.206 119.098V114.97H23.3345V119.098H19.206ZM15.0774 123.227V119.098H19.206V123.227H15.0774ZM10.9489 131.484V123.227H15.0774V131.484H10.9489ZM10.9489 139.741H6.82031V131.484H10.9489V139.741ZM23.3345 152.127H27.4631V123.227H23.3345V139.741H15.0774H10.9489V147.998H6.82031V156.255H10.9489V160.384H19.206V164.512H15.0774V172.77H10.9489V176.898V181.027H19.206V189.284H23.3345H31.5916H35.7202V181.027H39.8487V189.284L43.9773 189.284H60.4915V185.155L56.3629 185.155V181.027H64.62V176.898V168.641H60.4915V156.255H64.62V152.127H68.7486V143.87H64.62V131.484H60.4915V123.227H56.3629V119.098H52.2344V114.97H48.1058V119.098H43.9773V123.227H35.7202V119.098H31.5916V114.97H27.4631V119.098H31.5916V123.227H35.7202V127.356H43.9773V123.227H48.1058V119.098H52.2344V123.227H56.3629V131.484H60.4915V135.613H56.3629H52.2344V152.127H56.3629V168.641H60.4915V176.898H15.0774V172.77H19.206V164.512H23.3345V152.127ZM64.62 143.87H60.4915V139.741H56.3629V147.998H60.4915V152.127H64.62V143.87ZM43.9773 185.155L52.2344 185.155V181.027H43.9773V185.155ZM23.3345 152.127V143.87H15.0774V147.998H10.9489V156.255H19.206V152.127H23.3345ZM31.5916 185.155V181.027H23.3345V185.155H31.5916Z" fill="black"/>
<path fill-rule="evenodd" clip-rule="evenodd" d="M14.3222 8.18506H10.7467V73.6675H14.3278V65.4822H50.1329V8.18506H14.3278H14.3222ZM50.1387 16.3701H53.7197V40.926H57.2952V65.4819L53.7197 65.4819H50.1387V16.3701ZM57.2965 49.1118H68.0397V65.4824H57.2965V49.1118ZM7.16436 16.3701H10.7454V73.6672H7.16436V16.3701ZM7.1631 32.7409H3.58203V73.6674H7.1631V32.7409Z" fill="#EE4024"/>
<path fill-rule="evenodd" clip-rule="evenodd" d="M10.7467 8.18506H14.3278V24.5557H10.7467V8.18506ZM10.7454 16.3701H7.16436V73.6672H10.7454V16.3701ZM3.58203 32.7409H7.1631V73.6674H3.58203V32.7409ZM68.0384 49.1118H53.7142V57.2968H25.0692V65.4821H53.7142V65.4824H68.0384V49.1118ZM14.3278 57.2968H10.7467V73.6674H14.3278V57.2968Z" fill="black" fill-opacity="0.2" style="mix-blend-mode:multiply"/>
<path fill-rule="evenodd" clip-rule="evenodd" d="M68.0425 49.1118H64.4615V65.4824H68.0425V49.1118ZM64.4589 57.2968H57.2968V65.4821H64.4589V57.2968Z" fill="#752012"/>
<path fill-rule="evenodd" clip-rule="evenodd" d="M50.1319 0H10.7402V8.18501H7.16466V16.3703H10.7457V8.1853H50.1319V0ZM7.1634 16.3709H3.58233V32.7415H7.1634V16.3709ZM3.58107 32.7409H0V73.6674H3.58107V32.7409ZM68.0385 73.6679H14.3255V81.853H3.58233V73.6677H14.3225V65.4827H68.0385V73.6679ZM68.04 40.9268H57.2968V49.1121H68.0369V65.4824H71.618V49.1118H68.04V40.9268ZM50.1321 8.18501H53.7132V16.3703H50.1321V8.18501ZM57.2955 16.3709H53.7145V40.9268H57.2955V16.3709Z" fill="black"/>
</svg>
