<svg width="852" height="343" viewBox="0 0 852 343" fill="none" xmlns="http://www.w3.org/2000/svg">
<path d="M828.852 321.069V340.5H22.0612V321.069V318.569H19.5612H2.5V19.1675H19.5612H22.0612V16.6675V2.5H828.852V16.6675V19.1675H831.352H849.5V318.569H831.352H828.852V321.069Z" fill="#351404" stroke="#A6814E" stroke-width="5"/>
<path d="M186.301 169.944V175.5H65.5306V169.944V167.444H63.0306H62.5V60.6228H63.0306H65.5306V58.1228V54.5H186.301V58.1228V60.6228H188.801H189.5V167.444H188.801H186.301V169.944Z" fill="#351404" stroke="#A6814E" stroke-width="5"/>
<path d="M241 84.5V74H250V75.5H244V78.5H250V80H251.5V83H250V84.5H241ZM244 83H248.5V80H244V83ZM256 81.5H257.5V83H256V84.5H253V77H256V81.5ZM263.5 77V84.5H260.5V80H259V78.5H260.5V77H263.5ZM257.5 80H259V81.5H257.5V80ZM269.5 84.5V78.5H266.5V77H275.5V78.5H272.5V84.5H269.5ZM280 81.5H281.5V83H280V84.5H277V77H280V81.5ZM287.5 77V84.5H284.5V80H283V78.5H284.5V77H287.5ZM281.5 80H283V81.5H281.5V80ZM298 74V75.5H290.5V74H298ZM292 81.5H293.5V83H292V84.5H289V77H292V81.5ZM299.5 77V84.5H296.5V80H295V78.5H296.5V77H299.5ZM293.5 80H295V81.5H293.5V80ZM313 84.5V77H316V80H320.5V77H323.5V84.5H320.5V81.5H316V84.5H313ZM326.5 84.5V83H325V81.5H326.5V80H332.5V78.5H326.5V77H334V78.5H335.5V84.5H326.5ZM328 83H332.5V81.5H328V83ZM341.5 78.5V80H340V84.5H337V77H340V78.5H341.5ZM347.5 77V84.5H344.5V80H343V78.5H344.5V77H347.5ZM341.5 80H343V83H341.5V80ZM350.5 84.5V83H349V81.5H350.5V80H356.5V78.5H350.5V77H358V78.5H359.5V84.5H350.5ZM352 83H356.5V81.5H352V83ZM370 74V75.5H362.5V74H370ZM364 81.5H365.5V83H364V84.5H361V77H364V81.5ZM371.5 77V84.5H368.5V80H367V78.5H368.5V77H371.5ZM365.5 80H367V81.5H365.5V80ZM374.5 84.5V77H383.5V80H382V78.5H377.5V84.5H374.5ZM407.5 83H409V86H406V84.5H400V86H397V83H398.5V81.5H400V77H407.5V83ZM401.5 83H404.5V78.5H401.5V83ZM410.5 86V84.5H416.5V83H410.5V81.5H409V77H412V81.5H416.5V77H419.5V84.5H418V86H410.5ZM422.5 86V84.5H428.5V83H422.5V81.5H421V77H424V81.5H428.5V77H431.5V84.5H430V86H422.5ZM443.5 78.5V83H442V84.5H436V86H433V77H436V78.5H437.5V80H436V83H440.5V78.5H437.5V77H442V78.5H443.5ZM448 81.5H449.5V83H448V84.5H445V77H448V81.5ZM455.5 77V84.5H452.5V80H451V78.5H452.5V77H455.5ZM449.5 80H451V81.5H449.5V80ZM458.5 84.5V83H457V81.5H458.5V80H464.5V78.5H458.5V77H466V78.5H467.5V84.5H458.5ZM460 83H464.5V81.5H460V83ZM470.5 84.5V77H479.5V80H478V78.5H473.5V84.5H470.5ZM482.5 84.5V83H481V81.5H482.5V80H488.5V78.5H482.5V77H490V78.5H491.5V84.5H482.5ZM484 83H488.5V81.5H484V83ZM494.5 84.5V83H493V81.5H494.5V80H500.5V78.5H494.5V77H502V78.5H503.5V84.5H494.5ZM496 83H500.5V81.5H496V83ZM515.5 83H517V86H514V84.5H508V86H505V83H506.5V81.5H508V77H515.5V83ZM509.5 83H512.5V78.5H509.5V83ZM539.5 74V75.5H532V78.5H533.5V80H532V83H536.5V78.5H533.5V77H538V78.5H539.5V83H538V84.5H530.5V83H529V75.5H530.5V74H539.5ZM542.5 84.5V83H541V81.5H542.5V80H548.5V78.5H542.5V77H550V78.5H551.5V84.5H542.5ZM544 83H548.5V81.5H544V83ZM562 74V75.5H554.5V74H562ZM556 81.5H557.5V83H556V84.5H553V77H556V81.5ZM563.5 77V84.5H560.5V80H559V78.5H560.5V77H563.5ZM557.5 80H559V81.5H557.5V80Z" fill="white"/>
</svg>
