<svg width="852" height="343" viewBox="0 0 852 343" fill="none" xmlns="http://www.w3.org/2000/svg">
<path d="M828.852 321.069V340.5H22.0612V321.069V318.569H19.5612H2.5V19.1675H19.5612H22.0612V16.6675V2.5H828.852V16.6675V19.1675H831.352H849.5V318.569H831.352H828.852V321.069Z" fill="#351404" stroke="#A6814E" stroke-width="5"/>
<path d="M186.301 169.944V175.5H65.5306V169.944V167.444H63.0306H62.5V60.6228H63.0306H65.5306V58.1228V54.5H186.301V58.1228V60.6228H188.801H189.5V167.444H188.801H186.301V169.944Z" fill="#351404" stroke="#A6814E" stroke-width="5"/>
<path d="M241 84.5V83H242.5V81.5H244V80H241V75.5H242.5V74H251.5V84.5H248.5V81.5H245.5V84.5H241ZM245.5 80H248.5V75.5H244V78.5H245.5V80ZM254.5 84.5V83H253V81.5H254.5V80H260.5V78.5H254.5V77H262V78.5H263.5V84.5H254.5ZM256 83H260.5V81.5H256V83ZM266.5 84.5V83H265V81.5H266.5V80H272.5V78.5H266.5V77H274V78.5H275.5V84.5H266.5ZM268 83H272.5V81.5H268V83ZM277 84.5V81.5H278.5V80H277V78.5H278.5V77H287.5V84.5H284.5V81.5H280V84.5H277ZM280 80H284.5V78.5H280V80ZM311.5 83H313V86H310V84.5H304V86H301V83H302.5V81.5H304V77H311.5V83ZM305.5 83H308.5V78.5H305.5V83ZM314.5 84.5V83H313V81.5H314.5V80H320.5V78.5H314.5V77H322V78.5H323.5V84.5H314.5ZM316 83H320.5V81.5H316V83ZM326.5 84.5V83H325V81.5H326.5V80H332.5V78.5H326.5V77H334V78.5H335.5V84.5H326.5ZM328 83H332.5V81.5H328V83ZM353.5 78.5V80H352V84.5H349V77H352V78.5H353.5ZM359.5 77V84.5H356.5V80H355V78.5H356.5V77H359.5ZM353.5 80H355V83H353.5V80ZM362.5 86V84.5H368.5V83H362.5V81.5H361V77H364V81.5H368.5V77H371.5V84.5H370V86H362.5ZM374.5 86V84.5H380.5V83H374.5V81.5H373V77H376V81.5H380.5V77H383.5V84.5H382V86H374.5ZM401.5 84.5V78.5H398.5V77H407.5V78.5H404.5V84.5H401.5ZM410.5 84.5V83H409V81.5H412V83H416.5V81.5H413.5V80H416.5V78.5H412V80H409V78.5H410.5V77H418V78.5H419.5V83H418V84.5H410.5ZM421 84.5V77H424V80H428.5V77H431.5V84.5H428.5V81.5H424V84.5H421ZM434.5 84.5V83H433V81.5H436V83H440.5V81.5H437.5V80H440.5V78.5H436V80H433V78.5H434.5V77H442V78.5H443.5V83H442V84.5H434.5ZM446.5 84.5V77H455.5V80H454V78.5H449.5V84.5H446.5ZM470.5 84.5V83H469V78.5H470.5V77H478V78.5H479.5V80H476.5V78.5H472V83H476.5V81.5H479.5V83H478V84.5H470.5ZM482.5 84.5V83H481V81.5H482.5V80H488.5V78.5H482.5V77H490V78.5H491.5V84.5H482.5ZM484 83H488.5V81.5H484V83ZM503.5 78.5V83H502V84.5H496V86H493V77H496V78.5H497.5V80H496V83H500.5V78.5H497.5V77H502V78.5H503.5ZM509.5 78.5V80H508V84.5H505V77H508V78.5H509.5ZM515.5 77V84.5H512.5V80H511V78.5H512.5V77H515.5ZM509.5 80H511V83H509.5V80ZM518.5 84.5V83H517V81.5H518.5V80H524.5V78.5H518.5V77H526V78.5H527.5V84.5H518.5ZM520 83H524.5V81.5H520V83ZM530.5 84.5V77H539.5V80H538V78.5H533.5V84.5H530.5ZM548.5 84.5V81.5H542.5V80H541V77H544V80H548.5V77H551.5V84.5H548.5ZM556 81.5H557.5V83H556V84.5H553V77H556V81.5ZM563.5 77V84.5H560.5V80H559V78.5H560.5V77H563.5ZM557.5 80H559V81.5H557.5V80ZM565 84.5V77H568V80H572.5V77H575.5V84.5H572.5V81.5H568V84.5H565ZM599.5 74V75.5H592V78.5H593.5V80H592V83H596.5V78.5H593.5V77H598V78.5H599.5V83H598V84.5H590.5V83H589V75.5H590.5V74H599.5ZM604 81.5H605.5V83H604V84.5H601V77H604V81.5ZM611.5 77V84.5H608.5V80H607V78.5H608.5V77H611.5ZM605.5 80H607V81.5H605.5V80ZM632.5 84.5V81.5H626.5V80H625V77H628V80H632.5V77H635.5V84.5H632.5ZM638.5 84.5V83H637V81.5H638.5V80H644.5V78.5H638.5V77H646V78.5H647.5V84.5H638.5ZM640 83H644.5V81.5H640V83ZM653.5 78.5V80H652V84.5H649V77H652V78.5H653.5ZM659.5 77V84.5H656.5V80H655V78.5H656.5V77H659.5ZM653.5 80H655V83H653.5V80ZM671.5 83H673V86H670V84.5H664V86H661V83H662.5V81.5H664V77H671.5V83ZM665.5 83H668.5V78.5H665.5V83ZM241 106.5V105H242.5V103.5H244V102H242.5V100.5H241V99H244V100.5H245.5V102H247V100.5H248.5V99H251.5V100.5H250V102H248.5V103.5H250V105H251.5V106.5H248.5V105H247V103.5H245.5V105H244V106.5H241ZM263.5 99V103.5H262V105H260.5V108H257.5V105H256V103.5H254.5V99H257.5V103.5H260.5V99H263.5ZM265 106.5V99H268V102H272.5V99H275.5V106.5H272.5V103.5H268V106.5H265ZM293.5 106.5V100.5H290.5V99H299.5V100.5H296.5V106.5H293.5ZM302.5 106.5V105H301V100.5H302.5V99H310V100.5H311.5V105H310V106.5H302.5ZM304 105H308.5V100.5H304V105ZM302.5 103.5H310V102H302.5V103.5ZM323.5 100.5V105H322V106.5H316V108H313V99H316V100.5H317.5V102H316V105H320.5V100.5H317.5V99H322V100.5H323.5ZM325 106.5V105H326.5V103.5H328V102H326.5V100.5H325V99H328V100.5H329.5V102H331V100.5H332.5V99H335.5V100.5H334V102H332.5V103.5H334V105H335.5V106.5H332.5V105H331V103.5H329.5V105H328V106.5H325ZM338.5 106.5V105H337V100.5H338.5V99H346V100.5H347.5V105H346V106.5H338.5ZM340 105H344.5V100.5H340V105ZM338.5 103.5H346V102H338.5V103.5ZM350.5 106.5V105H349V100.5H350.5V99H358V100.5H359.5V105H358V106.5H350.5ZM352 105H356.5V100.5H352V105ZM350.5 103.5H358V102H350.5V103.5ZM374.5 106.5V105H373V100.5H374.5V99H382V100.5H383.5V105H382V106.5H374.5ZM376 105H380.5V100.5H376V105ZM395.5 99V106.5H392.5V100.5H389.5V105H388V106.5H385V103.5H386.5V102H388V99H395.5ZM398.5 106.5V105H397V100.5H398.5V99H406V100.5H407.5V105H406V106.5H398.5ZM400 105H404.5V100.5H400V105ZM409 106.5V105H410.5V103.5H412V102H410.5V100.5H409V99H412V100.5H413.5V102H415V100.5H416.5V99H419.5V100.5H418V102H416.5V103.5H418V105H419.5V106.5H416.5V105H415V103.5H413.5V105H412V106.5H409ZM422.5 106.5V105H421V100.5H422.5V99H430V100.5H431.5V105H430V106.5H422.5ZM424 105H428.5V100.5H424V105ZM443.5 105H445V108H442V106.5H436V108H433V105H434.5V103.5H436V99H443.5V105ZM437.5 105H440.5V100.5H437.5V105ZM461.5 106.5V100.5H458.5V99H467.5V100.5H464.5V106.5H461.5ZM470.5 108V106.5H476.5V105H470.5V103.5H469V99H472V103.5H476.5V99H479.5V106.5H478V108H470.5ZM482.5 106.5V105H481V100.5H482.5V99H490V100.5H491.5V102H488.5V100.5H484V105H488.5V103.5H491.5V105H490V106.5H482.5ZM503.5 99V106.5H500.5V100.5H497.5V105H496V106.5H493V103.5H494.5V102H496V99H503.5ZM505 106.5V99H508V102H514V103.5H515.5V105H514V106.5H505ZM508 105H512.5V103.5H508V105ZM517 106.5V103.5H518.5V102H517V100.5H518.5V99H527.5V106.5H524.5V103.5H520V106.5H517ZM520 102H524.5V100.5H520V102ZM542.5 106.5V105H541V103.5H544V105H548.5V103.5H545.5V102H548.5V100.5H544V102H541V100.5H542.5V99H550V100.5H551.5V102H550V103.5H551.5V105H550V106.5H542.5ZM554.5 106.5V105H553V103.5H554.5V102H560.5V100.5H554.5V99H562V100.5H563.5V106.5H554.5ZM556 105H560.5V103.5H556V105ZM577 106.5V99H578.5V102H580V100.5H581.5V99H586V100.5H587.5V105H586V106.5H581.5V105H580V103.5H578.5V106.5H577ZM583 105H584.5V100.5H583V105ZM590.5 108V106.5H596.5V105H590.5V103.5H589V99H592V103.5H596.5V99H599.5V106.5H598V108H590.5Z" fill="white"/>
</svg>
