<svg width="852" height="343" viewBox="0 0 852 343" fill="none" xmlns="http://www.w3.org/2000/svg">
<path d="M828.852 321.069V340.5H22.0612V321.069V318.569H19.5612H2.5V19.1675H19.5612H22.0612V16.6675V2.5H828.852V16.6675V19.1675H831.352H849.5V318.569H831.352H828.852V321.069Z" fill="#351404" stroke="#A6814E" stroke-width="5"/>
<path d="M186.301 169.944V175.5H65.5306V169.944V167.444H63.0306H62.5V60.6228H63.0306H65.5306V58.1228V54.5H186.301V58.1228V60.6228H188.801H189.5V167.444H188.801H186.301V169.944Z" fill="#351404" stroke="#A6814E" stroke-width="5"/>
<path d="M241 84.5V81.5H242.5V80H244V78.5H242.5V77H241V74H244V77H245.5V78.5H247V77H248.5V74H251.5V77H250V78.5H248.5V80H250V81.5H251.5V84.5H248.5V81.5H247V80H245.5V81.5H244V84.5H241ZM254.5 84.5V83H253V78.5H254.5V77H262V78.5H263.5V83H262V84.5H254.5ZM256 83H260.5V78.5H256V83ZM254.5 81.5H262V80H254.5V81.5ZM266.5 84.5V83H265V78.5H266.5V77H274V78.5H275.5V83H274V84.5H266.5ZM268 83H272.5V78.5H268V83ZM266.5 81.5H274V80H266.5V81.5ZM277 84.5V83H278.5V81.5H280V80H278.5V78.5H277V77H280V78.5H281.5V80H283V78.5H284.5V77H287.5V78.5H286V80H284.5V81.5H286V83H287.5V84.5H284.5V83H283V81.5H281.5V83H280V84.5H277ZM302.5 84.5V83H301V81.5H304V83H308.5V81.5H305.5V80H308.5V78.5H304V80H301V78.5H302.5V77H310V78.5H311.5V83H310V84.5H302.5ZM313 84.5V77H316V80H320.5V77H323.5V84.5H320.5V81.5H316V84.5H313ZM335.5 83H337V86H334V84.5H328V86H325V83H326.5V81.5H328V77H335.5V83ZM329.5 83H332.5V78.5H329.5V83ZM350.5 84.5V83H349V78.5H350.5V77H358V78.5H359.5V80H356.5V78.5H352V83H356.5V81.5H359.5V83H358V84.5H350.5ZM362.5 84.5V83H361V81.5H362.5V80H368.5V78.5H362.5V77H370V78.5H371.5V84.5H362.5ZM364 83H368.5V81.5H364V83ZM383.5 78.5V83H382V84.5H376V86H373V77H376V78.5H377.5V80H376V83H380.5V78.5H377.5V77H382V78.5H383.5ZM389.5 78.5V80H388V84.5H385V77H388V78.5H389.5ZM395.5 77V84.5H392.5V80H391V78.5H392.5V77H395.5ZM389.5 80H391V83H389.5V80ZM398.5 84.5V83H397V81.5H398.5V80H404.5V78.5H398.5V77H406V78.5H407.5V84.5H398.5ZM400 83H404.5V81.5H400V83ZM410.5 84.5V77H419.5V80H418V78.5H413.5V84.5H410.5ZM428.5 84.5V81.5H422.5V80H421V77H424V80H428.5V77H431.5V84.5H428.5ZM436 81.5H437.5V83H436V84.5H433V77H436V81.5ZM443.5 77V84.5H440.5V80H439V78.5H440.5V77H443.5ZM437.5 80H439V81.5H437.5V80ZM445 84.5V77H448V80H452.5V77H455.5V84.5H452.5V81.5H448V84.5H445ZM469 84.5V77H470.5V80H472V78.5H473.5V77H478V78.5H479.5V83H478V84.5H473.5V83H472V81.5H470.5V84.5H469ZM475 83H476.5V78.5H475V83ZM482.5 86V84.5H488.5V83H482.5V81.5H481V77H484V81.5H488.5V77H491.5V84.5H490V86H482.5ZM505 84.5V83H506.5V81.5H508V80H506.5V78.5H505V77H508V78.5H509.5V80H511V78.5H512.5V77H515.5V78.5H514V80H512.5V81.5H514V83H515.5V84.5H512.5V83H511V81.5H509.5V83H508V84.5H505ZM520 81.5H521.5V83H520V84.5H517V77H520V81.5ZM527.5 77V84.5H524.5V80H523V78.5H524.5V77H527.5ZM521.5 80H523V81.5H521.5V80ZM538 74V75.5H530.5V74H538ZM532 81.5H533.5V83H532V84.5H529V77H532V81.5ZM539.5 77V84.5H536.5V80H535V78.5H536.5V77H539.5ZM533.5 80H535V81.5H533.5V80ZM541 84.5V81.5H542.5V80H541V77H544V80H545.5V77H547V80H548.5V77H551.5V80H550V81.5H551.5V84.5H548.5V81.5H547V84.5H545.5V81.5H544V84.5H541ZM575.5 74V75.5H568V78.5H569.5V80H568V83H572.5V78.5H569.5V77H574V78.5H575.5V83H574V84.5H566.5V83H565V75.5H566.5V74H575.5ZM578.5 84.5V83H577V81.5H578.5V80H584.5V78.5H578.5V77H586V78.5H587.5V84.5H578.5ZM580 83H584.5V81.5H580V83ZM598 74V75.5H590.5V74H598ZM592 81.5H593.5V83H592V84.5H589V77H592V81.5ZM599.5 77V84.5H596.5V80H595V78.5H596.5V77H599.5ZM593.5 80H595V81.5H593.5V80ZM611.5 83H613V86H610V84.5H604V86H601V83H602.5V81.5H604V77H611.5V83ZM605.5 83H608.5V78.5H605.5V83ZM614.5 84.5V83H613V81.5H614.5V80H620.5V78.5H614.5V77H622V78.5H623.5V84.5H614.5ZM616 83H620.5V81.5H616V83ZM626.5 84.5V77H635.5V80H634V78.5H629.5V84.5H626.5ZM659.5 74V75.5H652V78.5H653.5V80H652V83H656.5V78.5H653.5V77H658V78.5H659.5V83H658V84.5H650.5V83H649V75.5H650.5V74H659.5ZM664 81.5H665.5V83H664V84.5H661V77H664V81.5ZM671.5 77V84.5H668.5V80H667V78.5H668.5V77H671.5ZM665.5 80H667V81.5H665.5V80ZM683.5 77V84.5H680.5V78.5H677.5V83H676V84.5H673V81.5H674.5V80H676V77H683.5ZM686.5 84.5V83H685V81.5H688V83H692.5V81.5H689.5V80H692.5V78.5H688V80H685V78.5H686.5V77H694V78.5H695.5V83H694V84.5H686.5ZM698.5 84.5V83H697V81.5H700V83H704.5V81.5H701.5V80H704.5V78.5H700V80H697V78.5H698.5V77H706V78.5H707.5V83H706V84.5H698.5ZM248.5 106.5V103.5H242.5V102H241V99H244V102H248.5V99H251.5V106.5H248.5ZM256 103.5H257.5V105H256V106.5H253V99H256V103.5ZM263.5 99V106.5H260.5V102H259V100.5H260.5V99H263.5ZM257.5 102H259V103.5H257.5V102ZM277 106.5V105H278.5V103.5H280V102H278.5V100.5H277V99H280V100.5H281.5V102H283V100.5H284.5V99H287.5V100.5H286V102H284.5V103.5H286V105H287.5V106.5H284.5V105H283V103.5H281.5V105H280V106.5H277ZM290.5 106.5V105H289V103.5H290.5V102H296.5V100.5H290.5V99H298V100.5H299.5V106.5H290.5ZM292 105H296.5V103.5H292V105ZM302.5 106.5V105H301V103.5H302.5V102H308.5V100.5H302.5V99H310V100.5H311.5V106.5H302.5ZM304 105H308.5V103.5H304V105ZM313 106.5V99H316V102H320.5V99H323.5V106.5H320.5V103.5H316V106.5H313ZM326.5 106.5V105H325V103.5H326.5V102H332.5V100.5H326.5V99H334V100.5H335.5V106.5H326.5ZM328 105H332.5V103.5H328V105ZM338.5 106.5V105H337V103.5H338.5V102H344.5V100.5H338.5V99H346V100.5H347.5V106.5H338.5ZM340 105H344.5V103.5H340V105ZM350.5 106.5V105H349V100.5H350.5V99H358V100.5H359.5V102H356.5V100.5H352V105H356.5V103.5H359.5V105H358V106.5H350.5ZM376 103.5H377.5V105H376V106.5H373V99H376V103.5ZM383.5 99V106.5H380.5V102H379V100.5H380.5V99H383.5ZM377.5 102H379V103.5H377.5V102ZM395.5 100.5V105H394V106.5H388V108H385V99H388V100.5H389.5V102H388V105H392.5V100.5H389.5V99H394V100.5H395.5ZM398.5 106.5V105H397V100.5H398.5V99H406V100.5H407.5V102H404.5V100.5H400V105H404.5V103.5H407.5V105H406V106.5H398.5ZM410.5 106.5V105H409V103.5H412V105H416.5V103.5H413.5V102H416.5V100.5H412V102H409V100.5H410.5V99H418V100.5H419.5V105H418V106.5H410.5ZM421 106.5V99H424V102H428.5V99H431.5V106.5H428.5V103.5H424V106.5H421ZM445 106.5V99H446.5V102H448V100.5H449.5V99H454V100.5H455.5V105H454V106.5H449.5V105H448V103.5H446.5V106.5H445ZM451 105H452.5V100.5H451V105ZM461.5 100.5V102H460V106.5H457V99H460V100.5H461.5ZM467.5 99V106.5H464.5V102H463V100.5H464.5V99H467.5ZM461.5 102H463V105H461.5V102Z" fill="white"/>
</svg>
