<svg width="254" height="38" viewBox="0 0 254 38" fill="none" xmlns="http://www.w3.org/2000/svg">
<path d="M45.2296 24.3316V14.3214H41.8929V12.6531H51.9031V14.3214H48.5663V24.3316H45.2296ZM55.2398 24.3316V22.6633H53.5714V17.6582H55.2398V15.9898H63.5816V17.6582H65.25V22.6633H63.5816V24.3316H55.2398ZM56.9082 22.6633H61.9133V17.6582H56.9082V22.6633ZM66.9184 24.3316V15.9898H76.9286V17.6582H78.5969V19.3265H76.9286V20.9949H78.5969V22.6633H76.9286V24.3316H66.9184ZM70.2551 19.3265H75.2602V17.6582H70.2551V19.3265ZM70.2551 22.6633H75.2602V20.9949H70.2551V22.6633ZM88.6071 24.3316V20.9949H81.9337V19.3265H80.2653V15.9898H83.602V19.3265H88.6071V15.9898H91.9439V24.3316H88.6071ZM96.949 20.9949H98.6173V22.6633H96.949V24.3316H93.6122V15.9898H96.949V20.9949ZM105.291 15.9898V24.3316H101.954V19.3265H100.286V17.6582H101.954V15.9898H105.291ZM98.6173 19.3265H100.286V20.9949H98.6173V19.3265ZM116.969 12.6531V14.3214H108.628V12.6531H116.969ZM110.296 20.9949H111.964V22.6633H110.296V24.3316H106.959V15.9898H110.296V20.9949ZM118.638 15.9898V24.3316H115.301V19.3265H113.633V17.6582H115.301V15.9898H118.638ZM111.964 19.3265H113.633V20.9949H111.964V19.3265ZM121.974 24.3316V15.9898H131.985V19.3265H130.316V17.6582H125.311V24.3316H121.974ZM158.679 22.6633H160.347V26H157.01V24.3316H150.337V26H147V22.6633H148.668V20.9949H150.337V15.9898H158.679V22.6633ZM152.005 22.6633H155.342V17.6582H152.005V22.6633ZM162.015 24.3316V22.6633H160.347V20.9949H162.015V19.3265H168.689V17.6582H162.015V15.9898H170.357V17.6582H172.026V24.3316H162.015ZM163.684 22.6633H168.689V20.9949H163.684V22.6633ZM185.372 17.6582V22.6633H183.704V24.3316H177.031V26H173.694V15.9898H177.031V17.6582H178.699V19.3265H177.031V22.6633H182.036V17.6582H178.699V15.9898H183.704V17.6582H185.372ZM187.041 24.3316V15.9898H190.378V19.3265H195.383V15.9898H198.719V24.3316H195.383V20.9949H190.378V24.3316H187.041ZM202.056 24.3316V22.6633H200.388V20.9949H202.056V19.3265H208.73V17.6582H202.056V15.9898H210.398V17.6582H212.066V24.3316H202.056ZM203.724 22.6633H208.73V20.9949H203.724V22.6633ZM228.75 26V24.3316H235.423V22.6633H228.75V20.9949H227.082V15.9898H230.418V20.9949H235.423V15.9898H238.76V24.3316H237.092V26H228.75ZM242.097 26V24.3316H248.77V22.6633H242.097V20.9949H240.429V15.9898H243.765V20.9949H248.77V15.9898H252.107V24.3316H250.439V26H242.097Z" fill="#A6814E"/>
<path d="M1.25 6.7078H2.01531V5.4578V5.25H31.2755V5.4578V6.7078H32.0833V30.8318H31.2755V32.0818V32.75H2.01531V32.0818V30.8318H1.25V6.7078Z" fill="#A6814E" stroke="#351404" stroke-width="2.5"/>
<path d="M10.3265 24.3316V12.6531H22.0051V14.3214H13.6633V17.6582H20.3367V19.3265H13.6633V22.6633H22.0051V24.3316H10.3265Z" fill="white"/>
</svg>
