<svg width="980" height="672" viewBox="0 0 980 672" fill="none" xmlns="http://www.w3.org/2000/svg">
<g clip-path="url(#clip0_81_5636)">
<rect width="979.525" height="672" transform="matrix(-1 0 0 1 979.525 0)" fill="black"/>
<g opacity="0.4" filter="url(#filter0_f_81_5636)">
<rect x="155" y="213" width="670" height="53.7548" rx="26.8774" fill="white"/>
</g>
<g filter="url(#filter1_d_81_5636)">
<path d="M200.315 255.807V224.521H189.886V219.307H221.171V224.521H210.743V255.807H200.315ZM231.6 255.807V250.592H226.386V234.95H231.6V229.735H257.671V234.95H262.885V250.592H257.671V255.807H231.6ZM236.814 250.592H252.457V234.95H236.814V250.592ZM273.314 255.807V229.735H304.599V240.164H299.385V234.95H283.742V255.807H273.314ZM346.313 229.735V255.807H335.884V234.95H325.456V250.592H320.242V255.807H309.813V245.378H315.027V240.164H320.242V229.735H346.313ZM450.597 234.95V240.164H445.383V255.807H434.954V229.735H445.383V234.95H450.597ZM471.454 229.735V255.807H461.025V240.164H455.811V234.95H461.025V229.735H471.454ZM450.597 240.164H455.811V250.592H450.597V240.164ZM554.881 250.592H560.095V261.021H549.667V255.807H528.81V261.021H518.382V250.592H523.596V245.378H528.81V229.735H554.881V250.592ZM534.024 250.592H544.453V234.95H534.024V250.592ZM565.31 261.021V255.807H586.167V250.592H565.31V245.378H560.095V229.735H570.524V245.378H586.167V229.735H596.595V255.807H591.381V261.021H565.31ZM607.023 261.021V255.807H627.88V250.592H607.023V245.378H601.809V229.735H612.238V245.378H627.88V229.735H638.309V255.807H633.095V261.021H607.023ZM648.737 255.807V250.592H643.523V234.95H648.737V229.735H674.808V234.95H680.022V240.164H669.594V234.95H653.951V250.592H669.594V245.378H680.022V250.592H674.808V255.807H648.737ZM721.736 229.735V255.807H711.308V234.95H700.879V250.592H695.665V255.807H685.237V245.378H690.451V240.164H695.665V229.735H721.736ZM732.165 255.807V250.592H726.95V245.378H732.165V240.164H753.022V234.95H732.165V229.735H758.236V234.95H763.45V255.807H732.165ZM737.379 250.592H753.022V245.378H737.379V250.592ZM773.878 255.807V250.592H768.664V245.378H773.878V240.164H794.735V234.95H773.878V229.735H799.949V234.95H805.164V255.807H773.878ZM779.093 250.592H794.735V245.378H779.093V250.592Z" fill="white"/>
</g>
<g filter="url(#filter2_d_81_5636)">
<path d="M325.188 383.126V369.58H320.673V367.322H334.219V369.58H329.704V383.126H325.188ZM338.734 383.126V380.869H336.477V378.611H338.734V376.353H347.765V374.096H338.734V371.838H350.023V374.096H352.281V383.126H338.734ZM340.992 380.869H347.765V378.611H340.992V380.869ZM388.404 380.869H390.662V385.384H386.146V383.126H377.115V385.384H372.6V380.869H374.858V378.611H377.115V371.838H388.404V380.869ZM379.373 380.869H383.888V374.096H379.373V380.869ZM392.919 383.126V380.869H390.662V378.611H392.919V376.353H401.95V374.096H392.919V371.838H404.208V374.096H406.465V383.126H392.919ZM395.177 380.869H401.95V378.611H395.177V380.869ZM408.723 383.126V380.869H410.981V378.611H413.239V376.353H410.981V374.096H408.723V371.838H413.239V374.096H415.496V376.353H417.754V374.096H420.012V371.838H424.527V374.096H422.269V376.353H420.012V378.611H422.269V380.869H424.527V383.126H420.012V380.869H417.754V378.611H415.496V380.869H413.239V383.126H408.723ZM431.3 378.611H433.558V380.869H431.3V383.126H426.785V371.838H431.3V378.611ZM442.589 371.838V383.126H438.073V376.353H435.816V374.096H438.073V371.838H442.589ZM433.558 376.353H435.816V378.611H433.558V376.353ZM444.846 383.126V371.838H449.362V376.353H456.135V371.838H460.65V383.126H456.135V378.611H449.362V383.126H444.846ZM487.743 383.126V374.096H483.227V371.838H496.774V374.096H492.258V383.126H487.743ZM501.289 383.126V380.869H499.031V374.096H501.289V371.838H512.577V374.096H514.835V380.869H512.577V383.126H501.289ZM503.547 380.869H510.32V374.096H503.547V380.869ZM519.351 383.126V371.838H532.897V376.353H530.639V374.096H523.866V383.126H519.351ZM550.958 371.838V383.126H546.443V374.096H541.928V380.869H539.67V383.126H535.154V378.611H537.412V376.353H539.67V371.838H550.958ZM555.474 383.126V380.869H553.216V374.096H555.474V371.838H566.762V374.096H569.02V380.869H566.762V383.126H555.474ZM557.731 380.869H564.505V374.096H557.731V380.869ZM571.278 383.126V380.869H573.535V378.611H575.793V376.353H573.535V374.096H571.278V371.838H575.793V374.096H578.051V376.353H580.308V374.096H582.566V371.838H587.082V374.096H584.824V376.353H582.566V378.611H584.824V380.869H587.082V383.126H582.566V380.869H580.308V378.611H578.051V380.869H575.793V383.126H571.278ZM609.659 385.384V383.126H618.689V380.869H609.659V378.611H607.401V371.838H611.916V378.611H618.689V371.838H623.205V383.126H620.947V385.384H609.659ZM627.72 385.384V383.126H636.751V380.869H627.72V378.611H625.463V371.838H629.978V378.611H636.751V371.838H641.266V383.126H639.009V385.384H627.72ZM648.04 378.611V376.353H652.555V374.096H654.813V371.838H648.04V374.096H643.524V369.58H645.782V367.322H657.07V369.58H659.328V374.096H657.07V376.353H654.813V378.611H648.04ZM648.04 383.126V380.869H654.813V383.126H648.04Z" fill="white"/>
</g>
<path fill-rule="evenodd" clip-rule="evenodd" d="M403.989 222.032H419.04V256.435H403.99V256.435H401.84V224.183H403.989V222.032ZM416.895 256.435H403.994V258.585H416.895V256.435ZM399.689 226.332H401.839V254.285H399.689V226.332ZM427.644 243.533H425.493V249.984H427.644V243.533ZM423.343 226.332H425.493V249.984H423.343V226.332ZM423.342 224.183H421.192V254.285H423.342V224.183ZM419.041 224.183H421.191V256.435H419.041V224.183Z" fill="#FAE6CE"/>
<path fill-rule="evenodd" clip-rule="evenodd" d="M414.745 222.032H403.994V224.182H414.745V222.032ZM401.84 226.332H399.689V243.534H401.84V226.332ZM401.841 224.183H406.141V226.333H401.841V224.183ZM425.493 226.332H423.343V243.534H425.493V226.332ZM421.192 224.183H423.342V226.333H421.192V224.183ZM425.493 245.684H423.343V247.834H425.493V245.684ZM421.192 243.533H423.342V254.284H421.192V243.533ZM421.191 254.284H414.741V256.435H421.191V254.284ZM403.989 256.435H416.89V258.585H403.989V256.435Z" fill="#714A1C" fill-opacity="0.25" style="mix-blend-mode:multiply"/>
<path fill-rule="evenodd" clip-rule="evenodd" d="M414.745 226.332H416.895V228.482H414.745V226.332ZM412.593 226.332H406.143V228.482H412.593V226.332ZM406.141 228.483H403.991V230.633H406.141V228.483ZM427.644 243.533H425.493V245.683H427.644V243.533ZM401.84 230.632H403.99V232.782H401.84V230.632Z" fill="#FFFCF9" fill-opacity="0.7" style="mix-blend-mode:lighten"/>
<path fill-rule="evenodd" clip-rule="evenodd" d="M416.895 241.382H414.745V243.532H416.895V241.382ZM416.896 245.682H414.745V247.833H416.896V245.682ZM412.594 243.533H414.745V245.683H412.594V243.533ZM412.594 241.382H410.444V243.532H412.594V241.382ZM410.444 245.682H412.594V247.833H410.444V245.682ZM410.443 252.134H406.143V254.284H410.443V252.134ZM406.142 241.382H408.292V243.532H406.142V241.382ZM406.142 245.683H403.997V243.533H406.147V245.682H408.292V247.833H406.142V245.683ZM403.996 241.382H401.846V243.532H403.996V241.382ZM401.846 245.682H403.996V247.833H401.846V245.682Z" fill="black"/>
<path fill-rule="evenodd" clip-rule="evenodd" d="M410.443 241.382H408.293V243.533H410.443V241.382ZM412.594 243.533H410.444V245.683H412.594V243.533ZM401.84 243.533H403.99V245.683H401.84V243.533Z" fill="#714A1C" fill-opacity="0.25" style="mix-blend-mode:multiply"/>
<path fill-rule="evenodd" clip-rule="evenodd" d="M419.046 219.881H403.995V222.031H419.046V219.881ZM419.042 222.032H423.342V224.182H419.042V222.032ZM425.493 224.181H423.343V226.331H425.493V224.181ZM427.645 243.533H429.795V249.984H427.645V243.533ZM427.644 249.984V252.134H425.493V254.284H423.343V252.134H423.344V249.984H427.644ZM421.192 254.284H423.342V256.435H421.192V254.284ZM401.84 222.032H403.99V224.182H401.84V222.032ZM401.84 224.181H399.689V226.331H401.84V224.181ZM397.544 226.332H399.695V254.284H401.84V256.435H399.689V254.284H397.544V226.332ZM421.191 256.434H416.891V258.584H421.191V256.434ZM403.994 258.585H416.896V260.735H403.994V258.585ZM401.84 256.434H403.99V258.584H401.84V256.434ZM427.644 226.332H425.494V243.534H427.644V226.332ZM423.343 243.533H425.493V245.683H423.343V243.533Z" fill="black"/>
<path fill-rule="evenodd" clip-rule="evenodd" d="M363.565 222.032H378.616V256.435H363.566V256.435H361.416V224.183H363.565V222.032ZM376.471 256.435H363.57V258.585H376.471V256.435ZM359.265 226.332H361.415V254.285H359.265V226.332ZM387.22 243.533H385.07V249.984H387.22V243.533ZM382.919 226.332H385.069V249.984H382.919V226.332ZM382.918 224.183H380.768V254.285H382.918V224.183ZM378.617 224.183H380.767V256.435H378.617V224.183Z" fill="#FAE6CE"/>
<path fill-rule="evenodd" clip-rule="evenodd" d="M374.321 222.032H363.57V224.182H374.321V222.032ZM361.416 226.332H359.266V243.534H361.416V226.332ZM361.417 224.183H365.717V226.333H361.417V224.183ZM385.069 226.332H382.919V243.534H385.069V226.332ZM380.768 224.183H382.918V226.333H380.768V224.183ZM385.069 245.684H382.919V247.834H385.069V245.684ZM380.768 243.533H382.918V254.284H380.768V243.533ZM380.768 254.284H374.317V256.435H380.768V254.284ZM363.565 256.435H376.466V258.585H363.565V256.435Z" fill="#714A1C" fill-opacity="0.25" style="mix-blend-mode:multiply"/>
<path fill-rule="evenodd" clip-rule="evenodd" d="M374.321 226.332H376.471V228.482H374.321V226.332ZM372.17 226.332H365.719V228.482H372.17V226.332ZM365.717 228.483H363.567V230.633H365.717V228.483ZM387.22 243.533H385.07V245.683H387.22V243.533ZM361.416 230.632H363.566V232.782H361.416V230.632Z" fill="#FFFCF9" fill-opacity="0.7" style="mix-blend-mode:lighten"/>
<path fill-rule="evenodd" clip-rule="evenodd" d="M376.472 241.382H374.321V243.532H376.472V241.382ZM376.472 245.682H374.321V247.833H376.472V245.682ZM372.171 243.533H374.321V245.683H372.171V243.533ZM372.17 241.382H370.02V243.532H372.17V241.382ZM370.02 245.682H372.17V247.833H370.02V245.682ZM370.019 252.134H365.719V254.284H370.019V252.134ZM365.718 241.382H367.868V243.532H365.718V241.382ZM365.718 245.683H363.573V243.533H365.723V245.682H367.868V247.833H365.718V245.683ZM363.572 241.382H361.422V243.532H363.572V241.382ZM361.422 245.682H363.572V247.833H361.422V245.682Z" fill="black"/>
<path fill-rule="evenodd" clip-rule="evenodd" d="M370.019 241.382H367.869V243.533H370.019V241.382ZM372.17 243.533H370.02V245.683H372.17V243.533ZM361.416 243.533H363.566V245.683H361.416V243.533Z" fill="#714A1C" fill-opacity="0.25" style="mix-blend-mode:multiply"/>
<path fill-rule="evenodd" clip-rule="evenodd" d="M378.623 219.881H363.571V222.031H378.623V219.881ZM378.618 222.032H382.919V224.182H378.618V222.032ZM385.069 224.181H382.919V226.331H385.069V224.181ZM387.221 243.533H389.371V249.984H387.221V243.533ZM387.22 249.984V252.134H385.069V254.284H382.919V252.134H382.92V249.984H387.22ZM380.768 254.284H382.919V256.435H380.768V254.284ZM361.416 222.032H363.567V224.182H361.416V222.032ZM361.416 224.181H359.266V226.331H361.416V224.181ZM357.121 226.332H359.271V254.284H361.416V256.435H359.266V254.284H357.121V226.332ZM380.768 256.434H376.467V258.584H380.768V256.434ZM363.571 258.585H376.472V260.735H363.571V258.585ZM361.416 256.434H363.567V258.584H361.416V256.434ZM387.22 226.332H385.07V243.534H387.22V226.332ZM382.919 243.533H385.069V245.683H382.919V243.533Z" fill="black"/>
</g>
<defs>
<filter id="filter0_f_81_5636" x="-23.5821" y="34.4179" width="1027.16" height="410.919" filterUnits="userSpaceOnUse" color-interpolation-filters="sRGB">
<feFlood flood-opacity="0" result="BackgroundImageFix"/>
<feBlend mode="normal" in="SourceGraphic" in2="BackgroundImageFix" result="shape"/>
<feGaussianBlur stdDeviation="89.291" result="effect1_foregroundBlur_81_5636"/>
</filter>
<filter id="filter1_d_81_5636" x="175.264" y="206.406" width="644.521" height="70.9562" filterUnits="userSpaceOnUse" color-interpolation-filters="sRGB">
<feFlood flood-opacity="0" result="BackgroundImageFix"/>
<feColorMatrix in="SourceAlpha" type="matrix" values="0 0 0 0 0 0 0 0 0 0 0 0 0 0 0 0 0 0 127 0" result="hardAlpha"/>
<feOffset dy="1.72015"/>
<feGaussianBlur stdDeviation="7.31065"/>
<feComposite in2="hardAlpha" operator="out"/>
<feColorMatrix type="matrix" values="0 0 0 0 0.625 0 0 0 0 0.171875 0 0 0 0 0.171875 0 0 0 1 0"/>
<feBlend mode="normal" in2="BackgroundImageFix" result="effect1_dropShadow_81_5636"/>
<feBlend mode="normal" in="SourceGraphic" in2="effect1_dropShadow_81_5636" result="shape"/>
</filter>
<filter id="filter2_d_81_5636" x="319.383" y="367.323" width="343.816" height="23.652" filterUnits="userSpaceOnUse" color-interpolation-filters="sRGB">
<feFlood flood-opacity="0" result="BackgroundImageFix"/>
<feColorMatrix in="SourceAlpha" type="matrix" values="0 0 0 0 0 0 0 0 0 0 0 0 0 0 0 0 0 0 127 0" result="hardAlpha"/>
<feOffset dx="1.29012" dy="3.01027"/>
<feGaussianBlur stdDeviation="1.29012"/>
<feComposite in2="hardAlpha" operator="out"/>
<feColorMatrix type="matrix" values="0 0 0 0 0.6375 0 0 0 0 0.196562 0 0 0 0 0.196562 0 0 0 1 0"/>
<feBlend mode="normal" in2="BackgroundImageFix" result="effect1_dropShadow_81_5636"/>
<feBlend mode="normal" in="SourceGraphic" in2="effect1_dropShadow_81_5636" result="shape"/>
</filter>
<clipPath id="clip0_81_5636">
<rect width="979.525" height="672" fill="white" transform="matrix(-1 0 0 1 979.525 0)"/>
</clipPath>
</defs>
</svg>
