<svg width="266" height="123" viewBox="0 0 266 123" fill="none" xmlns="http://www.w3.org/2000/svg">
<path d="M257.554 115.136V121H8.10714V115.136V113.136H6.10714H2V7.97698H6.10714H8.10714V5.97698V2H257.554V5.97698V7.97698H259.554H264V113.136H259.554H257.554V115.136Z" fill="#A6814E" stroke="#351404" stroke-width="4"/>
<path d="M73 65.5V55H76V56.5H77.5V58H79V56.5H80.5V55H83.5V65.5H80.5V59.5H79V62.5H77.5V59.5H76V65.5H73ZM86.5 67V65.5H92.5V64H86.5V62.5H85V58H88V62.5H92.5V58H95.5V65.5H94V67H86.5ZM98.5 65.5V64H97V62.5H100V64H104.5V62.5H101.5V61H104.5V59.5H100V61H97V59.5H98.5V58H106V59.5H107.5V61H106V62.5H107.5V64H106V65.5H98.5ZM110.5 65.5V64H109V59.5H110.5V58H118V59.5H119.5V62.5H112V64H118V65.5H110.5ZM112 61H116.5V59.5H112V61ZM130 55V56.5H122.5V55H130ZM124 62.5H125.5V64H124V65.5H121V58H124V62.5ZM131.5 58V65.5H128.5V61H127V59.5H128.5V58H131.5ZM125.5 61H127V62.5H125.5V61ZM145 65.5V62.5H146.5V61H145V59.5H146.5V58H155.5V65.5H152.5V62.5H148V65.5H145ZM148 61H152.5V59.5H148V61ZM157 65.5V58H166V59.5H167.5V61H166V62.5H167.5V64H166V65.5H157ZM160 61H164.5V59.5H160V61ZM160 64H164.5V62.5H160V64ZM170.5 65.5V64H169V62.5H170.5V61H176.5V59.5H170.5V58H178V59.5H179.5V65.5H170.5ZM172 64H176.5V62.5H172V64ZM181 65.5V64H182.5V62.5H184V61H182.5V59.5H181V58H184V59.5H185.5V61H187V59.5H188.5V58H191.5V59.5H190V61H188.5V62.5H190V64H191.5V65.5H188.5V64H187V62.5H185.5V64H184V65.5H181Z" fill="white"/>
</svg>
