<svg width="37" height="84" viewBox="0 0 37 84" fill="none" xmlns="http://www.w3.org/2000/svg">
<path d="M11.5575 2.3125H27.7363V4.62375H30.0475V6.935H32.3588V36.9813H30.0475V39.2925H27.7363V41.6038H13.8688V39.2925H9.24625V36.9813H6.935V32.3588H2.3125V25.425H4.62375V6.935H6.935V4.62375H11.5575V2.3125Z" fill="#FAE6CE"/>
<path fill-rule="evenodd" clip-rule="evenodd" d="M9.24625 43.915H27.7363V46.2263H30.0475V50.8488H27.7363V64.7163H30.0475V69.3388H27.7363V80.895H23.1138V69.3388H20.8025V73.9613H18.4913V76.2725H16.18V80.895H11.5575V67.0275H13.8688V64.7163H6.935V46.2263H9.24625V43.915ZM11.5575 48.5375H13.8688V62.405H11.5575V48.5375Z" fill="#FAE6CE"/>
<path d="M30.0475 50.8488H32.3588V57.7825H34.67V62.405H30.0475V50.8488Z" fill="#FAE6CE"/>
<path d="M27.7351 2.3125H16.1788V4.62375H25.4238V6.935H30.0463V25.425H32.3576V6.935H30.0463V4.62375H27.7351V2.3125Z" fill="#E3C4A6"/>
<path d="M6.93381 6.935H4.62256V16.18H6.93381V6.935Z" fill="#E3C4A6"/>
<path d="M4.62256 27.7363H6.93381V25.425H9.24506V36.9813H6.93381V30.0475H4.62256V27.7363Z" fill="#E3C4A6"/>
<path d="M9.24506 36.9813H16.1788V39.2925H27.7351V41.6038H13.8676V39.2925H9.24506V36.9813Z" fill="#E3C4A6"/>
<path d="M30.0463 50.8488H32.3576V57.7825H34.6688V62.405H30.0463V50.8488Z" fill="#E3C4A6"/>
<path d="M30.0463 50.8488H27.7351V48.5375H25.4238V46.2263H13.8676V43.915H27.7351V46.2263H30.0463V50.8488Z" fill="#E3C4A6"/>
<path d="M30.0463 64.7163H27.7351V53.16H25.4238V64.7163H27.7351V69.3388H30.0463V64.7163Z" fill="#E3C4A6"/>
<path d="M25.4238 71.65H27.7351V80.895H25.4238V71.65Z" fill="#E3C4A6"/>
<path d="M13.8676 67.0275H11.5563V80.895H16.1788V76.2725H13.8676V67.0275Z" fill="#E3C4A6"/>
<path d="M18.4901 69.3388H20.8013V71.65H18.4901V69.3388Z" fill="#E3C4A6"/>
<path d="M11.5563 53.16H9.24506V60.0938H6.93381V64.7163H13.8676V62.405H11.5563V53.16Z" fill="#E3C4A6"/>
<path d="M13.8688 6.93506H16.18V9.24631H13.8688V6.93506Z" fill="#FFF8EF"/>
<path d="M25.425 6.93506H18.4913V9.24631H25.425V11.5576H27.7363V13.8688H30.0475V11.5576H27.7363V9.24631H25.425V6.93506Z" fill="#FFF8EF"/>
<path d="M4.62375 25.4251H2.3125V27.7363H4.62375V25.4251Z" fill="#FFF8EF"/>
<path d="M9.24625 43.9151H13.8688V46.2263H9.24625V43.9151Z" fill="#FFF8EF"/>
<path d="M9.24625 46.2263V48.5376H6.935V46.2263H9.24625Z" fill="#FFF8EF"/>
<path d="M18.4913 52.0044H16.18V56.6269H18.4913V52.0044Z" fill="#FFF8EF"/>
<path d="M18.4913 52.0044H20.8025V49.6932H18.4913V52.0044Z" fill="#FFF8EF"/>
<path d="M23.1138 67.0276H20.8025V69.3388H23.1138V67.0276Z" fill="#FFF8EF"/>
<path fill-rule="evenodd" clip-rule="evenodd" d="M27.735 0.000976562H11.5563V2.31223H6.93375V4.62348H4.6225V6.93473H2.31125V25.4247H0V32.3585H2.31125V34.6697H4.6225V36.981H6.93375V39.2922H9.245V43.9147H6.93375V46.226H4.6225V64.716H6.93375V67.0272H9.245V83.206H18.49V76.2722H20.8013V83.206H32.3575V80.8948H30.0463V69.3385H32.3575V64.716H34.6688V62.4047H36.98V57.7822H34.6688V50.8485H32.3575V46.226H30.0463V43.9147H27.735V41.6035H30.0463V39.2922H32.3575V36.981H34.6688V6.93473H32.3575V4.62348H30.0463V2.31223H27.735V0.000976562ZM27.735 2.31223V4.62348H30.0463V6.93473H32.3575V36.981H30.0463V39.2922H27.735V41.6035H13.8675V39.2922H9.245V36.981H6.93375V32.3585H2.31125V25.4247H4.6225V27.736H6.93375V25.4247H4.6225V6.93473H6.93375V4.62348H11.5563V2.31223H27.735ZM30.0463 50.8485H27.735V64.716H30.0463V69.3385H27.735V80.8948H23.1125V69.3385H20.8013V71.6497H18.49V76.2722H16.1788V80.8948H11.5563V67.0272H16.1788V62.4047H13.8675V48.5372H11.5563V62.4047H13.8675V64.716H6.93375V46.226H9.245V43.9147H27.735V46.226H30.0463V50.8485ZM30.0463 50.8485V62.4047H34.6688V57.7822H32.3575V50.8485H30.0463Z" fill="black"/>
<path fill-rule="evenodd" clip-rule="evenodd" d="M27.6552 2.3042H11.5234V4.60875H9.21883H6.91428V6.9133H4.60973V25.3497H2.30518V32.2634H4.60973H6.91428V36.8725H9.21883V39.177H11.5234L13.8279 39.177V41.4816H27.6552V39.177H29.9598V36.8725H32.2643V6.9133H29.9598V4.60875H27.6552V2.3042Z" fill="#FAE6CE"/>
<path fill-rule="evenodd" clip-rule="evenodd" d="M16.1331 2.3042H27.6559V4.60875H29.9604V6.9133H25.3513V4.60875H16.1331V2.3042ZM29.9604 6.9133H32.265V25.3497H29.9604V6.9133ZM4.61035 6.9133H6.9149V25.3497H4.61035V6.9133ZM9.21945 36.8725H6.9149V29.9588H4.61035V27.6543H6.9149V25.3497H9.21945V36.8725ZM16.1331 39.177V36.8725H9.21945V39.177H13.8286V41.4816H27.6559V39.177H16.1331ZM6.9149 6.9133V4.60875H9.21945V6.9133H6.9149Z" fill="#714A1C" fill-opacity="0.25" style="mix-blend-mode:multiply"/>
<path fill-rule="evenodd" clip-rule="evenodd" d="M16.1325 6.91357H13.8279V9.21813H16.1325V6.91357ZM18.437 6.91357H25.3507V9.21813H18.437V6.91357ZM27.6552 11.5227V9.21813H25.3507V11.5227H27.6552ZM27.6552 11.5227V13.8272H29.9598V11.5227H27.6552ZM2.30518 25.35H4.60973V27.6545H2.30518V25.35Z" fill="#FFFCF9" fill-opacity="0.7" style="mix-blend-mode:lighten"/>
<path fill-rule="evenodd" clip-rule="evenodd" d="M20.7423 23.0454H13.8286V25.35H16.1332V29.9591H18.4377V25.35H20.7423V23.0454ZM20.7423 34.5682H25.3514V36.8727H20.7423V34.5682ZM20.7423 36.8727V39.1773H18.4377V36.8727H20.7423ZM25.3514 23.0454H27.6559H29.9605V25.35H27.6559V29.9591H25.3514V23.0454Z" fill="black"/>
<path fill-rule="evenodd" clip-rule="evenodd" d="M23.0466 23.0454H20.7421V25.35H18.4375V27.6545H20.7421V25.35H23.0466V23.0454Z" fill="#714A1C" fill-opacity="0.25" style="mix-blend-mode:multiply"/>
<path fill-rule="evenodd" clip-rule="evenodd" d="M11.5237 0H27.6556V2.30455H11.5237V0ZM6.91463 4.6091V2.30455H11.5237V4.6091H6.91463ZM4.61008 6.91365V4.6091H6.91463V6.91365H4.61008ZM4.61008 25.3501V6.91365H2.30553V25.3501H0.000976562V32.2637H2.30553V34.5683L4.61008 34.5683V36.8728H6.91463V39.1774H9.21918V41.4819H13.8283V43.7865H27.6556V41.4819L29.9601 41.4819V39.1774H32.2647V36.8728H34.5692V6.91365H32.2647V4.6091H29.9601V2.30455H27.6556V4.6091H29.9601V6.91365H32.2647V36.8728H29.9601V39.1774H27.6556V41.4819L13.8283 41.4819V39.1774H9.21918V36.8728H6.91463V34.5683V32.2637H2.30553V25.3501H4.61008ZM4.61008 25.3501V27.6546H6.91463V25.3501H4.61008Z" fill="black"/>
<path fill-rule="evenodd" clip-rule="evenodd" d="M6.43164 27.334H8.84338V34.5688H13.6663V39.3923H8.84286V36.9809H6.43164V27.334ZM20.9019 32.1576H18.4901V41.8046H20.9019V32.1576ZM18.49 34.5688H13.6665V41.8041H18.49V34.5688ZM20.9026 32.1576H25.725H25.726H28.1367V41.8046H25.725V41.8042H20.9026V39.3925H22.1076V36.9813H24.5193V39.3925H25.725V34.5694H20.9026V32.1576ZM32.9604 34.5688H30.5492H30.5486H28.1374V39.3923H30.5492V36.9806H32.9604V34.5688Z" fill="#784522"/>
<path fill-rule="evenodd" clip-rule="evenodd" d="M6.43164 27.334H8.84338V34.5688H11.2546V39.3923H8.84286V36.9809H6.43164V27.334ZM28.1374 34.5688H32.9609V36.9806H28.1374V34.5688ZM30.5492 36.9813H28.1374V39.3925H20.9026V41.8042H28.1378V39.393H30.5492V36.9813ZM16.0782 39.3925H13.667V36.9813H11.2553V39.393H13.6665V41.8042H16.0782V39.3925Z" fill="black" fill-opacity="0.2" style="mix-blend-mode:multiply"/>
<path fill-rule="evenodd" clip-rule="evenodd" d="M13.3979 1.96484H11.4328V3.92996H9.46763H7.50251V5.89509H5.53739V11.7904H3.57227V23.5812H5.53739V27.5114H7.50251V25.5463H9.46763V27.5114H11.4328V15.7207H13.3979V19.6509H17.3281V17.6858H19.2932V15.7207H21.2584V13.7556H23.2235L23.2235 11.7904H29.1188V13.7556H31.084L31.084 21.6161H33.0491H35.0142V11.7904H33.0491V7.86021H31.084L31.084 3.92996H29.1188V1.96484H23.2235H21.2584H19.2932H17.3281H13.3979Z" fill="#784522"/>
<path fill-rule="evenodd" clip-rule="evenodd" d="M29.1188 1.96484H27.1537V5.89509H29.1188V13.7556H31.084L31.084 21.6161H33.0491H35.0142V11.7904H33.0491V7.86021H31.084L31.084 3.92996H29.1188V1.96484ZM21.2584 3.92996H23.2235L23.2235 5.89509H25.1886V7.86021H27.1537V11.7904H25.1886V9.82533H23.2235L23.2235 7.86021H21.2584H19.2932V5.89509H21.2584V3.92996ZM19.2932 15.7207V11.7904H21.2584V9.82533L23.2235 9.82533L23.2235 13.7556H21.2584V15.7207H19.2932ZM5.49037 23.5812V27.5114H7.54907V25.5463H9.46763V27.5114H11.4328V15.7207H13.3979V19.6509H15.363H17.3281V17.6858H19.2932V15.7207H17.3281H15.363V13.7556H13.3979V11.7904H11.4328H9.46763V7.86021H7.54907V5.89509H5.49037V11.7904H3.57227V23.5812H5.49037Z" fill="black" fill-opacity="0.2" style="mix-blend-mode:multiply"/>
<path fill-rule="evenodd" clip-rule="evenodd" d="M15.3633 3.93018H11.4331V5.8953H15.3633V3.93018ZM17.3284 5.89536H15.3633V7.86048H17.3284V5.89536ZM21.2586 7.86048H23.2238V9.82561H21.2586V7.86048ZM23.2238 9.82561V11.7907H25.1889V9.82561H23.2238Z" fill="white" fill-opacity="0.3" style="mix-blend-mode:lighten"/>
<path fill-rule="evenodd" clip-rule="evenodd" d="M11.433 0H29.1191V1.96512H11.433V0ZM7.50279 3.93024V1.96512H11.433V3.93024H7.50279ZM5.53766 5.89536V3.93024H7.50279V5.89536H5.53766ZM3.57254 11.7907V5.89536H5.53766V11.7907H3.57254ZM3.57254 11.7907V23.5815H5.53766V29.4768H3.57254V27.5117H1.60742V11.7907H3.57254ZM31.0842 3.93024H29.1191V1.96512H31.0842V3.93024ZM33.0494 7.86048H31.0842L31.0842 3.93024H33.0494V7.86048ZM35.0145 11.7907V7.86048H33.0494V11.7907H35.0145ZM35.0145 21.6163V11.7907H36.9796V21.6163H35.0145ZM35.0145 21.6163V25.5466H33.0494V21.6163H35.0145Z" fill="black"/>
<path fill-rule="evenodd" clip-rule="evenodd" d="M16.3999 64.9375H11.8979V78.3361H16.3999V64.9375ZM18.6507 64.9375H16.4001V76.103H18.6511V73.8699H20.9016V64.9375H18.6511H18.6507ZM23.1528 64.9375H20.9023V67.1706H23.1528V78.3361H27.6547V64.9375H23.1532H23.1528ZM29.9059 64.9375H27.655V76.103H29.9059V64.9375Z" fill="#2E8EE6"/>
<path fill-rule="evenodd" clip-rule="evenodd" d="M11.898 62.7041H9.64746V82.8019H11.898H11.8984H16.3999V80.5688H11.8984V69.4034H14.149V67.1703H11.8984V64.9372H29.9056V67.1703H27.655V69.4034H29.9056V76.1027H27.655V82.8019H29.9056H29.906H32.1565V80.5688H29.906V76.1027H32.1565V62.7041H29.9057H29.9056H11.8984H11.898ZM16.4002 76.1027H18.6511V82.8019H16.4002V76.1027ZM20.9023 73.8696H18.6518V76.1027H20.9023V82.8019H23.1529H23.1533H27.6548V80.5688H23.1533V67.1703H20.9023V73.8696Z" fill="black"/>
<path fill-rule="evenodd" clip-rule="evenodd" d="M11.8979 64.9375H14.1489V67.1706H11.8979V64.9375ZM11.8979 69.4037H14.1489V71.6368H11.8979V69.4037ZM16.3994 76.103H14.1485V78.3361H16.3994V76.103ZM16.4001 73.8699H18.6507V67.1706H20.9016V73.8699H18.6511V76.103H16.4001V73.8699ZM29.9059 64.9375H27.655V67.1706H29.9059V64.9375ZM27.655 69.4037H29.9059V71.6368H27.655V69.4037ZM25.4038 69.4037H23.1528V78.3361H25.4034H25.4038H27.6543V73.8699H25.4038V69.4037Z" fill="black" fill-opacity="0.2" style="mix-blend-mode:multiply"/>
<path fill-rule="evenodd" clip-rule="evenodd" d="M16.3999 78.3354H11.8979V80.5685H16.3999V78.3354ZM27.6547 78.3354H23.1528V80.5685H27.6547V78.3354Z" fill="#BA6434"/>
<path fill-rule="evenodd" clip-rule="evenodd" d="M14.1489 78.3354H11.8979V80.5685H14.1489V78.3354ZM25.4038 78.3354H23.1528V80.5685H25.4038V78.3354Z" fill="black" fill-opacity="0.2" style="mix-blend-mode:multiply"/>
<path fill-rule="evenodd" clip-rule="evenodd" d="M22.5093 42.6079H17.6858V45.0197H22.5093V42.6079ZM34.568 57.0784H32.1562H29.7445V59.4901H32.1562L32.1562 61.9018H34.568V57.0784ZM5.62707 59.4901H3.21533V64.3136H5.62707H8.03881V61.9018H10.4506V59.4901H8.03881H5.62707Z" fill="#FAE6CE"/>
<path fill-rule="evenodd" clip-rule="evenodd" d="M17.6861 42.6079H22.5096V45.0197H17.6861V42.6079ZM29.7448 57.0784H32.1566H34.5683V61.9018H32.1566L32.1566 59.4901H29.7448V57.0784ZM8.03918 59.4901H10.4509V61.9018H8.03918V64.3136H5.62744V59.4901H8.03918Z" fill="#714A1C" fill-opacity="0.25" style="mix-blend-mode:multiply"/>
<path fill-rule="evenodd" clip-rule="evenodd" d="M12.8623 42.6079H15.274V45.0197H12.8623V42.6079ZM22.5093 47.4314H17.6858V45.0197H15.274V61.9018H17.6858H22.5093H24.921V45.0197H22.5093L22.5093 47.4314Z" fill="white"/>
<path fill-rule="evenodd" clip-rule="evenodd" d="M12.8623 42.6079H15.274V45.0197H12.8623V42.6079ZM17.6858 49.8431H15.274V52.2549H17.6858V49.8431ZM22.5093 57.0784H24.921V61.9018H22.5093L15.274 61.9018V59.4901H22.5093L22.5093 57.0784ZM24.921 49.8431H22.5093V52.2549H24.921V49.8431Z" fill="black" fill-opacity="0.2" style="mix-blend-mode:multiply"/>
<path fill-rule="evenodd" clip-rule="evenodd" d="M22.509 47.4312H17.6855V59.4899H20.0973V61.9016H22.509V59.4899V47.4312Z" fill="#4E4E4E"/>
<path fill-rule="evenodd" clip-rule="evenodd" d="M12.8627 40.1958H10.4509V42.6075H8.03918V45.0193H5.62744V57.078H8.03918H10.4509V47.431H12.8627V61.9015H10.4509V66.7249H8.03918V69.1367L10.4509 69.1367H12.8627L12.8627 66.7249H15.2744V45.0193H12.8627L12.8627 40.1958ZM27.3331 42.6075H24.9214V66.7249H27.3331H29.7448V61.9015H27.3331V49.8428H29.7448L29.7448 54.6662H32.1566V49.8428H29.7448V45.0193H27.3331V42.6075Z" fill="#C0C4C7"/>
<path fill-rule="evenodd" clip-rule="evenodd" d="M12.8621 40.1958H10.4503V42.6075H12.8621V40.1958ZM27.3325 42.6075H24.9208V45.0193H27.3325V49.8428H29.7442L29.7442 54.6662H32.156V49.8428H29.7442V45.0193H27.3325V42.6075ZM12.8621 47.431H15.2738V64.3132H12.8621V66.7249H10.4503V61.9015H12.8621V47.431ZM12.8621 47.431H10.4503V45.0193H12.8621V47.431ZM10.4503 66.7249V69.1367H8.03857V66.7249L10.4503 66.7249ZM24.9208 59.4897H27.3325V64.3132H29.7442V66.7249H27.3325H24.9208V59.4897ZM8.03857 49.8428H10.4503V57.078H8.03857V49.8428Z" fill="black" fill-opacity="0.2" style="mix-blend-mode:multiply"/>
<path fill-rule="evenodd" clip-rule="evenodd" d="M12.8624 37.7842H10.4507V40.1959H8.03893V42.6077H5.62719V45.0194H3.21545V59.4898H0.803711V64.3133H3.21545V66.7251H5.62719V69.1368H8.03893V71.5485H12.8624V69.1368L15.2742 69.1368L15.2742 66.7251H17.6859L17.6859 64.3133H24.9211V66.7251H27.3329V69.1368H29.7446H32.1563L32.1563 64.3133H34.5681V61.9016H36.9798V57.0781H34.5681V49.8429H32.1563V45.0194H29.7446V42.6077H27.3329V40.1959H24.9211V42.6077H22.5094V45.0194H17.6859L17.6859 42.6077H15.2742V40.1959H12.8624V37.7842ZM12.8624 40.1959V42.6077H15.2742L15.2742 45.0194H17.6859V47.4311H22.5094L22.5094 45.0194H24.9211L24.9211 49.8429H27.3329V61.9016H29.7446V66.7251H27.3329V64.3133H24.9211V61.9016H17.6859H15.2742V66.7251L12.8624 66.7251V69.1368L8.03893 69.1368V66.7251L10.4507 66.7251V61.9016H12.8624V47.4311H10.4507V57.0781H5.62719V45.0194H8.03893V42.6077H10.4507V40.1959H12.8624ZM27.3329 45.0194H29.7446V49.8429H27.3329V45.0194ZM29.7446 49.8429V54.6664H32.1563V49.8429H29.7446ZM27.3329 45.0194H24.9211L24.9211 42.6077H27.3329V45.0194ZM34.5681 57.0781H32.1563H29.7446V59.4898H32.1563L32.1563 61.9016H34.5681V57.0781ZM10.4507 61.9016H8.03893V64.3133H3.21545V59.4898H5.62719H10.4507V61.9016Z" fill="black"/>
</svg>
