<svg width="30" height="63" viewBox="0 0 30 63" fill="none" xmlns="http://www.w3.org/2000/svg">
<path fill-rule="evenodd" clip-rule="evenodd" d="M21.9743 3.91748H10.304V5.58467H8.63681H6.96963V7.25185H5.30244V20.5893H3.63525V25.5909H5.30244L6.96963 25.5909V28.9253H8.63681V30.5925H10.304H11.9712V32.2597H21.9743V30.5925H23.6415V28.9253H25.3087V7.25185H23.6415V5.58467H21.9743V3.91748Z" fill="#FAE6CE"/>
<path fill-rule="evenodd" clip-rule="evenodd" d="M13.6382 3.91748H21.9741V5.58467H23.6413V7.25185H20.3069V5.58467H13.6382V3.91748ZM23.6413 7.25185H25.3085V20.5893H23.6413V7.25185ZM5.30225 7.25185H6.96943V20.5893H5.30225V7.25185ZM8.63662 28.9253H6.96943V23.9237H5.30225V22.2565H6.96943V20.5893H8.63662V28.9253ZM13.6382 30.5925V28.9253H8.63662V30.5925H11.971V32.2597H21.9741V30.5925H13.6382ZM6.96943 7.25185V5.58467H8.63662V7.25185H6.96943Z" fill="#714A1C" fill-opacity="0.25" style="mix-blend-mode:multiply"/>
<path fill-rule="evenodd" clip-rule="evenodd" d="M13.6384 7.25146H11.9712V8.91865H13.6384V7.25146ZM15.3056 7.25146H20.3071V8.91865H15.3056V7.25146ZM21.9743 10.5858V8.91865H20.3071L20.3071 10.5858H21.9743ZM21.9743 10.5858L21.9743 12.253H23.6415V10.5858H21.9743ZM3.63525 20.589H5.30244V22.2561H3.63525V20.589Z" fill="#FFFCF9" fill-opacity="0.7" style="mix-blend-mode:lighten"/>
<path fill-rule="evenodd" clip-rule="evenodd" d="M15.3056 18.9219H13.6384V20.5891H11.9712V22.2562H13.6384V20.5891H15.3056V22.2562H16.9728V20.5891H15.3056V18.9219ZM20.3071 27.2578H16.9728V25.5906H15.3056V27.2578H16.9728V28.925H20.3071V27.2578ZM20.3071 20.5891H18.6399V22.2562H20.3071V20.5891ZM21.9743 20.5891H20.3071V18.9219H21.9743V20.5891ZM21.9743 20.5891V22.2562H23.6415V20.5891H21.9743Z" fill="black"/>
<path fill-rule="evenodd" clip-rule="evenodd" d="M16.9724 18.9219H15.3052V20.5891H16.9724V18.9219ZM18.6396 20.5891H16.9725V22.2562H18.6396V20.5891Z" fill="#714A1C" fill-opacity="0.25" style="mix-blend-mode:multiply"/>
<path fill-rule="evenodd" clip-rule="evenodd" d="M10.3037 2.25H21.974V3.91719H10.3037V2.25ZM6.96933 5.58437V3.91719H10.3037L10.3037 5.58437H6.96933ZM5.30215 7.25156V5.58437H6.96933V7.25156H5.30215ZM5.30215 20.5891V7.25156H3.63496V20.5891H1.96777V25.5906H3.63496V27.2578H5.30215V28.925H6.96933V30.5922H8.63652V32.2594H11.9709V33.9266H21.974V32.2594H23.6412V30.5922H25.3084V28.925H26.9756V7.25156H25.3084V5.58437H23.6412V3.91719H21.974V5.58437H23.6412V7.25156H25.3084V28.925H23.6412V30.5922H21.974V32.2594H11.9709V30.5922H8.63652V28.925H6.96933V27.2578V25.5906H3.63496V20.5891L5.30215 20.5891ZM5.30215 20.5891V22.2562H6.96933V20.5891L5.30215 20.5891Z" fill="black"/>
<path fill-rule="evenodd" clip-rule="evenodd" d="M20.5325 33.4575H14.1593V35.0508H15.7526V36.6441H18.9392V35.0508H20.5325V33.4575ZM23.7191 43.0173H25.3124L25.3124 44.6106H26.9057V47.7972L25.3124 47.7972H23.7191V43.0173ZM7.78617 44.6106H9.37946H10.9728V47.7972H9.37946V49.3905H7.78617H6.19287V46.2039H7.78617V44.6106Z" fill="#FAE6CE"/>
<path fill-rule="evenodd" clip-rule="evenodd" d="M20.5325 33.4575H14.1593V35.0508H20.5325V33.4575ZM23.7191 43.0173H25.3124L25.3124 44.6106H26.9057V47.7972H25.3124L25.3124 46.2039H23.7191V43.0173ZM9.37943 44.6106H10.9727V49.3905H9.37943H7.78613V46.2039H9.37943V44.6106Z" fill="#714A1C" fill-opacity="0.25" style="mix-blend-mode:multiply"/>
<path fill-rule="evenodd" clip-rule="evenodd" d="M12.5661 33.4575H10.9728V35.0508H9.37946V36.6441H7.78617V39.8307H6.19287V43.0173H7.78617H9.37946H10.9728V36.6441H12.5661V47.7972H10.9728V52.5771H9.37946V55.7637H7.78617V57.3569H9.37946H10.9728H12.5661H14.1593H15.7526H18.9392H20.5325H22.1258H23.7191H25.3124V54.1704H23.7191V47.7972H22.1258V41.424L23.7191 41.424H25.3124V39.8307H23.7191V36.6441H22.1258V35.0508H20.5325V36.6441H18.9392V38.2374H15.7526V36.6441H14.1593L14.1593 35.0508H12.5661V33.4575Z" fill="#2E8EE6"/>
<path fill-rule="evenodd" clip-rule="evenodd" d="M10.9727 33.4575H12.566V35.0508H10.9727V33.4575ZM12.566 35.0508H14.1593V36.6441H12.566V35.0508ZM20.5325 35.0508H22.1258V36.6441H20.5325V35.0508ZM20.5325 36.6441V38.2374H18.9392V36.6441H20.5325ZM22.1258 36.6441H23.719V39.8307H22.1258V36.6441ZM18.9392 50.9838H20.5325V54.1704H18.9392V50.9838ZM18.9392 54.1704V57.3569H17.3459V54.1704H18.9392ZM20.5325 47.7972H18.9392V49.3905H20.5325V47.7972ZM18.9392 43.0173H20.5325V46.2039H18.9392V43.0173ZM15.7526 52.5771H14.1593V54.1704H12.566V55.7636H14.1593L14.1593 54.1704H15.7526V52.5771ZM15.7526 52.5771H17.3459V49.3905H15.7526V52.5771ZM14.1593 43.0173H12.566V47.7972L10.9727 47.7972V50.9838H12.566V47.7972H14.1593V43.0173ZM10.9727 52.5771H9.37939V54.1704H10.9727V52.5771ZM23.719 54.1704H25.3123V57.3569H23.719V54.1704ZM23.719 47.7972H22.1258V50.9838H23.719V47.7972Z" fill="black" fill-opacity="0.2" style="mix-blend-mode:multiply"/>
<path fill-rule="evenodd" clip-rule="evenodd" d="M12.5664 35.0508H10.9731V36.6441H12.5664V35.0508ZM18.9396 44.6106H17.3463V47.7971H18.9396V44.6106ZM14.1597 50.9837H15.753V52.577H14.1597V50.9837ZM12.5664 54.1703V52.577L14.1597 52.577V54.1703H12.5664ZM12.5664 54.1703V57.3569H10.9731V54.1703H12.5664ZM15.753 54.1703H17.3463V57.3569H15.753V54.1703ZM17.3463 54.1703V52.577H18.9396V54.1703H17.3463Z" fill="white" fill-opacity="0.3" style="mix-blend-mode:lighten"/>
<path fill-rule="evenodd" clip-rule="evenodd" d="M14.1597 58.9502H10.9731V60.5435H14.1597V58.9502ZM22.1262 58.9502H18.9396V60.5435H22.1262V58.9502Z" fill="#BA6434"/>
<path fill-rule="evenodd" clip-rule="evenodd" d="M12.5664 58.9502H10.9731V60.5435H12.5664V58.9502ZM20.5329 58.9502H18.9396V60.5435H20.5329V58.9502Z" fill="black" fill-opacity="0.2" style="mix-blend-mode:multiply"/>
<path fill-rule="evenodd" clip-rule="evenodd" d="M10.9728 31.8643H12.5661V33.4576H10.9728V31.8643ZM9.37949 35.0508V33.4576H10.9728V35.0508H9.37949ZM7.7862 36.6441V35.0508H9.37949V36.6441H7.7862ZM6.1929 39.8307V36.6441H7.7862V39.8307H6.1929ZM6.1929 43.0173H4.59961V39.8307L6.1929 39.8307V43.0173ZM10.9728 47.7972H12.5661V36.6441H10.9728V43.0173H7.7862H6.1929V46.2039H4.59961V49.3905H6.1929V50.9838H9.37949V52.5771H7.7862V55.7637H6.1929V57.357V58.9503H9.37949V62.1369H10.9728H14.1594H15.7527V58.9503H17.346V62.1369H18.9393H25.3124V60.5436L23.7191 60.5436V58.9503H26.9057V57.357V54.1704H25.3124L25.3124 49.3905H26.9057V47.7972H28.499V44.6106H26.9057V39.8307L25.3124 39.8307V36.6441H23.7191V35.0508H22.1259V33.4576H20.5326V35.0508H18.9393V36.6441H15.7527V35.0508H14.1594V33.4576H12.5661V35.0508H14.1594V36.6441H15.7527V38.2374H18.9393V36.6441H20.5326V35.0508H22.1259V36.6441H23.7191V39.8307H25.3124V41.424H23.7191H22.1259V47.7972H23.7191V54.1704H25.3124L25.3124 57.357H7.7862V55.7637H9.37949V52.5771H10.9728V47.7972ZM26.9057 44.6106H25.3124L25.3124 43.0173H23.7191V46.2039H25.3124L25.3124 47.7972H26.9057V44.6106ZM18.9393 60.5436L22.1259 60.5436V58.9503H18.9393V60.5436ZM10.9728 47.7972V44.6106H7.7862V46.2039H6.1929V49.3905H9.37949V47.7972L10.9728 47.7972ZM14.1594 60.5436V58.9503H10.9728V60.5436H14.1594Z" fill="black"/>
<path fill-rule="evenodd" clip-rule="evenodd" d="M14.8037 1.78125H13.3235V3.56251H10.363V19.5914H13.3239V17.8101H14.8039V16.0292H16.2842V1.78125H14.8039H14.8037ZM7.40173 5.34306H8.88199H8.88218H10.3624V21.3719H8.88218H8.88199H7.40192V23.1532H5.92165V24.9338H4.44121V23.1528V8.90487H5.92147V7.12432H7.40173V5.34306ZM1.47998 30.2772H2.96024V28.4959H4.44069V32.0579H2.96043V32.0581H1.47998V30.2772ZM4.44069 24.9341H2.96024V26.7151H4.44069V24.9341ZM5.92165 26.7153H4.44121V30.2773H5.92147V32.0579H7.40192V28.4959H5.92165V26.7153ZM4.44069 16.0292H2.96024V23.1532H4.44069V16.0292ZM17.765 1.78125H16.2847V12.4672H17.7652V10.6862H20.7255V12.4674H22.2059V3.56251H20.7259V1.78125H17.7652H17.765ZM22.2065 3.56251H23.6869V5.34306H25.1672V7.12432H26.6474V10.6861H28.1277V17.8101H26.6474V23.1532H25.167V19.591H23.6867V16.0294H22.2065V3.56251Z" fill="black"/>
<path fill-rule="evenodd" clip-rule="evenodd" d="M17.7657 1.78125H19.2459H19.2461H20.7264V3.56251H22.2066V7.12432H23.6869V16.0293H22.2065V12.4674H20.7262V10.6859H17.7657V8.90487H19.2459V7.12432H20.7262V5.34322H19.2459V3.56224H17.7657V1.78125ZM17.7651 10.6861H16.2849H16.2847H14.8044V12.4674H13.3244H13.3242H11.8439V19.5913H13.3244V17.8104H14.8046V16.0291H16.2849V12.4671H17.7651V10.6861ZM5.92164 8.90487H4.4412V12.4668H5.92164V8.90487ZM7.40243 5.34306H10.3629V3.56251H11.8434V19.5914H10.3631V21.3722H8.88269V21.3719H7.40261V23.1534H5.92217V17.8105H7.40243V14.2479H8.88287V16.0292H10.3629V8.90504H7.40261V10.6863H5.92217V7.12432H7.40243V5.34306ZM5.92164 19.591H4.44138V17.8105H2.96094V23.1534H4.4412V24.934H5.92164V19.591ZM4.44138 24.9341H2.96094V26.7151H4.44138V24.9341ZM4.4412 26.7153H5.92164V28.4963H4.4412V26.7153ZM7.40261 28.4959H5.92217V32.0579H7.40261V28.4959ZM13.3242 5.34306H11.8439V10.686H13.3244V8.90504H14.8044V8.90531H16.2849V7.12432H14.8046V5.34306H13.3244H13.3242ZM23.6874 12.4674H25.1679V14.2479H26.6481V23.1529H25.1677V19.5913H23.6874V12.4674Z" fill="black" fill-opacity="0.2" style="mix-blend-mode:multiply"/>
<path fill-rule="evenodd" clip-rule="evenodd" d="M13.3242 1.78125H16.2851V3.56224H13.3242V1.78125ZM8.88269 10.6861H10.3631V12.4671H8.88269V10.6861ZM8.88287 12.4674H7.40243V14.2479H5.92217V17.8099H7.40261V14.2484H8.88287V12.4674ZM4.44138 16.0292H2.96094V17.8102H4.44138V16.0292ZM8.88269 17.8105H10.3631V19.591H11.8434V21.372H10.3629V19.5914H8.88269V17.8105ZM17.7651 3.56251H16.2847V7.12448H17.7651V3.56251ZM17.7657 5.34306H19.2461V8.90504H17.7657V5.34306ZM17.7653 8.90487H14.8044V10.6859H17.7653V8.90487ZM23.6874 7.12432H25.1679V8.90487H26.6481V12.4668H25.1677V8.90531H23.6874V7.12432Z" fill="white" fill-opacity="0.3" style="mix-blend-mode:lighten"/>
<path fill-rule="evenodd" clip-rule="evenodd" d="M20.7258 10.686H17.7649V12.467H20.7258V10.686ZM22.2065 12.4673H16.2847V16.0293H22.2065V12.4673Z" fill="#2E8EE6"/>
<path fill-rule="evenodd" clip-rule="evenodd" d="M20.7263 10.686H19.2459V12.467H20.7263V10.686ZM17.7651 12.4673H16.2847V14.2483H17.7651V12.4673ZM17.7649 10.686H19.2454V12.467H17.7649V10.686ZM22.2066 12.4673H20.7262V16.0293H22.2066V12.4673Z" fill="black" fill-opacity="0.2" style="mix-blend-mode:multiply"/>
<path fill-rule="evenodd" clip-rule="evenodd" d="M13.3238 0H20.726V1.78099H13.3238V0ZM20.7265 1.78126H23.6874V3.56181H25.1674V5.3428H23.687V3.56225H20.7265V1.78126ZM13.3241 1.78126H10.3632V3.56225H13.3241V1.78126ZM7.40201 3.56181H10.3629V5.3428H7.40201V3.56181ZM7.4022 5.34307H5.92175V7.12362H4.44149V8.90461H5.92194V7.12406H7.4022V5.34307ZM4.44167 8.90488H2.96123V16.0288H4.44167V8.90488ZM2.96123 23.1528H4.44167V24.9338H2.96123V23.1528ZM2.96071 16.0292H1.48026V26.7151H2.96071V16.0292ZM1.48026 28.4959H2.96071V30.2769H1.48045V32.0575H0V30.2765H1.48026V28.4959ZM4.44167 26.7146H2.96123V28.4956H4.44167V26.7146ZM4.44115 32.0577H1.48026V33.8387H4.44115V32.0577ZM4.44149 30.2765H5.92194V32.0575H4.44149V30.2765ZM7.4022 32.0577H5.92175V33.8387H7.4022V32.0577ZM7.40201 30.2765H8.88246V32.0575H7.40201V30.2765ZM25.1673 5.34307H26.6477V7.12406H25.1673V5.34307ZM28.1287 7.12362H26.6482V10.6856H28.1287V7.12362ZM28.1285 10.6861H29.6089V17.8101H28.1287V23.1527H26.6482V17.8098H28.1285V10.6861Z" fill="black"/>
</svg>
