<svg width="35" height="78" viewBox="0 0 35 78" fill="none" xmlns="http://www.w3.org/2000/svg">
<path d="M23.8181 2.16602H8.66139V4.33125H6.49616V6.49649H4.33092V34.6446H6.49616V36.8098H8.66139V38.9751H21.6528V36.8098H25.9833V34.6446H28.1485V30.3141H32.479V23.8184H30.3138V6.49649H28.1485V4.33125H23.8181V2.16602Z" fill="#FAE6CE"/>
<path fill-rule="evenodd" clip-rule="evenodd" d="M25.9833 41.1403H8.66139V43.3055H6.49616V47.636H8.66139V60.6274H6.49616V64.9579H8.66139V75.7841H12.9919V64.9579H15.1571V69.2884H17.3223V71.4536H19.4876V75.7841H23.8181V62.7927H21.6528V60.6274H28.1485V43.3055H25.9833V41.1403ZM23.8181 45.4708H21.6528V58.4622H23.8181V45.4708Z" fill="#FAE6CE"/>
<path d="M6.49616 47.636H4.33092V54.1317H2.16568V58.4622H6.49616V47.636Z" fill="#FAE6CE"/>
<path d="M8.66062 2.16602H19.4868V4.33125H10.8259V6.49649H6.49538V23.8184H4.33014V6.49649H6.49538V4.33125H8.66062V2.16602Z" fill="#E3C4A6"/>
<path d="M28.1478 6.49649H30.313V15.1574H28.1478V6.49649Z" fill="#E3C4A6"/>
<path d="M30.313 25.9836H28.1478V23.8184H25.9825V34.6446H28.1478V28.1489H30.313V25.9836Z" fill="#E3C4A6"/>
<path d="M25.9825 34.6446H19.4868V36.8098H8.66062V38.9751H21.652V36.8098H25.9825V34.6446Z" fill="#E3C4A6"/>
<path d="M6.49538 47.636H4.33014V54.1317H2.1649V58.4622H6.49538V47.636Z" fill="#E3C4A6"/>
<path d="M6.49538 47.636H8.66062V45.4708H10.8259V43.3055H21.652V41.1403H8.66062V43.3055H6.49538V47.636Z" fill="#E3C4A6"/>
<path d="M6.49538 60.6274H8.66062V49.8012H10.8259V60.6274H8.66062V64.9579H6.49538V60.6274Z" fill="#E3C4A6"/>
<path d="M10.8259 67.1231H8.66062V75.7841H10.8259V67.1231Z" fill="#E3C4A6"/>
<path d="M21.652 62.7927H23.8173V75.7841H19.4868V71.4536H21.652V62.7927Z" fill="#E3C4A6"/>
<path d="M17.3216 64.9579H15.1563V67.1231H17.3216V64.9579Z" fill="#E3C4A6"/>
<path d="M23.8173 49.8012H25.9825V56.297H28.1478V60.6274H21.652V58.4622H23.8173V49.8012Z" fill="#E3C4A6"/>
<path d="M21.6528 6.49756H19.4876V8.6628H21.6528V6.49756Z" fill="#FFF8EF"/>
<path d="M10.8266 6.49756H17.3223V8.6628H10.8266V10.828H8.66139V12.9933H6.49616V10.828H8.66139V8.6628H10.8266V6.49756Z" fill="#FFF8EF"/>
<path d="M30.3138 23.8195H32.479V25.9847H30.3138V23.8195Z" fill="#FFF8EF"/>
<path d="M25.9833 41.1414H21.6528V43.3066H25.9833V41.1414Z" fill="#FFF8EF"/>
<path d="M25.9833 43.3066V45.4718H28.1485V43.3066H25.9833Z" fill="#FFF8EF"/>
<path d="M17.3223 48.7197H19.4876V53.0502H17.3223V48.7197Z" fill="#FFF8EF"/>
<path d="M17.3223 48.7197H15.1571V46.5544H17.3223V48.7197Z" fill="#FFF8EF"/>
<path d="M12.9919 62.7937H15.1571V64.959H12.9919V62.7937Z" fill="#FFF8EF"/>
<path fill-rule="evenodd" clip-rule="evenodd" d="M8.66071 0.00146484H23.8174V2.1667H28.1478V4.33194H30.3131V6.49718H32.4783V23.8191H34.6436V30.3148H32.4783V32.48H30.3131V34.6453H28.1478V36.8105H25.9826V41.141H28.1478V43.3062H30.3131V60.6281H28.1478V62.7934H25.9826V77.95H17.3217V71.4543H15.1564V77.95H4.33023V75.7848H6.49547V64.9586H4.33023V60.6281H2.16499V58.4629H-0.000244141V54.1324H2.16499V47.6367H4.33023V43.3062H6.49547V41.141H8.66071V38.9757H6.49547V36.8105H4.33023V34.6453H2.16499V6.49718H4.33023V4.33194H6.49547V2.1667H8.66071V0.00146484ZM8.66071 2.1667V4.33194H6.49547V6.49718H4.33023V34.6453H6.49547V36.8105H8.66071V38.9757H21.6521V36.8105H25.9826V34.6453H28.1478V30.3148H32.4783V23.8191H30.3131V25.9843H28.1478V23.8191H30.3131V6.49718H28.1478V4.33194H23.8174V2.1667H8.66071ZM6.49547 47.6367H8.66071V60.6281H6.49547V64.9586H8.66071V75.7848H12.9912V64.9586H15.1564V67.1238H17.3217V71.4543H19.4869V75.7848H23.8174V62.7934H19.4869V58.4629H21.6521V45.4715H23.8174V58.4629H21.6521V60.6281H28.1478V43.3062H25.9826V41.141H8.66071V43.3062H6.49547V47.6367ZM6.49547 47.6367V58.4629H2.16499V54.1324H4.33023V47.6367H6.49547Z" fill="black"/>
<path fill-rule="evenodd" clip-rule="evenodd" d="M8.73531 2.15869H23.848V4.31765H26.007H28.166V6.47661H30.3249V23.7483H32.4839V30.2252H30.3249H28.166V34.5431H26.007V36.7021H23.848H21.6891V38.861H8.73531V36.7021H6.57635L6.57635 34.5431H4.41739V6.47661H6.57635L6.57635 4.31765H8.73531V2.15869Z" fill="#FAE6CE"/>
<path fill-rule="evenodd" clip-rule="evenodd" d="M19.5299 2.15869H8.73509V4.31765H6.57613V6.47661H10.8941V4.31765H19.5299V2.15869ZM6.57613 6.47661H4.41717V23.7483H6.57613V6.47661ZM30.3247 6.47661H28.1657V23.7483H30.3247V6.47661ZM26.0068 34.5431H28.1657V28.0662H30.3247V25.9073H28.1657V23.7483H26.0068V34.5431ZM19.5299 36.7021V34.5431H26.0068V36.7021H21.6889V38.861H8.73509V36.7021H19.5299ZM28.1657 6.47661V4.31765H26.0068V6.47661H28.1657Z" fill="#714A1C" fill-opacity="0.25" style="mix-blend-mode:multiply"/>
<path fill-rule="evenodd" clip-rule="evenodd" d="M19.5301 6.47656H21.6891V8.63552H19.5301V6.47656ZM17.3712 6.47656H10.8943V8.63552H17.3712V6.47656ZM8.73531 10.7945V8.63552H10.8943V10.7945H8.73531ZM8.73531 10.7945V12.9534H6.57635V10.7945H8.73531ZM32.4839 23.7483H30.3249V25.9072H32.4839V23.7483Z" fill="#FFFCF9" fill-opacity="0.7" style="mix-blend-mode:lighten"/>
<path fill-rule="evenodd" clip-rule="evenodd" d="M21.6885 19.4307H17.3706V21.5896H21.6885V19.4307ZM17.3706 21.5896H15.2116V23.7486H17.3706V21.5896ZM17.3706 25.9075H19.5295V28.0665H17.3706V25.9075ZM15.2116 32.3844H10.8937V34.5434H15.2116V32.3844ZM8.73471 21.5896H10.8937V23.7486H8.73471V21.5896ZM8.73471 21.5896H6.57575V19.4307H8.73471V21.5896ZM8.73471 25.9075H10.8937V28.0665H8.73471V25.9075Z" fill="black"/>
<path fill-rule="evenodd" clip-rule="evenodd" d="M21.6885 21.5894H17.3706V23.7483H21.6885V21.5894ZM17.3706 23.7483H15.2116V25.9073H17.3706V23.7483ZM17.3706 28.0662H19.5295V30.2252H17.3706V28.0662ZM10.8937 28.0662H8.73471V30.2252H10.8937V28.0662ZM6.57575 21.5894H8.73471V23.7483H6.57575V21.5894Z" fill="#714A1C" fill-opacity="0.25" style="mix-blend-mode:multiply"/>
<path fill-rule="evenodd" clip-rule="evenodd" d="M23.8478 0H8.73504V2.15896H23.8478V0ZM28.1657 4.31792V2.15896H23.8478V4.31792H28.1657ZM30.3247 6.47688V4.31792H28.1657V6.47688H30.3247ZM30.3247 23.7486V6.47688H32.4836V23.7486H34.6426V30.2255H32.4836V32.3844H30.3247V34.5434H28.1657V36.7023H26.0067V38.8613H21.6888V41.0203H8.73504V38.8613H6.57608L6.57608 36.7023H4.41712V34.5434H2.25816V6.47688H4.41712V4.31792H6.57608V2.15896H8.73504V4.31792H6.57608L6.57608 6.47688H4.41712V34.5434H6.57608V36.7023H8.73504V38.8613H21.6888V36.7023H26.0067V34.5434H28.1657V32.3844V30.2255H32.4836V23.7486H30.3247ZM30.3247 23.7486V25.9075H28.1657V23.7486H30.3247Z" fill="black"/>
<path fill-rule="evenodd" clip-rule="evenodd" d="M26.4225 29.3721H28.6191V33.8908H26.423V36.9034H24.2263V30.8784H26.4225V29.3721ZM15.4398 30.8784H11.0466V32.3846H15.4398V30.8784ZM14.3412 35.3973H12.1446V36.9035H14.3412V35.3973ZM15.4394 32.3847H17.636V41.4222H15.4398V41.4223H11.0466V36.9036H15.4394V32.3847ZM11.0464 32.3847H8.84975V41.4222H11.0464V32.3847ZM17.6363 32.3847H22.029H22.0295H24.2257V38.4097H22.0295V39.9159H17.6363V32.3847ZM8.84907 32.3847H6.65289H6.65245H4.45627V39.9159H6.65245V41.4222H8.84907V32.3847Z" fill="#252525"/>
<path fill-rule="evenodd" clip-rule="evenodd" d="M28.6191 29.3721H26.4225V32.3847H24.2263V36.9034H26.423V33.8908H28.6191V29.3721ZM4.45627 32.3847H6.65289V35.3973H8.84907V39.916H6.65245V36.9034H4.45627V32.3847ZM13.2425 39.9162H8.84931V41.4224H13.2425V39.9162ZM8.84975 38.4099H11.0464V39.9161H8.84975V38.4099ZM24.2257 35.3973H22.029V36.9036H19.8329V39.9161H22.0295V38.4098H24.2257V35.3973Z" fill="black" fill-opacity="0.2" style="mix-blend-mode:multiply"/>
<path fill-rule="evenodd" clip-rule="evenodd" d="M4.45671 32.3848H2.2601V36.9035H4.45671V32.3848ZM28.6191 33.8911H26.4225V36.9036H28.6191V33.8911ZM22.029 38.41H24.2257V39.9162H22.029V38.41ZM8.84907 39.9163H6.65245V41.4225H8.84907V39.9163ZM4.45627 36.9037H6.65289V39.9162H4.45627V36.9037ZM22.0295 39.9163H17.6363V41.4225H22.0295V39.9163ZM8.84955 41.4226H17.636V42.9288H8.84955V41.4226ZM24.2263 36.9037H26.423V38.4099H24.2263V36.9037Z" fill="black"/>
<path fill-rule="evenodd" clip-rule="evenodd" d="M25.7735 1.84131H23.9325H9.20469V3.68228H7.36371V7.36423H5.52274V12.8872H7.36371V14.7281H9.20469V12.8872H23.9325V14.7281H25.7735V25.774H27.6144V22.092H29.4554V12.8872H31.2964V5.52326H29.4554V3.68228H27.6144H25.7735V1.84131Z" fill="#252525"/>
<path fill-rule="evenodd" clip-rule="evenodd" d="M11.0463 3.68164H20.2512V5.52262H11.0463V3.68164ZM22.0921 5.52262H23.9331V7.36359H22.0921V5.52262Z" fill="white" fill-opacity="0.3" style="mix-blend-mode:lighten"/>
<path fill-rule="evenodd" clip-rule="evenodd" d="M7.36371 3.68164H9.20469V7.36359H11.0457V9.20457H9.20469V11.0455H23.9325V12.8865H9.20469V14.7275H7.36371V12.8865H5.52274V7.36359H7.36371V3.68164ZM31.2964 5.52262H29.4554V7.36359H27.6144V11.0455H25.7735V25.7733H27.6144V22.0914H29.4554V12.8865H31.2964V5.52262Z" fill="black" fill-opacity="0.2" style="mix-blend-mode:multiply"/>
<path fill-rule="evenodd" clip-rule="evenodd" d="M9.20502 0H25.7738V1.84097H29.4557V3.68195H31.2967V5.52292H33.1377V12.8868H31.2967V5.52292H29.4557V3.68195H25.7738V1.84097H9.20502V3.68195H7.36405V7.3639H5.52307V12.8868H7.36405V16.5688H5.52307V12.8868H3.6821V7.3639H5.52307V3.68195H7.36405V1.84097H9.20502V0Z" fill="black"/>
<path fill-rule="evenodd" clip-rule="evenodd" d="M19.2805 60.8354H23.498V73.3875H19.2805V60.8354ZM17.1719 60.8354H19.2803V71.2955H17.1716V69.2035H15.0632V60.8354H17.1716H17.1719ZM12.9542 60.8354H15.0626V62.9275H12.9542V73.3875H8.7367V60.8354H12.9538H12.9542ZM6.62771 60.8354H8.73646V71.2955H6.62771V60.8354Z" fill="#2E8EE6"/>
<path fill-rule="evenodd" clip-rule="evenodd" d="M23.4981 58.7432H25.6064V77.5713H23.4981H23.4977H19.2806V75.4793H23.4977V65.0192H21.3893V62.9272H23.4977V60.8352H6.62814V62.9272H8.7365V65.0192H6.62814V71.2953H8.7365V77.5713H6.62814H6.62774H4.51938V75.4793H6.62774V71.2953H4.51938V58.7432H6.62806H6.62814H23.4977H23.4981ZM19.2803 71.2953H17.1716V77.5713H19.2803V71.2953ZM15.0626 69.2032H17.171V71.2953H15.0626V77.5713L12.9542 77.5713L12.9538 77.5713L8.73673 77.5713V75.4793H12.9538V62.9272H15.0626V69.2032Z" fill="black"/>
<path fill-rule="evenodd" clip-rule="evenodd" d="M23.498 60.8354H21.3893V62.9275H23.498V60.8354ZM23.498 65.0195H21.3893V67.1115H23.498V65.0195ZM19.2809 71.2955H21.3897V73.3875H19.2809V71.2955ZM19.2803 69.2035H17.1719V62.9275H15.0632V69.2035H17.1716V71.2955H19.2803V69.2035ZM6.62771 60.8354H8.73646V62.9275H6.62771V60.8354ZM8.73646 65.0195H6.62771V67.1115H8.73646V65.0195ZM10.8454 65.0195H12.9542V73.3875L10.8458 73.3875L10.8454 73.3875L8.73709 73.3875V69.2035H10.8454V65.0195Z" fill="black" fill-opacity="0.2" style="mix-blend-mode:multiply"/>
<path fill-rule="evenodd" clip-rule="evenodd" d="M19.2805 73.3872H23.498V75.4792H19.2805V73.3872ZM8.73673 73.3873H12.9542V75.4793H8.73673V73.3873Z" fill="#258A02"/>
<path fill-rule="evenodd" clip-rule="evenodd" d="M21.3893 73.3872H23.498V75.4792H21.3893V73.3872ZM10.8455 73.3873H12.9542V75.4793H10.8455V73.3873Z" fill="black" fill-opacity="0.2" style="mix-blend-mode:multiply"/>
<path fill-rule="evenodd" clip-rule="evenodd" d="M22.5957 35.3965H24.8551V37.6559H27.1144V39.9152H29.3738V42.1746H31.6332V55.7309H33.8926V60.2496H31.6332V62.509H27.1144V60.2496H2.26128V57.9903H0.00190735V53.4715H2.26128V46.6934L4.52066 46.6934V42.1746H6.78004V39.9152H9.03942V37.6559H11.2988V39.9152H13.5582V42.1746H18.0769V39.9152H20.3363V37.6559H22.5957V35.3965ZM22.5957 37.6559V39.9152H20.3363L20.3363 42.1746H18.0769V44.434H13.5582V42.1746H11.2988V39.9152H9.03942V42.1746H6.78004V46.6934H9.03942V57.9903L22.5957 57.9903V44.434H24.8551V46.6934H29.3738V42.1746H27.1144V39.9152H24.8551V37.6559H22.5957ZM4.52066 57.9903H2.26128V53.4715H4.52066V46.6934L6.78004 46.6934L6.78004 55.7309H4.52066V57.9903ZM24.8551 57.9903L27.1144 57.9903V60.2496H31.6332V55.7309H29.3738V48.9528H24.8551V57.9903Z" fill="black"/>
<path fill-rule="evenodd" clip-rule="evenodd" d="M13.5583 39.9155H18.077V42.1749H13.5583V39.9155ZM29.3739 48.953H27.1145H24.8552V57.9906H27.1145V60.2499H29.3739H31.6333V55.7312H29.3739V48.953ZM2.26138 53.4718H4.52076V46.6937H6.78014V55.7312H4.52076V57.9906H2.26138V53.4718Z" fill="#FAE6CE"/>
<path fill-rule="evenodd" clip-rule="evenodd" d="M18.0766 39.9155H13.5579V42.1749H18.0766V39.9155ZM6.77975 46.6937H4.52038V53.4718H2.261V57.9906H4.52038V55.7312H6.77975V46.6937ZM27.1142 48.953H24.8548V57.9906H27.1142V60.2499H29.3735V55.7312H27.1142V48.953Z" fill="#714A1C" fill-opacity="0.25" style="mix-blend-mode:multiply"/>
<path fill-rule="evenodd" clip-rule="evenodd" d="M22.5954 37.6558H24.8548V39.9151H27.1142V42.1745H29.3735V46.6933H27.1142H24.8548V44.4339H22.5954L22.5954 57.9902H20.336L18.0766 57.9902H15.8173H13.5579H11.2985L9.03913 57.9902L9.03913 46.6933H6.77975V42.1745H9.03913L9.03913 39.9151H11.2985V42.1745H13.5579V44.4339H15.8173H18.0766V42.1745H20.336V39.9151H22.5954L22.5954 37.6558Z" fill="#082E8D"/>
<path fill-rule="evenodd" clip-rule="evenodd" d="M24.8554 37.6558H22.596V39.9151H24.8554V37.6558ZM11.2991 39.9151H9.03972V42.1745H11.2991V39.9151ZM9.03972 42.1745L9.03972 46.6933H6.78034V42.1745H9.03972ZM9.03972 55.7308H22.596V57.9902H9.03972V55.7308ZM22.596 42.1745H24.8554V44.4339H27.1147V46.6933H24.8554L24.8554 44.4339H22.596V42.1745Z" fill="black" fill-opacity="0.2" style="mix-blend-mode:multiply"/>
</svg>
