<svg width="37" height="81" viewBox="0 0 37 81" fill="none" xmlns="http://www.w3.org/2000/svg">
<path d="M24.4919 6.4585H9.7547V8.5638H7.64939V10.6691H5.54409V38.0381H7.64939V40.1434H9.7547V42.2487H22.3865V40.1434H26.5972V38.0381H28.7025V33.8275H32.9131V27.5116H30.8078V10.6691H28.7025V8.5638H24.4919V6.4585Z" fill="#FAE6CE"/>
<path fill-rule="evenodd" clip-rule="evenodd" d="M26.5972 44.354H9.7547V46.4593H7.64939V50.67H9.7547V63.3018H7.64939V67.5124H9.7547V78.039H13.9653V67.5124H16.0706V71.723H18.1759V73.8283H20.2812V78.039H24.4919V65.4071H22.3865V63.3018H28.7025V46.4593H26.5972V44.354ZM24.4919 48.5647H22.3865V61.1965H24.4919V48.5647Z" fill="#FAE6CE"/>
<path d="M7.64939 50.67H5.54409V56.9859H3.43878V61.1965H7.64939V50.67Z" fill="#FAE6CE"/>
<path d="M9.75405 6.4585H20.2806V8.5638H11.8594V10.6691H7.64875V27.5116H5.54344V10.6691H7.64875V8.5638H9.75405V6.4585Z" fill="#E3C4A6"/>
<path d="M28.7018 10.6691H30.8071V19.0903H28.7018V10.6691Z" fill="#E3C4A6"/>
<path d="M30.8071 29.6169H28.7018V27.5116H26.5965V38.0381H28.7018V31.7222H30.8071V29.6169Z" fill="#E3C4A6"/>
<path d="M26.5965 38.0381H20.2806V40.1434H9.75405V42.2487H22.3859V40.1434H26.5965V38.0381Z" fill="#E3C4A6"/>
<path d="M7.64875 50.67H5.54344V56.9859H3.43813V61.1965H7.64875V50.67Z" fill="#E3C4A6"/>
<path d="M7.64875 50.67H9.75405V48.5647H11.8594V46.4593H22.3859V44.354H9.75405V46.4593H7.64875V50.67Z" fill="#E3C4A6"/>
<path d="M7.64875 63.3018H9.75405V52.7753H11.8594V63.3018H9.75405V67.5124H7.64875V63.3018Z" fill="#E3C4A6"/>
<path d="M11.8594 69.6177H9.75405V78.039H11.8594V69.6177Z" fill="#E3C4A6"/>
<path d="M22.3859 65.4071H24.4912V78.039H20.2806V73.8283H22.3859V65.4071Z" fill="#E3C4A6"/>
<path d="M18.1753 67.5124H16.07V69.6177H18.1753V67.5124Z" fill="#E3C4A6"/>
<path d="M24.4912 52.7753H26.5965V59.0912H28.7018V63.3018H22.3859V61.1965H24.4912V52.7753Z" fill="#E3C4A6"/>
<path d="M22.3865 10.6689H20.2812V12.7743H22.3865V10.6689Z" fill="#FFF8EF"/>
<path d="M11.86 10.6689H18.1759V12.7743H11.86V14.8796H9.7547V16.9849H7.64939V14.8796H9.7547V12.7743H11.86V10.6689Z" fill="#FFF8EF"/>
<path d="M30.8078 27.5114H32.9131V29.6167H30.8078V27.5114Z" fill="#FFF8EF"/>
<path d="M26.5972 44.3539H22.3865V46.4592H26.5972V44.3539Z" fill="#FFF8EF"/>
<path d="M26.5972 46.4592V48.5645H28.7025V46.4592H26.5972Z" fill="#FFF8EF"/>
<path d="M18.1759 51.7225H20.2812V55.9331H18.1759V51.7225Z" fill="#FFF8EF"/>
<path d="M18.1759 51.7225H16.0706V49.6171H18.1759V51.7225Z" fill="#FFF8EF"/>
<path d="M13.9653 65.407H16.0706V67.5123H13.9653V65.407Z" fill="#FFF8EF"/>
<path fill-rule="evenodd" clip-rule="evenodd" d="M9.75438 4.35303H24.4915V6.45833H28.7021V8.56364H30.8075V10.669H32.9128V27.5114H35.0181V33.8273H32.9128V35.9326H30.8075V38.0379H28.7021V40.1433H26.5968V44.3539H28.7021V46.4592H30.8075V63.3016H28.7021V65.4069H26.5968V80.1441H18.1756V73.8282H16.0703V80.1441H5.54376V78.0388H7.64907V67.5123H5.54376V63.3016H3.43845V61.1963H1.33315V56.9857H3.43845V50.6698H5.54376V46.4592H7.64907V44.3539H9.75438V42.2486H7.64907V40.1433H5.54376V38.0379H3.43845V10.669H5.54376V8.56364H7.64907V6.45833H9.75438V4.35303ZM9.75438 6.45833V8.56364H7.64907V10.669H5.54376V38.0379H7.64907V40.1433H9.75438V42.2486H22.3862V40.1433H26.5968V38.0379H28.7021V33.8273H32.9128V27.5114H30.8075V29.6167H28.7021V27.5114H30.8075V10.669H28.7021V8.56364H24.4915V6.45833H9.75438ZM7.64907 50.6698H9.75438V63.3016H7.64907V67.5123H9.75438V78.0388H13.965V67.5123H16.0703V69.6176H18.1756V73.8282H20.2809V78.0388H24.4915V65.4069H20.2809V61.1963H22.3862V48.5645H24.4915V61.1963H22.3862V63.3016H28.7021V46.4592H26.5968V44.3539H9.75438V46.4592H7.64907V50.6698ZM7.64907 50.6698V61.1963H3.43845V56.9857H5.54376V50.6698H7.64907Z" fill="black"/>
<path fill-rule="evenodd" clip-rule="evenodd" d="M10.5102 6.92676H25.1755V9.0218H27.2705H29.3656V11.1168H31.4606V27.8771H33.5557V34.1623H31.4606H29.3656V38.3523H27.2705V40.4474H25.1755H23.0805V42.5424H10.5102V40.4474H8.41521L8.41521 38.3523H6.32017V11.1168H8.41521L8.41521 9.0218H10.5102V6.92676Z" fill="#FAE6CE"/>
<path fill-rule="evenodd" clip-rule="evenodd" d="M20.9848 6.92676H10.5096V9.0218H8.41454V11.1168H12.6046V9.0218H20.9848V6.92676ZM8.41454 11.1168H6.3195V27.8771H8.41454V11.1168ZM31.46 11.1168H29.3649V27.8771H31.46V11.1168ZM27.2699 38.3523H29.3649V32.0672H31.46V29.9722H29.3649V27.8771H27.2699V38.3523ZM20.9848 40.4474V38.3523H27.2699V40.4474H23.0798V42.5424H10.5096V40.4474H20.9848ZM29.3649 11.1168V9.0218H27.2699V11.1168H29.3649Z" fill="#714A1C" fill-opacity="0.25" style="mix-blend-mode:multiply"/>
<path fill-rule="evenodd" clip-rule="evenodd" d="M20.9854 11.1172H23.0805V13.2122H20.9854V11.1172ZM18.8904 11.1172H12.6053V13.2122H18.8904V11.1172ZM10.5102 15.3073V13.2122H12.6053V15.3073H10.5102ZM10.5102 15.3073V17.4023H8.41521V15.3073H10.5102ZM33.5557 27.8775H31.4606V29.9725H33.5557V27.8775Z" fill="#FFFCF9" fill-opacity="0.7" style="mix-blend-mode:lighten"/>
<path fill-rule="evenodd" clip-rule="evenodd" d="M20.985 25.7827H18.89V27.8778H20.985V25.7827ZM20.985 27.8778V29.9728H23.0801V27.8778H20.985ZM18.89 27.8778H16.795V29.9728H18.89V27.8778ZM12.6049 36.2579V38.3529H16.795V36.2579H12.6049ZM10.5098 25.7827H12.6049V27.8778H14.6999V29.9728H12.6049L12.6049 27.8778H10.5098V29.9728H8.41481V27.8778H10.5098V25.7827Z" fill="black"/>
<path fill-rule="evenodd" clip-rule="evenodd" d="M16.7951 25.7827H18.8901V27.8778H16.7951V29.9728H14.7001V27.8778H16.7951V25.7827Z" fill="#714A1C" fill-opacity="0.25" style="mix-blend-mode:multiply"/>
<path fill-rule="evenodd" clip-rule="evenodd" d="M25.1752 4.83203H10.5099V6.92707H25.1752V4.83203ZM29.3653 9.02211V6.92707H25.1752V9.02211H29.3653ZM31.4603 11.1171V9.02211H29.3653V11.1171H31.4603ZM31.4603 27.8775V11.1171H33.5554V27.8775H35.6504V34.1626H33.5554V36.2576L31.4603 36.2576V38.3526H29.3653V40.4477H27.2702V42.5427H23.0802V44.6378H10.5099V42.5427L8.4149 42.5427L8.41489 40.4477H6.31986V38.3526H4.22482V11.1171H6.31986V9.02211H8.4149V6.92707H10.5099V9.02211H8.4149L8.41489 11.1171H6.31986V38.3526H8.41489V40.4477H10.5099V42.5427L23.0802 42.5427V40.4477H27.2702V38.3526H29.3653V36.2576V34.1626H33.5554V27.8775H31.4603ZM31.4603 27.8775V29.9725H29.3653V27.8775H31.4603Z" fill="black"/>
<path fill-rule="evenodd" clip-rule="evenodd" d="M13.0473 1.96436H15.0114V3.92845H16.9755V5.89255H20.9037H22.8678H24.8319H26.796V3.92845H28.76H30.7241H32.6882H34.6523V9.82075L32.6882 9.82075V15.713H34.6523V27.4976H32.6882V29.4617H30.7241V31.4258H28.76V27.4976H26.796V25.5335H24.8319V23.5694H22.8678V19.6412H20.9037V17.6771H16.9755L15.0114 17.6771H13.0473H11.0832V21.6053H9.11907V23.5694H7.15497V25.5335H5.19087V11.7848H7.15497V9.82075H9.11907V7.85665V1.96436H11.0832H13.0473ZM30.7241 9.82075H32.6882V7.85665H30.7241V9.82075Z" fill="#BA6434"/>
<path fill-rule="evenodd" clip-rule="evenodd" d="M13.0473 3.92822H16.9755V5.89232H20.9037V7.85642H18.9396V9.82052H16.9755V11.7846H20.9037V9.82052H24.8319V7.85642H26.796L26.796 5.89232H30.7241V7.85642H26.796V9.82052H24.8319V11.7846L22.8678 11.7846V13.7487H24.8319H26.796V15.7128H28.76V13.7487H30.7241V11.7846H32.6882V15.7128H30.7241V17.6769H28.76V19.641H30.7241V21.6051H32.6882V19.641H34.6523V27.4974H32.6882V29.4615H30.7241V31.4256H28.76V27.4974H26.796V25.5333H24.8319V23.5692H22.8678V19.641H20.9037V17.6769H16.9755H11.0832V21.6051H9.11907V23.5692H7.15497V25.5333H5.19087V23.5692H7.15497V21.6051H9.11907V17.6769H11.0832V15.7128H16.9755H20.9037V17.6769H22.8678V19.641H24.8319V23.5692H26.796V25.5333H28.76V21.6051H26.796V17.6769H24.8319V15.7128H22.8678V13.7487H9.11907H7.15497V11.7846H9.11907L13.0473 11.7846V9.82052H15.0114V7.85642H16.9755V5.89232H13.0473V7.85642H9.11907V5.89232H13.0473V3.92822ZM34.6523 5.89232H32.6882V9.82052H34.6523V5.89232Z" fill="black" fill-opacity="0.2" style="mix-blend-mode:multiply"/>
<path fill-rule="evenodd" clip-rule="evenodd" d="M9.1193 1.96436H13.0475V3.92845H9.1193V1.96436ZM28.7603 3.92845H32.6885V5.89255H28.7603V3.92845ZM18.9398 15.713V13.7489H22.868V15.713H24.8321V17.6771H26.7962V19.6412H24.8321L24.8321 17.6771H22.868V15.713H18.9398ZM16.9757 5.89255H13.0475V7.85665H16.9757V5.89255ZM13.0475 7.85665H9.1193V9.82075H13.0475V7.85665ZM20.9039 5.89255H24.8321V7.85665H20.9039V9.82075H18.9398V7.85665H20.9039V5.89255ZM26.7962 7.85665V9.82075H30.7244V7.85665H26.7962ZM26.7962 9.82075V11.7848H24.8321V9.82075H26.7962ZM9.1193 13.7489H11.0834V15.713H9.1193V19.6412H7.1552V21.6053H5.1911V19.6412H7.1552V15.713H9.1193V13.7489Z" fill="white" fill-opacity="0.3" style="mix-blend-mode:lighten"/>
<path fill-rule="evenodd" clip-rule="evenodd" d="M9.11933 0H15.0116V1.9641H16.9757V3.9282H26.7962V1.9641H34.6526V3.9282H36.6167V9.82049H34.6526V15.7128L36.6167 15.7128V27.4974H34.6526V15.7128H32.6885V9.82049H30.7244V7.85639H32.6885V9.82049H34.6526V3.9282H26.7962V5.89229H16.9757V3.9282H15.0116V1.9641H9.11933V7.85639V9.82049H7.15523V15.7128H5.19113V25.5333H3.22703V15.7128L5.19113 15.7128V9.82049H7.15523V7.85639V1.9641H9.11933V0Z" fill="black"/>
<path fill-rule="evenodd" clip-rule="evenodd" d="M15.6831 69.9648H23.8989V74.0728H15.6831V69.9648ZM7.46725 69.9648H13.6291V74.0728H7.46725V69.9648Z" fill="#FAE6CE"/>
<path fill-rule="evenodd" clip-rule="evenodd" d="M23.8989 69.9648H21.845V72.0188H23.8989V69.9648ZM9.52121 69.9648H7.46725V74.0728H9.52121V69.9648ZM17.737 72.0188H19.791V74.0728H17.737V72.0188ZM17.737 72.0188H15.6831V69.9648H17.737V72.0188ZM11.5752 72.0188H13.6291V74.0728H11.5752V72.0188Z" fill="#714A1C" fill-opacity="0.25" style="mix-blend-mode:multiply"/>
<path d="M23.8989 63.8027H7.46725V67.9107H23.8989V63.8027Z" fill="#A70000"/>
<path fill-rule="evenodd" clip-rule="evenodd" d="M23.8989 63.8027H21.845V65.8567H23.8989V63.8027ZM9.52121 63.8027H7.46725V65.8567H9.52121V63.8027ZM15.6831 65.8567H17.737V67.9107H15.6831V65.8567Z" fill="black" fill-opacity="0.2" style="mix-blend-mode:multiply"/>
<path fill-rule="evenodd" clip-rule="evenodd" d="M19.791 76.1265H23.8989V78.1804H19.791V76.1265ZM9.52121 76.1265H13.6291V78.1804H9.52121V76.1265Z" fill="#BA6434"/>
<path fill-rule="evenodd" clip-rule="evenodd" d="M21.845 76.1265H23.8989V78.1804H21.845V76.1265ZM11.5752 76.1265H13.6291V78.1804H11.5752V76.1265Z" fill="black" fill-opacity="0.2" style="mix-blend-mode:multiply"/>
<path fill-rule="evenodd" clip-rule="evenodd" d="M23.8987 61.749H25.9526V80.2347H23.8987H19.7908H17.7368V74.0728H15.6828V80.2347H13.6289H9.52097H7.46701H5.41305V78.1807H7.46701V74.0728H5.41305V61.749H7.46701H23.8987ZM13.6289 74.0728H9.52097H7.46701V69.9649H13.6289V74.0728ZM13.6289 76.1267V78.1807H9.52097V76.1267H13.6289ZM13.6289 67.9109H9.52097V65.8569H7.46701V63.803H23.8987V65.8569H21.8447V67.9109H15.6828V65.8569H13.6289V67.9109ZM15.6828 69.9649V72.0188H17.7368V74.0728H19.7908H23.8987V69.9649H15.6828ZM19.7908 78.1807V76.1267H23.8987V78.1807H19.7908Z" fill="black"/>
<path fill-rule="evenodd" clip-rule="evenodd" d="M13.3096 44.9023H17.7461V47.136H13.3096V44.9023ZM2.21875 58.3044H4.43703V62.7718H2.21875V58.3044ZM28.8379 60.538H31.0562V65.0053H28.8379V60.538ZM28.8375 58.3044H26.6198H26.6192H24.4015V62.7718H26.6192V65.0055H28.8375V58.3044ZM6.65657 56.0709H4.43829V60.5383H6.65657V56.0709Z" fill="#FAE6CE"/>
<path fill-rule="evenodd" clip-rule="evenodd" d="M17.7441 44.9023H13.3075V47.136H17.7441V44.9023ZM6.6527 56.0709H4.43442V58.3044H2.21759V62.7718H4.43586V60.5383H6.6527V56.0709ZM26.6168 58.3044H24.3985V62.7718H26.6168V58.3044ZM26.6172 60.538H28.8354V65.0053H26.6172V60.538Z" fill="#714A1C" fill-opacity="0.25" style="mix-blend-mode:multiply"/>
<path fill-rule="evenodd" clip-rule="evenodd" d="M22.1827 42.6685H24.401V49.3695H22.1833V62.7714H19.965V44.902H22.1827V42.6685ZM26.6196 44.902H24.4014V56.0704H26.6191V56.0707H28.8374V56.0704H31.0542V51.603H28.8374V47.136H26.6196V44.902ZM4.43634 51.603H6.65462V53.8367H4.43634V51.603ZM17.7464 47.136H19.9646V62.7717H17.7464V47.136ZM17.7451 49.3695H15.5274H15.5268H13.3091V62.7716H15.5268H15.5274H17.7451V49.3695ZM13.3087 47.136H11.091V44.902H8.87271V47.136H6.65498V51.6033H8.87271V62.7714H11.0904V62.7717H13.3087V47.136Z" fill="#403F3F"/>
<path fill-rule="evenodd" clip-rule="evenodd" d="M22.1816 42.6685H24.3999V44.9021H22.1816V42.6685ZM8.8734 44.902H11.0917V47.1357H8.8734V44.902ZM13.3107 47.136H11.0924V49.3696H13.3107V47.136ZM8.87376 56.0705H11.092V60.5379H8.87376V56.0705ZM8.87195 60.538H22.1816V62.7717H8.87195V60.538ZM28.8379 51.603H31.0562V56.0704H28.8379V51.603ZM22.1816 58.3041H19.9633V60.5377H22.1816V58.3041ZM19.9633 51.603H22.1816V53.8367H19.9633V51.603ZM24.3999 47.136H22.1816V49.3696H24.3999V47.136ZM26.6194 49.3695H24.4011V51.6032H26.6194V49.3695ZM6.65657 47.136H8.87484V51.6033H6.65657V47.136ZM6.6553 51.603H4.43703V53.8367H6.6553V51.603Z" fill="black" fill-opacity="0.2" style="mix-blend-mode:multiply"/>
<path fill-rule="evenodd" clip-rule="evenodd" d="M24.3994 40.4346H22.1811V42.6681H19.9643V44.9018H22.1825V42.6683H24.3994V40.4346ZM26.6189 42.6681H24.4006V44.9018H26.6189V42.6681ZM8.8729 42.6681H11.0912V44.9018H8.8729V42.6681ZM17.7456 44.9021H19.9639V47.1358H17.7456V44.9021ZM13.3098 44.9021H11.0915V47.1358H13.3087V49.3693H13.3102V51.6028H15.5284V49.3693H17.7453V47.1356H13.3098V44.9021ZM28.8376 44.9021H26.6193V47.1358H28.837V51.603H31.0553V47.1356H28.8376V44.9021ZM24.401 56.0702H28.837H28.8376H31.0553V60.5375H28.837V58.3039H24.401V56.0702ZM31.0557 51.6031H33.2739V56.0705H31.0557V51.6031ZM31.0557 60.5377H33.2739V65.0051H31.0557V60.5377ZM26.6187 65.0052V67.2389H31.0553V65.0052H26.6187ZM22.1811 49.3691H24.3994V62.7712H26.6189V65.0049H2.21789V62.7715H0.000156403V58.3042L2.21789 58.3042V51.6031H4.43616V58.3042L2.21843 58.3042V62.7712H4.43653V60.5377H6.6548V62.7712H6.65606V51.6031H8.87434V60.5377H11.0912V62.7712H13.3102V60.5377H15.5284V62.7712H19.9643V60.5377H22.1811V49.3691ZM15.5284 56.0702H13.3102V58.3039H15.5284V56.0702ZM8.87434 47.1356H11.0912V51.603H8.8729V47.1358H6.65606V44.9021H8.87434V47.1356ZM6.6548 53.8367H4.43653V56.0703H6.6548V53.8367ZM4.43653 47.1356H6.6548V51.603H4.43653V47.1356Z" fill="black"/>
</svg>
