<svg width="35" height="78" viewBox="0 0 35 78" fill="none" xmlns="http://www.w3.org/2000/svg">
<path d="M10.7815 2.15771H25.8756V4.31402H28.032V6.47033H30.1883V34.5024H28.032V36.6587H25.8756V38.815H12.9378V36.6587H8.62518V34.5024H6.46887V30.1897H2.15625V23.7208H4.31256V6.47033H6.46887V4.31402H10.7815V2.15771Z" fill="#FAE6CE"/>
<path fill-rule="evenodd" clip-rule="evenodd" d="M8.62518 40.9713H25.8756V43.1276H28.032V47.4402H25.8756V60.3781H28.032V64.6907H25.8756V75.4722H21.563V64.6907H19.4067V69.0033H17.2504V71.1596H15.0941V75.4722H10.7815V62.5344H12.9378V60.3781H6.46887V43.1276H8.62518V40.9713ZM10.7815 45.2839H12.9378V58.2218H10.7815V45.2839Z" fill="#FAE6CE"/>
<path d="M28.032 47.4402H30.1883V53.9091H32.3446V58.2218H28.032V47.4402Z" fill="#FAE6CE"/>
<path d="M25.8756 2.15771H15.094V4.31402H23.7193V6.47033H28.0319V23.7208H30.1882V6.47033H28.0319V4.31402H25.8756V2.15771Z" fill="#E3C4A6"/>
<path d="M6.46881 6.47033H4.3125V15.0956H6.46881V6.47033Z" fill="#E3C4A6"/>
<path d="M4.3125 25.8771H6.46881V23.7208H8.62512V34.5024H6.46881V28.0334H4.3125V25.8771Z" fill="#E3C4A6"/>
<path d="M8.62512 34.5024H15.094V36.6587H25.8756V38.815H12.9377V36.6587H8.62512V34.5024Z" fill="#E3C4A6"/>
<path d="M28.0319 47.4402H30.1882V53.9091H32.3445V58.2218H28.0319V47.4402Z" fill="#E3C4A6"/>
<path d="M28.0319 47.4402H25.8756V45.2839H23.7193V43.1276H12.9377V40.9713H25.8756V43.1276H28.0319V47.4402Z" fill="#E3C4A6"/>
<path d="M28.0319 60.3781H25.8756V49.5965H23.7193V60.3781H25.8756V64.6907H28.0319V60.3781Z" fill="#E3C4A6"/>
<path d="M23.7193 66.847H25.8756V75.4722H23.7193V66.847Z" fill="#E3C4A6"/>
<path d="M12.9377 62.5344H10.7814V75.4722H15.094V71.1596H12.9377V62.5344Z" fill="#E3C4A6"/>
<path d="M17.2504 64.6907H19.4067V66.847H17.2504V64.6907Z" fill="#E3C4A6"/>
<path d="M10.7814 49.5965H8.62512V56.0654H6.46881V60.3781H12.9377V58.2218H10.7814V49.5965Z" fill="#E3C4A6"/>
<path d="M12.9378 6.4707H15.0941V8.62701H12.9378V6.4707Z" fill="#FFF8EF"/>
<path d="M23.7193 6.4707H17.2504V8.62701H23.7193V10.7833H25.8757V12.9396H28.032V10.7833H25.8757V8.62701H23.7193V6.4707Z" fill="#FFF8EF"/>
<path d="M4.31256 23.7212H2.15625V25.8775H4.31256V23.7212Z" fill="#FFF8EF"/>
<path d="M8.62518 40.9716H12.9378V43.128H8.62518V40.9716Z" fill="#FFF8EF"/>
<path d="M8.62518 43.128V45.2843H6.46887V43.128H8.62518Z" fill="#FFF8EF"/>
<path d="M17.2504 48.5187H15.0941V52.8313H17.2504V48.5187Z" fill="#FFF8EF"/>
<path d="M17.2504 48.5187H19.4067V46.3624H17.2504V48.5187Z" fill="#FFF8EF"/>
<path d="M21.563 62.5347H19.4067V64.691H21.563V62.5347Z" fill="#FFF8EF"/>
<path fill-rule="evenodd" clip-rule="evenodd" d="M25.8757 0.00146484H10.7815V2.15777H6.46893V4.31408H4.31262V6.47039H2.15631V23.7209H0V30.1898H2.15631V32.3461H4.31262V34.5024H6.46893V36.6587H8.62524V40.9713H6.46893V43.1276H4.31262V60.3781H6.46893V62.5344H8.62524V77.6286H17.2505V71.1597H19.4068V77.6286H30.1883V75.4723H28.032V64.6907H30.1883V60.3781H32.3446V58.2218H34.5009V53.9092H32.3446V47.4403H30.1883V43.1276H28.032V40.9713H25.8757V38.815H28.032V36.6587H30.1883V34.5024H32.3446V6.47039H30.1883V4.31408H28.032V2.15777H25.8757V0.00146484ZM25.8757 2.15777V4.31408H28.032V6.47039H30.1883V34.5024H28.032V36.6587H25.8757V38.815H12.9379V36.6587H8.62524V34.5024H6.46893V30.1898H2.15631V23.7209H4.31262V25.8772H6.46893V23.7209H4.31262V6.47039H6.46893V4.31408H10.7815V2.15777H25.8757ZM28.032 47.4403H25.8757V60.3781H28.032V64.6907H25.8757V75.4723H21.5631V64.6907H19.4068V66.847H17.2505V71.1597H15.0942V75.4723H10.7815V62.5344H15.0942V58.2218H12.9379V45.284H10.7815V58.2218H12.9379V60.3781H6.46893V43.1276H8.62524V40.9713H25.8757V43.1276H28.032V47.4403ZM28.032 47.4403V58.2218H32.3446V53.9092H30.1883V47.4403H28.032Z" fill="black"/>
<path fill-rule="evenodd" clip-rule="evenodd" d="M25.801 2.15039H10.7506V4.30045H8.60057H6.45051V6.45051H4.30045V23.651H2.15039V30.1012H4.30045H6.45051V34.4013H8.60057V36.5513H10.7506H12.9007V38.7014H25.801V36.5513H27.9511V34.4013H30.1012V6.45051H27.9511V4.30045H25.801V2.15039Z" fill="#FAE6CE"/>
<path fill-rule="evenodd" clip-rule="evenodd" d="M15.0501 2.15039H25.8004V4.30045H27.9505V6.45051H23.6503V4.30045H15.0501V2.15039ZM27.9505 6.45051H30.1005V23.651H27.9505V6.45051ZM4.2998 6.45051H6.44986V23.651H4.2998V6.45051ZM8.59992 34.4013H6.44986V27.9511H4.2998V25.801H6.44986V23.651H8.59992V34.4013ZM15.0501 36.5513V34.4013H8.59992V36.5513H12.9V38.7014H25.8004V36.5513H15.0501ZM6.44986 6.45051V4.30045H8.59992V6.45051H6.44986Z" fill="#714A1C" fill-opacity="0.25" style="mix-blend-mode:multiply"/>
<path fill-rule="evenodd" clip-rule="evenodd" d="M15.0507 6.4502H12.9007V8.60025H15.0507V6.4502ZM17.2008 6.4502H23.651V8.60025H17.2008V6.4502ZM25.801 10.7503V8.60025H23.651V10.7503H25.801ZM25.801 10.7503V12.9004H27.9511V10.7503H25.801ZM2.15039 23.6507H4.30045V25.8007H2.15039V23.6507Z" fill="#FFFCF9" fill-opacity="0.7" style="mix-blend-mode:lighten"/>
<path fill-rule="evenodd" clip-rule="evenodd" d="M19.3506 21.5005H12.9004V23.6505H19.3506V21.5005ZM17.2005 23.6506H15.0504V27.9508H17.2005V23.6506ZM19.3505 32.2509H23.6506V34.4009H19.3505V32.2509ZM19.3505 34.4009V36.551H17.2005V34.4009H19.3505ZM23.6506 21.5006H25.8007H27.9508V23.6506H25.8007V27.9508H23.6506V21.5006Z" fill="black"/>
<path fill-rule="evenodd" clip-rule="evenodd" d="M21.5003 21.5005H19.3503V23.6505H17.2002V25.8006H19.3503V23.6505H21.5003V21.5005Z" fill="#714A1C" fill-opacity="0.25" style="mix-blend-mode:multiply"/>
<path fill-rule="evenodd" clip-rule="evenodd" d="M10.7503 0H25.8007V2.15006H10.7503V0ZM6.45018 4.30012V2.15006H10.7503V4.30012H6.45018ZM4.30012 6.45018V4.30012H6.45018V6.45018H4.30012ZM4.30012 23.6506V6.45018H2.15006V23.6506H0V30.1008H2.15006V32.2509H4.30012V34.4009H6.45018V36.551H8.60023V38.7011H12.9004V40.8511H25.8007V38.7011H27.9508V36.551H30.1008V34.4009H32.2509V6.45018H30.1008V4.30012H27.9508V2.15006H25.8007V4.30012H27.9508V6.45018H30.1008V34.4009H27.9508V36.551H25.8007V38.7011H12.9004V36.551H8.60023V34.4009H6.45018V32.2509V30.1008H2.15006V23.6506H4.30012ZM4.30012 23.6506V25.8007H6.45018V23.6506H4.30012Z" fill="black"/>
<path fill-rule="evenodd" clip-rule="evenodd" d="M6 25.501H8.25006V32.2508H12.7497V36.751H8.24958V34.5012H6V25.501ZM19.5002 30.0012H17.2501V39.0015H19.5002V30.0012ZM17.25 32.2508H12.7499V39.001H17.25V32.2508ZM19.5008 30.0012H24H24.0009H26.25V39.0015H24V39.0012H19.5008V36.7511H20.6251V34.5015H22.8751V36.7511H24V32.2513H19.5008V30.0012ZM30.7503 32.2508H28.5007H28.5002H26.2507V36.751H28.5007V34.5009H30.7503V32.2508Z" fill="#784522"/>
<path fill-rule="evenodd" clip-rule="evenodd" d="M6 25.501H8.25006V32.2508H10.4996V36.751H8.24958V34.5012H6V25.501ZM26.2507 32.2508H30.7508V34.5009H26.2507V32.2508ZM28.5007 34.5015H26.2507V36.7511H19.5008V39.0012H26.251V36.7516H28.5007V34.5015ZM14.9999 36.7511H12.7503V34.5015H10.5003V36.7516H12.7499V39.0012H14.9999V36.7511Z" fill="black" fill-opacity="0.2" style="mix-blend-mode:multiply"/>
<path fill-rule="evenodd" clip-rule="evenodd" d="M19.4998 66.8354H11.0996V71.0022H19.4998V66.8354ZM27.9002 66.8355H21.6V71.0023H27.9002V66.8355Z" fill="#FAE6CE"/>
<path fill-rule="evenodd" clip-rule="evenodd" d="M11.0996 66.8354H13.1997V68.9188H11.0996V66.8354ZM25.8004 66.8355H27.9004V71.0023H25.8004V66.8355ZM17.3997 68.9189H15.3V71.0023H17.4001V68.9189H19.4997V66.8355H17.3997V68.9189ZM23.7001 68.9189H21.6V71.0023H23.7001V68.9189Z" fill="#714A1C" fill-opacity="0.25" style="mix-blend-mode:multiply"/>
<path d="M11.0996 60.5854H27.9001V64.7522H11.0996V60.5854Z" fill="#4A141B"/>
<path fill-rule="evenodd" clip-rule="evenodd" d="M11.0996 60.5854H13.1997V62.6688H11.0996V60.5854ZM25.8003 60.5854H27.9004V62.6688H25.8003V60.5854ZM19.4997 62.6688H17.3996V64.7522H19.4997V62.6688Z" fill="black" fill-opacity="0.2" style="mix-blend-mode:multiply"/>
<path fill-rule="evenodd" clip-rule="evenodd" d="M15.2997 73.0859H11.0996V75.1693H15.2997V73.0859ZM25.8001 73.0859H21.6V75.1693H25.8001V73.0859Z" fill="#BA6434"/>
<path fill-rule="evenodd" clip-rule="evenodd" d="M13.1997 73.0859H11.0996V75.1693H13.1997V73.0859ZM23.7 73.0859H21.6V75.1693H23.7V73.0859Z" fill="black" fill-opacity="0.2" style="mix-blend-mode:multiply"/>
<path fill-rule="evenodd" clip-rule="evenodd" d="M11.0997 58.502H9V77.2525H11.0997H11.1001H15.2998V75.1691H11.1001V73.0857H15.2998V71.0023H11.1001V66.8355H19.4999V64.7521H13.1997V62.6687H11.1001V60.5853H27.9001V62.6687H25.8004V64.7521H21.6004V62.6687H19.5004V68.9189H17.4007V71.0023H19.5004V77.2525H21.6H21.6004H25.8001V75.1691H21.6004V73.0857H25.8001V71.0023H21.6004V66.8355H27.9001V71.0023H25.8004V77.2525H27.9001H27.9004H30.0001V75.1691H27.9004V71.0023H30.0001V58.502H27.9001H27.9001H11.1001H11.0997ZM15.3 71.0023H17.4001V77.2525H15.3V71.0023Z" fill="black"/>
<path fill-rule="evenodd" clip-rule="evenodd" d="M12.0003 35.251H9.75025V37.501H7.50019V39.7511H5.25012V42.0012H3.00006V55.5015H0.75V60.0017H3.00006V62.2517H7.50019V60.0017H32.2509V57.7516H34.5009V53.2515H32.2509V46.5013H30.0008V42.0012H27.7507V39.7511H25.5007V37.501H23.2506V39.7511H21.0006V42.0012H16.5004V39.7511H14.2504V37.501H12.0003V35.251ZM12.0003 37.501V39.7511H14.2504L14.2504 42.0012H16.5004V44.2512H21.0006V42.0012H23.2506L23.2506 39.7511H25.5007V42.0012H27.7507V46.5013H25.5007V57.7516H12.0003V44.2512H9.75025V53.2515H5.25012V42.0012H7.50019V39.7511H9.75025V37.501H12.0003ZM30.0008 53.2515L30.0008 46.5013H27.7507V53.2515H30.0008ZM30.0008 57.7516H32.2509V53.2515H30.0008L30.0008 57.7516ZM9.75025 57.7516H7.50019V60.0017H3.00006V55.5015H5.25012H9.75025V57.7516Z" fill="black"/>
<path fill-rule="evenodd" clip-rule="evenodd" d="M16.5004 39.7515H21.0005V42.0015H16.5004V39.7515ZM30.0007 53.2518H32.2508V57.752H30.0007V53.2518ZM3 55.5019H5.25006H7.50012H9.75019V57.752H7.50012V60.002H5.25006H3V55.5019Z" fill="#FAE6CE"/>
<path fill-rule="evenodd" clip-rule="evenodd" d="M16.5008 39.7515H21.0009V42.0015H16.5008V39.7515ZM32.2512 53.2518H30.0012V57.752H32.2512V53.2518ZM9.75061 55.5019H7.50055H5.25049V60.002H7.50055V57.752H9.75061V55.5019Z" fill="#714A1C" fill-opacity="0.25" style="mix-blend-mode:multiply"/>
<path fill-rule="evenodd" clip-rule="evenodd" d="M9.75061 37.501H12.0007L12.0007 39.751H14.2507V42.0011H16.5008V44.2512H18.7509H21.0009V42.0011H23.251V39.751H25.501V42.0011H27.7511L27.7511 46.5012H25.501V57.7515H23.251H21.0009H18.7509H16.5008H14.2507H12.0007L12.0007 44.2512H9.75061V53.2514H7.50055H5.25049V42.0011H7.50055V39.751H9.75061V37.501ZM27.7511 46.5012V53.2514H30.0012V46.5012H27.7511Z" fill="#B2DDD8"/>
<path fill-rule="evenodd" clip-rule="evenodd" d="M12.0006 37.501H9.75055V39.751H12.0006V37.501ZM25.501 39.751H23.2509V42.0011H25.501V46.5012H27.751L27.751 53.2514H30.0011V46.5012H27.751V42.0011H25.501V39.751ZM12.0006 55.5015H25.501V57.7515H12.0006V55.5015ZM9.75055 42.0011H12.0006V44.2512H9.75055V42.0011ZM9.75055 44.2512L9.75055 53.2514H7.50049V44.2512H9.75055Z" fill="black" fill-opacity="0.2" style="mix-blend-mode:multiply"/>
</svg>
