<svg width="43" height="75" viewBox="0 0 43 75" fill="none" xmlns="http://www.w3.org/2000/svg">
<path d="M27.0304 6.68018H13.5878V8.60055H11.6674V10.5209H9.74703V35.4858H11.6674V37.4062H13.5878V39.3266H25.11V37.4062H28.9508V35.4858H30.8712V31.6451H34.7119V25.8839H32.7915V10.5209H30.8712V8.60055H27.0304V6.68018Z" fill="#FFDEBB"/>
<path fill-rule="evenodd" clip-rule="evenodd" d="M28.9508 41.2469H13.5878V43.1673H11.6674V47.0081H13.5878V58.5303H11.6674V62.3711H13.5878V71.9729H17.4285V62.3711H19.3489V66.2118H21.2693V68.1322H23.1897V71.9729H27.0304V60.4507H25.11V58.5303H30.8712V43.1673H28.9508V41.2469ZM27.0304 45.0877H25.11V56.6099H27.0304V45.0877Z" fill="#FFDEBB"/>
<path d="M11.6674 47.0081H9.74703V52.7692H7.82665V56.6099H11.6674V47.0081Z" fill="#FFDEBB"/>
<path d="M13.5873 6.68018H23.1891V8.60055H15.5076V10.5209H11.6669V25.8839H9.7465V10.5209H11.6669V8.60055H13.5873V6.68018Z" fill="#714A1C" fill-opacity="0.25" style="mix-blend-mode:multiply"/>
<path d="M30.8706 10.5209H32.791V18.2024H30.8706V10.5209Z" fill="#714A1C" fill-opacity="0.25" style="mix-blend-mode:multiply"/>
<path d="M32.791 27.8043H30.8706V25.8839H28.9503V35.4858H30.8706V29.7247H32.791V27.8043Z" fill="#714A1C" fill-opacity="0.25" style="mix-blend-mode:multiply"/>
<path d="M28.9503 35.4858H23.1891V37.4062H13.5873V39.3266H25.1095V37.4062H28.9503V35.4858Z" fill="#714A1C" fill-opacity="0.25" style="mix-blend-mode:multiply"/>
<path d="M11.6669 47.0081H9.7465V52.7692H7.82613V56.6099H11.6669V47.0081Z" fill="#714A1C" fill-opacity="0.25" style="mix-blend-mode:multiply"/>
<path d="M11.6669 47.0081H13.5873V45.0877H15.5076V43.1673H25.1095V41.2469H13.5873V43.1673H11.6669V47.0081Z" fill="#714A1C" fill-opacity="0.25" style="mix-blend-mode:multiply"/>
<path d="M11.6669 58.5303H13.5873V48.9284H15.5076V58.5303H13.5873V62.3711H11.6669V58.5303Z" fill="#714A1C" fill-opacity="0.25" style="mix-blend-mode:multiply"/>
<path d="M15.5076 64.2914H13.5873V71.9729H15.5076V64.2914Z" fill="#714A1C" fill-opacity="0.25" style="mix-blend-mode:multiply"/>
<path d="M25.1095 60.4507H27.0299V71.9729H23.1891V68.1322H25.1095V60.4507Z" fill="#714A1C" fill-opacity="0.25" style="mix-blend-mode:multiply"/>
<path d="M21.2688 62.3711H19.3484V64.2914H21.2688V62.3711Z" fill="#714A1C" fill-opacity="0.25" style="mix-blend-mode:multiply"/>
<path d="M27.0299 48.9284H28.9503V54.6896H30.8706V58.5303H25.1095V56.6099H27.0299V48.9284Z" fill="#714A1C" fill-opacity="0.25" style="mix-blend-mode:multiply"/>
<path d="M25.11 10.522H23.1897V12.4423H25.11V10.522Z" fill="#FFFCF9" fill-opacity="0.7" style="mix-blend-mode:lighten"/>
<path d="M15.5082 10.522H21.2693V12.4423H15.5082V14.3627H13.5878V16.2831H11.6674V14.3627H13.5878V12.4423H15.5082V10.522Z" fill="#FFFCF9" fill-opacity="0.7" style="mix-blend-mode:lighten"/>
<path d="M32.7915 25.885H34.7119V27.8054H32.7915V25.885Z" fill="#FFFCF9" fill-opacity="0.7" style="mix-blend-mode:lighten"/>
<path d="M28.9508 41.248H25.11V43.1684H28.9508V41.248Z" fill="#FFFCF9" fill-opacity="0.7" style="mix-blend-mode:lighten"/>
<path d="M28.9508 43.1684V45.0887H30.8712V43.1684H28.9508Z" fill="#FFFCF9" fill-opacity="0.7" style="mix-blend-mode:lighten"/>
<path d="M21.2693 47.9693H23.1897V51.8101H21.2693V47.9693Z" fill="#FFFCF9" fill-opacity="0.7" style="mix-blend-mode:lighten"/>
<path d="M21.2693 47.9693H19.3489V46.0489H21.2693V47.9693Z" fill="#FFFCF9" fill-opacity="0.7" style="mix-blend-mode:lighten"/>
<path d="M17.4285 60.4517H19.3489V62.3721H17.4285V60.4517Z" fill="#FFFCF9" fill-opacity="0.7" style="mix-blend-mode:lighten"/>
<path fill-rule="evenodd" clip-rule="evenodd" d="M13.5873 4.75928H27.03V6.67965H30.8707V8.60003H32.7911V10.5204H34.7115V25.8834H36.6318V31.6445H34.7115V33.5649H32.7911V35.4853H30.8707V37.4057H28.9503V41.2464H30.8707V43.1668H32.7911V58.5298H30.8707V60.4502H28.9503V73.8928H21.2688V68.1317H19.3485V73.8928H9.74657V71.9724H11.6669V62.3706H9.74657V58.5298H7.8262V56.6094H5.90582V52.7687H7.8262V47.0076H9.74657V43.1668H11.6669V41.2464H13.5873V39.326H11.6669V37.4057H9.74657V35.4853H7.8262V10.5204H9.74657V8.60003H11.6669V6.67965H13.5873V4.75928ZM13.5873 6.67965V8.60003H11.6669V10.5204H9.74657V35.4853H11.6669V37.4057H13.5873V39.326H25.1096V37.4057H28.9503V35.4853H30.8707V31.6445H34.7115V25.8834H32.7911V27.8038H30.8707V25.8834H32.7911V10.5204H30.8707V8.60003H27.03V6.67965H13.5873ZM11.6669 47.0076H13.5873V58.5298H11.6669V62.3706H13.5873V71.9724H17.4281V62.3706H19.3485V64.2909H21.2688V68.1317H23.1892V71.9724H27.03V60.4502H23.1892V56.6094H25.1096V45.0872H27.03V56.6094H25.1096V58.5298H30.8707V43.1668H28.9503V41.2464H13.5873V43.1668H11.6669V47.0076ZM11.6669 47.0076V56.6094H7.8262V52.7687H9.74657V47.0076H11.6669Z" fill="black"/>
<path fill-rule="evenodd" clip-rule="evenodd" d="M19.1219 67.0688H26.603V68.9243H19.1219V67.0688ZM11.6408 67.0688H17.2516V68.9243H11.6408V67.0688Z" fill="#FAE6CE"/>
<path fill-rule="evenodd" clip-rule="evenodd" d="M22.8623 67.0688H20.992V68.9243H22.8623V67.0688ZM13.5109 67.0688H11.6406V68.9243H13.5109V67.0688ZM15.3814 67.0688H17.2516V68.9243H15.3814V67.0688Z" fill="#714A1C" fill-opacity="0.25" style="mix-blend-mode:multiply"/>
<path d="M26.603 59.6465H11.6408V65.2128H26.603V59.6465Z" fill="#403F3F"/>
<path fill-rule="evenodd" clip-rule="evenodd" d="M24.7327 59.6465H26.603V65.2128H24.7331V65.2131H22.8628V63.3576H24.7327V59.6465ZM11.6406 59.6465H13.5109V61.5019H11.6406V59.6465ZM17.2516 63.3576H11.6408V65.2131H17.2516V63.3576Z" fill="black" fill-opacity="0.2" style="mix-blend-mode:multiply"/>
<path fill-rule="evenodd" clip-rule="evenodd" d="M22.8625 70.7788H26.603V72.6342H22.8625V70.7788ZM13.5111 70.7788H17.2516V72.6342H13.5111V70.7788Z" fill="#BA6434"/>
<path fill-rule="evenodd" clip-rule="evenodd" d="M24.7327 70.7788H26.603V72.6342H24.7327V70.7788ZM15.3814 70.7788H17.2516V72.6342H15.3814V70.7788Z" fill="black" fill-opacity="0.2" style="mix-blend-mode:multiply"/>
<path fill-rule="evenodd" clip-rule="evenodd" d="M28.4727 57.791H26.6027H26.6024H11.6405V59.6465H26.6024V65.2125H19.1216V67.0679H26.6024V68.9236H22.8622V70.7791H26.6024V72.6348H22.8622V74.4902H26.6027V74.4899H28.4727V57.791ZM17.251 65.2125H11.6405V67.0679H17.251V68.9236H13.5108V70.7791H17.251V72.6348H13.5108V74.4902H17.2513V74.4896H19.1213V68.9239H20.9912V67.0685H19.1213V65.2125H17.2513H17.251ZM20.9917 68.9236H22.862V74.4899H20.9917V68.9236ZM11.6403 68.9239V74.4899H13.5106V68.9239V68.9236V67.0685H11.6403V68.9236V68.9239ZM9.76952 72.6348H11.6398V74.4902H9.76952V72.6348ZM11.6398 57.791H9.76952V67.0682H11.6398V57.791Z" fill="black"/>
<path fill-rule="evenodd" clip-rule="evenodd" d="M13.265 6.76367H27.2921V8.76754H29.296H31.2999V10.7714H33.3037V26.8024H35.3076V32.814H33.3037H31.2999V36.8217H29.296V38.8256H27.2921H25.2883V40.8295H13.265V38.8256H11.2612V36.8217H9.2573V10.7714H11.2612V8.76754H13.265V6.76367Z" fill="#FAE6CE"/>
<path fill-rule="evenodd" clip-rule="evenodd" d="M23.2844 6.76367H13.265V8.76754H11.2611V10.7714H15.2689V8.76754H23.2844V6.76367ZM11.2611 10.7714H9.25727V26.8024H11.2611V10.7714ZM33.3037 10.7714H31.2998V26.8024H33.3037V10.7714ZM29.296 36.8217H31.2998V30.8101H33.3037V28.8062H31.2998V26.8024H29.296V36.8217ZM23.2844 38.8256V36.8217H29.296V38.8256H25.2882V40.8295H13.265V38.8256H23.2844ZM31.2998 10.7714V8.76754H29.296V10.7714H31.2998Z" fill="#714A1C" fill-opacity="0.25" style="mix-blend-mode:multiply"/>
<path fill-rule="evenodd" clip-rule="evenodd" d="M23.2844 10.7715H25.2883V12.7754H23.2844V10.7715ZM21.2805 10.7715H15.2689V12.7754H21.2805V10.7715ZM13.265 14.7792V12.7754H15.2689V14.7792H13.265ZM13.265 14.7792V16.7831H11.2612V14.7792H13.265ZM35.3076 26.8024H33.3037V28.8063H35.3076V26.8024Z" fill="#FFFCF9" fill-opacity="0.7" style="mix-blend-mode:lighten"/>
<path fill-rule="evenodd" clip-rule="evenodd" d="M21.2808 24.7988H23.2847V26.8027H25.2886V28.8066H23.2847V26.8027H21.2808V28.8066H19.277V26.8027H21.2808V24.7988ZM15.2692 36.8221V34.8182H19.277V32.8143H21.2808V34.8182H19.277V36.8221H15.2692ZM15.2692 26.8027H17.2731V28.8066H15.2692V26.8027ZM13.2654 26.8027H15.2692V24.7988H13.2654V26.8027ZM13.2654 26.8027V28.8066H11.2615V26.8027H13.2654Z" fill="black"/>
<path fill-rule="evenodd" clip-rule="evenodd" d="M19.2764 24.7988H21.2803V26.8027H19.2764V28.8066H17.2725V26.8027H19.2764V24.7988Z" fill="#714A1C" fill-opacity="0.25" style="mix-blend-mode:multiply"/>
<path fill-rule="evenodd" clip-rule="evenodd" d="M27.2922 4.75977H13.2651V6.76364H27.2922V4.75977ZM31.2999 8.76751V6.76364H27.2922V8.76751H31.2999ZM33.3038 10.7714V8.76751H31.2999V10.7714H33.3038ZM33.3038 26.8023V10.7714H35.3077V26.8023H37.3115V32.814H35.3077V34.8178H33.3038V36.8217H31.2999V38.8256H29.296V40.8294H25.2883V42.8333H13.2651V40.8294L11.2612 40.8294V38.8256H9.25734L9.25734 36.8217H7.25347V10.7714H9.25734V8.76751H11.2612V6.76364H13.2651V8.76751H11.2612V10.7714H9.25734L9.25734 36.8217H11.2612V38.8256H13.2651V40.8294L25.2883 40.8294V38.8256H29.296V36.8217H31.2999V34.8178V32.814H35.3077V26.8023H33.3038ZM33.3038 26.8023V28.8062H31.2999V26.8023H33.3038Z" fill="black"/>
<path fill-rule="evenodd" clip-rule="evenodd" d="M17.3559 42.248H21.1855V43.995H17.3559V42.248ZM7.7824 52.7301H9.69721V56.2241H7.7824V52.7301ZM30.76 54.4771H32.6748V57.9711H30.76V54.4771ZM30.7598 54.4771H28.845V57.9711H30.7598V54.4771ZM11.6122 52.7301H9.69743V54.4771H11.6122V52.7301ZM26.9299 54.4771H28.8447V56.2241H26.9299V54.4771Z" fill="#FAE6CE"/>
<path fill-rule="evenodd" clip-rule="evenodd" d="M21.1855 42.248H17.3559V43.995H21.1855V42.248ZM11.6113 52.7301H9.6972H9.6965H7.78239V56.2241H9.6972V54.4771H11.6113V52.7301ZM28.8447 54.4771H26.9299V56.2241H28.8447V54.4771ZM28.845 54.4771H30.7598V57.9711H28.845V54.4771Z" fill="#714A1C" fill-opacity="0.25" style="mix-blend-mode:multiply"/>
<rect width="3.82962" height="10.4818" transform="matrix(-1 0 0 1 21.1865 45.7422)" fill="#B2DDD8"/>
<path d="M19.2715 45.7417H17.3567V56.2235H19.2715V45.7417Z" fill="black" fill-opacity="0.2" style="mix-blend-mode:multiply"/>
<path fill-rule="evenodd" clip-rule="evenodd" d="M25.0158 40.501H26.9306V42.248H28.8447V52.7298H26.9299V45.7419H25.0158V40.501ZM30.7598 43.995H28.845V52.7298H30.7598V43.995ZM26.9306 56.2241H25.0158V59.718H26.9306V56.2241ZM23.1008 42.248H25.0156V59.7176H23.1008V42.248ZM17.3564 43.995H15.4416V56.2238H17.3564V43.995ZM13.5266 42.248H15.4414V59.7176H13.5266V42.248ZM13.5263 43.995H11.6115V47.4889H13.5263V43.995ZM11.6115 56.2241H13.5263V59.718H11.6115V56.2241ZM11.6122 47.489H9.69742V50.983H11.6122V47.489Z" fill="#4B5C6C"/>
<path fill-rule="evenodd" clip-rule="evenodd" d="M26.9302 40.501H25.0154V42.2479H26.9302V40.501ZM15.4418 42.248H13.527V43.995H15.4418V42.248ZM13.5273 52.7301H15.4421V59.7179H13.5273V52.7301ZM23.1008 56.2241H26.9304V59.718H23.1008V56.2241ZM13.527 56.2241H11.6122V59.718H13.527V56.2241ZM25.0154 43.995H26.9302V45.742H25.0154V43.995ZM23.1013 42.248H25.0161V43.995H23.1013V42.248ZM28.8452 49.236H26.9304V52.73H28.8452V49.236ZM11.612 43.995H13.5268V47.4889H11.612V43.995ZM11.6118 47.489H9.69698V50.983H11.6118V47.489Z" fill="black" fill-opacity="0.2" style="mix-blend-mode:multiply"/>
<path fill-rule="evenodd" clip-rule="evenodd" d="M25.0158 38.7539H26.9306V40.5009H25.0158V38.7539ZM26.9309 40.5009H28.8457V42.2479H26.9309V40.5009ZM23.1008 40.5009H25.0156V42.2479H23.1008V40.5009ZM15.4414 40.5009H13.5266V42.2479H15.4414V40.5009ZM17.3564 42.2479H15.4416V43.9949H17.3564V42.2479ZM17.3569 43.9949H21.1858V42.2479H23.1006V59.7176H21.1858V57.9701H17.3569V56.2231H21.1858V45.7419H17.3569V43.9949ZM30.7598 42.2479H28.845V43.9949H30.7598V42.2479ZM26.9306 52.73H30.7598V54.477H26.9306V56.2237H25.0158V45.742H26.9306V52.73ZM32.6748 43.9949H30.76V54.4767H32.6748V43.9949ZM32.675 54.477H34.5898V57.971H32.675V54.477ZM32.6748 57.9701H28.8457V56.2231H26.9309V59.717H28.8452V59.7171H32.6748V57.9701ZM13.5273 47.489H11.6125V56.2238H13.5273V47.489ZM9.69744 54.477H11.6122V59.7171H15.4414V61.4641H11.6118V59.7179H9.69744V54.477ZM11.6122 50.983H9.69744V52.73H11.6122V50.983ZM15.4416 43.9949H17.3564V59.7176H15.4416V43.9949ZM11.6125 42.2479H13.5273V43.9949H11.6125V42.2479ZM11.6122 43.9949H9.69744V47.4889H11.6122V43.9949ZM7.78241 47.489H9.69722V52.7299H7.78241V47.489ZM7.78218 52.73H5.86738V56.2239H7.78218V52.73ZM7.78241 56.2231H9.69722V57.9701H7.78241V56.2231ZM23.101 59.7171H26.9306V61.4641H23.101V59.7171Z" fill="black"/>
<path fill-rule="evenodd" clip-rule="evenodd" d="M24.1627 1.8584H22.304V3.71706H20.4453V1.8584H18.5867L18.5867 3.71706H16.728V1.8584H14.8694L14.8694 3.71706H13.0107V5.57572H11.152V7.43439H9.29337H7.4347V9.29305H5.57604V11.1517H3.71738V16.7277H1.85872V18.5864H3.71738H5.57604V24.1623H7.4347V22.3037H9.29336L9.29337 20.445H11.152V16.7277H13.0107V18.5864L14.8694 18.5864H16.728L18.5867 18.5864L18.5867 20.445H20.4453H22.304H24.1627H26.0213V22.3037H27.88V27.8797H29.7387V24.1623H31.5973L31.5973 22.3037H33.456V24.1623H37.1733V20.445H39.032V16.7277H40.8906V14.869H39.032V13.0104H37.1733V9.29305H33.456V7.43439H31.5973L31.5973 5.57572H29.7387H27.88V3.71706H26.0213H24.1627V1.8584Z" fill="#905329"/>
<path fill-rule="evenodd" clip-rule="evenodd" d="M22.304 3.71729H20.4453V5.57595H22.304V3.71729ZM31.5973 7.43461H33.456V9.29327H31.5973V7.43461ZM31.5973 7.43461L31.5973 5.57595H29.7387V7.43461H31.5973ZM35.3146 9.29327H37.1733V13.0106H39.032V14.8693H40.8906V16.7279H39.032V20.4452H37.1733V24.1626H35.3146H33.456V22.3039H31.5973L31.5973 24.1626H29.7387V27.8799H27.88V22.3039H26.0213V20.4452H18.5867V18.5866H14.8694V16.7279H13.0107V14.8693H11.152V13.0106H13.0107V14.8693H14.8694V16.7279H18.5867V18.5866H26.0213V20.4452H27.88H29.7387H31.5973L31.5973 18.5866H33.456V14.8693H35.3146V9.29327ZM16.728 3.71729H18.5867V5.57595H16.728V3.71729ZM14.8694 3.71729H13.0107V5.57595H14.8694V3.71729ZM11.152 7.43461H13.0107V5.57595H11.152V7.43461ZM11.152 7.43461H9.29337V11.1519H11.152V7.43461ZM7.4347 18.5866H9.29336V22.3039H7.4347V24.1626H5.57604V22.3039L7.4347 22.3039V18.5866ZM7.4347 9.29327H5.57604V11.1519H7.4347V9.29327ZM3.71738 16.7279H5.57604V18.5866H3.71738V16.7279Z" fill="black" fill-opacity="0.2" style="mix-blend-mode:multiply"/>
<path fill-rule="evenodd" clip-rule="evenodd" d="M22.3036 7.43457H20.445V11.1519H22.3036V7.43457ZM24.1623 13.0106V11.1519H22.3036V13.0106H24.1623ZM27.8796 14.8692V13.0106H24.1623V14.8692H27.8796ZM27.8796 14.8692V16.7279H29.7383V14.8692H27.8796ZM18.5863 14.8692V16.7279H22.3036V14.8692H18.5863ZM16.7276 13.0106H18.5863V14.8692H16.7276V13.0106ZM16.7276 13.0106L16.7276 9.29323H14.869V13.0106H16.7276ZM24.1623 16.7279H26.021V18.5865H24.1623V16.7279Z" fill="white" fill-opacity="0.3" style="mix-blend-mode:lighten"/>
<path fill-rule="evenodd" clip-rule="evenodd" d="M22.3037 0H24.1624V1.85866H27.8797V3.71732H31.597V5.57599H33.4557V7.43465H37.173V9.29331H39.0317V13.0106H40.8904V14.8693H42.749V16.728H40.8904V20.4453H39.0317V24.1626H37.173V26.0213H35.3144V24.1626H37.173V22.3039H35.3144V20.4453H37.173H39.0317V18.5866H37.173V16.728H39.0317H40.8904V14.8693H39.0317V13.0106L37.173 13.0106V9.29331H33.4557V7.43465H31.597L31.597 5.57599H27.8797V3.71732H24.1624V1.85866H22.3037V3.71732H20.4451V1.85866H18.5864L18.5864 3.71732H16.7278V1.85866H14.8691L14.8691 3.71732H13.0104V5.57599H11.1518V7.43465H7.43444L7.43444 9.29331H5.57578V11.152H3.71711V13.0106H5.57578V14.8693H3.71711V16.728H1.85845V18.5866L3.71711 18.5866H5.57578V24.1626H7.43444L7.43444 22.3039H9.2931V24.1626L7.43444 24.1626V26.0213H5.57578V24.1626H3.71711V20.4453H1.85845V18.5866H-0.000209808V16.728H1.85845V14.8693H3.71711V13.0106H1.85845V11.152L3.71711 11.152V9.29331H5.57578V7.43465H7.43444V5.57599H11.1518V3.71732H13.0104V1.85866H14.8691V0H16.7278V1.85866H18.5864V0H20.4451V1.85866H22.3037V0Z" fill="black"/>
</svg>
