<svg width="266" height="123" viewBox="0 0 266 123" fill="none" xmlns="http://www.w3.org/2000/svg">
<path d="M257.554 115.136V121H8.10714V115.136V113.136H6.10714H2V7.97698H6.10714H8.10714V5.97698V2H257.554V5.97698V7.97698H259.554H264V113.136H259.554H257.554V115.136Z" fill="#A6814E" stroke="#351404" stroke-width="4"/>
<path d="M68.5 65.5V64H67V62.5H70V64H74.5V61H70V59.5H74.5V56.5H70V58H67V56.5H68.5V55H76V56.5H77.5V59.5H76V61H77.5V64H76V65.5H68.5ZM80.5 65.5V64H79V62.5H80.5V61H86.5V59.5H80.5V58H88V59.5H89.5V65.5H80.5ZM82 64H86.5V62.5H82V64ZM100 55V56.5H92.5V55H100ZM94 62.5H95.5V64H94V65.5H91V58H94V62.5ZM101.5 58V65.5H98.5V61H97V59.5H98.5V58H101.5ZM95.5 61H97V62.5H95.5V61ZM104.5 65.5V64H103V59.5H104.5V58H112V59.5H113.5V61H110.5V59.5H106V64H110.5V62.5H113.5V64H112V65.5H104.5ZM116.5 65.5V64H115V62.5H116.5V61H122.5V59.5H116.5V58H124V59.5H125.5V65.5H116.5ZM118 64H122.5V62.5H118V64ZM127 65.5V58H130V61H134.5V58H137.5V65.5H134.5V62.5H130V65.5H127ZM151 65.5V62.5H152.5V61H151V59.5H152.5V58H161.5V65.5H158.5V62.5H154V65.5H151ZM154 61H158.5V59.5H154V61ZM163 65.5V58H172V59.5H173.5V61H172V62.5H173.5V64H172V65.5H163ZM166 61H170.5V59.5H166V61ZM166 64H170.5V62.5H166V64ZM176.5 65.5V64H175V62.5H176.5V61H182.5V59.5H176.5V58H184V59.5H185.5V65.5H176.5ZM178 64H182.5V62.5H178V64ZM187 65.5V64H188.5V62.5H190V61H188.5V59.5H187V58H190V59.5H191.5V61H193V59.5H194.5V58H197.5V59.5H196V61H194.5V62.5H196V64H197.5V65.5H194.5V64H193V62.5H191.5V64H190V65.5H187Z" fill="white"/>
</svg>
