<svg width="57" height="14" viewBox="0 0 57 14" fill="none" xmlns="http://www.w3.org/2000/svg">
<path d="M3.90793 13.4797V2.19115H0.14509V0.309736H11.4336V2.19115H7.67076V13.4797H3.90793ZM13.315 13.4797V0.309736H17.0779V7.83541H18.9593V5.95399H20.8407V4.07257H22.7221V0.309736H26.4849V13.4797H22.7221V7.83541H20.8407V9.71683H18.9593V11.5982H17.0779V13.4797H13.315ZM30.2478 2.19115V0.309736H39.6549V2.19115H30.2478ZM28.3664 13.4797V4.07257H32.1292V9.71683H34.0106V7.83541H35.892V5.95399H37.7735V4.07257H41.5363V13.4797H37.7735V9.71683H35.892V11.5982H34.0106V13.4797H28.3664ZM43.4177 13.4797V0.309736H47.1806V2.19115H49.062V4.07257H50.9434V2.19115H52.8248V0.309736H56.5876V13.4797H52.8248V5.95399H50.9434V9.71683H49.062V5.95399H47.1806V13.4797H43.4177Z" fill="white"/>
</svg>
