<svg width="58" height="14" viewBox="0 0 58 14" fill="none" xmlns="http://www.w3.org/2000/svg">
<path d="M4.44406 13.4797V7.83541H2.56264V5.95399H0.681223V0.309736H4.44406V5.95399H8.2069V0.309736H11.9697V5.95399H10.0883V7.83541H8.2069V13.4797H4.44406ZM15.7326 13.4797V0.309736H27.0211V4.07257H25.1397V2.19115H19.4954V13.4797H15.7326ZM34.5468 13.4797V7.83541H32.6653V5.95399H30.7839V0.309736H34.5468V5.95399H38.3096V0.309736H42.0724V5.95399H40.191V7.83541H38.3096V13.4797H34.5468ZM45.8353 2.19115V0.309736H55.2424V2.19115H45.8353ZM43.9538 13.4797V4.07257H47.7167V9.71683H49.5981V7.83541H51.4795V5.95399H53.3609V4.07257H57.1238V13.4797H53.3609V9.71683H51.4795V11.5982H49.5981V13.4797H43.9538Z" fill="white"/>
</svg>
