<svg width="46" height="104" viewBox="0 0 46 104" fill="none" xmlns="http://www.w3.org/2000/svg">
<path d="M14.375 2.875H34.5V5.75H37.375V8.625H40.25V46H37.375V48.875H34.5V51.75H17.25V48.875H11.5V46H8.625V40.25H2.875V31.625H5.75V8.625H8.625V5.75H14.375V2.875Z" fill="#FAE6CE"/>
<path fill-rule="evenodd" clip-rule="evenodd" d="M11.5 54.625H34.5V57.5H37.375V63.25H34.5V80.5H37.375V86.25H34.5V100.625H28.75V86.25H25.875V92H23V94.875H20.125V100.625H14.375V83.375H17.25V80.5H8.625V57.5H11.5V54.625ZM14.375 60.375H17.25V77.625H14.375V60.375Z" fill="#FAE6CE"/>
<path d="M37.375 63.25H40.25V71.875H43.125V77.625H37.375V63.25Z" fill="#FAE6CE"/>
<path d="M34.5 2.875H20.125V5.75H31.625V8.625H37.375V31.625H40.25V8.625H37.375V5.75H34.5V2.875Z" fill="#E3C4A6"/>
<path d="M8.625 8.625H5.75V20.125H8.625V8.625Z" fill="#E3C4A6"/>
<path d="M5.75 34.5H8.625V31.625H11.5V46H8.625V37.375H5.75V34.5Z" fill="#E3C4A6"/>
<path d="M11.5 46H20.125V48.875H34.5V51.75H17.25V48.875H11.5V46Z" fill="#E3C4A6"/>
<path d="M37.375 63.25H40.25V71.875H43.125V77.625H37.375V63.25Z" fill="#E3C4A6"/>
<path d="M37.375 63.25H34.5V60.375H31.625V57.5H17.25V54.625H34.5V57.5H37.375V63.25Z" fill="#E3C4A6"/>
<path d="M37.375 80.5H34.5V66.125H31.625V80.5H34.5V86.25H37.375V80.5Z" fill="#E3C4A6"/>
<path d="M31.625 89.125H34.5V100.625H31.625V89.125Z" fill="#E3C4A6"/>
<path d="M17.25 83.375H14.375V100.625H20.125V94.875H17.25V83.375Z" fill="#E3C4A6"/>
<path d="M23 86.25H25.875V89.125H23V86.25Z" fill="#E3C4A6"/>
<path d="M14.375 66.125H11.5V74.75H8.625V80.5H17.25V77.625H14.375V66.125Z" fill="#E3C4A6"/>
<path d="M17.25 8.625H20.125V11.5H17.25V8.625Z" fill="#FFF8EF"/>
<path d="M31.625 8.625H23V11.5H31.625V14.375H34.5V17.25H37.375V14.375H34.5V11.5H31.625V8.625Z" fill="#FFF8EF"/>
<path d="M5.75 31.625H2.875V34.5H5.75V31.625Z" fill="#FFF8EF"/>
<path d="M11.5 54.625H17.25V57.5H11.5V54.625Z" fill="#FFF8EF"/>
<path d="M11.5 57.5V60.375H8.625V57.5H11.5Z" fill="#FFF8EF"/>
<path d="M23 64.6875H20.125V70.4375H23V64.6875Z" fill="#FFF8EF"/>
<path d="M23 64.6875H25.875V61.8125H23V64.6875Z" fill="#FFF8EF"/>
<path d="M28.75 83.375H25.875V86.25H28.75V83.375Z" fill="#FFF8EF"/>
<path fill-rule="evenodd" clip-rule="evenodd" d="M34.5 0H14.375V2.875H8.625V5.75H5.75V8.625H2.875V31.625H0V40.25H2.875V43.125H5.75V46H8.625V48.875H11.5V54.625H8.625V57.5H5.75V80.5H8.625V83.375H11.5V103.5H23V94.875H25.875V103.5H40.25V100.625H37.375V86.25H40.25V80.5H43.125V77.625H46V71.875H43.125V63.25H40.25V57.5H37.375V54.625H34.5V51.75H37.375V48.875H40.25V46H43.125V8.625H40.25V5.75H37.375V2.875H34.5V0ZM34.5 2.875V5.75H37.375V8.625H40.25V46H37.375V48.875H34.5V51.75H17.25V48.875H11.5V46H8.625V40.25H2.875V31.625H5.75V34.5H8.625V31.625H5.75V8.625H8.625V5.75H14.375V2.875H34.5ZM37.375 63.25H34.5V80.5H37.375V86.25H34.5V100.625H28.75V86.25H25.875V89.125H23V94.875H20.125V100.625H14.375V83.375H20.125V77.625H17.25V60.375H14.375V77.625H17.25V80.5H8.625V57.5H11.5V54.625H34.5V57.5H37.375V63.25ZM37.375 63.25V77.625H43.125V71.875H40.25V63.25H37.375Z" fill="black"/>
<path fill-rule="evenodd" clip-rule="evenodd" d="M34.4005 2.86658H14.3339V5.73324H11.4672H8.60052V8.59991H5.73385V31.5332H2.86719V40.1332H5.73385H8.60052V45.8666H11.4672V48.7332L14.3339 48.7332H17.2005V51.5999H34.4005V48.7332L37.2672 48.7332V45.8666H40.1339V8.59991H37.2672V5.73324H34.4005V2.86658Z" fill="#FAE6CE"/>
<path fill-rule="evenodd" clip-rule="evenodd" d="M20.0667 2.8667H34.4001V5.73337H37.2667V8.60003H31.5334V5.73337H20.0667V2.8667ZM37.2667 8.60003H40.1334V31.5334H37.2667V8.60003ZM5.7334 8.60003H8.60007V31.5334H5.7334V8.60003ZM11.4667 45.8667H8.60007V37.2667H5.7334V34.4H8.60007V31.5334H11.4667V45.8667ZM20.0667 48.7334V45.8667H11.4667V48.7334H17.2001V51.6H34.4001V48.7334H20.0667ZM8.60007 8.60003V5.73337H11.4667V8.60003H8.60007Z" fill="#714A1C" fill-opacity="0.25" style="mix-blend-mode:multiply"/>
<path fill-rule="evenodd" clip-rule="evenodd" d="M20.0672 8.59998H17.2005V11.4666H20.0672V8.59998ZM22.9339 8.59998H31.5339V11.4666H22.9339V8.59998ZM34.4005 14.3333V11.4666H31.5339V14.3333H34.4005ZM34.4005 14.3333V17.2H37.2672V14.3333H34.4005ZM2.86719 31.5333H5.73385V34.4H2.86719V31.5333Z" fill="#FFFCF9" fill-opacity="0.7" style="mix-blend-mode:lighten"/>
<path fill-rule="evenodd" clip-rule="evenodd" d="M25.8002 28.6667H17.2002V31.5334H20.0669V37.2667H22.9335V31.5334H25.8002V28.6667ZM25.8002 43.0001H31.5335V45.8667H25.8002V43.0001ZM25.8002 45.8667V48.7334H22.9335V45.8667H25.8002ZM31.5335 28.6667H34.4002H37.2669V31.5334H34.4002V37.2667H31.5335V28.6667Z" fill="black"/>
<path fill-rule="evenodd" clip-rule="evenodd" d="M28.666 28.6667H25.7993V31.5334H22.9326V34.4001H25.7993V31.5334H28.666V28.6667Z" fill="#714A1C" fill-opacity="0.25" style="mix-blend-mode:multiply"/>
<path fill-rule="evenodd" clip-rule="evenodd" d="M14.3333 0H34.4V2.86667H14.3333V0ZM8.6 5.73333V2.86667H14.3333V5.73333H8.6ZM5.73333 8.6V5.73333H8.6V8.6H5.73333ZM5.73333 31.5333V8.6H2.86667V31.5333H0V40.1333H2.86667V43H5.73333V45.8667H8.6V48.7333H11.4667V51.6H17.2V54.4667H34.4V51.6L37.2667 51.6V48.7333H40.1333L40.1333 45.8667H43V8.6H40.1333V5.73333H37.2667V2.86667H34.4V5.73333H37.2667V8.6H40.1333L40.1333 45.8667H37.2667V48.7333H34.4V51.6L17.2 51.6V48.7333H11.4667V45.8667H8.6V43V40.1333H2.86667V31.5333H5.73333ZM5.73333 31.5333V34.4H8.6V31.5333H5.73333Z" fill="black"/>
<path fill-rule="evenodd" clip-rule="evenodd" d="M8 34H11V46H8V34ZM25.9991 39.9998H23.0012V51.9998H25.9991V52.0001H31.9991V49.0001H26.0012V42.9998H31.9991V39.9998H26.0012H25.9991ZM22.9996 42.9999H17.0008H16.9996H11.0008V48.9999H16.9996V51.9999H22.9996V42.9999ZM40.9995 42.9999H37.9995V45.9999H40.9995V42.9999ZM35.0008 42.9999H37.9987V48.9999H35.0008V51.9998H32.0008V39.9998H35.0008V42.9999ZM30.501 46H27.501V49H30.501V46Z" fill="#AD6431"/>
<path fill-rule="evenodd" clip-rule="evenodd" d="M8 34H11V46H8V34ZM34.9987 42.9999H40.9987V45.9999H34.9987V42.9999ZM37.9987 46H34.9987V49H37.9987V46ZM25.9991 49.0001H34.9991V52.0001H25.9991V49.0001ZM19.9996 49.0001H16.9996V52.0001H19.9996V49.0001ZM14.0008 46H16.9987V49H13.9987V48.9999H11.0008V42.9999H14.0008V46Z" fill="black" fill-opacity="0.2" style="mix-blend-mode:multiply"/>
<path fill-rule="evenodd" clip-rule="evenodd" d="M16.6666 2.44446H14.2221V4.8889H11.7777H9.33322V7.33335H6.88878V14.6667H4.44434V29.3333H6.88878V34.2222H9.33322V31.7778H11.7777V34.2222H14.2221V19.5556H16.6666L16.6666 24.4445H21.5554V22H23.9999V19.5556H26.4443V17.1111H28.8888V14.6667H36.2221V17.1111H38.6666L38.6666 26.8889H41.111H43.5554V14.6667H41.111V9.77779H38.6666L38.6666 4.8889H36.2221V2.44446H28.8888H26.4443H23.9999H21.5554H16.6666Z" fill="#AD6431"/>
<path fill-rule="evenodd" clip-rule="evenodd" d="M36.2221 2.44446H33.7777V7.33335H36.2221V17.1111H38.6666L38.6666 26.8889H41.111H43.5554V14.6667H41.111V9.77779H38.6666L38.6666 4.8889H36.2221V2.44446ZM26.4443 4.8889H28.8888V7.33335H31.3332L31.3332 9.77779H33.7777V14.6667H31.3332L31.3332 12.2222H28.8888V9.77779H26.4443H23.9999V7.33335H26.4443V4.8889ZM23.9999 19.5556V14.6667H26.4443V12.2222L28.8888 12.2222V17.1111H26.4443V19.5556H23.9999ZM6.83149 29.3333V34.2222H9.39234V31.7778H11.7777V34.2222H14.2221V19.5556H16.6666L16.6666 24.4445L19.111 24.4445H21.5554V22H23.9999V19.5556H21.5554H19.111V17.1111H16.6666L16.6666 14.6667H14.2221H11.7777V9.77779H9.39234V7.33335H6.83149V14.6667H4.44434V29.3333H6.83149Z" fill="black" fill-opacity="0.2" style="mix-blend-mode:multiply"/>
<path fill-rule="evenodd" clip-rule="evenodd" d="M19.1106 4.88892H14.2217V7.33336H19.1106V9.7778H21.555V7.33336H19.1106V4.88892ZM26.4439 9.7778H28.8883V12.2222H26.4439V9.7778ZM28.8883 12.2222L28.8883 14.6667H31.3328V12.2222H28.8883Z" fill="white" fill-opacity="0.3" style="mix-blend-mode:lighten"/>
<path fill-rule="evenodd" clip-rule="evenodd" d="M14.2222 0H36.2222V2.44444H14.2222V0ZM9.33333 4.88889V2.44444H14.2222L14.2222 4.88889H9.33333ZM6.88889 7.33333V4.88889H9.33333V7.33333H6.88889ZM4.44444 14.6667V7.33333H6.88889V14.6667H4.44444ZM4.44444 14.6667V29.3333H6.88889V36.6667H4.44444V34.2222H2V14.6667H4.44444ZM38.6667 4.88889H36.2222V2.44444H38.6667V4.88889ZM41.1111 9.77778H38.6667L38.6667 4.88889H41.1111V9.77778ZM43.5556 14.6667V9.77778H41.1111V14.6667H43.5556ZM43.5556 26.8889V14.6667H46V26.8889H43.5556ZM43.5556 26.8889V31.7778H41.1111V26.8889H43.5556Z" fill="black"/>
<path fill-rule="evenodd" clip-rule="evenodd" d="M20.3978 80.7777H14.7988V97.4444H20.3988V94.6666H23.1978V80.7777H20.3988H20.3978ZM23.2 80.7777H25.9995H26H28.7989H28.7995H34.3979H34.3989H37.1979V94.6666H34.3989V97.4444H28.7989V83.5555H26V91.8888H23.2V80.7777Z" fill="#2E8EE6"/>
<path fill-rule="evenodd" clip-rule="evenodd" d="M14.7995 78H12V103H14.7995H14.8H20.3995V100.222H14.8V86.3333H17.5995V83.5556H14.8V80.7778H37.1995V78H14.8H14.7995ZM37.2007 83.5556H34.4013V86.3333H37.2007V94.6667H34.4013V103H37.2007H37.2013H40.0007V100.222H37.2013V94.6667H40.0007V78H37.2007V83.5556ZM20.4011 94.6667H23.2006V91.8889H26.0001V83.5556H28.8001V100.222H34.3996V103L28.8001 103L28.7996 103L26.0001 103V94.6667H23.2011V103H20.4011V94.6667Z" fill="black"/>
<path fill-rule="evenodd" clip-rule="evenodd" d="M14.7988 80.7777H17.5988V83.5555H14.7988V80.7777ZM14.7988 86.3333H17.5988V89.111H14.7988V86.3333ZM20.3978 94.6666H17.5983V97.4444H20.3983V94.6666H23.1978V91.8888H20.3978V94.6666ZM37.1979 80.7777H34.3979V83.5555H37.1979V80.7777ZM34.3979 86.3333H37.1979V89.111H34.3979V86.3333ZM31.5989 86.3333H28.7989V97.4444H31.5984H31.5989H34.3984V91.8888H31.5989V86.3333ZM26 83.5555H23.2V91.8888H26V83.5555Z" fill="black" fill-opacity="0.2" style="mix-blend-mode:multiply"/>
<path fill-rule="evenodd" clip-rule="evenodd" d="M20.3988 97.4445H14.7988V100.222H20.3988V97.4445ZM34.3989 97.4445H28.7989V100.222H34.3989V97.4445Z" fill="#BA6434"/>
<path fill-rule="evenodd" clip-rule="evenodd" d="M17.5988 97.4445H14.7988V100.222H17.5988V97.4445ZM31.5989 97.4445H28.7989V100.222H31.5989V97.4445Z" fill="black" fill-opacity="0.2" style="mix-blend-mode:multiply"/>
<path fill-rule="evenodd" clip-rule="evenodd" d="M28 53H22V56H28V53ZM43 71H40H37V74H40V77H43V71ZM7 74H4V80H7H10V77H13V74H10H7Z" fill="#FAE6CE"/>
<path fill-rule="evenodd" clip-rule="evenodd" d="M22 53H28V56H22V53ZM37 71H40H43V77H40V74H37V71ZM10 74H13V77H10V80H7V74H10Z" fill="#714A1C" fill-opacity="0.25" style="mix-blend-mode:multiply"/>
<path fill-rule="evenodd" clip-rule="evenodd" d="M16 53H19V56H16V53ZM22 56H19V77H22L28 77L31 77V56H28V59H22V56Z" fill="white"/>
<path fill-rule="evenodd" clip-rule="evenodd" d="M16 53H19V56H16V53ZM22 62H19V65H22V62ZM28 71H31V77H28H19V74H28V71ZM31 62H28V65H31V62Z" fill="black" fill-opacity="0.2" style="mix-blend-mode:multiply"/>
<path fill-rule="evenodd" clip-rule="evenodd" d="M28 59H22V74L25 74V77H28L28 74V59Z" fill="#4E4E4E"/>
<path fill-rule="evenodd" clip-rule="evenodd" d="M16 50H13V53H10V56H7V71H10H13V59H16V77H13V83H10V86H13H16L16 83H19V56H16L16 50ZM34 53H31V83H34H37V77H34V62H37V68H40V62L37 62V56H34L34 53Z" fill="#C0C4C7"/>
<path fill-rule="evenodd" clip-rule="evenodd" d="M16 50H13V53H16V50ZM34 53H31V56H34L34 62H37V68H40V62L37 62V56H34V53ZM16 59H19V80H16V83H13V77H16V59ZM16 59H13V56H16V59ZM13 83V86H10V83H13ZM31 74H34V80H37V83H34H31V74ZM10 62H13V71H10V62Z" fill="black" fill-opacity="0.2" style="mix-blend-mode:multiply"/>
<path fill-rule="evenodd" clip-rule="evenodd" d="M16 47H13V50H10V53H7V56H4V74L1 74V80H4V83H7V86H10V89H16V86H19V83H22V80H31V83H34V86H37H40V80H43V77H46V71H43V62L40 62V56H37V53H34V50H31V53H28V56H22V53H19V50H16V47ZM16 50V53H19V56H22V59H28V56H31V62L34 62V77H37V83H34V80H31L31 77H22H19V83H16L16 86H10V83H13V77H16V59H13V71H7V56H10V53H13V50H16ZM34 56H37V62H34V56ZM37 62V68H40V62L37 62ZM34 56H31V53H34V56ZM43 71H40H37V74H40V77H43V71ZM13 77L10 77V80H4V74L7 74H13V77Z" fill="black"/>
</svg>
