<svg width="39" height="87" viewBox="0 0 39 87" fill="none" xmlns="http://www.w3.org/2000/svg">
<path d="M26.6115 7.27783H10.6671V9.55561H8.38932V11.8334H6.11154V41.4445H8.38932V43.7223H10.6671V46.0001H24.3338V43.7223H28.8893V41.4445H31.1671V36.8889H35.7227V30.0556H33.4449V11.8334H31.1671V9.55561H26.6115V7.27783Z" fill="#FAE6CE"/>
<path fill-rule="evenodd" clip-rule="evenodd" d="M28.8893 48.2778H10.6671V50.5556H8.38932V55.1112H10.6671V68.7778H8.38932V73.3334H10.6671V84.7223H15.2227V73.3334H17.5004V77.8889H19.7782V80.1667H22.056V84.7223H26.6115V71.0556H24.3338V68.7778H31.1671V50.5556H28.8893V48.2778ZM26.6115 52.8334H24.3338V66.5001H26.6115V52.8334Z" fill="#FAE6CE"/>
<path d="M8.38932 55.1112H6.11154V61.9445H3.83377V66.5001H8.38932V55.1112Z" fill="#FAE6CE"/>
<path d="M10.6666 7.27783H22.0554V9.55561H12.9443V11.8334H8.38878V30.0556H6.111V11.8334H8.38878V9.55561H10.6666V7.27783Z" fill="#E3C4A6"/>
<path d="M31.1666 11.8334H33.4443V20.9445H31.1666V11.8334Z" fill="#E3C4A6"/>
<path d="M33.4443 32.3334H31.1666V30.0556H28.8888V41.4445H31.1666V34.6112H33.4443V32.3334Z" fill="#E3C4A6"/>
<path d="M28.8888 41.4445H22.0554V43.7223H10.6666V46.0001H24.3332V43.7223H28.8888V41.4445Z" fill="#E3C4A6"/>
<path d="M8.38878 55.1112H6.111V61.9445H3.83323V66.5001H8.38878V55.1112Z" fill="#E3C4A6"/>
<path d="M8.38878 55.1112H10.6666V52.8334H12.9443V50.5556H24.3332V48.2778H10.6666V50.5556H8.38878V55.1112Z" fill="#E3C4A6"/>
<path d="M8.38878 68.7778H10.6666V57.3889H12.9443V68.7778H10.6666V73.3334H8.38878V68.7778Z" fill="#E3C4A6"/>
<path d="M12.9443 75.6112H10.6666V84.7223H12.9443V75.6112Z" fill="#E3C4A6"/>
<path d="M24.3332 71.0556H26.611V84.7223H22.0554V80.1667H24.3332V71.0556Z" fill="#E3C4A6"/>
<path d="M19.7777 73.3334H17.4999V75.6112H19.7777V73.3334Z" fill="#E3C4A6"/>
<path d="M26.611 57.3889H28.8888V64.2223H31.1666V68.7778H24.3332V66.5001H26.611V57.3889Z" fill="#E3C4A6"/>
<path d="M24.3338 11.8334H22.056V14.1112H24.3338V11.8334Z" fill="#FFF8EF"/>
<path d="M12.9449 11.8334H19.7782V14.1112H12.9449V16.3889H10.6671V18.6667H8.38932V16.3889H10.6671V14.1112H12.9449V11.8334Z" fill="#FFF8EF"/>
<path d="M33.4449 30.0556H35.7227V32.3334H33.4449V30.0556Z" fill="#FFF8EF"/>
<path d="M28.8893 48.2778H24.3338V50.5556H28.8893V48.2778Z" fill="#FFF8EF"/>
<path d="M28.8893 50.5556V52.8334H31.1671V50.5556H28.8893Z" fill="#FFF8EF"/>
<path d="M19.7782 56.25H22.056V60.8056H19.7782V56.25Z" fill="#FFF8EF"/>
<path d="M19.7782 56.25H17.5004V53.9723H19.7782V56.25Z" fill="#FFF8EF"/>
<path d="M15.2227 71.0556H17.5004V73.3334H15.2227V71.0556Z" fill="#FFF8EF"/>
<path fill-rule="evenodd" clip-rule="evenodd" d="M10.6667 5H26.6111V7.27778H31.1667V9.55556H33.4444V11.8333H35.7222V30.0556H38V36.8889H35.7222V39.1667H33.4444V41.4444H31.1667V43.7222H28.8889V48.2778H31.1667V50.5556H33.4444V68.7778H31.1667V71.0555H28.8889V87H19.7778V80.1667H17.5V87H6.11111V84.7222H8.38889V73.3333H6.11111V68.7778H3.83334V66.5H1.55556V61.9444H3.83334V55.1111H6.11111V50.5556H8.38889V48.2778H10.6667V46H8.38889V43.7222H6.11111V41.4444H3.83334V11.8333H6.11111V9.55556H8.38889V7.27778H10.6667V5ZM10.6667 7.27778V9.55556H8.38889V11.8333H6.11111V41.4444H8.38889V43.7222H10.6667V46H24.3333V43.7222H28.8889V41.4444H31.1667V36.8889H35.7222V30.0556H33.4444V32.3333H31.1667V30.0556H33.4444V11.8333H31.1667V9.55556H26.6111V7.27778H10.6667ZM8.38889 55.1111H10.6667V68.7778H8.38889V73.3333H10.6667V84.7222H15.2222V73.3333H17.5V75.6111H19.7778V80.1667H22.0556V84.7222H26.6111V71.0555H22.0556V66.5H24.3333V52.8333H26.6111V66.5H24.3333V68.7778H31.1667V50.5556H28.8889V48.2778H10.6667V50.5556H8.38889V55.1111ZM8.38889 55.1111V66.5H3.83334V61.9444H6.11111V55.1111H8.38889Z" fill="black"/>
<path fill-rule="evenodd" clip-rule="evenodd" d="M10.8001 7.26672H26.6667V9.53339H28.9334H31.2001V11.8001H33.4667V29.9334H35.7334V36.7334H33.4667H31.2001V41.2667H28.9334V43.5334H26.6667H24.4001V45.8001H10.8001V43.5334H8.5334V41.2667H6.26673V11.8001H8.5334V9.53339H10.8001V7.26672Z" fill="#FAE6CE"/>
<path fill-rule="evenodd" clip-rule="evenodd" d="M22.1335 7.2666H10.8001V9.53327H8.53346L8.53346 11.7999H13.0668V9.53327H22.1335V7.2666ZM8.53346 11.7999H6.2668V29.9333H8.53346V11.7999ZM33.4668 11.7999H31.2001V29.9333H33.4668V11.7999ZM28.9335 41.2666H31.2001V34.4666H33.4668V32.1999H31.2001V29.9333L28.9335 29.9333V41.2666ZM22.1335 43.5333V41.2666H28.9335V43.5333H24.4001V45.7999H10.8001V43.5333H22.1335ZM31.2001 11.7999V9.53327H28.9335V11.7999H31.2001Z" fill="#714A1C" fill-opacity="0.25" style="mix-blend-mode:multiply"/>
<path fill-rule="evenodd" clip-rule="evenodd" d="M22.1334 11.8H24.4001V14.0667H22.1334V11.8ZM19.8667 11.8H13.0667V14.0667H19.8667V11.8ZM10.8001 16.3334V14.0667H13.0667L13.0667 16.3334H10.8001ZM10.8001 16.3334L10.8001 18.6H8.5334V16.3334H10.8001ZM35.7334 29.9334H33.4667V32.2H35.7334V29.9334Z" fill="#FFFCF9" fill-opacity="0.7" style="mix-blend-mode:lighten"/>
<path fill-rule="evenodd" clip-rule="evenodd" d="M22.1327 27.6667H19.8661V29.9334H22.1327V27.6667ZM22.1327 29.9334V32.2001H24.3994V29.9334H22.1327ZM19.8661 29.9334H17.5994V32.2001H19.8661V29.9334ZM13.0661 39.0001V41.2667H17.5994V39.0001H13.0661ZM10.7994 27.6667H13.0661V29.9334H15.3327V32.2001H13.0661L13.0661 29.9334H10.7994V32.2001H8.53275V29.9334H10.7994V27.6667Z" fill="black"/>
<path fill-rule="evenodd" clip-rule="evenodd" d="M17.6005 27.6667H19.8672V29.9334H17.6005V32.2001H15.3339V29.9334H17.6005V27.6667Z" fill="#714A1C" fill-opacity="0.25" style="mix-blend-mode:multiply"/>
<path fill-rule="evenodd" clip-rule="evenodd" d="M26.6667 5H10.8V7.26667H26.6667V5ZM31.2 9.53333V7.26667H26.6667L26.6667 9.53333H31.2ZM33.4667 11.8V9.53333H31.2V11.8H33.4667ZM33.4667 29.9333V11.8H35.7333V29.9333H38V36.7333H35.7333V39H33.4667V41.2667H31.2V43.5333H28.9333V45.8H24.4V48.0667H10.8V45.8H8.53333V43.5333H6.26667V41.2667H4V11.8H6.26667V9.53333H8.53333V7.26667H10.8V9.53333H8.53333V11.8H6.26667V41.2667H8.53333V43.5333H10.8V45.8H24.4V43.5333H28.9333V41.2667H31.2V39V36.7333H35.7333V29.9333L33.4667 29.9333ZM33.4667 29.9333V32.2H31.2V29.9333L33.4667 29.9333Z" fill="black"/>
<path fill-rule="evenodd" clip-rule="evenodd" d="M13.5 2.125H15.625V4.25H17.75V6.375H22H24.125H26.25H28.375V4.25H30.5H32.625H34.75H36.875V10.625H34.75V17H36.875V29.75H34.75V31.875H32.625V34H30.5V29.75H28.375V27.625H26.25V25.5H24.125V21.25H22V19.125H17.75H15.625H13.5H11.375V23.375H9.25V25.5H7.125V27.625H5V12.75H7.125V10.625H9.25V8.5V2.125H11.375H13.5ZM32.625 10.625H34.75V8.5H32.625V10.625Z" fill="#BA6434"/>
<path fill-rule="evenodd" clip-rule="evenodd" d="M13.5 4.25H17.75V6.375H22V8.5H19.875V10.625H17.75V12.75H22V10.625H26.25V8.5H28.375V6.375H32.625V8.5H28.375V10.625H26.25V12.75H24.125V14.875H26.25H28.375V17H30.5V14.875H32.625V12.75H34.75V17H32.625V19.125H30.5V21.25H32.625V23.375H34.75V21.25H36.875V29.75H34.75V31.875H32.625V34H30.5V29.75H28.375V27.625H26.25V25.5H24.125V21.25H22V19.125H17.75H11.375V23.375H9.25V25.5H7.125V27.625H5V25.5H7.125V23.375H9.25V19.125H11.375V17H17.75H22V19.125H24.125V21.25H26.25V25.5H28.375V27.625H30.5V23.375H28.375V19.125H26.25V17H24.125V14.875H9.25H7.125V12.75H9.25H13.5V10.625H15.625V8.5H17.75V6.375H13.5V8.5H9.25V6.375H13.5V4.25ZM36.875 6.375H34.75V10.625H36.875V6.375Z" fill="black" fill-opacity="0.2" style="mix-blend-mode:multiply"/>
<path fill-rule="evenodd" clip-rule="evenodd" d="M9.25 2.125H13.5V4.25H9.25V2.125ZM30.5 4.25H34.75V6.375H30.5V4.25ZM19.875 17V14.875H24.125V17H26.25V19.125H28.375V21.25H26.25V19.125H24.125V17H19.875ZM17.75 6.375H13.5V8.5H17.75V6.375ZM13.5 8.5H9.25V10.625H13.5V8.5ZM22 6.375H26.25V8.5H22V10.625H19.875V8.5H22V6.375ZM28.375 8.5V10.625H32.625V8.5H28.375ZM28.375 10.625V12.75H26.25V10.625H28.375ZM9.25 14.875H11.375V17H9.25V21.25H7.125V23.375H5V21.25H7.125V17H9.25V14.875Z" fill="white" fill-opacity="0.3" style="mix-blend-mode:lighten"/>
<path fill-rule="evenodd" clip-rule="evenodd" d="M9.25 0H15.625V2.125H17.75V4.25H28.375V2.125H36.875V4.25H39V10.625H36.875V17H39V29.75H36.875V17H34.75V10.625H32.625V8.5H34.75V10.625H36.875V4.25H28.375V6.375H17.75V4.25H15.625V2.125H9.25V8.5V10.625H7.125V17H5V27.625H2.875V17H5V10.625H7.125V8.5V2.125H9.25V0Z" fill="black"/>
<path fill-rule="evenodd" clip-rule="evenodd" d="M17.8894 75.8889H26.7783V80.3334H17.8894V75.8889ZM9.00054 75.8889H15.6672V80.3334H9.00054V75.8889Z" fill="#FAE6CE"/>
<path fill-rule="evenodd" clip-rule="evenodd" d="M26.7783 75.8889H24.5561V78.1111H26.7783V75.8889ZM11.2228 75.8889H9.00054V80.3334H11.2228V75.8889ZM20.1117 78.1111H22.3339V80.3334H20.1117V78.1111ZM20.1117 78.1111H17.8894V75.8889H20.1117V78.1111ZM13.445 78.1111H15.6672V80.3334H13.445V78.1111Z" fill="#714A1C" fill-opacity="0.25" style="mix-blend-mode:multiply"/>
<path d="M26.7783 69.2223H9.00054V73.6667H26.7783V69.2223Z" fill="#A70000"/>
<path fill-rule="evenodd" clip-rule="evenodd" d="M26.7783 69.2223H24.5561V71.4445H26.7783V69.2223ZM11.2228 69.2223H9.00054V71.4445H11.2228V69.2223ZM17.8894 71.4445H20.1117V73.6667H17.8894V71.4445Z" fill="black" fill-opacity="0.2" style="mix-blend-mode:multiply"/>
<path fill-rule="evenodd" clip-rule="evenodd" d="M22.3339 82.5555H26.7783V84.7778H22.3339V82.5555ZM11.2228 82.5555H15.6672V84.7778H11.2228V82.5555Z" fill="#BA6434"/>
<path fill-rule="evenodd" clip-rule="evenodd" d="M24.5561 82.5555H26.7783V84.7778H24.5561V82.5555ZM13.445 82.5555H15.6672V84.7778H13.445V82.5555Z" fill="black" fill-opacity="0.2" style="mix-blend-mode:multiply"/>
<path fill-rule="evenodd" clip-rule="evenodd" d="M26.7778 67H29V87H26.7778H22.3333H20.1111V80.3333H17.8889V87H15.6667H11.2222H9H6.77778V84.7778H9V80.3333H6.77778V67H9H26.7778ZM15.6667 80.3333H11.2222H9V75.8889H15.6667V80.3333ZM15.6667 82.5556V84.7778H11.2222V82.5556H15.6667ZM15.6667 73.6667H11.2222V71.4444H9V69.2222H26.7778V71.4444H24.5556V73.6667H17.8889V71.4444H15.6667V73.6667ZM17.8889 75.8889V78.1111H20.1111V80.3333H22.3333H26.7778V75.8889H17.8889ZM22.3333 84.7778V82.5556H26.7778V84.7778H22.3333Z" fill="black"/>
<path fill-rule="evenodd" clip-rule="evenodd" d="M14.4002 47.8334H19.2002V50.25H14.4002V47.8334ZM2.40078 62.3334H4.80078V67.1667H2.40078V62.3334ZM31.2006 64.7499H33.6006V69.5832H31.2006V64.7499ZM31.2002 62.3334L28.8008 62.3334L28.8002 62.3334L26.4008 62.3334V67.1667H28.8002V69.5834H31.2002V62.3334ZM7.20215 59.9167H4.80215V64.75H7.20215V59.9167Z" fill="#FAE6CE"/>
<path fill-rule="evenodd" clip-rule="evenodd" d="M19.1982 47.8334H14.3982V50.25H19.1982V47.8334ZM7.19824 59.9167H4.79824V62.3334H2.3998V67.1667H4.7998V64.75H7.19824V59.9167ZM28.7979 62.3334H26.3979V67.1667H28.7979V62.3334ZM28.7982 64.7499H31.1982V69.5832H28.7982V64.7499Z" fill="#714A1C" fill-opacity="0.25" style="mix-blend-mode:multiply"/>
<path fill-rule="evenodd" clip-rule="evenodd" d="M24.0004 45.4167H26.4004V52.6667H24.001V67.1667H21.601V47.8334H24.0004V45.4167ZM28.8008 47.8334H26.4008V59.9167H28.8002H28.8008H31.1986H31.2002H33.5986V55.0834H31.2002V50.2501H28.8008V47.8334ZM4.8002 55.0834H7.2002V57.5001H4.8002V55.0834ZM19.2006 50.2501H21.6006V67.1667H19.2006V50.2501ZM19.1992 52.6667H16.7998H16.7992H14.3998V67.1667H16.7992H16.7998H19.1992V52.6667ZM14.3994 50.2501H12V47.8334H9.6V50.2501H7.20059V55.0834H9.6V67.1667L11.9994 67.1667L12 67.1667L14.3994 67.1667V50.2501Z" fill="#403F3F"/>
<path fill-rule="evenodd" clip-rule="evenodd" d="M23.999 45.4167H26.399V47.8334H23.999V45.4167ZM9.60059 47.8334H12.0006V50.2501H9.60059V47.8334ZM14.4014 50.2501H12.0014V52.6667H14.4014V50.2501ZM9.60098 59.9167H12.001V64.7501H9.60098V59.9167ZM9.59902 64.7502H23.999V67.1669H9.59902V64.7502ZM31.2006 55.0834H33.6006V59.9167H31.2006V55.0834ZM23.999 62.3333H21.599V64.7499H23.999V62.3333ZM21.599 55.0834H23.999V57.5001H21.599V55.0834ZM26.399 50.2501H23.999V52.6667H26.399V50.2501ZM28.8004 52.6667H26.4004V55.0834H28.8004V52.6667ZM7.20215 50.2501H9.60215V55.0834H7.20215V50.2501ZM7.20078 55.0834H4.80078V57.5001H7.20078V55.0834Z" fill="black" fill-opacity="0.2" style="mix-blend-mode:multiply"/>
<path fill-rule="evenodd" clip-rule="evenodd" d="M26.3984 43H23.9984V45.4167H26.3984V43ZM28.7998 45.4167H26.3998V47.8333H28.7998V45.4167ZM24 45.4167H21.6V47.8333H24V45.4167ZM9.6 45.4167H12V47.8333L9.60156 47.8333V50.25L12 50.25V55.0833H9.60156V64.75H12V67.1667H14.4008V64.75H16.8008V67.1667H21.6V64.75H23.9984V52.6667H26.3984V67.1667H28.7998V69.5833H33.5996V72H28.7996V69.5833H2.3998V67.1668H0.000389099V62.3335H2.40039V67.1667L4.8002 67.1667V64.75H7.2002V67.1667L7.20156 67.1667V55.0833H9.6V50.25L7.20156 50.25V47.8333L9.6 47.8333V45.4167ZM19.1996 47.8333H21.5996V50.25H19.1996V47.8333ZM14.4004 47.8333H12.0004V50.25L14.3992 50.25V52.6667H19.1992V50.25L14.4004 50.25V47.8333ZM31.2002 47.8333H28.8002V50.25L31.1996 50.25V55.0833H33.5996V50.25L31.2002 50.25V47.8333ZM26.4002 62.3332V59.9165H31.1996H31.2002H33.5996V64.7499H31.1996V62.3332H26.4002ZM33.6 55.0833H36V59.9167H33.6V55.0833ZM33.6 64.75H36V69.5833H33.6V64.75ZM14.4008 52.6667V55.0833H16.8008V52.6667H14.4008ZM14.4008 59.9165V62.3332H16.8008V59.9165H14.4008ZM7.2002 57.5H4.8002V59.9167H7.2002V57.5ZM4.8002 50.25H7.2002V55.0833H4.8002V50.25ZM4.7998 55.0833H2.39981V62.3333H4.7998V55.0833Z" fill="black"/>
</svg>
