<svg width="46" height="104" viewBox="0 0 46 104" fill="none" xmlns="http://www.w3.org/2000/svg">
<path d="M14.375 2.875H34.5V5.75H37.375V8.625H40.25V46H37.375V48.875H34.5V51.75H17.25V48.875H11.5V46H8.625V40.25H2.875V31.625H5.75V8.625H8.625V5.75H14.375V2.875Z" fill="#FAE6CE"/>
<path fill-rule="evenodd" clip-rule="evenodd" d="M11.5 54.625H34.5V57.5H37.375V63.25H34.5V80.5H37.375V86.25H34.5V100.625H28.75V86.25H25.875V92H23V94.875H20.125V100.625H14.375V83.375H17.25V80.5H8.625V57.5H11.5V54.625ZM14.375 60.375H17.25V77.625H14.375V60.375Z" fill="#FAE6CE"/>
<path d="M37.375 63.25H40.25V71.875H43.125V77.625H37.375V63.25Z" fill="#FAE6CE"/>
<path d="M34.5 2.875H20.125V5.75H31.625V8.625H37.375V31.625H40.25V8.625H37.375V5.75H34.5V2.875Z" fill="#E3C4A6"/>
<path d="M8.625 8.625H5.75V20.125H8.625V8.625Z" fill="#E3C4A6"/>
<path d="M5.75 34.5H8.625V31.625H11.5V46H8.625V37.375H5.75V34.5Z" fill="#E3C4A6"/>
<path d="M11.5 46H20.125V48.875H34.5V51.75H17.25V48.875H11.5V46Z" fill="#E3C4A6"/>
<path d="M37.375 63.25H40.25V71.875H43.125V77.625H37.375V63.25Z" fill="#E3C4A6"/>
<path d="M37.375 63.25H34.5V60.375H31.625V57.5H17.25V54.625H34.5V57.5H37.375V63.25Z" fill="#E3C4A6"/>
<path d="M37.375 80.5H34.5V66.125H31.625V80.5H34.5V86.25H37.375V80.5Z" fill="#E3C4A6"/>
<path d="M31.625 89.125H34.5V100.625H31.625V89.125Z" fill="#E3C4A6"/>
<path d="M17.25 83.375H14.375V100.625H20.125V94.875H17.25V83.375Z" fill="#E3C4A6"/>
<path d="M23 86.25H25.875V89.125H23V86.25Z" fill="#E3C4A6"/>
<path d="M14.375 66.125H11.5V74.75H8.625V80.5H17.25V77.625H14.375V66.125Z" fill="#E3C4A6"/>
<path d="M17.25 8.625H20.125V11.5H17.25V8.625Z" fill="#FFF8EF"/>
<path d="M31.625 8.625H23V11.5H31.625V14.375H34.5V17.25H37.375V14.375H34.5V11.5H31.625V8.625Z" fill="#FFF8EF"/>
<path d="M5.75 31.625H2.875V34.5H5.75V31.625Z" fill="#FFF8EF"/>
<path d="M11.5 54.625H17.25V57.5H11.5V54.625Z" fill="#FFF8EF"/>
<path d="M11.5 57.5V60.375H8.625V57.5H11.5Z" fill="#FFF8EF"/>
<path d="M23 64.6875H20.125V70.4375H23V64.6875Z" fill="#FFF8EF"/>
<path d="M23 64.6875H25.875V61.8125H23V64.6875Z" fill="#FFF8EF"/>
<path d="M28.75 83.375H25.875V86.25H28.75V83.375Z" fill="#FFF8EF"/>
<path fill-rule="evenodd" clip-rule="evenodd" d="M34.5 0H14.375V2.875H8.625V5.75H5.75V8.625H2.875V31.625H0V40.25H2.875V43.125H5.75V46H8.625V48.875H11.5V54.625H8.625V57.5H5.75V80.5H8.625V83.375H11.5V103.5H23V94.875H25.875V103.5H40.25V100.625H37.375V86.25H40.25V80.5H43.125V77.625H46V71.875H43.125V63.25H40.25V57.5H37.375V54.625H34.5V51.75H37.375V48.875H40.25V46H43.125V8.625H40.25V5.75H37.375V2.875H34.5V0ZM34.5 2.875V5.75H37.375V8.625H40.25V46H37.375V48.875H34.5V51.75H17.25V48.875H11.5V46H8.625V40.25H2.875V31.625H5.75V34.5H8.625V31.625H5.75V8.625H8.625V5.75H14.375V2.875H34.5ZM37.375 63.25H34.5V80.5H37.375V86.25H34.5V100.625H28.75V86.25H25.875V89.125H23V94.875H20.125V100.625H14.375V83.375H20.125V77.625H17.25V60.375H14.375V77.625H17.25V80.5H8.625V57.5H11.5V54.625H34.5V57.5H37.375V63.25ZM37.375 63.25V77.625H43.125V71.875H40.25V63.25H37.375Z" fill="black"/>
<path fill-rule="evenodd" clip-rule="evenodd" d="M34.4005 2.86658H14.3339V5.73324H11.4672H8.60052V8.59991H5.73385V31.5332H2.86719V40.1332H5.73385H8.60052V45.8666H11.4672V48.7332L14.3339 48.7332H17.2005V51.5999H34.4005V48.7332L37.2672 48.7332V45.8666H40.1339V8.59991H37.2672V5.73324H34.4005V2.86658Z" fill="#FAE6CE"/>
<path fill-rule="evenodd" clip-rule="evenodd" d="M20.0667 2.8667H34.4001V5.73337H37.2667V8.60003H31.5334V5.73337H20.0667V2.8667ZM37.2667 8.60003H40.1334V31.5334H37.2667V8.60003ZM5.7334 8.60003H8.60007V31.5334H5.7334V8.60003ZM11.4667 45.8667H8.60007V37.2667H5.7334V34.4H8.60007V31.5334H11.4667V45.8667ZM20.0667 48.7334V45.8667H11.4667V48.7334H17.2001V51.6H34.4001V48.7334H20.0667ZM8.60007 8.60003V5.73337H11.4667V8.60003H8.60007Z" fill="#714A1C" fill-opacity="0.25" style="mix-blend-mode:multiply"/>
<path fill-rule="evenodd" clip-rule="evenodd" d="M20.0672 8.59998H17.2005V11.4666H20.0672V8.59998ZM22.9339 8.59998H31.5339V11.4666H22.9339V8.59998ZM34.4005 14.3333V11.4666H31.5339V14.3333H34.4005ZM34.4005 14.3333V17.2H37.2672V14.3333H34.4005ZM2.86719 31.5333H5.73385V34.4H2.86719V31.5333Z" fill="#FFFCF9" fill-opacity="0.7" style="mix-blend-mode:lighten"/>
<path fill-rule="evenodd" clip-rule="evenodd" d="M17.2002 25.7999H22.9335V28.6666H17.2002V25.7999ZM22.9335 28.6666H25.8002V31.5333H22.9335V28.6666ZM22.9335 34.3999H20.0669V37.2666H22.9335V34.3999ZM25.8002 42.9999H31.5335V45.8666H25.8002V42.9999ZM34.4002 28.6666H31.5335V31.5333H34.4002V28.6666ZM34.4002 28.6666H37.2669V25.7999H34.4002V28.6666ZM34.4002 34.3999H31.5335V37.2666H34.4002V34.3999Z" fill="black"/>
<path fill-rule="evenodd" clip-rule="evenodd" d="M17.2002 28.6667H22.9335V31.5334H17.2002V28.6667ZM22.9335 31.5334H25.8002V34.4001H22.9335V31.5334ZM22.9335 37.2667H20.0669V40.1334H22.9335V37.2667ZM31.5335 37.2667H34.4002V40.1334H31.5335V37.2667ZM37.2669 28.6667H34.4002V31.5334H37.2669V28.6667Z" fill="#714A1C" fill-opacity="0.25" style="mix-blend-mode:multiply"/>
<path fill-rule="evenodd" clip-rule="evenodd" d="M14.3333 0H34.4V2.86667H14.3333V0ZM8.6 5.73333V2.86667H14.3333V5.73333H8.6ZM5.73333 8.6V5.73333H8.6V8.6H5.73333ZM5.73333 31.5333V8.6H2.86667V31.5333H0V40.1333H2.86667V43H5.73333V45.8667H8.6V48.7333H11.4667V51.6H17.2V54.4667H34.4V51.6L37.2667 51.6V48.7333H40.1333L40.1333 45.8667H43V8.6H40.1333V5.73333H37.2667V2.86667H34.4V5.73333H37.2667V8.6H40.1333L40.1333 45.8667H37.2667V48.7333H34.4V51.6L17.2 51.6V48.7333H11.4667V45.8667H8.6V43V40.1333H2.86667V31.5333H5.73333ZM5.73333 31.5333V34.4H8.6V31.5333H5.73333Z" fill="black"/>
<path fill-rule="evenodd" clip-rule="evenodd" d="M11.7777 2.44446H14.2221H33.7777L33.7777 4.8889H36.2221V9.77779H38.6666V17.1111H36.2221V19.5556H33.7777L33.7777 17.1111H14.2221V19.5556H11.7777V34.2222H9.33322V29.3333H6.88878V17.1111H4.44434V7.33335H6.88878V4.8889H9.33322H11.7777V2.44446Z" fill="#252525"/>
<path fill-rule="evenodd" clip-rule="evenodd" d="M31.3328 4.88892H19.1106V7.33336H31.3328V4.88892ZM16.6661 7.33336H14.2217V9.7778H16.6661V7.33336Z" fill="white" fill-opacity="0.3" style="mix-blend-mode:lighten"/>
<path fill-rule="evenodd" clip-rule="evenodd" d="M36.2221 4.88892H33.7777V9.7778H31.3332V12.2222H33.7777L33.7777 14.6667H14.2221V17.1111H33.7777L33.7777 19.5556H36.2221V17.1111H38.6666V9.7778H36.2221V4.88892ZM4.44434 7.33336H6.88878V9.7778H9.33322V14.6667H11.7777V34.2222H9.33322V29.3334H6.88878V17.1111H4.44434V7.33336Z" fill="black" fill-opacity="0.2" style="mix-blend-mode:multiply"/>
<path fill-rule="evenodd" clip-rule="evenodd" d="M33.7778 0H11.7778V2.44444H6.88889V4.88889H4.44444V7.33333H2V17.1111H4.44444V7.33333H6.88889V4.88889H11.7778V2.44444H33.7778L33.7778 4.88889H36.2222V9.77778H38.6667L38.6667 17.1111H36.2222V22H38.6667L38.6667 17.1111H41.1111V9.77778H38.6667V4.88889H36.2222V2.44444H33.7778V0Z" fill="black"/>
<path fill-rule="evenodd" clip-rule="evenodd" d="M20.3978 80.7777H14.7988V97.4444H20.3988V94.6666H23.1978V80.7777H20.3988H20.3978ZM23.2 80.7777H25.9995H26H28.7989H28.7995H34.3979H34.3989H37.1979V94.6666H34.3989V97.4444H28.7989V83.5555H26V91.8888H23.2V80.7777Z" fill="#FED70A"/>
<path fill-rule="evenodd" clip-rule="evenodd" d="M14.7995 78H12V103H14.7995H14.8H20.3995V100.222H14.8V86.3333H17.5995V83.5556H14.8V80.7778H37.1995V78H14.8H14.7995ZM37.2007 83.5556H34.4013V86.3333H37.2007V94.6667H34.4013V103H37.2007H37.2013H40.0007V100.222H37.2013V94.6667H40.0007V78H37.2007V83.5556ZM20.4011 94.6667H23.2006V91.8889H26.0001V83.5556H28.8001V100.222H34.3996V103L28.8001 103L28.7996 103L26.0001 103V94.6667H23.2011V103H20.4011V94.6667Z" fill="black"/>
<path fill-rule="evenodd" clip-rule="evenodd" d="M14.7988 80.7777H17.5988V83.5555H14.7988V80.7777ZM14.7988 86.3333H17.5988V89.111H14.7988V86.3333ZM20.3978 94.6666H17.5983V97.4444H20.3983V94.6666H23.1978V91.8888H20.3978V94.6666ZM37.1979 80.7777H34.3979V83.5555H37.1979V80.7777ZM34.3979 86.3333H37.1979V89.111H34.3979V86.3333ZM31.5989 86.3333H28.7989V97.4444H31.5984H31.5989H34.3984V91.8888H31.5989V86.3333ZM26 83.5555H23.2V91.8888H26V83.5555Z" fill="black" fill-opacity="0.2" style="mix-blend-mode:multiply"/>
<path fill-rule="evenodd" clip-rule="evenodd" d="M20.3988 97.4445H14.7988V100.222H20.3988V97.4445ZM34.3989 97.4445H28.7989V100.222H34.3989V97.4445Z" fill="#258A02"/>
<path fill-rule="evenodd" clip-rule="evenodd" d="M17.5988 97.4445H14.7988V100.222H17.5988V97.4445ZM31.5989 97.4445H28.7989V100.222H31.5989V97.4445Z" fill="black" fill-opacity="0.2" style="mix-blend-mode:multiply"/>
<path fill-rule="evenodd" clip-rule="evenodd" d="M16 47H13V50H10V53H7V56H4V74L1 74V80H4V83H10V80H43V77H46V71H43V62L40 62V56H37V53H34V50H31V53H28V56H22V53H19V50H16V47ZM16 50V53H19V56H22V59H28V56H31V53H34V56H37V62H34V77L16 77V59H13V62H7V56H10V53H13V50H16ZM40 77H43V71H40V62L37 62V74H40V77ZM13 77L10 77V80H4V74H7V65H13V77Z" fill="black"/>
<path fill-rule="evenodd" clip-rule="evenodd" d="M28 53H22V56H28V53ZM7 65H10H13V77H10V80H7L4 80V74H7V65ZM43 71H40V62H37V74H40V77H43V71Z" fill="#FAE6CE"/>
<path fill-rule="evenodd" clip-rule="evenodd" d="M22 53H28V56H22V53ZM37 62H40V71H43V77H40V74H37V62ZM10 65H13V77H10V80H7V74H10V65Z" fill="#714A1C" fill-opacity="0.25" style="mix-blend-mode:multiply"/>
<path fill-rule="evenodd" clip-rule="evenodd" d="M16 50H13V53H10V56H7V62H10H13V59H16L16 77H19L22 77H25H28H31L34 77L34 62H37V56H34L34 53H31V56H28V59H25H22V56H19V53H16L16 50Z" fill="#FCD561"/>
<path fill-rule="evenodd" clip-rule="evenodd" d="M13 50H16V53H13V50ZM31 53H34V56H31V53ZM34 56L34 62H37V56H34ZM34 74H16V77H34V74ZM16 56H13V59H10V62H13L13 59H16V56Z" fill="black" fill-opacity="0.2" style="mix-blend-mode:multiply"/>
</svg>
