<svg width="46" height="104" viewBox="0 0 46 104" fill="none" xmlns="http://www.w3.org/2000/svg">
<path d="M31.625 2.875H11.5V5.75H8.625V8.625H5.75V46H8.625V48.875H11.5V51.75H28.75V48.875H34.5V46H37.375V40.25H43.125V31.625H40.25V8.625H37.375V5.75H31.625V2.875Z" fill="#FAE6CE"/>
<path fill-rule="evenodd" clip-rule="evenodd" d="M34.5 54.625H11.5V57.5H8.625V63.25H11.5V80.5H8.625V86.25H11.5V100.625H17.25V86.25H20.125V92H23V94.875H25.875V100.625H31.625V83.375H28.75V80.5H37.375V57.5H34.5V54.625ZM31.625 60.375H28.75V77.625H31.625V60.375Z" fill="#FAE6CE"/>
<path d="M8.625 63.25H5.75V71.875H2.875V77.625H8.625V63.25Z" fill="#FAE6CE"/>
<path d="M11.5 2.875H25.875V5.75H14.375V8.625H8.625V31.625H5.75V8.625H8.625V5.75H11.5V2.875Z" fill="#E3C4A6"/>
<path d="M37.375 8.625H40.25V20.125H37.375V8.625Z" fill="#E3C4A6"/>
<path d="M40.25 34.5H37.375V31.625H34.5V46H37.375V37.375H40.25V34.5Z" fill="#E3C4A6"/>
<path d="M34.5 46H25.875V48.875H11.5V51.75H28.75V48.875H34.5V46Z" fill="#E3C4A6"/>
<path d="M8.625 63.25H5.75V71.875H2.875V77.625H8.625V63.25Z" fill="#E3C4A6"/>
<path d="M8.625 63.25H11.5V60.375H14.375V57.5H28.75V54.625H11.5V57.5H8.625V63.25Z" fill="#E3C4A6"/>
<path d="M8.625 80.5H11.5V66.125H14.375V80.5H11.5V86.25H8.625V80.5Z" fill="#E3C4A6"/>
<path d="M14.375 89.125H11.5V100.625H14.375V89.125Z" fill="#E3C4A6"/>
<path d="M28.75 83.375H31.625V100.625H25.875V94.875H28.75V83.375Z" fill="#E3C4A6"/>
<path d="M23 86.25H20.125V89.125H23V86.25Z" fill="#E3C4A6"/>
<path d="M31.625 66.125H34.5V74.75H37.375V80.5H28.75V77.625H31.625V66.125Z" fill="#E3C4A6"/>
<path d="M28.75 8.625H25.875V11.5H28.75V8.625Z" fill="#FFF8EF"/>
<path d="M14.375 8.625H23V11.5H14.375V14.375H11.5V17.25H8.625V14.375H11.5V11.5H14.375V8.625Z" fill="#FFF8EF"/>
<path d="M40.25 31.625H43.125V34.5H40.25V31.625Z" fill="#FFF8EF"/>
<path d="M34.5 54.625H28.75V57.5H34.5V54.625Z" fill="#FFF8EF"/>
<path d="M34.5 57.5V60.375H37.375V57.5H34.5Z" fill="#FFF8EF"/>
<path d="M23 64.6875H25.875V70.4375H23V64.6875Z" fill="#FFF8EF"/>
<path d="M23 64.6875H20.125V61.8125H23V64.6875Z" fill="#FFF8EF"/>
<path d="M17.25 83.375H20.125V86.25H17.25V83.375Z" fill="#FFF8EF"/>
<path fill-rule="evenodd" clip-rule="evenodd" d="M11.5 0H31.625V2.875H37.375V5.75H40.25V8.625H43.125V31.625H46V40.25H43.125V43.125H40.25V46H37.375V48.875H34.5V54.625H37.375V57.5H40.25V80.5H37.375V83.375H34.5V103.5H23V94.875H20.125V103.5H5.75V100.625H8.625V86.25H5.75V80.5H2.875V77.625H0V71.875H2.875V63.25H5.75V57.5H8.625V54.625H11.5V51.75H8.625V48.875H5.75V46H2.875V8.625H5.75V5.75H8.625V2.875H11.5V0ZM11.5 2.875V5.75H8.625V8.625H5.75V46H8.625V48.875H11.5V51.75H28.75V48.875H34.5V46H37.375V40.25H43.125V31.625H40.25V34.5H37.375V31.625H40.25V8.625H37.375V5.75H31.625V2.875H11.5ZM8.625 63.25H11.5V80.5H8.625V86.25H11.5V100.625H17.25V86.25H20.125V89.125H23V94.875H25.875V100.625H31.625V83.375H25.875V77.625H28.75V60.375H31.625V77.625H28.75V80.5H37.375V57.5H34.5V54.625H11.5V57.5H8.625V63.25ZM8.625 63.25V77.625H2.875V71.875H5.75V63.25H8.625Z" fill="black"/>
<path fill-rule="evenodd" clip-rule="evenodd" d="M11.5995 2.86658H31.6661V5.73324H34.5328H37.3995V8.59991H40.2661V31.5332H43.1328V40.1332H40.2661H37.3995V45.8666H34.5328V48.7332L31.6661 48.7332H28.7995V51.5999H11.5995V48.7332L8.73281 48.7332V45.8666H5.86614V8.59991H8.73281V5.73324H11.5995V2.86658Z" fill="#FAE6CE"/>
<path fill-rule="evenodd" clip-rule="evenodd" d="M25.9333 2.8667H11.5999V5.73337H8.73327V8.60003H14.4666V5.73337H25.9333V2.8667ZM8.73327 8.60003H5.8666V31.5334H8.73327V8.60003ZM40.2666 8.60003H37.3999V31.5334H40.2666V8.60003ZM34.5333 45.8667H37.3999V37.2667H40.2666V34.4H37.3999V31.5334H34.5333V45.8667ZM25.9333 48.7334V45.8667H34.5333V48.7334H28.7999V51.6H11.5999V48.7334H25.9333ZM37.3999 8.60003V5.73337H34.5333V8.60003H37.3999Z" fill="#714A1C" fill-opacity="0.25" style="mix-blend-mode:multiply"/>
<path fill-rule="evenodd" clip-rule="evenodd" d="M25.9328 8.59998H28.7995V11.4666H25.9328V8.59998ZM23.0661 8.59998H14.4661V11.4666H23.0661V8.59998ZM11.5995 14.3333V11.4666H14.4661V14.3333H11.5995ZM11.5995 14.3333V17.2H8.73281V14.3333H11.5995ZM43.1328 31.5333H40.2661V34.4H43.1328V31.5333Z" fill="#FFFCF9" fill-opacity="0.7" style="mix-blend-mode:lighten"/>
<path fill-rule="evenodd" clip-rule="evenodd" d="M28.7998 25.7999H23.0665V28.6666H28.7998V25.7999ZM23.0665 28.6666H20.1998V31.5333H23.0665V28.6666ZM23.0665 34.3999H25.9331V37.2666H23.0665V34.3999ZM20.1998 42.9999H14.4665V45.8666H20.1998V42.9999ZM11.5998 28.6666H14.4665V31.5333H11.5998V28.6666ZM11.5998 28.6666H8.73314V25.7999H11.5998V28.6666ZM11.5998 34.3999H14.4665V37.2666H11.5998V34.3999Z" fill="black"/>
<path fill-rule="evenodd" clip-rule="evenodd" d="M28.7998 28.6667H23.0665V31.5334H28.7998V28.6667ZM23.0665 31.5334H20.1998V34.4001H23.0665V31.5334ZM23.0665 37.2667H25.9331V40.1334H23.0665V37.2667ZM14.4665 37.2667H11.5998V40.1334H14.4665V37.2667ZM8.73314 28.6667H11.5998V31.5334H8.73314V28.6667Z" fill="#714A1C" fill-opacity="0.25" style="mix-blend-mode:multiply"/>
<path fill-rule="evenodd" clip-rule="evenodd" d="M31.6667 0H11.6V2.86667H31.6667V0ZM37.4 5.73333V2.86667H31.6667V5.73333H37.4ZM40.2667 8.6V5.73333H37.4V8.6H40.2667ZM40.2667 31.5333V8.6H43.1333V31.5333H46V40.1333H43.1333V43H40.2667V45.8667H37.4V48.7333H34.5333V51.6H28.8V54.4667H11.6V51.6L8.73333 51.6V48.7333H5.86666L5.86666 45.8667H3V8.6H5.86666V5.73333H8.73333V2.86667H11.6V5.73333H8.73333V8.6H5.86666L5.86666 45.8667H8.73333V48.7333H11.6V51.6L28.8 51.6V48.7333H34.5333V45.8667H37.4V43V40.1333H43.1333V31.5333H40.2667ZM40.2667 31.5333V34.4H37.4V31.5333H40.2667Z" fill="black"/>
<path fill-rule="evenodd" clip-rule="evenodd" d="M34.2223 2.44446H31.7779H12.2223L12.2223 4.8889H9.77789V9.77779H7.33344V17.1111H9.77789V19.5556H12.2223L12.2223 17.1111H31.7779V19.5556H34.2223V34.2222H36.6668V29.3333H39.1112V17.1111H41.5557V7.33335H39.1112V4.8889H36.6668H34.2223V2.44446Z" fill="#FF0000"/>
<path fill-rule="evenodd" clip-rule="evenodd" d="M14.6672 4.88892H26.8894V7.33336H14.6672V4.88892ZM29.3339 7.33336H31.7783V9.7778H29.3339V7.33336Z" fill="white" fill-opacity="0.3" style="mix-blend-mode:lighten"/>
<path fill-rule="evenodd" clip-rule="evenodd" d="M9.77789 4.88892H12.2223V9.7778H14.6668V12.2222H12.2223L12.2223 14.6667H31.7779V17.1111H12.2223L12.2223 19.5556H9.77789V17.1111H7.33344V9.7778H9.77789V4.88892ZM41.5557 7.33336H39.1112V9.7778H36.6668V14.6667H34.2223V34.2222H36.6668V29.3334H39.1112V17.1111H41.5557V7.33336Z" fill="black" fill-opacity="0.2" style="mix-blend-mode:multiply"/>
<path fill-rule="evenodd" clip-rule="evenodd" d="M12.2222 0H34.2222V2.44444H39.1111V4.88889H41.5556V7.33333H44V17.1111H41.5556V7.33333H39.1111V4.88889H34.2222V2.44444H12.2222L12.2222 4.88889H9.77778V9.77778H7.33334L7.33333 17.1111H9.77778V22H7.33334L7.33333 17.1111H4.88889V9.77778H7.33334V4.88889H9.77778V2.44444H12.2222V0Z" fill="black"/>
<path fill-rule="evenodd" clip-rule="evenodd" d="M25.6022 80.7777H31.2012V97.4444H25.6012V94.6666H22.8022V80.7777H25.6012H25.6022ZM22.8 80.7777H20.0005H20H17.2011H17.2005H11.6021H11.6011H8.80211V94.6666H11.6011V97.4444H17.2011V83.5555H20V91.8888H22.8V80.7777Z" fill="#62B1EA"/>
<path fill-rule="evenodd" clip-rule="evenodd" d="M31.2005 78H34V103H31.2005H31.2H25.6005V100.222H31.2V86.3333H28.4005V83.5556H31.2V80.7778H8.80052V78H31.2H31.2005ZM8.79926 83.5556H11.5987V86.3333H8.79926V94.6667H11.5987V103H8.79926H8.79874H5.99926V100.222H8.79874V94.6667H5.99926V78H8.79926V83.5556ZM25.5989 94.6667H22.7994V91.8889H19.9999V83.5556H17.1999V100.222H11.6004V103L17.1999 103L17.2004 103L19.9999 103V94.6667H22.7989V103H25.5989V94.6667Z" fill="black"/>
<path fill-rule="evenodd" clip-rule="evenodd" d="M31.2012 80.7777H28.4012V83.5555H31.2012V80.7777ZM31.2012 86.3333H28.4012V89.111H31.2012V86.3333ZM25.6022 94.6666H28.4017V97.4444H25.6017V94.6666H22.8022V91.8888H25.6022V94.6666ZM8.80211 80.7777H11.6021V83.5555H8.80211V80.7777ZM11.6021 86.3333H8.80211V89.111H11.6021V86.3333ZM14.4011 86.3333H17.2011V97.4444H14.4016H14.4011H11.6016V91.8888H14.4011V86.3333ZM20 83.5555H22.8V91.8888H20V83.5555Z" fill="black" fill-opacity="0.2" style="mix-blend-mode:multiply"/>
<path fill-rule="evenodd" clip-rule="evenodd" d="M25.6012 97.4445H31.2012V100.222H25.6012V97.4445ZM11.6011 97.4445H17.2011V100.222H11.6011V97.4445Z" fill="#258A02"/>
<path fill-rule="evenodd" clip-rule="evenodd" d="M28.4012 97.4445H31.2012V100.222H28.4012V97.4445ZM14.4011 97.4445H17.2011V100.222H14.4011V97.4445Z" fill="black" fill-opacity="0.2" style="mix-blend-mode:multiply"/>
<path fill-rule="evenodd" clip-rule="evenodd" d="M30 47H33V50H36V53H39V56H42V74L45 74V80H42V83H36V80H3V77H-3.8147e-06V71H3V62L6 62V56H9V53H12V50H15V53H18V56H24V53H27V50H30V47ZM30 50V53H27V56H24V59H18V56H15V53H12V56H9V62H12V77L30 77V59H33V62H39V56H36V53H33V50H30ZM6 77H3V71H6V62L9 62V74H6V77ZM33 77L36 77V80H42V74H39V65H33V77Z" fill="black"/>
<path fill-rule="evenodd" clip-rule="evenodd" d="M18 53H24V56H18V53ZM39 65H36H33V77H36V80H39L42 80V74H39V65ZM3 71H6V62H9V74H6V77H3V71Z" fill="#FAE6CE"/>
<path fill-rule="evenodd" clip-rule="evenodd" d="M24 53H18V56H24V53ZM9 62H6V71H3V77H6V74H9V62ZM36 65H33V77H36V80H39V74H36V65Z" fill="#714A1C" fill-opacity="0.25" style="mix-blend-mode:multiply"/>
<path fill-rule="evenodd" clip-rule="evenodd" d="M30 50H33V53H36V56H39V62H36H33V59H30L30 77H27L24 77H21H18H15L12 77L12 62H9V56H12L12 53H15V56H18V59H21H24V56H27V53H30L30 50Z" fill="#5DBAEF"/>
<path fill-rule="evenodd" clip-rule="evenodd" d="M33 50H30V53H33V50ZM15 53H12V56H15V53ZM12 56L12 62H9V56H12ZM12 74H30V77H12V74ZM30 56H33V59H36V62H33L33 59H30V56Z" fill="black" fill-opacity="0.2" style="mix-blend-mode:multiply"/>
</svg>
