<svg width="39" height="87" viewBox="0 0 39 87" fill="none" xmlns="http://www.w3.org/2000/svg">
<path d="M12.3885 7.27783H28.3329V9.55561H30.6107V11.8334H32.8885V41.4445H30.6107V43.7223H28.3329V46.0001H14.6662V43.7223H10.1107V41.4445H7.8329V36.8889H3.27734V30.0556H5.55512V11.8334H7.8329V9.55561H12.3885V7.27783Z" fill="#FAE6CE"/>
<path fill-rule="evenodd" clip-rule="evenodd" d="M10.1107 48.2778H28.3329V50.5556H30.6107V55.1112H28.3329V68.7778H30.6107V73.3334H28.3329V84.7223H23.7773V73.3334H21.4996V77.8889H19.2218V80.1667H16.944V84.7223H12.3885V71.0556H14.6662V68.7778H7.8329V50.5556H10.1107V48.2778ZM12.3885 52.8334H14.6662V66.5001H12.3885V52.8334Z" fill="#FAE6CE"/>
<path d="M30.6107 55.1112H32.8885V61.9445H35.1662V66.5001H30.6107V55.1112Z" fill="#FAE6CE"/>
<path d="M28.3334 7.27783H16.9446V9.55561H26.0557V11.8334H30.6112V30.0556H32.889V11.8334H30.6112V9.55561H28.3334V7.27783Z" fill="#E3C4A6"/>
<path d="M7.83344 11.8334H5.55566V20.9445H7.83344V11.8334Z" fill="#E3C4A6"/>
<path d="M5.55566 32.3334H7.83344V30.0556H10.1112V41.4445H7.83344V34.6112H5.55566V32.3334Z" fill="#E3C4A6"/>
<path d="M10.1112 41.4445H16.9446V43.7223H28.3334V46.0001H14.6668V43.7223H10.1112V41.4445Z" fill="#E3C4A6"/>
<path d="M30.6112 55.1112H32.889V61.9445H35.1668V66.5001H30.6112V55.1112Z" fill="#E3C4A6"/>
<path d="M30.6112 55.1112H28.3334V52.8334H26.0557V50.5556H14.6668V48.2778H28.3334V50.5556H30.6112V55.1112Z" fill="#E3C4A6"/>
<path d="M30.6112 68.7778H28.3334V57.3889H26.0557V68.7778H28.3334V73.3334H30.6112V68.7778Z" fill="#E3C4A6"/>
<path d="M26.0557 75.6112H28.3334V84.7223H26.0557V75.6112Z" fill="#E3C4A6"/>
<path d="M14.6668 71.0556H12.389V84.7223H16.9446V80.1667H14.6668V71.0556Z" fill="#E3C4A6"/>
<path d="M19.2223 73.3334H21.5001V75.6112H19.2223V73.3334Z" fill="#E3C4A6"/>
<path d="M12.389 57.3889H10.1112V64.2223H7.83344V68.7778H14.6668V66.5001H12.389V57.3889Z" fill="#E3C4A6"/>
<path d="M14.6662 11.8334H16.944V14.1112H14.6662V11.8334Z" fill="#FFF8EF"/>
<path d="M26.0551 11.8334H19.2218V14.1112H26.0551V16.3889H28.3329V18.6667H30.6107V16.3889H28.3329V14.1112H26.0551V11.8334Z" fill="#FFF8EF"/>
<path d="M5.55512 30.0556H3.27734V32.3334H5.55512V30.0556Z" fill="#FFF8EF"/>
<path d="M10.1107 48.2778H14.6662V50.5556H10.1107V48.2778Z" fill="#FFF8EF"/>
<path d="M10.1107 50.5556V52.8334H7.8329V50.5556H10.1107Z" fill="#FFF8EF"/>
<path d="M19.2218 56.25H16.944V60.8056H19.2218V56.25Z" fill="#FFF8EF"/>
<path d="M19.2218 56.25H21.4996V53.9723H19.2218V56.25Z" fill="#FFF8EF"/>
<path d="M23.7773 71.0556H21.4996V73.3334H23.7773V71.0556Z" fill="#FFF8EF"/>
<path fill-rule="evenodd" clip-rule="evenodd" d="M28.3333 5H12.3889V7.27778H7.83333V9.55556H5.55556V11.8333H3.27778V30.0556H1V36.8889H3.27778V39.1667H5.55556V41.4444H7.83333V43.7222H10.1111V48.2778H7.83333V50.5556H5.55556V68.7778H7.83333V71.0555H10.1111V87H19.2222V80.1667H21.5V87H32.8889V84.7222H30.6111V73.3333H32.8889V68.7778H35.1667V66.5H37.4444V61.9444H35.1667V55.1111H32.8889V50.5556H30.6111V48.2778H28.3333V46H30.6111V43.7222H32.8889V41.4444H35.1667V11.8333H32.8889V9.55556H30.6111V7.27778H28.3333V5ZM28.3333 7.27778V9.55556H30.6111V11.8333H32.8889V41.4444H30.6111V43.7222H28.3333V46H14.6667V43.7222H10.1111V41.4444H7.83333V36.8889H3.27778V30.0556H5.55556V32.3333H7.83333V30.0556H5.55556V11.8333H7.83333V9.55556H12.3889V7.27778H28.3333ZM30.6111 55.1111H28.3333V68.7778H30.6111V73.3333H28.3333V84.7222H23.7778V73.3333H21.5V75.6111H19.2222V80.1667H16.9444V84.7222H12.3889V71.0555H16.9444V66.5H14.6667V52.8333H12.3889V66.5H14.6667V68.7778H7.83333V50.5556H10.1111V48.2778H28.3333V50.5556H30.6111V55.1111ZM30.6111 55.1111V66.5H35.1667V61.9444H32.8889V55.1111H30.6111Z" fill="black"/>
<path fill-rule="evenodd" clip-rule="evenodd" d="M28.1999 7.26672H12.3333V9.53339H10.0666H7.79994V11.8001H5.53327V29.9334H3.2666V36.7334H5.53327H7.79994V41.2667H10.0666V43.5334H12.3333H14.5999V45.8001H28.1999V43.5334H30.4666V41.2667H32.7333V11.8001H30.4666V9.53339H28.1999V7.26672Z" fill="#FAE6CE"/>
<path fill-rule="evenodd" clip-rule="evenodd" d="M16.8665 7.2666H28.1999V9.53327H30.4665L30.4665 11.7999H25.9332V9.53327H16.8665V7.2666ZM30.4665 11.7999H32.7332V29.9333H30.4665V11.7999ZM5.5332 11.7999H7.79987V29.9333H5.5332V11.7999ZM10.0665 41.2666H7.79987V34.4666H5.5332V32.1999H7.79987V29.9333L10.0665 29.9333V41.2666ZM16.8665 43.5333V41.2666H10.0665V43.5333H14.5999V45.7999H28.1999V43.5333H16.8665ZM7.79987 11.7999V9.53327H10.0665V11.7999H7.79987Z" fill="#714A1C" fill-opacity="0.25" style="mix-blend-mode:multiply"/>
<path fill-rule="evenodd" clip-rule="evenodd" d="M16.8666 11.8H14.5999V14.0667H16.8666V11.8ZM19.1333 11.8H25.9333V14.0667H19.1333V11.8ZM28.1999 16.3334V14.0667H25.9333L25.9333 16.3334H28.1999ZM28.1999 16.3334L28.1999 18.6H30.4666V16.3334H28.1999ZM3.2666 29.9334H5.53327V32.2H3.2666V29.9334Z" fill="#FFFCF9" fill-opacity="0.7" style="mix-blend-mode:lighten"/>
<path fill-rule="evenodd" clip-rule="evenodd" d="M16.8673 27.6667H19.1339V29.9334H16.8673V27.6667ZM16.8673 29.9334V32.2001H14.6006V29.9334H16.8673ZM19.1339 29.9334H21.4006V32.2001H19.1339V29.9334ZM25.9339 39.0001V41.2667H21.4006V39.0001H25.9339ZM28.2006 27.6667H25.9339V29.9334H23.6673V32.2001H25.9339L25.9339 29.9334H28.2006V32.2001H30.4673V29.9334H28.2006V27.6667Z" fill="black"/>
<path fill-rule="evenodd" clip-rule="evenodd" d="M21.3995 27.6667H19.1328V29.9334H21.3995V32.2001H23.6661V29.9334H21.3995V27.6667Z" fill="#714A1C" fill-opacity="0.25" style="mix-blend-mode:multiply"/>
<path fill-rule="evenodd" clip-rule="evenodd" d="M12.3333 5H28.2V7.26667H12.3333V5ZM7.8 9.53333V7.26667H12.3333L12.3333 9.53333H7.8ZM5.53333 11.8V9.53333H7.8V11.8H5.53333ZM5.53333 29.9333V11.8H3.26667V29.9333H1V36.7333H3.26667V39H5.53333V41.2667H7.8V43.5333H10.0667V45.8H14.6V48.0667H28.2V45.8H30.4667V43.5333H32.7333V41.2667H35V11.8H32.7333V9.53333H30.4667V7.26667H28.2V9.53333H30.4667V11.8H32.7333V41.2667H30.4667V43.5333H28.2V45.8H14.6V43.5333H10.0667V41.2667H7.8V39V36.7333H3.26667V29.9333L5.53333 29.9333ZM5.53333 29.9333V32.2H7.8V29.9333L5.53333 29.9333Z" fill="black"/>
<path fill-rule="evenodd" clip-rule="evenodd" d="M25.5 2.125H23.375V4.25H21.25V6.375H17H14.875H12.75H10.625V4.25H8.5H6.375H4.25H2.125V10.625H4.25V17H2.125V29.75H4.25V31.875H6.375V34H8.5V29.75H10.625V27.625H12.75V25.5H14.875V21.25H17V19.125H21.25H23.375H25.5H27.625V23.375H29.75V25.5H31.875V27.625H34V12.75H31.875V10.625H29.75V8.5V2.125H27.625H25.5ZM6.375 10.625H4.25V8.5H6.375V10.625Z" fill="#DBD9E9"/>
<path fill-rule="evenodd" clip-rule="evenodd" d="M25.5 4.25H21.25V6.375H17V8.5H19.125V10.625H21.25V12.75H17V10.625H12.75V8.5H10.625V6.375H6.375V8.5H10.625V10.625H12.75V12.75H14.875V14.875H12.75H10.625V17H8.5V14.875H6.375V12.75H4.25V17H6.375V19.125H8.5V21.25H6.375V23.375H4.25V21.25H2.125V29.75H4.25V31.875H6.375V34H8.5V29.75H10.625V27.625H12.75V25.5H14.875V21.25H17V19.125H21.25H27.625V23.375H29.75V25.5H31.875V27.625H34V25.5H31.875V23.375H29.75V19.125H27.625V17H21.25H17V19.125H14.875V21.25H12.75V25.5H10.625V27.625H8.5V23.375H10.625V19.125H12.75V17H14.875V14.875H29.75H31.875V12.75H29.75H25.5V10.625H23.375V8.5H21.25V6.375H25.5V8.5H29.75V6.375H25.5V4.25ZM2.125 6.375H4.25V10.625H2.125V6.375Z" fill="black" fill-opacity="0.2" style="mix-blend-mode:multiply"/>
<path fill-rule="evenodd" clip-rule="evenodd" d="M29.75 2.125H25.5V4.25H29.75V2.125ZM8.5 4.25H4.25V6.375H8.5V4.25ZM19.125 17V14.875H14.875V17H12.75V19.125H10.625V21.25H12.75V19.125H14.875V17H19.125ZM21.25 6.375H25.5V8.5H21.25V6.375ZM25.5 8.5H29.75V10.625H25.5V8.5ZM17 6.375H12.75V8.5H17V10.625H19.125V8.5H17V6.375ZM10.625 8.5V10.625H6.375V8.5H10.625ZM10.625 10.625V12.75H12.75V10.625H10.625ZM29.75 14.875H27.625V17H29.75V21.25H31.875V23.375H34V21.25H31.875V17H29.75V14.875Z" fill="white" fill-opacity="0.3" style="mix-blend-mode:lighten"/>
<path fill-rule="evenodd" clip-rule="evenodd" d="M29.75 0H23.375V2.125H21.25V4.25H10.625V2.125H2.125V4.25H0V10.625H2.125V17H0V29.75H2.125V17H4.25V10.625H6.375V8.5H4.25V10.625H2.125V4.25H10.625V6.375H21.25V4.25H23.375V2.125H29.75V8.5V10.625H31.875V17H34V27.625H36.125V17H34V10.625H31.875V8.5V2.125H29.75V0Z" fill="black"/>
<path fill-rule="evenodd" clip-rule="evenodd" d="M21.1106 75.8889H12.2217V80.3334H21.1106V75.8889ZM29.9995 75.8889H23.3328V80.3334H29.9995V75.8889Z" fill="#FAE6CE"/>
<path fill-rule="evenodd" clip-rule="evenodd" d="M12.2217 75.8889H14.4439V78.1111H12.2217V75.8889ZM27.7772 75.8889H29.9995V80.3334H27.7772V75.8889ZM18.8883 78.1111H16.6661V80.3334H18.8883V78.1111ZM18.8883 78.1111H21.1106V75.8889H18.8883V78.1111ZM25.555 78.1111H23.3328V80.3334H25.555V78.1111Z" fill="#714A1C" fill-opacity="0.25" style="mix-blend-mode:multiply"/>
<path d="M12.2217 69.2223H29.9995V73.6667H12.2217V69.2223Z" fill="#A70000"/>
<path fill-rule="evenodd" clip-rule="evenodd" d="M12.2217 69.2223H14.4439V71.4445H12.2217V69.2223ZM27.7772 69.2223H29.9995V71.4445H27.7772V69.2223ZM21.1106 71.4445H18.8883V73.6667H21.1106V71.4445Z" fill="black" fill-opacity="0.2" style="mix-blend-mode:multiply"/>
<path fill-rule="evenodd" clip-rule="evenodd" d="M16.6661 82.5555H12.2217V84.7778H16.6661V82.5555ZM27.7772 82.5555H23.3328V84.7778H27.7772V82.5555Z" fill="#BA6434"/>
<path fill-rule="evenodd" clip-rule="evenodd" d="M14.4439 82.5555H12.2217V84.7778H14.4439V82.5555ZM25.555 82.5555H23.3328V84.7778H25.555V82.5555Z" fill="black" fill-opacity="0.2" style="mix-blend-mode:multiply"/>
<path fill-rule="evenodd" clip-rule="evenodd" d="M12.2222 67H10V87H12.2222H16.6667H18.8889V80.3333H21.1111V87H23.3333H27.7778H30H32.2222V84.7778H30V80.3333H32.2222V67H30H12.2222ZM23.3333 80.3333H27.7778H30V75.8889H23.3333V80.3333ZM23.3333 82.5556V84.7778H27.7778V82.5556H23.3333ZM23.3333 73.6667H27.7778V71.4444H30V69.2222H12.2222V71.4444H14.4444V73.6667H21.1111V71.4444H23.3333V73.6667ZM21.1111 75.8889V78.1111H18.8889V80.3333H16.6667H12.2222V75.8889H21.1111ZM16.6667 84.7778V82.5556H12.2222V84.7778H16.6667Z" fill="black"/>
<path fill-rule="evenodd" clip-rule="evenodd" d="M24.5998 47.8334H19.7998V50.25H24.5998V47.8334ZM36.5992 62.3334H34.1992V67.1667H36.5992V62.3334ZM7.79941 64.7499H5.39941V69.5832H7.79941V64.7499ZM7.7998 62.3334L10.1992 62.3334L10.1998 62.3334L12.5992 62.3334V67.1667H10.1998V69.5834H7.7998V62.3334ZM31.7979 59.9167H34.1979V64.75H31.7979V59.9167Z" fill="#FAE6CE"/>
<path fill-rule="evenodd" clip-rule="evenodd" d="M19.8018 47.8334H24.6018V50.25H19.8018V47.8334ZM31.8018 59.9167H34.2018V62.3334H36.6002V67.1667H34.2002V64.75H31.8018V59.9167ZM10.2021 62.3334H12.6021V67.1667H10.2021V62.3334ZM10.2018 64.7499H7.80176V69.5832H10.2018V64.7499Z" fill="#714A1C" fill-opacity="0.25" style="mix-blend-mode:multiply"/>
<path fill-rule="evenodd" clip-rule="evenodd" d="M14.9996 45.4167H12.5996V52.6667H14.999V67.1667H17.399V47.8334H14.9996V45.4167ZM10.1992 47.8334H12.5992V59.9167H10.1998H10.1992H7.80137H7.7998H5.40137V55.0834H7.7998V50.2501H10.1992V47.8334ZM34.1998 55.0834H31.7998V57.5001H34.1998V55.0834ZM19.7994 50.2501H17.3994V67.1667H19.7994V50.2501ZM19.8008 52.6667H22.2002H22.2008H24.6002V67.1667H22.2008H22.2002H19.8008V52.6667ZM24.6006 50.2501H27V47.8334H29.4V50.2501H31.7994V55.0834H29.4V67.1667L27.0006 67.1667L27 67.1667L24.6006 67.1667V50.2501Z" fill="#FF0000"/>
<path fill-rule="evenodd" clip-rule="evenodd" d="M15.001 45.4167H12.601V47.8334H15.001V45.4167ZM29.3994 47.8334H26.9994V50.2501H29.3994V47.8334ZM24.5986 50.2501H26.9986V52.6667H24.5986V50.2501ZM29.399 59.9167H26.999V64.7501H29.399V59.9167ZM29.401 64.7502H15.001V67.1669H29.401V64.7502ZM7.79941 55.0834H5.39941V59.9167H7.79941V55.0834ZM15.001 62.3333H17.401V64.7499H15.001V62.3333ZM17.401 55.0834H15.001V57.5001H17.401V55.0834ZM12.601 50.2501H15.001V52.6667H12.601V50.2501ZM10.1996 52.6667H12.5996V55.0834H10.1996V52.6667ZM31.7979 50.2501H29.3979V55.0834H31.7979V50.2501ZM31.7992 55.0834H34.1992V57.5001H31.7992V55.0834Z" fill="black" fill-opacity="0.2" style="mix-blend-mode:multiply"/>
<path fill-rule="evenodd" clip-rule="evenodd" d="M12.6016 43H15.0016V45.4167H12.6016V43ZM10.2002 45.4167H12.6002V47.8333H10.2002V45.4167ZM15 45.4167H17.4V47.8333H15V45.4167ZM29.4 45.4167H27V47.8333L29.3984 47.8333V50.25L27 50.25V55.0833H29.3984V64.75H27V67.1667H24.5992V64.75H22.1992V67.1667H17.4V64.75H15.0016V52.6667H12.6016V67.1667H10.2002V69.5833H5.40039V72H10.2004V69.5833H36.6002V67.1668H38.9996V62.3335H36.5996V67.1667L34.1998 67.1667V64.75H31.7998V67.1667L31.7984 67.1667V55.0833H29.4V50.25L31.7984 50.25V47.8333L29.4 47.8333V45.4167ZM19.8004 47.8333H17.4004V50.25H19.8004V47.8333ZM24.5996 47.8333H26.9996V50.25L24.6008 50.25V52.6667H19.8008V50.25L24.5996 50.25V47.8333ZM7.7998 47.8333H10.1998V50.25L7.80039 50.25V55.0833H5.40039V50.25L7.7998 50.25V47.8333ZM12.5998 62.3332V59.9165H7.80039H7.7998H5.40039V64.7499H7.80039V62.3332H12.5998ZM5.4 55.0833H3V59.9167H5.4V55.0833ZM5.4 64.75H3V69.5833H5.4V64.75ZM24.5992 52.6667V55.0833H22.1992V52.6667H24.5992ZM24.5992 59.9165V62.3332H22.1992V59.9165H24.5992ZM31.7998 57.5H34.1998V59.9167H31.7998V57.5ZM34.1998 50.25H31.7998V55.0833H34.1998V50.25ZM34.2002 55.0833H36.6002V62.3333H34.2002V55.0833Z" fill="black"/>
</svg>
