<svg width="195" height="161" viewBox="0 0 195 161" fill="none" xmlns="http://www.w3.org/2000/svg">
<path d="M7.00002 85V161" stroke="#614C28" stroke-width="5"/>
<path d="M187 85V161" stroke="#614C28" stroke-width="5"/>
<path d="M187.917 84.2455V88H6.46866V84.2455V82.2455H4.46866H2.00002V6.3734H4.46866H6.46866V4.3734V2H187.917V4.3734V6.3734H189.917H192.634V82.2455H189.917H187.917V84.2455Z" fill="#A6814E" stroke="#351404" stroke-width="4"/>
<path d="M94.6633 35.6633H96.3316V37.3316H92.9949V35.6633H91.3265V28.9898H94.6633V35.6633ZM98 28.9898V35.6633H96.3316V28.9898H98ZM103.005 28.9898V35.6633H101.337V37.3316H98V35.6633H99.6684V28.9898H103.005Z" fill="white"/>
<path d="M69.9949 51.3316V49.6633H68.3265V47.9949H69.9949V46.3265H76.6684V44.6582H69.9949V42.9898H78.3368V44.6582H80.0051V51.3316H69.9949ZM71.6633 49.6633H76.6684V47.9949H71.6633V49.6633Z" fill="white"/>
<path d="M91.3265 61.3316V59.6633H99.6684V57.9949H92.9949V56.3265H91.3265V54.6582H92.9949V52.9898H101.337V54.6582H94.6633V56.3265H101.337V57.9949H103.005V59.6633H101.337V61.3316H91.3265Z" fill="white"/>
<path d="M113.995 52.3316V50.6633H112.327V45.6582H113.995V43.9898H120.668V40.6531H124.005V52.3316H113.995ZM115.663 50.6633H120.668V45.6582H115.663V50.6633Z" fill="white"/>
<path d="M131 58V36H134.581V39.0698H137.651V41.8837H140.721V44.9535H144.047V49.3023H140.721V51.8605H137.651V54.9302H134.581V58H131Z" fill="white" stroke="white" stroke-width="0.430038"/>
<path d="M62.0465 36V58H58.4651V54.9302H55.3954V52.1163H52.3256V49.0465H49V44.6977H52.3256V42.1395H55.3954V39.0698H58.4651V36H62.0465Z" fill="white" stroke="white" stroke-width="0.430038"/>
<path d="M108 67L86 67L86 70.5814L89.0698 70.5814L89.0698 73.6512L91.8837 73.6512L91.8837 76.7209L94.9535 76.7209L94.9535 80.0465L99.3023 80.0465L99.3023 76.7209L101.86 76.7209L101.86 73.6512L104.93 73.6512L104.93 70.5814L108 70.5814L108 67Z" fill="white" stroke="white" stroke-width="0.430038"/>
<path d="M86 24.0465L108 24.0465L108 20.4651L104.93 20.4651L104.93 17.3953L102.116 17.3953L102.116 14.3256L99.0465 14.3256L99.0465 11L94.6977 11L94.6977 14.3256L92.1395 14.3256L92.1395 17.3953L89.0698 17.3953L89.0698 20.4651L86 20.4651L86 24.0465Z" fill="white" stroke="white" stroke-width="0.430038"/>
</svg>
