<svg width="402" height="199" viewBox="0 0 402 199" fill="none" xmlns="http://www.w3.org/2000/svg">
<path d="M356.012 116.221H357.801V116.978H361.997V116.221H370.045V112.231H372.04V114.295H376.03V112.231H378.025V110.236H390.131V112.231H400.175V110.236H400.794V104.252H400.175V100.124H398.18V98.1983H396.185V96.1346H394.121V94.071H392.126V90.15H388.137V88.0176H386.073V84.0278H372.109V86.0915H370.045V90.15H367.913V88.0176H365.849V86.0915H351.885V88.0176H347.689V84.0278H345.694V81.9642H347.689V79.8317H349.753V73.7783H351.679V69.995H353.742V63.8728H355.806V59.7455H357.801V55.687H359.865V49.7023H361.928V47.7075H357.801V45.7126H349.821V47.7075H343.699V45.7126H339.709V41.6541H331.73V39.5904H329.735V41.6541H325.677V43.649H323.475V45.7126H319.692V47.7075H315.427V51.9036H313.57V53.8297H311.437V55.8933H303.458V53.4169H291.557V55.5494H287.43V57.613H283.44V55.5494H279.52V57.613H275.461V55.5494H267.55V53.4169H257.851V54.2424H256.957H256.75V50.3214H253.105V48.3266H251.179V42.8235H241.686V40.8286H239.76V38.9713H237.834V37.0453H228.478V35.0504H213.345V37.0453H207.704V38.0083H204.471V40.0032H196.492V38.0083H192.502V36.0134H186.724V34.0873H185.21V33.3307H183.216H181.221V23.3563H179.157V17.2342H177.162V15.2393H169.183V13.1756H163.198V11.1808H159.14V9.32347H151.091V7.25981H145.107V5.12737H140.979V3.1325H139.053V1.13763H136.99V7.25981H134.926V9.32347H130.936V13.2444H128.873V15.3769H127.015V17.3029H125.02V31.267H127.015V33.2619H128.873V41.5165H127.015V43.5802H120.893V47.5011H116.491V45.6438H110.368V43.5802H108.305V45.6438H106.31V43.5802H96.4732H90.4198V41.5165H88.4937V43.5802H86.6364V41.5165H84.504V35.8071H82.5091V31.6797H66.6877V27.7588H62.7668V29.8225H60.7031V27.7588H58.7771V25.8327H56.7822V29.8225H48.8027V31.6797H46.7391V33.7434H42.8181V35.6695H38.8284V37.7331H36.9023V39.728H30.9177V41.7229H28.9916V43.7865H23.0758V47.7763H21.0122V49.7711H17.0912V51.766H5.05321V57.6818H1.06348V67.7249H3.12713V71.6459H7.04808V73.7783H11.1754V77.6993H13.1015V79.5566H17.0912V81.689H22.9382V83.6151H25.2083V85.61H30.9865V87.6736H33.1189V89.6685H35.1138V97.5792H36.9711V99.6428H38.8972V103.633H41.0296V110.855H38.8972V114.914H41.0296V116.84H38.8972V120.83H36.9711V124.751H35.045V126.814H36.9711V130.804H38.8972V134.725H41.0296V132.868H42.8869V134.725H47.0142V136.376H66.7565M355.393 115.602H353.467V123.512H349.409V125.576H347.414V127.571H343.424V129.566H331.386V131.492H329.46V133.556H327.396V135.55H325.401V137.545H323.475V139.609H321.412V140.228H315.496V139.609H307.516V137.545H305.522V135.619H297.955V136.307H295.891V142.292H293.896V148.276H295.891V152.266H299.331V160.246H295.891V162.24H293.896V164.235H289.907V166.23H287.98V168.294H285.986V170.289H283.991V174.21H281.996V176.204H279.932V178.131H274.016V180.263H269.958V182.189H261.978V182.671H258.057V182.189H251.798V183.083H243.818V185.078H235.839V187.211H231.849V189.068H227.791V191.132H223.732V193.126H221.737V195.121H217.679V197.254H215.821V198.492H207.635V195.121H195.666V193.126H191.677V191.132H187.756V189.068H179.707V187.142H177.712V185.147H175.718V183.083H171.59V181.088H165.606V179.162H149.509V181.088H148.202V181.57H146.345H142.286V181.295H126.396V179.988H120.756V178.818H116.628V179.988H108.649V178.818H106.585V174.76H104.59V172.696H102.595V170.701H100.601V164.786H98.6744V158.732H96.6108V156.669H94.6159V150.615H92.5522V152.61H90.5574V150.615H86.4988V148.689H84.5728V146.694H80.583V144.631H78.5194V142.636H76.5245V140.572H72.5348V138.577H68.4762V136.376H66.7565M66.7565 134.725V136.376" stroke="black"/>
</svg>
