<svg width="69" height="134" viewBox="0 0 69 134" fill="none" xmlns="http://www.w3.org/2000/svg">
<path d="M59.5148 55.3292C58.5392 55.2755 56.9448 54.0259 56.2695 53.4077L55.4791 55.5088C56.7501 56.221 58.6991 55.6858 59.5148 55.3292Z" fill="#792B1E"/>
<path d="M41.8169 89.7324L54.3333 89.7324C54.9683 89.7324 55.4426 90.3167 55.3119 90.9382L42.9397 111.732L32.9141 132.938C32.5361 133.438 31.9454 133.732 31.3185 133.732H22.5837C20.9323 133.732 19.9924 131.844 20.9881 130.527L29.1912 111.732L41.8169 89.7324Z" fill="#652116"/>
<path d="M50.3389 61.6243L55.3283 52.126L62.3118 73.9611L68.1567 92.9002C68.9306 94.8675 69.5835 97.3064 68.1567 98.8664C65.3415 101.944 62.2734 100.02 60.8686 96.093L52.6794 77.7809L50.3389 61.6243Z" fill="#792B1E"/>
<path d="M68.1562 98.8666C69.583 97.3066 68.9302 94.8677 68.1562 92.9004L60.8682 96.0932C62.2729 100.021 65.3411 101.944 68.1562 98.8666Z" fill="#FFB176"/>
<path opacity="0.5" d="M55.1689 64.3389L55.4783 67.0251L55.4975 78.3085C56.321 76.2574 57.4016 72.1168 57.8544 70.2817C58.3071 68.4466 56.4793 65.4151 55.1689 64.3389Z" fill="#97493C"/>
<path d="M55.1551 55.8423C55.1551 54.7377 54.2597 53.8423 53.1551 53.8423H24.9336C23.829 53.8423 22.9336 54.7377 22.9336 55.8423V90.9254C22.9336 90.9293 22.9368 90.9325 22.9407 90.9325C22.9445 90.9325 22.9477 90.9356 22.9477 90.9395L22.9477 93.8187C22.9477 94.304 23.1242 94.7729 23.4443 95.1377L42.5369 116.898L42.9364 132.717C43.3155 133.2 43.8959 133.483 44.5104 133.483H55.3863C57.0344 133.483 57.9752 131.601 56.9862 130.283L58.3866 116.152L42.7893 94.0869C41.8529 92.7622 42.8002 90.9325 44.4225 90.9325H53.1551C54.2597 90.9325 55.1551 90.037 55.1551 88.9325V55.8423Z" fill="#792B1E"/>
<path d="M53.1558 90.9325H44.4232C35.8885 90.6736 29.1776 83.8328 26.8417 80.3837C26.8264 80.3633 26.8125 80.3426 26.8 80.3218C26.8137 80.3423 26.8276 80.363 26.8417 80.3837C27.21 80.8766 28.3506 81.2438 28.8956 81.3696C28.0573 80.5837 27.1492 78.2917 26.8 77.2439C27.3762 77.5058 28.6554 78.0515 29.223 78.2917C27.1268 75.7273 23.9582 69.5913 28.0539 65.562C32.1495 61.5326 40.6733 65.6791 44.4232 68.256C47.8669 67.6001 53.0132 65.3277 55.1558 64.2735C55.1558 64.2735 55.8184 69.6307 55.8184 76.3867C55.8184 81.2929 55.1558 88.9325 55.1558 88.9325C55.1558 90.037 54.2604 90.9325 53.1558 90.9325Z" fill="#C05D40"/>
<path d="M2.77246 78.9252C3.03087 69.061 4.07969 61.2783 12.5104 56.1506L20.2342 51.9429L35.0035 55.3163L15.9428 67.3278L14.0271 95.9134C13.9085 99.3871 13.3545 102.142 9.87885 102.142C6.25138 102.142 4.92805 99.5396 5.02304 95.9134L2.77246 78.9252Z" fill="#792B1E"/>
<path d="M9.8791 102.142C13.3548 102.142 13.9088 99.3872 14.0274 95.9136H5.02329C4.9283 99.5398 6.25164 102.142 9.8791 102.142Z" fill="#FFB176"/>
<path d="M13.3757 58.8211C14.0748 57.4586 17.5619 56.0182 19.2181 55.4682L19.8233 58.2578C18.2135 57.2495 14.8542 58.2132 13.3757 58.8211Z" fill="#792B1E"/>
<path d="M5.60754 69.7046C5.37971 68.6639 8.25259 65.5998 9.33678 65.0171L7.73055 68.7447C7.2427 69.1783 5.83536 70.7453 5.60754 69.7046Z" fill="#792B1E"/>
<path d="M31.3185 133.733C31.9454 133.733 32.5361 133.439 32.9141 132.939L33.717 131.379L21.5193 129.824L20.9881 130.527C19.9924 131.845 20.9323 133.733 22.5837 133.733H31.3185Z" fill="#FFB176"/>
<path opacity="0.5" d="M37.3288 111.732L41.6823 115.157L36.7452 124.65L37.3288 111.732Z" fill="#792B1E"/>
<path d="M42.5374 116.898L42.9368 132.716C43.3159 133.2 43.8964 133.483 44.5109 133.483H55.3868C57.0349 133.483 57.9757 131.601 56.9867 130.283L58.3871 116.152L45.3626 97.7264C41.5326 95.1833 31.2532 88.6352 28.19 88.4164C25.1269 88.1976 27.0504 96.3322 27.4683 99.7232L42.5374 116.898Z" fill="#803426"/>
<path d="M42.9365 132.717C43.3156 133.2 43.8961 133.483 44.5106 133.483H55.3865C57.0346 133.483 57.9753 131.601 56.9864 130.283L42.9367 129.503L42.9365 132.717Z" fill="#FFB176"/>
<path d="M11.1309 21.7938C11.1309 10.0681 20.6364 0.5625 32.3622 0.5625H40.8067C52.5325 0.5625 61.8628 8.59644 61.8628 22.4762L61.068 30.8734C61.068 30.8734 63.6887 36.1042 63.9656 36.9837C64.2476 37.8794 64.4448 39.5735 64.5434 40.4872C64.6809 41.7598 64.3522 43.1046 63.9656 44.353C61.2901 52.9927 51.7081 56.8013 42.576 56.8013H36.7854C22.6168 56.8013 11.1309 48.3154 11.1309 34.1468V21.7938Z" fill="#FFA865"/>
<path d="M42.5756 0.562357C36.8747 -0.283673 31.8379 0.00167273 29.1258 0.283673C27.71 0.430886 26.2843 0.508059 24.8761 0.715714C14.6594 2.22229 10.1602 14.5556 10.1602 25.5445L10.6691 34.1466C10.6691 48.3152 22.6164 56.8011 36.785 56.8011H42.5756C45.5832 56.8011 48.6397 56.388 51.4822 55.5252C26.2443 55.7647 18.6777 45.7503 20.3974 35.4348C21.6605 27.8581 30.948 33.663 30.948 34.1466V30.3729C22.907 25.5664 23.9705 14.6573 23.8904 10.0621C35.9231 14.6554 54.7267 14.4875 59.7776 12.1823C56.4057 4.674 51.1017 1.82766 42.5756 0.562357Z" fill="#8B3C2D"/>
<path d="M46.2214 32.8239C45.5329 32.4188 45.7575 31.6199 45.9558 31.2711C50.3991 29.1613 54.0698 30.8492 55.1331 31.2711C56.1964 31.693 55.2344 32.4695 54.5255 32.8239C53.8166 33.1783 54.2723 34.0898 52.5508 34.4442C50.8292 34.7987 50.8798 33.6847 49.614 33.3809C48.3481 33.0771 47.0821 33.3303 46.2214 32.8239Z" fill="#B35A48"/>
<path d="M46.2214 32.8238C45.5329 32.4187 45.7575 31.6198 45.9558 31.271C48.0643 31.8553 52.8517 32.6732 55.1331 31.271C56.1964 31.6929 55.2344 32.4694 54.5255 32.8238C53.8166 33.1782 54.2723 34.0897 52.5508 34.4441C50.8292 34.7986 50.8798 33.6846 49.614 33.3808C48.3481 33.077 47.0821 33.3302 46.2214 32.8238Z" fill="#8B3C2D"/>
<ellipse opacity="0.5" cx="49.476" cy="31.718" rx="1.74062" ry="0.773659" fill="white"/>
<path d="M41.623 28.9237C45.1174 28.9237 45.9142 25.1705 45.3996 23.4633C45.3996 23.4633 42.9124 22.618 41.2638 22.6162C39.6059 22.6143 37.104 23.4633 37.104 23.4633C36.8475 26.1274 38.1285 28.9237 41.623 28.9237Z" fill="#FFEAD5"/>
<path d="M41.2633 22.6162C39.6055 22.6143 37.1035 23.4633 37.1035 23.4633C39 21.5 43.7658 21.8855 45.3991 22.5V23.4633C45.3991 23.4633 42.912 22.618 41.2633 22.6162Z" fill="#6E3627"/>
<path fill-rule="evenodd" clip-rule="evenodd" d="M39.4449 22.8357C38.9613 23.3182 38.6621 23.9854 38.6621 24.7224V24.9692C38.6621 26.4411 39.8553 27.6343 41.3272 27.6343C42.7992 27.6343 43.9924 26.4411 43.9924 24.9692V24.7224C43.9924 24.0048 43.7088 23.3535 43.2476 22.8744C42.5826 22.7305 41.867 22.6169 41.2636 22.6162C40.71 22.6156 40.0622 22.7099 39.4449 22.8357Z" fill="#824A3B"/>
<ellipse cx="43.8498" cy="25.217" rx="0.91423" ry="0.463108" fill="white"/>
<path d="M55.8398 28.9237C59.3342 28.9237 60.131 25.1705 59.6164 23.4633C59.6164 23.4633 57.1292 22.618 55.4806 22.6162C53.8227 22.6143 51.3208 23.4633 51.3208 23.4633C51.0643 26.1274 52.3453 28.9237 55.8398 28.9237Z" fill="#FFEAD5"/>
<path d="M55.5358 22.6162C53.8779 22.6143 51.376 23.4633 51.376 23.4633C53.2725 21.5 58.0383 21.8855 59.6716 22.5V23.4633C59.6716 23.4633 57.1844 22.618 55.5358 22.6162Z" fill="#6E3627"/>
<path fill-rule="evenodd" clip-rule="evenodd" d="M53.6617 22.8357C53.1781 23.3182 52.8789 23.9854 52.8789 24.7224V24.9692C52.8789 26.4411 54.0721 27.6343 55.544 27.6343C57.0159 27.6343 58.2092 26.4411 58.2092 24.9692V24.7224C58.2092 24.0048 57.9256 23.3535 57.4644 22.8744C56.7994 22.7305 56.0838 22.6169 55.4804 22.6162C54.9268 22.6156 54.279 22.7099 53.6617 22.8357Z" fill="#824A3B"/>
<ellipse cx="58.0666" cy="25.217" rx="0.91423" ry="0.463108" fill="white"/>
<path d="M9.94336 48.9708C11.6069 45.485 15.1918 43.0952 16.7764 42.3359V46.9902C15.5088 46.9902 11.6929 48.3106 9.94336 48.9708Z" fill="#8B3C2D"/>
<path d="M10.3457 45.8443C12.0092 42.3586 15.5942 39.9687 17.1787 39.2095V43.8637C15.9111 43.8637 12.0952 45.1841 10.3457 45.8443Z" fill="#8B3C2D"/>
<path d="M0 28.912C0 26.4095 0.935355 24.0481 3.07965 22.1745C6.17599 19.469 11.4792 19.405 14.455 22.2426C17.4307 25.0802 19.4377 28.912 19.4377 28.912C19.4377 28.912 14.7527 29.0493 12.5667 32.4376C10.89 35.0365 11.2948 39.7234 11.2948 39.7234C4.56226 39.7234 0 35.6445 0 28.912Z" fill="#FFA865"/>
<path d="M61.5334 9.27858C61.319 11.3023 60.3009 12.3204 58.0993 12.7196L57.9931 10.014C60.4104 10.2455 61.3605 9.62018 61.5334 9.27858Z" fill="#8B3C2D"/>
<path d="M59.8164 8.23535C59.5228 10.2491 58.4655 11.2265 56.25 11.5391V8.83132C58.6563 9.15747 59.6302 8.5699 59.8164 8.23535Z" fill="#8B3C2D"/>
</svg>
