<svg width="980" height="672" viewBox="0 0 980 672" fill="none" xmlns="http://www.w3.org/2000/svg">
<g clip-path="url(#clip0_0_1)">
<rect width="979.525" height="672" fill="#F2F6FC"/>
<path d="M1 672.037L1 532H286.559V672.037H1Z" fill="#F2EEFD" stroke="#D7D4E1" stroke-width="1.22034"/>
<path d="M257.723 546.067V539.737H274.603V551.694H268.273V546.067H257.723Z" fill="#DBD9E9"/>
<path d="M24.2107 539.033H7.3303H6.62695L6.62695 662.119H13.6604L13.6604 632.579H18.5839V626.952H13.6604L13.6604 561.54H19.2872V558.024H13.6604L13.6604 543.957H24.2107V539.033Z" fill="#DBD9E9"/>
<rect x="268.271" y="557.321" width="7.03348" height="7.03348" fill="#DBD9E9"/>
<rect x="268.271" y="586.861" width="7.03348" height="7.03348" fill="#DBD9E9"/>
<rect x="268.271" y="620.622" width="7.03348" height="7.03348" fill="#DBD9E9"/>
<rect x="226.072" y="596.708" width="7.03348" height="7.03348" fill="#DBD9E9"/>
<rect x="197.938" y="539.033" width="7.03348" height="7.03348" fill="#DBD9E9"/>
<rect x="158.551" y="614.995" width="5.62679" height="5.62679" fill="#DBD9E9"/>
<rect x="36.168" y="598.115" width="7.03348" height="7.03348" fill="#DBD9E9"/>
<rect x="19.2871" y="568.574" width="5.62679" height="5.62679" fill="#DBD9E9"/>
<rect x="24.9141" y="544.66" width="5.62679" height="5.62679" fill="#DBD9E9"/>
<rect x="16.4746" y="551.694" width="5.62679" height="5.62679" fill="#DBD9E9"/>
<rect x="240.139" y="551.694" width="5.62679" height="5.62679" fill="#DBD9E9"/>
<rect x="33.3535" y="578.421" width="5.62679" height="5.62679" fill="#DBD9E9"/>
<rect x="30.541" y="620.622" width="5.62679" height="5.62679" fill="#DBD9E9"/>
<path d="M287 672.037V532H572.559V672.037H287Z" fill="#F2EEFD" stroke="#D7D4E1" stroke-width="1.22034"/>
<path d="M543.723 546.067V539.737H560.603V551.694H554.273V546.067H543.723Z" fill="#DBD9E9"/>
<path d="M310.211 539.033H293.33H292.627V662.119H299.66V632.579H304.584V626.952H299.66V561.54H305.287V558.024H299.66V543.957H310.211V539.033Z" fill="#DBD9E9"/>
<rect x="554.271" y="557.321" width="7.03348" height="7.03348" fill="#DBD9E9"/>
<rect x="554.271" y="586.861" width="7.03348" height="7.03348" fill="#DBD9E9"/>
<rect x="554.271" y="620.622" width="7.03348" height="7.03348" fill="#DBD9E9"/>
<rect x="512.072" y="596.708" width="7.03348" height="7.03348" fill="#DBD9E9"/>
<rect x="483.938" y="539.033" width="7.03348" height="7.03348" fill="#DBD9E9"/>
<rect x="444.551" y="614.995" width="5.62679" height="5.62679" fill="#DBD9E9"/>
<rect x="322.168" y="598.115" width="7.03348" height="7.03348" fill="#DBD9E9"/>
<rect x="305.287" y="568.574" width="5.62679" height="5.62679" fill="#DBD9E9"/>
<rect x="310.914" y="544.66" width="5.62679" height="5.62679" fill="#DBD9E9"/>
<rect x="302.475" y="551.694" width="5.62679" height="5.62679" fill="#DBD9E9"/>
<rect x="526.139" y="551.694" width="5.62679" height="5.62679" fill="#DBD9E9"/>
<rect x="319.354" y="578.421" width="5.62679" height="5.62679" fill="#DBD9E9"/>
<rect x="316.541" y="620.622" width="5.62679" height="5.62679" fill="#DBD9E9"/>
<path d="M573 671.037V531H858.559V671.037H573Z" fill="#F2EEFD" stroke="#D7D4E1" stroke-width="1.22034"/>
<path d="M829.723 545.067V538.737H846.603V550.694H840.273V545.067H829.723Z" fill="#DBD9E9"/>
<path d="M596.211 538.033H579.33H578.627V661.119H585.66V631.579H590.584V625.952H585.66V560.54H591.287V557.024H585.66V542.957H596.211V538.033Z" fill="#DBD9E9"/>
<rect x="840.271" y="556.321" width="7.03348" height="7.03348" fill="#DBD9E9"/>
<rect x="840.271" y="585.861" width="7.03348" height="7.03348" fill="#DBD9E9"/>
<rect x="840.271" y="619.622" width="7.03348" height="7.03348" fill="#DBD9E9"/>
<rect x="798.072" y="595.708" width="7.03348" height="7.03348" fill="#DBD9E9"/>
<rect x="769.938" y="538.033" width="7.03348" height="7.03348" fill="#DBD9E9"/>
<rect x="730.551" y="613.995" width="5.62679" height="5.62679" fill="#DBD9E9"/>
<rect x="608.168" y="597.115" width="7.03348" height="7.03348" fill="#DBD9E9"/>
<rect x="591.287" y="567.574" width="5.62679" height="5.62679" fill="#DBD9E9"/>
<rect x="596.914" y="543.66" width="5.62679" height="5.62679" fill="#DBD9E9"/>
<rect x="588.475" y="550.694" width="5.62679" height="5.62679" fill="#DBD9E9"/>
<rect x="812.139" y="550.694" width="5.62679" height="5.62679" fill="#DBD9E9"/>
<rect x="605.354" y="577.421" width="5.62679" height="5.62679" fill="#DBD9E9"/>
<rect x="602.541" y="619.622" width="5.62679" height="5.62679" fill="#DBD9E9"/>
<path d="M858 671.037V531H1143.56V671.037H858Z" fill="#F2EEFD" stroke="#D7D4E1" stroke-width="1.22034"/>
<path d="M881.211 538.033H864.33H863.627V661.119H870.66V631.579H875.584V625.952H870.66V560.54H876.287V557.024H870.66V542.957H881.211V538.033Z" fill="#DBD9E9"/>
<rect x="893.168" y="597.115" width="7.03348" height="7.03348" fill="#DBD9E9"/>
<rect x="876.287" y="567.574" width="5.62679" height="5.62679" fill="#DBD9E9"/>
<rect x="881.914" y="543.66" width="5.62679" height="5.62679" fill="#DBD9E9"/>
<rect x="873.475" y="550.694" width="5.62679" height="5.62679" fill="#DBD9E9"/>
<rect x="890.354" y="577.421" width="5.62679" height="5.62679" fill="#DBD9E9"/>
<rect x="887.541" y="619.622" width="5.62679" height="5.62679" fill="#DBD9E9"/>
<rect x="131" y="89" width="719" height="212" fill="#C4E6F9"/>
<path d="M546.5 300.5L851 88H819L512.5 300.5H546.5Z" fill="#9FD6F5"/>
<path d="M627.16 301L849.5 150.5V132L605.5 301H627.16Z" fill="#9FD6F5"/>
<path d="M523.987 521.752V438.811V436.609H525.749V434.554H527.657V432.645H536.171V431.031H537.493V428.975H539.107V427.214H541.016V425.452H542.631V423.103H544.686V421.342H546.741V420.021H565.237V419.287H566.559V418.112H567.586V416.791H569.054V415.764H570.963V414.442H574.633V412.24H573.752V410.772V404.02H572.137V402.552H570.522V401.084H569.054V399.763H567.733L567.586 397.561H566.705V396.533H565.971V395.359H565.091V394.037H564.357V392.863H563.769V392.129H563.035V390.661H562.155V389.193H561.421V388.019H560.393V386.698H559.512V385.523H558.485V384.202H557.604V383.174H556.43V382H477.599H455.873V382.881H454.845V383.762H453.965V385.083H453.084V386.11H452.203V387.285H450.882V388.606H450.001V389.78H448.973V390.808H447.799V391.689H446.918V392.716H446.184V393.597H445.157V394.918H443.689V396.093H442.074V397.561H440.459V399.029H439.285V400.35H438.11V401.671H436.936V403.286H435.615V404.46H434V413.268H434.881V414.736H435.615V415.617H436.936V416.644H438.11V417.378H439.285V418.406H440.9V419.287H442.074V420.021H462.038H463.066V421.342H464.094V422.516H464.828V423.691H466.149V424.865H467.176V426.039H468.204V427.214H469.232V428.388H470.112V429.563H470.993V431.031H472.608V432.352H481.856V433.526H483.177V434.847H484.352V435.875H485.673V437.196H486.7L490.077 521.752H488.315V523.513H486.7V524.541H485.379V528.651H484.499V529.679H483.324V531H532.648V529.679H530.74V528.651H528.832V524.541H526.923V523.22H525.455V521.752H523.987Z" fill="#D3D0E4"/>
<path d="M532.96 414.856H531.557H476.543H475.841V413.954H475.14H461.511V413.453H460.71V412.852H459.608V412.15H458.806V411.649H458.004V410.948H457.102V410.347H456.601V409.344H456V403.332H457.102V402.53H458.004V401.428H458.806V400.526H459.608V399.624H460.409V398.622H461.511V397.62H462.614V396.818H463.616V395.916H464.317V395.315H464.818V394.614H465.42V394.013H466.221V393.311H466.923V392.509H467.524V391.608H468.426V390.806H469.027V390.104H469.628V389.203H470.23V388.601H470.931V388H485.762H539.574V388.802H540.376V389.503H540.977V390.405H541.678V391.207H542.28V392.109H542.981V392.91H543.482V393.912H544.084V394.914H544.585V395.415H544.985V396.217H545.486V397.119H546.088V397.921H546.589V398.622H547.19L547.29 400.125H548.192V401.027H549.194V402.029H550.296V403.031H551.399V407.641V408.643H552V410.146H549.495V411.048H548.192V411.749H547.19V412.651H546.489V413.453H545.587V413.954H532.96V414.856Z" fill="white"/>
<path d="M512.632 384.461V386H501V384.461H501.694V383.947V381.039H502.389V380.355H502.91V379.5H503.43V378.474H503.951V377.276H504.472V376.421H503.43V374.026H502.91V373H511.069V374.026H510.375V376.421H509.333V377.276H509.854V378.474H510.201V379.5H510.548V380.355H511.069V381.039H511.764V384.461H512.632Z" fill="#9A9191"/>
<path d="M788.987 521.752V438.811V436.609H790.749V434.554H792.657V432.645H801.171V431.031H802.493V428.975H804.107V427.214H806.016V425.452H807.631V423.103H809.686V421.342H811.741V420.021H830.237V419.287H831.559V418.112H832.586V416.791H834.054V415.764H835.963V414.442H839.633V412.24H838.752V410.772V404.02H837.137V402.552H835.522V401.084H834.054V399.763H832.733L832.586 397.561H831.705V396.533H830.971V395.359H830.091V394.037H829.357V392.863H828.769V392.129H828.035V390.661H827.155V389.193H826.421V388.019H825.393V386.698H824.512V385.523H823.485V384.202H822.604V383.174H821.43V382H742.599H720.873V382.881H719.845V383.762H718.965V385.083H718.084V386.11H717.203V387.285H715.882V388.606H715.001V389.78H713.973V390.808H712.799V391.689H711.918V392.716H711.184V393.597H710.157V394.918H708.689V396.093H707.074V397.561H705.459V399.029H704.285V400.35H703.11V401.671H701.936V403.286H700.615V404.46H699V413.268H699.881V414.736H700.615V415.617H701.936V416.644H703.11V417.378H704.285V418.406H705.9V419.287H707.074V420.021H727.038H728.066V421.342H729.094V422.516H729.828V423.691H731.149V424.865H732.176V426.039H733.204V427.214H734.232V428.388H735.112V429.563H735.993V431.031H737.608V432.352H746.856V433.526H748.177V434.847H749.352V435.875H750.673V437.196H751.7L755.077 521.752H753.315V523.513H751.7V524.541H750.379V528.651H749.499V529.679H748.324V531H797.648V529.679H795.74V528.651H793.832V524.541H791.923V523.22H790.455V521.752H788.987Z" fill="#D3D0E4"/>
<path d="M797.96 414.856H796.557H741.543H740.841V413.954H740.14H726.511V413.453H725.71V412.852H724.608V412.15H723.806V411.649H723.004V410.948H722.102V410.347H721.601V409.344H721V403.332H722.102V402.53H723.004V401.428H723.806V400.526H724.608V399.624H725.409V398.622H726.511V397.62H727.614V396.818H728.616V395.916H729.317V395.315H729.818V394.614H730.42V394.013H731.221V393.311H731.923V392.509H732.524V391.608H733.426V390.806H734.027V390.104H734.628V389.203H735.23V388.601H735.931V388H750.762H804.574V388.802H805.376V389.503H805.977V390.405H806.678V391.207H807.28V392.109H807.981V392.91H808.482V393.912H809.084V394.914H809.585V395.415H809.985V396.217H810.486V397.119H811.088V397.921H811.589V398.622H812.19L812.29 400.125H813.192V401.027H814.194V402.029H815.296V403.031H816.399V407.641V408.643H817V410.146H814.495V411.048H813.192V411.749H812.19V412.651H811.489V413.453H810.587V413.954H797.96V414.856Z" fill="white"/>
<path d="M777.632 384.461V386H766V384.461H766.694V383.947V381.039H767.389V380.355H767.91V379.5H768.43V378.474H768.951V377.276H769.472V376.421H768.43V374.026H767.91V373H776.069V374.026H775.375V376.421H774.333V377.276H774.854V378.474H775.201V379.5H775.548V380.355H776.069V381.039H776.764V384.461H777.632Z" fill="#9A9191"/>
<path d="M233.987 521.752V438.811V436.609H235.749V434.554H237.657V432.645H246.171V431.031H247.493V428.975H249.107V427.214H251.016V425.452H252.631V423.103H254.686V421.342H256.741V420.021H275.237V419.287H276.559V418.112H277.586V416.791H279.054V415.764H280.963V414.442H284.633V412.24H283.752V410.772V404.02H282.137V402.552H280.522V401.084H279.054V399.763H277.733L277.586 397.561H276.705V396.533H275.971V395.359H275.091V394.037H274.357V392.863H273.769V392.129H273.035V390.661H272.155V389.193H271.421V388.019H270.393V386.698H269.512V385.523H268.485V384.202H267.604V383.174H266.43V382H187.599H165.873V382.881H164.845V383.762H163.965V385.083H163.084V386.11H162.203V387.285H160.882V388.606H160.001V389.78H158.973V390.808H157.799V391.689H156.918V392.716H156.184V393.597H155.157V394.918H153.689V396.093H152.074V397.561H150.459V399.029H149.285V400.35H148.11V401.671H146.936V403.286H145.615V404.46H144V413.268H144.881V414.736H145.615V415.617H146.936V416.644H148.11V417.378H149.285V418.406H150.9V419.287H152.074V420.021H172.038H173.066V421.342H174.094V422.516H174.828V423.691H176.149V424.865H177.176V426.039H178.204V427.214H179.232V428.388H180.112V429.563H180.993V431.031H182.608V432.352H191.856V433.526H193.177V434.847H194.352V435.875H195.673V437.196H196.7L200.077 521.752H198.315V523.513H196.7V524.541H195.379V528.651H194.499V529.679H193.324V531H242.648V529.679H240.74V528.651H238.832V524.541H236.923V523.22H235.455V521.752H233.987Z" fill="#D3D0E4"/>
<path d="M242.96 414.856H241.557H186.543H185.841V413.954H185.14H171.511V413.453H170.71V412.852H169.608V412.15H168.806V411.649H168.004V410.948H167.102V410.347H166.601V409.344H166V403.332H167.102V402.53H168.004V401.428H168.806V400.526H169.608V399.624H170.409V398.622H171.511V397.62H172.614V396.818H173.616V395.916H174.317V395.315H174.818V394.614H175.42V394.013H176.221V393.311H176.923V392.509H177.524V391.608H178.426V390.806H179.027V390.104H179.628V389.203H180.23V388.601H180.931V388H195.762H249.574V388.802H250.376V389.503H250.977V390.405H251.678V391.207H252.28V392.109H252.981V392.91H253.482V393.912H254.084V394.914H254.585V395.415H254.985V396.217H255.486V397.119H256.088V397.921H256.589V398.622H257.19L257.29 400.125H258.192V401.027H259.194V402.029H260.296V403.031H261.399V407.641V408.643H262V410.146H259.495V411.048H258.192V411.749H257.19V412.651H256.489V413.453H255.587V413.954H242.96V414.856Z" fill="white"/>
<path d="M222.632 384.461V386H211V384.461H211.694V383.947V381.039H212.389V380.355H212.91V379.5H213.43V378.474H213.951V377.276H214.472V376.421H213.43V374.026H212.91V373H221.069V374.026H220.375V376.421H219.333V377.276H219.854V378.474H220.201V379.5H220.548V380.355H221.069V381.039H221.764V384.461H222.632Z" fill="#9A9191"/>
<path d="M-4 658L986 658V672L-4 672L-4 658Z" fill="#B2AEC8"/>
<path d="M4 665L1005 665V680L4 680L4 665Z" fill="#CCCADB"/>
<path d="M14 301L14 -689H0L0 301H14Z" fill="#B2AEC8"/>
<path d="M7 293L7 -708H-8L-8 293H7Z" fill="#CCCADB"/>
<path d="M7 16L989 16V2L7 2L7 16Z" fill="#B2AEC8"/>
<path d="M7 9L1008 9V-6L7 -6L7 9Z" fill="#CCCADB"/>
<path d="M963 301V9H977V301H963Z" fill="#B2AEC8"/>
<path d="M970 301L970 -700H985L985 301H970Z" fill="#CCCADB"/>
</g>
<defs>
<clipPath id="clip0_0_1">
<rect width="979.525" height="672" fill="white"/>
</clipPath>
</defs>
</svg>
