<svg width="980" height="672" viewBox="0 0 980 672" fill="none" xmlns="http://www.w3.org/2000/svg">
<g clip-path="url(#clip0_0_1)">
<rect width="979.525" height="672" fill="#F2F6FC"/>
<path d="M458 193.571V93H522L520.145 193.571H458Z" fill="black" stroke="black" stroke-width="1.82857"/>
<path d="M455 91H523V124.171C523 125.181 522.181 126 521.171 126H456.829C455.819 126 455 125.181 455 124.171V91Z" fill="white"/>
<g clip-path="url(#clip1_0_1)">
<path d="M503.335 142.752C500.389 142.752 498.001 140.365 498.001 137.419C498.001 134.474 500.389 132.086 503.335 132.086C506.28 132.086 508.668 134.474 508.668 137.419C508.668 140.365 506.28 142.752 503.335 142.752Z" stroke="white" stroke-width="4" stroke-linecap="round" stroke-linejoin="round"/>
<path d="M508.665 182.753V169.419L511.332 166.753V156.086C511.332 155.379 511.051 154.7 510.551 154.2C510.051 153.7 509.373 153.419 508.665 153.419H497.999C497.291 153.419 496.613 153.7 496.113 154.2C495.613 154.7 495.332 155.379 495.332 156.086V166.753L497.999 169.419V182.753" stroke="white" stroke-width="4" stroke-linecap="round" stroke-linejoin="round"/>
<path d="M476.667 142.752C473.721 142.752 471.333 140.365 471.333 137.419C471.333 134.474 473.721 132.086 476.667 132.086C479.612 132.086 482 134.474 482 137.419C482 140.365 479.612 142.752 476.667 142.752Z" stroke="white" stroke-width="4" stroke-linecap="round" stroke-linejoin="round"/>
<path d="M481.999 182.753V172.086H487.332L481.999 156.086C481.999 155.379 481.718 154.7 481.218 154.2C480.718 153.7 480.039 153.419 479.332 153.419H473.999C473.291 153.419 472.613 153.7 472.113 154.2C471.613 154.7 471.332 155.379 471.332 156.086L465.999 172.086H471.332V182.753" stroke="white" stroke-width="4" stroke-linecap="round" stroke-linejoin="round"/>
</g>
<path d="M472.631 114.667V107.734H474.612V110.705H477.583V107.734H479.564V114.667H477.583V111.696H474.612V114.667H472.631ZM481.544 114.667V113.676H480.554V108.725H481.544V107.734H486.496V108.725H487.486V113.676H486.496V114.667H481.544ZM482.535 113.676H485.506V108.725H482.535V113.676ZM489.467 108.725V107.734H494.418V108.725H489.467ZM488.477 114.667V109.715H490.457V112.686H491.447V111.696H492.438V110.705H493.428V109.715H495.409V114.667H493.428V112.686H492.438V113.676H491.447V114.667H488.477ZM496.399 114.667V112.686H497.389V111.696H498.38V107.734H503.331V114.667H501.351V108.725H499.37V113.676H498.38V114.667H496.399Z" fill="black"/>
<path d="M828.833 252.167C832.331 252.167 835.167 249.331 835.167 245.833C835.167 242.336 832.331 239.5 828.833 239.5C825.336 239.5 822.5 242.336 822.5 245.833C822.5 249.331 825.336 252.167 828.833 252.167Z" stroke="black" stroke-width="4.75" stroke-linecap="round" stroke-linejoin="round"/>
<path d="M822.501 299.667V287H816.168L822.501 268C822.501 267.16 822.835 266.355 823.429 265.761C824.023 265.167 824.828 264.833 825.668 264.833H832.001C832.841 264.833 833.647 265.167 834.24 265.761C834.834 266.355 835.168 267.16 835.168 268L841.501 287H835.168V299.667" stroke="black" stroke-width="4.75" stroke-linecap="round" stroke-linejoin="round"/>
<path d="M143.632 254.842C147.178 254.842 150.053 251.967 150.053 248.421C150.053 244.875 147.178 242 143.632 242C140.086 242 137.211 244.875 137.211 248.421C137.211 251.967 140.086 254.842 143.632 254.842Z" stroke="black" stroke-width="4.81579" stroke-linecap="round" stroke-linejoin="round"/>
<path d="M137.211 303V286.947L134 283.737V270.895C134 270.043 134.338 269.227 134.94 268.625C135.542 268.023 136.359 267.684 137.211 267.684H150.053C150.904 267.684 151.721 268.023 152.323 268.625C152.925 269.227 153.263 270.043 153.263 270.895V283.737L150.053 286.947V303" stroke="black" stroke-width="4.81579" stroke-linecap="round" stroke-linejoin="round"/>
<path d="M1 672.037L1 532H286.559V672.037H1Z" fill="#F2EEFD" stroke="#D7D4E1" stroke-width="1.22034"/>
<path d="M257.723 546.067V539.737H274.603V551.694H268.273V546.067H257.723Z" fill="#DBD9E9"/>
<path d="M24.2087 539.033H7.32835H6.625L6.625 662.119H13.6585L13.6585 632.579H18.5819V626.952H13.6585L13.6585 561.54H19.2853V558.024H13.6585L13.6585 543.957H24.2087V539.033Z" fill="#DBD9E9"/>
<rect x="268.273" y="557.32" width="7.03348" height="7.03348" fill="#DBD9E9"/>
<rect x="268.273" y="586.861" width="7.03348" height="7.03348" fill="#DBD9E9"/>
<rect x="268.273" y="620.622" width="7.03348" height="7.03348" fill="#DBD9E9"/>
<rect x="226.07" y="596.708" width="7.03348" height="7.03348" fill="#DBD9E9"/>
<rect x="197.938" y="539.033" width="7.03348" height="7.03348" fill="#DBD9E9"/>
<rect x="158.551" y="614.995" width="5.62679" height="5.62679" fill="#DBD9E9"/>
<rect x="36.168" y="598.115" width="7.03348" height="7.03348" fill="#DBD9E9"/>
<rect x="19.2852" y="568.574" width="5.62679" height="5.62679" fill="#DBD9E9"/>
<rect x="24.9141" y="544.66" width="5.62679" height="5.62679" fill="#DBD9E9"/>
<rect x="16.4727" y="551.694" width="5.62679" height="5.62679" fill="#DBD9E9"/>
<rect x="240.137" y="551.694" width="5.62679" height="5.62679" fill="#DBD9E9"/>
<rect x="33.3555" y="578.421" width="5.62679" height="5.62679" fill="#DBD9E9"/>
<rect x="30.5391" y="620.622" width="5.62679" height="5.62679" fill="#DBD9E9"/>
<path d="M287 672.037V532H572.559V672.037H287Z" fill="#F2EEFD" stroke="#D7D4E1" stroke-width="1.22034"/>
<path d="M543.723 546.067V539.737H560.603V551.694H554.273V546.067H543.723Z" fill="#DBD9E9"/>
<path d="M310.209 539.033H293.328H292.625V662.119H299.658V632.579H304.582V626.952H299.658V561.54H305.285V558.024H299.658V543.957H310.209V539.033Z" fill="#DBD9E9"/>
<rect x="554.273" y="557.32" width="7.03348" height="7.03348" fill="#DBD9E9"/>
<rect x="554.273" y="586.861" width="7.03348" height="7.03348" fill="#DBD9E9"/>
<rect x="554.273" y="620.622" width="7.03348" height="7.03348" fill="#DBD9E9"/>
<rect x="512.07" y="596.708" width="7.03348" height="7.03348" fill="#DBD9E9"/>
<rect x="483.938" y="539.033" width="7.03348" height="7.03348" fill="#DBD9E9"/>
<rect x="444.551" y="614.995" width="5.62679" height="5.62679" fill="#DBD9E9"/>
<rect x="322.168" y="598.115" width="7.03348" height="7.03348" fill="#DBD9E9"/>
<rect x="305.285" y="568.574" width="5.62679" height="5.62679" fill="#DBD9E9"/>
<rect x="310.914" y="544.66" width="5.62679" height="5.62679" fill="#DBD9E9"/>
<rect x="302.473" y="551.694" width="5.62679" height="5.62679" fill="#DBD9E9"/>
<rect x="526.137" y="551.694" width="5.62679" height="5.62679" fill="#DBD9E9"/>
<rect x="319.355" y="578.421" width="5.62679" height="5.62679" fill="#DBD9E9"/>
<rect x="316.539" y="620.622" width="5.62679" height="5.62679" fill="#DBD9E9"/>
<path d="M573 671.037V531H858.559V671.037H573Z" fill="#F2EEFD" stroke="#D7D4E1" stroke-width="1.22034"/>
<path d="M829.723 545.067V538.737H846.603V550.694H840.273V545.067H829.723Z" fill="#DBD9E9"/>
<path d="M596.209 538.033H579.328H578.625V661.119H585.658V631.579H590.582V625.952H585.658V560.54H591.285V557.024H585.658V542.957H596.209V538.033Z" fill="#DBD9E9"/>
<rect x="840.273" y="556.32" width="7.03348" height="7.03348" fill="#DBD9E9"/>
<rect x="840.273" y="585.861" width="7.03348" height="7.03348" fill="#DBD9E9"/>
<rect x="840.273" y="619.622" width="7.03348" height="7.03348" fill="#DBD9E9"/>
<rect x="798.07" y="595.708" width="7.03348" height="7.03348" fill="#DBD9E9"/>
<rect x="769.938" y="538.033" width="7.03348" height="7.03348" fill="#DBD9E9"/>
<rect x="730.551" y="613.995" width="5.62679" height="5.62679" fill="#DBD9E9"/>
<rect x="608.168" y="597.115" width="7.03348" height="7.03348" fill="#DBD9E9"/>
<rect x="591.285" y="567.574" width="5.62679" height="5.62679" fill="#DBD9E9"/>
<rect x="596.914" y="543.66" width="5.62679" height="5.62679" fill="#DBD9E9"/>
<rect x="588.473" y="550.694" width="5.62679" height="5.62679" fill="#DBD9E9"/>
<rect x="812.137" y="550.694" width="5.62679" height="5.62679" fill="#DBD9E9"/>
<rect x="605.355" y="577.421" width="5.62679" height="5.62679" fill="#DBD9E9"/>
<rect x="602.539" y="619.622" width="5.62679" height="5.62679" fill="#DBD9E9"/>
<path d="M858 671.037V531H1143.56V671.037H858Z" fill="#F2EEFD" stroke="#D7D4E1" stroke-width="1.22034"/>
<path d="M881.209 538.033H864.328H863.625V661.119H870.658V631.579H875.582V625.952H870.658V560.54H876.285V557.024H870.658V542.957H881.209V538.033Z" fill="#DBD9E9"/>
<rect x="893.168" y="597.115" width="7.03348" height="7.03348" fill="#DBD9E9"/>
<rect x="876.285" y="567.574" width="5.62679" height="5.62679" fill="#DBD9E9"/>
<rect x="881.914" y="543.66" width="5.62679" height="5.62679" fill="#DBD9E9"/>
<rect x="873.473" y="550.694" width="5.62679" height="5.62679" fill="#DBD9E9"/>
<rect x="890.355" y="577.421" width="5.62679" height="5.62679" fill="#DBD9E9"/>
<rect x="887.539" y="619.622" width="5.62679" height="5.62679" fill="#DBD9E9"/>
<path d="M965 344V-0.363739H979.237V344H965Z" fill="#B2AEC8"/>
<path d="M972.32 334.364V-9.99973H986.558V334.364H972.32Z" fill="#CCCADB"/>
<path d="M14.5586 354V9.63602H0.321306V354H14.5586Z" fill="#B2AEC8"/>
<path d="M7.23828 344.364V3.05176e-05H-6.99901V344.364H7.23828Z" fill="#CCCADB"/>
<path d="M971 15L7 15V0L971 0V15Z" fill="#B2AEC8"/>
<path d="M979 7L-38 7V-7L979 -7V7Z" fill="#CCCADB"/>
<path d="M-8 657L982 657V671L-8 671L-8 657Z" fill="#B2AEC8"/>
<path d="M0 664L1001 664V679L0 679L0 664Z" fill="#CCCADB"/>
</g>
<defs>
<clipPath id="clip0_0_1">
<rect width="979.525" height="672" fill="white"/>
</clipPath>
<clipPath id="clip1_0_1">
<rect width="64" height="64" fill="white" transform="matrix(-1 0 0 1 522 124.086)"/>
</clipPath>
</defs>
</svg>
