<svg width="980" height="672" viewBox="0 0 980 672" fill="none" xmlns="http://www.w3.org/2000/svg">
<g clip-path="url(#clip0_0_1)">
<rect width="979.525" height="672" transform="matrix(-1 0 0 1 979.525 0)" fill="#937946"/>
<path d="M535.325 891.559H390V606H535.325V891.559Z" fill="#7D613B" stroke="#110F0A" stroke-width="1.22034"/>
<path d="M404.598 634.837H398.029V617.957H410.437V624.287H404.598V634.837Z" fill="#705037"/>
<rect x="416.277" y="624.287" width="7.03348" height="7.29909" transform="rotate(-90 416.277 624.287)" fill="#705037"/>
<rect x="446.933" y="624.287" width="7.03348" height="7.29909" transform="rotate(-90 446.933 624.287)" fill="#705037"/>
<rect x="481.969" y="624.287" width="7.03348" height="7.29909" transform="rotate(-90 481.969 624.287)" fill="#705037"/>
<rect x="457.152" y="666.488" width="7.03348" height="7.29909" transform="rotate(-90 457.152 666.488)" fill="#705037"/>
<rect x="410.438" y="652.421" width="5.62679" height="5.83927" transform="rotate(-90 410.438 652.421)" fill="#9A7F5F"/>
<path d="M966.525 891.56H821.2V606H966.525V891.56Z" fill="#7D613B" stroke="#110F0A" stroke-width="1.22034"/>
<path d="M835.798 634.837H829.229V617.957H841.638V624.287H835.798V634.837Z" fill="#705037"/>
<rect x="847.477" y="624.287" width="7.03348" height="7.29909" transform="rotate(-90 847.477 624.287)" fill="#705037"/>
<rect x="878.133" y="624.287" width="7.03348" height="7.29909" transform="rotate(-90 878.133 624.287)" fill="#705037"/>
<rect x="913.169" y="624.287" width="7.03348" height="7.29909" transform="rotate(-90 913.169 624.287)" fill="#705037"/>
<rect x="888.352" y="666.488" width="7.03348" height="7.29909" transform="rotate(-90 888.352 666.488)" fill="#705037"/>
<rect x="841.638" y="652.421" width="5.62679" height="5.83927" transform="rotate(-90 841.638 652.421)" fill="#9A7F5F"/>
<path d="M104.525 890.56H-40.7998L-40.7998 605H104.525V890.56Z" fill="#7D613B" stroke="#110F0A" stroke-width="1.22034"/>
<rect x="16.1332" y="623.287" width="7.03348" height="7.29909" transform="rotate(-90 16.1332 623.287)" fill="#705037"/>
<rect x="51.1687" y="623.287" width="7.03348" height="7.29909" transform="rotate(-90 51.1687 623.287)" fill="#705037"/>
<rect x="26.3522" y="665.488" width="7.03348" height="7.29909" transform="rotate(-90 26.3522 665.488)" fill="#705037"/>
<path d="M536.2 756.325V611H821.76V756.325H536.2Z" fill="#7D613B" stroke="#110F0A" stroke-width="1.22034"/>
<path d="M792.922 625.598V619.029H809.803V631.437H803.473V625.598H792.922Z" fill="#705037"/>
<path d="M559.411 618.299H542.53H541.827V746.033H548.861V715.377H553.784V709.538H548.861V641.656H554.487V638.007H548.861V623.408H559.411V618.299Z" fill="#705037"/>
<rect x="803.473" y="637.277" width="7.03348" height="7.29909" fill="#705037"/>
<rect x="803.473" y="667.933" width="7.03348" height="7.29909" fill="#705037"/>
<rect x="733.138" y="618.299" width="7.03348" height="7.29909" fill="#705037"/>
<rect x="554.487" y="648.955" width="5.62679" height="5.83927" fill="#705037"/>
<rect x="560.114" y="624.138" width="5.62679" height="5.83927" fill="#705037"/>
<rect x="551.674" y="631.438" width="5.62679" height="5.83927" fill="#705037"/>
<rect x="775.339" y="631.438" width="5.62679" height="5.83927" fill="#9A7F5F"/>
<rect x="568.554" y="659.174" width="5.62679" height="5.83927" fill="#9A7F5F"/>
<path d="M104.2 753.325L104.2 608H389.76V753.325H104.2Z" fill="#7D613B" stroke="#110F0A" stroke-width="1.22034"/>
<path d="M360.922 622.598V616.029H377.803V628.437H371.473V622.598H360.922Z" fill="#705037"/>
<path d="M127.411 615.299H110.53H109.827L109.827 743.033H116.861L116.861 712.377H121.784V706.538H116.861L116.861 638.656H122.487V635.007H116.861V620.408H127.411V615.299Z" fill="#705037"/>
<rect x="371.473" y="634.277" width="7.03348" height="7.29909" fill="#705037"/>
<rect x="371.473" y="664.933" width="7.03348" height="7.29909" fill="#705037"/>
<rect x="301.138" y="615.299" width="7.03348" height="7.29909" fill="#705037"/>
<rect x="122.487" y="645.955" width="5.62679" height="5.83927" fill="#705037"/>
<rect x="128.114" y="621.138" width="5.62679" height="5.83927" fill="#705037"/>
<rect x="119.674" y="628.438" width="5.62679" height="5.83927" fill="#705037"/>
<rect x="343.339" y="628.438" width="5.62679" height="5.83927" fill="#9A7F5F"/>
<rect x="136.554" y="656.174" width="5.62679" height="5.83927" fill="#9A7F5F"/>
<path d="M104.525 605.56H-40.7998L-40.7998 320H104.525V605.56Z" fill="#7D613B" stroke="#110F0A" stroke-width="1.22034"/>
<path d="M-33.5009 582.349V599.229V599.933H94.2331V592.899H63.577V587.976H57.7377V592.899H-10.1438V587.272H-13.7933V592.899H-28.3915V582.349H-33.5009Z" fill="#705037"/>
<rect x="16.1332" y="338.287" width="7.03348" height="7.29909" transform="rotate(-90 16.1332 338.287)" fill="#705037"/>
<rect x="51.1687" y="338.287" width="7.03348" height="7.29909" transform="rotate(-90 51.1687 338.287)" fill="#705037"/>
<rect x="26.3522" y="380.488" width="7.03348" height="7.29909" transform="rotate(-90 26.3522 380.488)" fill="#705037"/>
<rect x="45.3297" y="448.01" width="5.62679" height="5.83927" transform="rotate(-90 45.3297 448.01)" fill="#705037"/>
<rect x="27.8116" y="570.392" width="7.03348" height="7.29909" transform="rotate(-90 27.8116 570.392)" fill="#705037"/>
<rect x="-2.8446" y="587.272" width="5.62679" height="5.83927" transform="rotate(-90 -2.8446 587.272)" fill="#705037"/>
<rect x="7.37415" y="573.205" width="5.62679" height="5.83927" transform="rotate(-90 7.37415 573.205)" fill="#9A7F5F"/>
<rect x="51.1687" y="576.019" width="5.62679" height="5.83927" transform="rotate(-90 51.1687 576.019)" fill="#9A7F5F"/>
<path d="M535.525 605.56H390.2V320H535.525V605.56Z" fill="#7D613B" stroke="#110F0A" stroke-width="1.22034"/>
<path d="M404.798 348.837H398.229V331.957H410.638V338.287H404.798V348.837Z" fill="#705037"/>
<path d="M397.499 582.349V599.229V599.933H525.233V592.899H494.577V587.976H488.738V592.899H420.856V587.272H417.207V592.899H402.609V582.349H397.499Z" fill="#705037"/>
<rect x="416.477" y="338.287" width="7.03348" height="7.29909" transform="rotate(-90 416.477 338.287)" fill="#705037"/>
<rect x="447.133" y="338.287" width="7.03348" height="7.29909" transform="rotate(-90 447.133 338.287)" fill="#705037"/>
<rect x="482.169" y="338.287" width="7.03348" height="7.29909" transform="rotate(-90 482.169 338.287)" fill="#705037"/>
<rect x="457.352" y="380.488" width="7.03348" height="7.29909" transform="rotate(-90 457.352 380.488)" fill="#705037"/>
<rect x="397.499" y="408.622" width="7.03348" height="7.29909" transform="rotate(-90 397.499 408.622)" fill="#705037"/>
<rect x="476.33" y="448.01" width="5.62679" height="5.83927" transform="rotate(-90 476.33 448.01)" fill="#705037"/>
<rect x="458.812" y="570.392" width="7.03348" height="7.29909" transform="rotate(-90 458.812 570.392)" fill="#705037"/>
<rect x="428.156" y="587.272" width="5.62679" height="5.83927" transform="rotate(-90 428.156 587.272)" fill="#705037"/>
<rect x="403.339" y="581.646" width="5.62679" height="5.83927" transform="rotate(-90 403.339 581.646)" fill="#705037"/>
<rect x="410.638" y="590.086" width="5.62679" height="5.83927" transform="rotate(-90 410.638 590.086)" fill="#705037"/>
<rect x="410.638" y="366.421" width="5.62679" height="5.83927" transform="rotate(-90 410.638 366.421)" fill="#9A7F5F"/>
<rect x="438.374" y="573.205" width="5.62679" height="5.83927" transform="rotate(-90 438.374 573.205)" fill="#9A7F5F"/>
<rect x="482.169" y="576.019" width="5.62679" height="5.83927" transform="rotate(-90 482.169 576.019)" fill="#9A7F5F"/>
<path d="M967.525 606.56H822.2V321H967.525V606.56Z" fill="#7D613B" stroke="#110F0A" stroke-width="1.22034"/>
<path d="M836.798 349.837H830.229V332.957H842.638V339.287H836.798V349.837Z" fill="#705037"/>
<path d="M829.499 583.349V600.229V600.933H957.233V593.899H926.577V588.976H920.738V593.899H852.856V588.272H849.207V593.899H834.609V583.349H829.499Z" fill="#705037"/>
<rect x="848.477" y="339.287" width="7.03348" height="7.29909" transform="rotate(-90 848.477 339.287)" fill="#705037"/>
<rect x="879.133" y="339.287" width="7.03348" height="7.29909" transform="rotate(-90 879.133 339.287)" fill="#705037"/>
<rect x="914.169" y="339.287" width="7.03348" height="7.29909" transform="rotate(-90 914.169 339.287)" fill="#705037"/>
<rect x="889.352" y="381.488" width="7.03348" height="7.29909" transform="rotate(-90 889.352 381.488)" fill="#705037"/>
<rect x="829.499" y="409.622" width="7.03348" height="7.29909" transform="rotate(-90 829.499 409.622)" fill="#705037"/>
<rect x="908.33" y="449.01" width="5.62679" height="5.83927" transform="rotate(-90 908.33 449.01)" fill="#705037"/>
<rect x="890.812" y="571.392" width="7.03348" height="7.29909" transform="rotate(-90 890.812 571.392)" fill="#705037"/>
<rect x="860.156" y="588.272" width="5.62679" height="5.83927" transform="rotate(-90 860.156 588.272)" fill="#705037"/>
<rect x="835.339" y="582.646" width="5.62679" height="5.83927" transform="rotate(-90 835.339 582.646)" fill="#705037"/>
<rect x="842.638" y="591.086" width="5.62679" height="5.83927" transform="rotate(-90 842.638 591.086)" fill="#705037"/>
<rect x="842.638" y="367.421" width="5.62679" height="5.83927" transform="rotate(-90 842.638 367.421)" fill="#9A7F5F"/>
<rect x="870.374" y="574.205" width="5.62679" height="5.83927" transform="rotate(-90 870.374 574.205)" fill="#9A7F5F"/>
<rect x="914.169" y="577.019" width="5.62679" height="5.83927" transform="rotate(-90 914.169 577.019)" fill="#9A7F5F"/>
<path d="M104.2 466.325L104.2 321L389.76 321V466.325L104.2 466.325Z" fill="#7D613B" stroke="#110F0A" stroke-width="1.22034"/>
<path d="M360.922 335.598V329.029H377.803V341.437H371.473V335.598H360.922Z" fill="#705037"/>
<path d="M127.411 328.299H110.53H109.827L109.827 456.033H116.861L116.861 425.377H121.784V419.538H116.861L116.861 351.656H122.487V348.007H116.861V333.408H127.411V328.299Z" fill="#705037"/>
<rect x="371.473" y="347.277" width="7.03348" height="7.29909" fill="#705037"/>
<rect x="371.473" y="377.933" width="7.03348" height="7.29909" fill="#705037"/>
<rect x="371.473" y="412.969" width="7.03348" height="7.29909" fill="#705037"/>
<rect x="329.272" y="388.152" width="7.03348" height="7.29909" fill="#705037"/>
<rect x="301.138" y="328.299" width="7.03348" height="7.29909" fill="#705037"/>
<rect x="261.75" y="407.129" width="5.62679" height="5.83927" fill="#705037"/>
<rect x="139.368" y="389.612" width="7.03348" height="7.29909" fill="#705037"/>
<rect x="122.487" y="358.955" width="5.62679" height="5.83927" fill="#705037"/>
<rect x="128.114" y="334.138" width="5.62679" height="5.83927" fill="#705037"/>
<rect x="119.674" y="341.438" width="5.62679" height="5.83927" fill="#705037"/>
<rect x="343.339" y="341.438" width="5.62679" height="5.83927" fill="#9A7F5F"/>
<rect x="136.554" y="369.174" width="5.62679" height="5.83927" fill="#9A7F5F"/>
<rect x="133.741" y="412.969" width="5.62679" height="5.83927" fill="#9A7F5F"/>
<path d="M536.2 466.325V321L821.76 321V466.325L536.2 466.325Z" fill="#7D613B" stroke="#110F0A" stroke-width="1.22034"/>
<path d="M792.922 335.598V329.029H809.803V341.437H803.473V335.598H792.922Z" fill="#705037"/>
<path d="M559.411 328.299H542.53H541.827V456.033H548.861V425.377H553.784V419.538H548.861V351.656H554.487V348.007H548.861V333.408H559.411V328.299Z" fill="#705037"/>
<rect x="803.473" y="347.277" width="7.03348" height="7.29909" fill="#705037"/>
<rect x="803.473" y="377.933" width="7.03348" height="7.29909" fill="#705037"/>
<rect x="803.473" y="412.969" width="7.03348" height="7.29909" fill="#705037"/>
<rect x="761.272" y="388.152" width="7.03348" height="7.29909" fill="#705037"/>
<rect x="733.138" y="328.299" width="7.03348" height="7.29909" fill="#705037"/>
<rect x="693.75" y="407.129" width="5.62679" height="5.83927" fill="#705037"/>
<rect x="571.368" y="389.612" width="7.03348" height="7.29909" fill="#705037"/>
<rect x="554.487" y="358.955" width="5.62679" height="5.83927" fill="#705037"/>
<rect x="560.114" y="334.138" width="5.62679" height="5.83927" fill="#705037"/>
<rect x="551.674" y="341.438" width="5.62679" height="5.83927" fill="#705037"/>
<rect x="775.339" y="341.438" width="5.62679" height="5.83927" fill="#9A7F5F"/>
<rect x="568.554" y="369.174" width="5.62679" height="5.83927" fill="#9A7F5F"/>
<rect x="565.741" y="412.969" width="5.62679" height="5.83927" fill="#9A7F5F"/>
<path d="M536.2 611.325V466L821.76 466V611.325H536.2Z" fill="#7D613B" stroke="#110F0A" stroke-width="1.22034"/>
<path d="M792.922 480.598V474.029H809.803V486.437H803.473V480.598H792.922Z" fill="#705037"/>
<path d="M559.411 473.299H542.53H541.827V601.033H548.861V570.377H553.784V564.538H548.861V496.656H554.487V493.007H548.861V478.408H559.411V473.299Z" fill="#705037"/>
<rect x="803.473" y="492.277" width="7.03348" height="7.29909" fill="#705037"/>
<rect x="803.473" y="522.933" width="7.03348" height="7.29909" fill="#705037"/>
<rect x="803.473" y="557.969" width="7.03348" height="7.29909" fill="#705037"/>
<rect x="761.272" y="533.152" width="7.03348" height="7.29909" fill="#705037"/>
<rect x="733.138" y="473.299" width="7.03348" height="7.29909" fill="#705037"/>
<rect x="693.75" y="552.129" width="5.62679" height="5.83927" fill="#705037"/>
<rect x="571.368" y="534.612" width="7.03348" height="7.29909" fill="#705037"/>
<rect x="554.487" y="503.955" width="5.62679" height="5.83927" fill="#705037"/>
<rect x="560.114" y="479.138" width="5.62679" height="5.83927" fill="#705037"/>
<rect x="551.674" y="486.438" width="5.62679" height="5.83927" fill="#705037"/>
<rect x="775.339" y="486.438" width="5.62679" height="5.83927" fill="#9A7F5F"/>
<rect x="568.554" y="514.174" width="5.62679" height="5.83927" fill="#9A7F5F"/>
<rect x="565.741" y="557.969" width="5.62679" height="5.83927" fill="#9A7F5F"/>
<path d="M104.2 611.325L104.2 466L389.76 466V611.325H104.2Z" fill="#7D613B" stroke="#110F0A" stroke-width="1.22034"/>
<path d="M360.922 480.598V474.029H377.803V486.437H371.473V480.598H360.922Z" fill="#705037"/>
<path d="M127.411 473.299H110.53H109.827L109.827 601.033H116.861L116.861 570.377H121.784V564.538H116.861L116.861 496.656H122.487V493.007H116.861V478.408H127.411V473.299Z" fill="#705037"/>
<rect x="371.473" y="492.277" width="7.03348" height="7.29909" fill="#705037"/>
<rect x="371.473" y="522.933" width="7.03348" height="7.29909" fill="#705037"/>
<rect x="371.473" y="557.969" width="7.03348" height="7.29909" fill="#705037"/>
<rect x="329.272" y="533.152" width="7.03348" height="7.29909" fill="#705037"/>
<rect x="301.138" y="473.299" width="7.03348" height="7.29909" fill="#705037"/>
<rect x="261.75" y="552.129" width="5.62679" height="5.83927" fill="#705037"/>
<rect x="139.368" y="534.612" width="7.03348" height="7.29909" fill="#705037"/>
<rect x="122.487" y="503.955" width="5.62679" height="5.83927" fill="#705037"/>
<rect x="128.114" y="479.138" width="5.62679" height="5.83927" fill="#705037"/>
<rect x="119.674" y="486.438" width="5.62679" height="5.83927" fill="#705037"/>
<rect x="343.339" y="486.438" width="5.62679" height="5.83927" fill="#9A7F5F"/>
<rect x="136.554" y="514.174" width="5.62679" height="5.83927" fill="#9A7F5F"/>
<rect x="133.741" y="557.969" width="5.62679" height="5.83927" fill="#9A7F5F"/>
<rect x="-0.5" y="0.5" width="969" height="315" transform="matrix(-1 0 0 1 976 12)" fill="#A78D5A" stroke="#4D3300"/>
<path d="M967.39 -0.499756V668.5H981.39V-0.499756H967.39Z" fill="#5D4D31"/>
<path d="M974.288 -8V687.653H988.525V-8H974.288Z" fill="#A68250"/>
<path d="M13.5254 -8.17261V333.226H-0.474609V-8.17261H13.5254Z" fill="#5D4D31"/>
<path d="M6.52539 -12V333H-7.47461V-12H6.52539Z" fill="#A68250"/>
<path d="M970.113 661L-29.0117 661V675L970.113 675V661Z" fill="#5D4D31"/>
<path d="M981.525 667.898L-69.4746 667.898V682.136L981.525 682.136V667.898Z" fill="#A68250"/>
<path d="M11.5254 12.1357L974.525 12.1357V-1.86426L11.5254 -1.86426L11.5254 12.1357Z" fill="#5D4D31"/>
<path d="M0.525391 5.2373L1013.53 5.2373V-8.99998L0.525391 -8.99998L0.525391 5.2373Z" fill="#A68250"/>
</g>
<defs>
<clipPath id="clip0_0_1">
<rect width="979.525" height="672" fill="white" transform="matrix(-1 0 0 1 979.525 0)"/>
</clipPath>
</defs>
</svg>
