<svg width="85" height="191" viewBox="0 0 85 191" fill="none" xmlns="http://www.w3.org/2000/svg">
<path d="M58.3618 5.3056H21.2229V10.6112H15.9173V15.9167H10.6118V84.8889H15.9173V90.1945H21.2229V95.5H53.0562V90.1945H63.6673V84.8889H68.9729V74.2778H79.584V58.3612H74.2784V15.9167H68.9729V10.6112H58.3618V5.3056Z" fill="#FAE6CE"/>
<path fill-rule="evenodd" clip-rule="evenodd" d="M63.6673 100.806H21.2229V106.111H15.9173V116.722H21.2229V148.556H15.9173V159.167H21.2229V185.694H31.834V159.167H37.1395V169.778H42.4451V175.083H47.7506V185.694H58.3618V153.861H53.0562V148.556H68.9729V106.111H63.6673V100.806ZM58.3618 111.417H53.0562V143.25H58.3618V111.417Z" fill="#FAE6CE"/>
<path d="M15.9173 116.722H10.6118V132.639H5.3062V143.25H15.9173V116.722Z" fill="#FAE6CE"/>
<path d="M21.2218 5.3056H47.7496V10.6112H26.5273V15.9167H15.9162V58.3612H10.6107V15.9167H15.9162V10.6112H21.2218V5.3056Z" fill="#E3C4A6"/>
<path d="M68.9718 15.9167H74.2773V37.1389H68.9718V15.9167Z" fill="#E3C4A6"/>
<path d="M74.2773 63.6667H68.9718V58.3612H63.6662V84.8889H68.9718V68.9723H74.2773V63.6667Z" fill="#E3C4A6"/>
<path d="M63.6662 84.8889H47.7496V90.1945H21.2218V95.5H53.0551V90.1945H63.6662V84.8889Z" fill="#E3C4A6"/>
<path d="M15.9162 116.722H10.6107V132.639H5.30512V143.25H15.9162V116.722Z" fill="#E3C4A6"/>
<path d="M15.9162 116.722H21.2218V111.417H26.5273V106.111H53.0551V100.806H21.2218V106.111H15.9162V116.722Z" fill="#E3C4A6"/>
<path d="M15.9162 148.556H21.2218V122.028H26.5273V148.556H21.2218V159.167H15.9162V148.556Z" fill="#E3C4A6"/>
<path d="M26.5273 164.472H21.2218V185.694H26.5273V164.472Z" fill="#E3C4A6"/>
<path d="M53.0551 153.861H58.3607V185.694H47.7496V175.083H53.0551V153.861Z" fill="#E3C4A6"/>
<path d="M42.444 159.167H37.1385V164.472H42.444V159.167Z" fill="#E3C4A6"/>
<path d="M58.3607 122.028H63.6662V137.944H68.9718V148.556H53.0551V143.25H58.3607V122.028Z" fill="#E3C4A6"/>
<path d="M53.0562 15.9166H47.7507V21.2222H53.0562V15.9166Z" fill="#FFF8EF"/>
<path d="M26.5284 15.9166H42.4451V21.2222H26.5284V26.5277H21.2229V31.8333H15.9173V26.5277H21.2229V21.2222H26.5284V15.9166Z" fill="#FFF8EF"/>
<path d="M74.2784 58.361H79.584V63.6666H74.2784V58.361Z" fill="#FFF8EF"/>
<path d="M63.6673 100.805H53.0562V106.111H63.6673V100.805Z" fill="#FFF8EF"/>
<path d="M63.6673 106.111V111.417H68.9729V106.111H63.6673Z" fill="#FFF8EF"/>
<path d="M42.4451 119.375H47.7507V129.986H42.4451V119.375Z" fill="#FFF8EF"/>
<path d="M42.4451 119.375H37.1395V114.069H42.4451V119.375Z" fill="#FFF8EF"/>
<path d="M31.834 153.861H37.1395V159.167H31.834V153.861Z" fill="#FFF8EF"/>
<path fill-rule="evenodd" clip-rule="evenodd" d="M21.222 0H58.3609V5.30556H68.972V10.6111H74.2776V15.9167H79.5831V58.3611H84.8887V74.2778H79.5831V79.5833H74.2776V84.8889H68.972V90.1944H63.6665V100.806H68.972V106.111H74.2776V148.556H68.972V153.861H63.6665V191H42.4442V175.083H37.1387V191H10.6109V185.694H15.9165V159.167H10.6109V148.556H5.30534V143.25H-0.000213623V132.639H5.30534V116.722H10.6109V106.111H15.9165V100.806H21.222V95.5H15.9165V90.1944H10.6109V84.8889H5.30534V15.9167H10.6109V10.6111H15.9165V5.30556H21.222V0ZM21.222 5.30556V10.6111H15.9165V15.9167H10.6109V84.8889H15.9165V90.1944H21.222V95.5H53.0553V90.1944H63.6665V84.8889H68.972V74.2778H79.5831V58.3611H74.2776V63.6667H68.972V58.3611H74.2776V15.9167H68.972V10.6111H58.3609V5.30556H21.222ZM15.9165 116.722H21.222V148.556H15.9165V159.167H21.222V185.694H31.8331V159.167H37.1387V164.472H42.4442V175.083H47.7498V185.694H58.3609V153.861H47.7498V143.25H53.0553V111.417H58.3609V143.25H53.0553V148.556H68.972V106.111H63.6665V100.806H21.222V106.111H15.9165V116.722ZM15.9165 116.722V143.25H5.30534V132.639H10.6109V116.722H15.9165Z" fill="black"/>
<path fill-rule="evenodd" clip-rule="evenodd" d="M21.4077 5.29016H58.4389V10.5803H63.7291H69.0193V15.8705H74.3094V58.1919H79.5996V74.0625H74.3094H69.0193V84.6428H63.7291V89.933H58.4389H53.1487V95.2232H21.4077V89.933H16.1175V84.6428H10.8273V15.8705H16.1175V10.5803H21.4077V5.29016Z" fill="#FAE6CE"/>
<path fill-rule="evenodd" clip-rule="evenodd" d="M47.8577 5.29016H21.4068V10.5803H16.1166L16.1166 15.8705H26.697V10.5803H47.8577V5.29016ZM16.1166 15.8705H10.8265V58.1919H16.1166V15.8705ZM74.3086 15.8705H69.0184V58.1919H74.3086V15.8705ZM63.7282 84.6428H69.0184V68.7723H74.3086V63.4821H69.0184V58.1919H63.7282V84.6428ZM47.8577 89.933V84.6428H63.7282V89.933H53.1479V95.2232H21.4068V89.933H47.8577ZM69.0184 15.8705V10.5803H63.7282V15.8705H69.0184Z" fill="#714A1C" fill-opacity="0.25" style="mix-blend-mode:multiply"/>
<path fill-rule="evenodd" clip-rule="evenodd" d="M47.8585 15.8705H53.1487V21.1607H47.8585V15.8705ZM42.5684 15.8705H26.6978V21.1607H42.5684V15.8705ZM21.4077 26.4509V21.1607H26.6978V26.4509H21.4077ZM21.4077 26.4509V31.741H16.1175V26.4509H21.4077ZM79.5996 58.1919H74.3094V63.4821H79.5996V58.1919Z" fill="#FFFCF9" fill-opacity="0.7" style="mix-blend-mode:lighten"/>
<path fill-rule="evenodd" clip-rule="evenodd" d="M53.1465 47.6116H42.5661V52.9017H53.1465V47.6116ZM42.5661 52.9017H37.276V58.1919H42.5661V52.9017ZM42.5661 63.4821H47.8563V68.7723H42.5661V63.4821ZM37.276 79.3526H26.6956V84.6428H37.276V79.3526ZM21.4054 52.9017H26.6956V58.1919H21.4054V52.9017ZM21.4054 52.9017H16.1152V47.6116H21.4054V52.9017ZM21.4054 63.4821H26.6956V68.7723H21.4054V63.4821Z" fill="black"/>
<path fill-rule="evenodd" clip-rule="evenodd" d="M53.1465 52.9018H42.5661V58.192H53.1465V52.9018ZM42.5661 58.192H37.276V63.4821H42.5661V58.192ZM42.5661 68.7723H47.8563V74.0625H42.5661V68.7723ZM26.6956 68.7723H21.4054V74.0625H26.6956V68.7723ZM16.1152 52.9018H21.4054V58.192H16.1152V52.9018Z" fill="#714A1C" fill-opacity="0.25" style="mix-blend-mode:multiply"/>
<path fill-rule="evenodd" clip-rule="evenodd" d="M58.4378 0H21.4065V5.29018H58.4378V0ZM69.0181 10.5804V5.29018H58.4378V10.5804H69.0181ZM74.3083 15.8705V10.5804H69.0181V15.8705H74.3083ZM74.3083 58.192V15.8705H79.5985V58.192H84.8887V74.0625H79.5985V79.3527H74.3083V84.6428H69.0181V89.933H63.728V95.2232H53.1476V100.513H21.4065V95.2232H16.1164V89.933H10.8262V84.6428H5.53601V15.8705H10.8262V10.5804H16.1164V5.29018H21.4065V10.5804H16.1164V15.8705H10.8262V84.6428H16.1164V89.933H21.4065V95.2232H53.1476V89.933H63.728V84.6428H69.0181V79.3527V74.0625H79.5985V58.192H74.3083ZM74.3083 58.192V63.4821H69.0181V58.192H74.3083Z" fill="black"/>
<path fill-rule="evenodd" clip-rule="evenodd" d="M64.7426 71.971H70.125V83.0435H64.7464V90.4251H59.3639V75.6618H64.7426V71.971ZM37.8313 75.6618H27.0664V79.3526H37.8313V75.6618ZM35.142 86.7343H29.7595V90.425H27.0664V101.498H37.8275V101.498H43.2099V79.3527H37.8275V90.425H35.142V86.7343ZM27.0631 79.3527H21.6844H21.6806H16.3058H16.302H10.9234V97.8068H16.302V101.498H21.6806H21.6844H27.0631V79.3527ZM43.2133 79.3527H53.9743H53.9781H59.3568V94.116H53.9781V97.8068H43.2133V79.3527Z" fill="#252525"/>
<path fill-rule="evenodd" clip-rule="evenodd" d="M70.125 71.971H64.7426V79.3527H59.3639V90.4252H64.7464V83.0435H70.125V71.971ZM10.9234 79.3527H16.3058V86.7343H21.6844V94.116H27.0631V97.8068H32.4527V101.498H21.6878V97.8068H21.6806V97.8067H16.302V90.4252H10.9234V79.3527ZM59.3568 86.7343H53.9743V90.425H48.5957V97.8067H53.9781V94.1159H59.3568V86.7343Z" fill="black" fill-opacity="0.2" style="mix-blend-mode:multiply"/>
<path fill-rule="evenodd" clip-rule="evenodd" d="M10.9162 79.3527H5.53377V90.4252H10.9162V79.3527ZM70.125 83.0435H64.7426V90.4251H70.125V83.0435ZM53.9743 94.116H59.3568V97.8068H53.9781V101.498H43.2133V97.8068H53.9743V94.116ZM16.302 97.8069H10.9234V90.4252H16.3058V97.8068H21.6844V101.498H16.302V97.8069ZM21.6801 101.498H43.2099V105.189H21.6801V101.498ZM59.3639 90.4252H64.7464V94.116H59.3639V90.4252Z" fill="black"/>
<path fill-rule="evenodd" clip-rule="evenodd" d="M63.1545 4.51099H58.6435H22.5555V9.02199H18.0444V18.044H13.5334V31.577H18.0444V36.088H22.5555V31.577H58.6435V36.088H63.1545V63.154H67.6655V54.132H72.1765V31.577H76.6875V13.533H72.1765V9.02199H67.6655H63.1545V4.51099Z" fill="#252525"/>
<path fill-rule="evenodd" clip-rule="evenodd" d="M27.0656 9.022H49.6206V13.533H27.0656V9.022ZM54.1316 13.533H58.6426V18.044H54.1316V13.533Z" fill="white" fill-opacity="0.3" style="mix-blend-mode:lighten"/>
<path fill-rule="evenodd" clip-rule="evenodd" d="M18.0444 9.022H22.5555L22.5554 18.044H27.0665V22.555H22.5554L22.5555 27.066H58.6435V31.577H22.5555V36.088H18.0444V31.577H13.5334V18.044H18.0444V9.022ZM76.6875 13.533H72.1765V18.044H67.6655V27.066H63.1545V63.1541H67.6655V54.132H72.1765V31.577H76.6875V13.533Z" fill="black" fill-opacity="0.2" style="mix-blend-mode:multiply"/>
<path fill-rule="evenodd" clip-rule="evenodd" d="M22.5542 0H63.1532V4.511H72.1753V9.02201H76.6863V13.533H81.1973V31.577H76.6863V13.533H72.1753V9.02201H63.1532V4.511H22.5542V9.02201H18.0432V18.044H13.5322V31.577H18.0432V40.599H13.5322V31.577H9.0212V18.044H13.5322V9.02201H18.0432V4.511H22.5542V0Z" fill="black"/>
<path fill-rule="evenodd" clip-rule="evenodd" d="M47.2457 149.068H57.5781V179.825H47.2438V174.699H42.0786V169.573H36.9124V154.194H31.7472V179.825H21.4129V149.068H31.7462H31.7472H36.9124H36.9134H42.0786H42.0796H47.2438H47.2457ZM16.2376 149.068H21.4048V174.699H16.2376V149.068Z" fill="#2E8EE6"/>
<path fill-rule="evenodd" clip-rule="evenodd" d="M57.578 143.942H62.7441V190.077H57.578H57.577H47.2456H47.2437H42.0784V174.699H36.9132V190.077H31.746V154.194H36.9132V169.573H42.0794V174.699H47.2456V184.951H57.577V159.32H52.4108V154.194H57.577V149.068H16.2408V143.942H57.577H57.578ZM16.2384 154.194H21.4046V159.32H16.2384V174.699H21.4046V184.951H31.737V190.077H21.4046H21.4027H16.2384H16.2375H11.0713V184.951H16.2375V174.699H11.0713V143.942H16.2384V154.194Z" fill="black"/>
<path fill-rule="evenodd" clip-rule="evenodd" d="M57.5781 149.068H52.411V154.194H57.5781V149.068ZM57.5781 159.32H52.411V164.447H57.5781V159.32ZM47.2457 174.699H52.4119V179.825H47.2448V174.699H42.0786V169.573H36.9124V154.194H42.0796V169.573H47.2457V174.699ZM16.2376 149.068H21.4048V154.194H16.2376V149.068ZM21.4048 159.32H16.2376V164.447H21.4048V159.32ZM26.58 159.32H31.7472V179.825H26.58V159.32ZM26.571 169.573H21.4038V179.825H26.571V169.573Z" fill="black" fill-opacity="0.2" style="mix-blend-mode:multiply"/>
<path fill-rule="evenodd" clip-rule="evenodd" d="M47.2438 179.825H57.5781V184.951H47.2438V179.825ZM21.4129 179.825H31.7472V184.951H21.4129V179.825Z" fill="#258A02"/>
<path fill-rule="evenodd" clip-rule="evenodd" d="M52.411 179.825H57.5781V184.951H52.411V179.825ZM26.58 179.825H31.7472V184.951H26.58V179.825Z" fill="black" fill-opacity="0.2" style="mix-blend-mode:multiply"/>
<path fill-rule="evenodd" clip-rule="evenodd" d="M55.3618 86.7342H60.898V92.2704H66.4343V97.8066H71.9705V103.343H77.5067V136.56H83.043V147.633H77.5067V153.169H66.4343V147.633H5.53572V142.096H-0.000511169V131.024H5.53572V114.415H11.072V103.343H16.6082V97.8066H22.1444V92.2704H27.6806V97.8066H33.2169V103.343H44.2893V97.8066H49.8256V92.2704H55.3618V86.7342ZM55.3618 92.2704V97.8066H49.8256V103.343H44.2893V108.879H33.2169V103.343H27.6806V97.8066H22.1444V103.343H16.6082V114.415H22.1444V142.096H55.3618V108.879H60.898V114.415H71.9705V103.343H66.4343V97.8066H60.898V92.2704H55.3618ZM11.072 142.096H5.53572V131.024H11.072V114.415H16.6082V136.56H11.072V142.096ZM60.898 142.096H66.4343V147.633H77.5067V136.56H71.9705V119.952H60.898V142.096Z" fill="black"/>
<path fill-rule="evenodd" clip-rule="evenodd" d="M33.218 97.8066H44.2904V103.343H33.218V97.8066ZM71.9716 119.952H66.4353H60.8991V142.096H66.4353V147.633H71.9716H77.5078V136.56H71.9716V119.952ZM5.5368 131.024H11.073V114.415H16.6093V136.56H11.073V142.096H5.5368V131.024Z" fill="#FAE6CE"/>
<path fill-rule="evenodd" clip-rule="evenodd" d="M44.2895 97.8066H33.2171V103.343H44.2895V97.8066ZM16.6084 114.415H11.0722V131.024H5.53592V142.096H11.0722V136.56H16.6084V114.415ZM66.4345 119.952H60.8982V142.096H66.4345V147.633H71.9707V136.56H66.4345V119.952Z" fill="#714A1C" fill-opacity="0.25" style="mix-blend-mode:multiply"/>
<path fill-rule="evenodd" clip-rule="evenodd" d="M55.362 92.2704H60.8982V97.8066H66.4345V103.343H71.9707V114.415H66.4345H60.8982V108.879H55.362V142.096H49.8258H44.2895H38.7533H33.2171H27.6808H22.1446V114.415H16.6084V103.343H22.1446V97.8066H27.6808V103.343H33.2171V108.879H38.7533H44.2895V103.343H49.8258V97.8066H55.362V92.2704Z" fill="#082E8D"/>
<path fill-rule="evenodd" clip-rule="evenodd" d="M60.8993 92.2704H55.3631V97.8066H60.8993V92.2704ZM27.6819 97.8066H22.1457V103.343H27.6819V97.8066ZM22.1457 103.343V114.415H16.6095V103.343H22.1457ZM22.1457 136.56H55.3631V142.096H22.1457V136.56ZM55.3631 103.343H60.8993V108.879H66.4355V114.415H60.8993V108.879H55.3631V103.343Z" fill="black" fill-opacity="0.2" style="mix-blend-mode:multiply"/>
</svg>
