<svg width="46" height="104" viewBox="0 0 46 104" fill="none" xmlns="http://www.w3.org/2000/svg">
<path d="M14.375 2.875H34.5V5.75H37.375V8.625H40.25V46H37.375V48.875H34.5V51.75H17.25V48.875H11.5V46H8.625V40.25H2.875V31.625H5.75V8.625H8.625V5.75H14.375V2.875Z" fill="#FAE6CE"/>
<path fill-rule="evenodd" clip-rule="evenodd" d="M11.5 54.625H34.5V57.5H37.375V63.25H34.5V80.5H37.375V86.25H34.5V100.625H28.75V86.25H25.875V92H23V94.875H20.125V100.625H14.375V83.375H17.25V80.5H8.625V57.5H11.5V54.625ZM14.375 60.375H17.25V77.625H14.375V60.375Z" fill="#FAE6CE"/>
<path d="M37.375 63.25H40.25V71.875H43.125V77.625H37.375V63.25Z" fill="#FAE6CE"/>
<path d="M34.5 2.875H20.125V5.75H31.625V8.625H37.375V31.625H40.25V8.625H37.375V5.75H34.5V2.875Z" fill="#E3C4A6"/>
<path d="M8.625 8.625H5.75V20.125H8.625V8.625Z" fill="#E3C4A6"/>
<path d="M5.75 34.5H8.625V31.625H11.5V46H8.625V37.375H5.75V34.5Z" fill="#E3C4A6"/>
<path d="M11.5 46H20.125V48.875H34.5V51.75H17.25V48.875H11.5V46Z" fill="#E3C4A6"/>
<path d="M37.375 63.25H40.25V71.875H43.125V77.625H37.375V63.25Z" fill="#E3C4A6"/>
<path d="M37.375 63.25H34.5V60.375H31.625V57.5H17.25V54.625H34.5V57.5H37.375V63.25Z" fill="#E3C4A6"/>
<path d="M37.375 80.5H34.5V66.125H31.625V80.5H34.5V86.25H37.375V80.5Z" fill="#E3C4A6"/>
<path d="M31.625 89.125H34.5V100.625H31.625V89.125Z" fill="#E3C4A6"/>
<path d="M17.25 83.375H14.375V100.625H20.125V94.875H17.25V83.375Z" fill="#E3C4A6"/>
<path d="M23 86.25H25.875V89.125H23V86.25Z" fill="#E3C4A6"/>
<path d="M14.375 66.125H11.5V74.75H8.625V80.5H17.25V77.625H14.375V66.125Z" fill="#E3C4A6"/>
<path d="M17.25 8.625H20.125V11.5H17.25V8.625Z" fill="#FFF8EF"/>
<path d="M31.625 8.625H23V11.5H31.625V14.375H34.5V17.25H37.375V14.375H34.5V11.5H31.625V8.625Z" fill="#FFF8EF"/>
<path d="M5.75 31.625H2.875V34.5H5.75V31.625Z" fill="#FFF8EF"/>
<path d="M11.5 54.625H17.25V57.5H11.5V54.625Z" fill="#FFF8EF"/>
<path d="M11.5 57.5V60.375H8.625V57.5H11.5Z" fill="#FFF8EF"/>
<path d="M23 64.6875H20.125V70.4375H23V64.6875Z" fill="#FFF8EF"/>
<path d="M23 64.6875H25.875V61.8125H23V64.6875Z" fill="#FFF8EF"/>
<path d="M28.75 83.375H25.875V86.25H28.75V83.375Z" fill="#FFF8EF"/>
<path fill-rule="evenodd" clip-rule="evenodd" d="M34.5 0H14.375V2.875H8.625V5.75H5.75V8.625H2.875V31.625H0V40.25H2.875V43.125H5.75V46H8.625V48.875H11.5V54.625H8.625V57.5H5.75V80.5H8.625V83.375H11.5V103.5H23V94.875H25.875V103.5H40.25V100.625H37.375V86.25H40.25V80.5H43.125V77.625H46V71.875H43.125V63.25H40.25V57.5H37.375V54.625H34.5V51.75H37.375V48.875H40.25V46H43.125V8.625H40.25V5.75H37.375V2.875H34.5V0ZM34.5 2.875V5.75H37.375V8.625H40.25V46H37.375V48.875H34.5V51.75H17.25V48.875H11.5V46H8.625V40.25H2.875V31.625H5.75V34.5H8.625V31.625H5.75V8.625H8.625V5.75H14.375V2.875H34.5ZM37.375 63.25H34.5V80.5H37.375V86.25H34.5V100.625H28.75V86.25H25.875V89.125H23V94.875H20.125V100.625H14.375V83.375H20.125V77.625H17.25V60.375H14.375V77.625H17.25V80.5H8.625V57.5H11.5V54.625H34.5V57.5H37.375V63.25ZM37.375 63.25V77.625H43.125V71.875H40.25V63.25H37.375Z" fill="black"/>
<path fill-rule="evenodd" clip-rule="evenodd" d="M34.4 2.8667H14.3334V5.73337H11.4667H8.60003V8.60003H5.73337V31.5334H2.8667V40.1334H5.73337H8.60003V45.8667H11.4667V48.7334L14.3334 48.7334H17.2V51.6H34.4V48.7334L37.2667 48.7334V45.8667H40.1334V8.60003H37.2667V5.73337H34.4V2.8667Z" fill="#FAE6CE"/>
<path fill-rule="evenodd" clip-rule="evenodd" d="M20.0666 2.8667H34.3999V5.73337H37.2666V8.60003H31.5333V5.73337H20.0666V2.8667ZM37.2666 8.60003H40.1333V31.5334H37.2666V8.60003ZM5.73328 8.60003H8.59994V31.5334H5.73328V8.60003ZM11.4666 45.8667H8.59994V37.2667H5.73328V34.4H8.59994V31.5334H11.4666V45.8667ZM20.0666 48.7334V45.8667H11.4666V48.7334H17.1999V51.6H34.3999V48.7334H20.0666ZM8.59994 8.60003V5.73337H11.4666V8.60003H8.59994Z" fill="#714A1C" fill-opacity="0.25" style="mix-blend-mode:multiply"/>
<path fill-rule="evenodd" clip-rule="evenodd" d="M20.0667 8.6001H17.2V11.4668H20.0667V8.6001ZM22.9334 8.6001H31.5334V11.4668H22.9334V8.6001ZM34.4 14.3334V11.4668H31.5334V14.3334H34.4ZM34.4 14.3334V17.2001H37.2667V14.3334H34.4ZM2.8667 31.5334H5.73337V34.4001H2.8667V31.5334Z" fill="#FFFCF9" fill-opacity="0.7" style="mix-blend-mode:lighten"/>
<path fill-rule="evenodd" clip-rule="evenodd" d="M31.5333 28.6667H34.4H37.2667V31.5334H34.4V37.2667H31.5333V28.6667ZM25.8 28.6668H17.2V31.5335H20.0667V37.2667H22.9333V31.5335H25.8V28.6668ZM25.8 43.0001H31.5333V45.8667H25.8V43.0001ZM25.8 45.8667V48.7334H22.9333V45.8667H25.8Z" fill="black"/>
<path fill-rule="evenodd" clip-rule="evenodd" d="M28.6667 28.6667H25.8V31.5334H22.9333V34.4001H25.8V31.5334H28.6667V28.6667Z" fill="#714A1C" fill-opacity="0.25" style="mix-blend-mode:multiply"/>
<path fill-rule="evenodd" clip-rule="evenodd" d="M14.3333 0H34.4V2.86667H14.3333V0ZM8.6 5.73333V2.86667H14.3333V5.73333H8.6ZM5.73333 8.6V5.73333H8.6V8.6H5.73333ZM5.73333 31.5333V8.6H2.86667V31.5333H0V40.1333H2.86667V43H5.73333V45.8667H8.6V48.7333H11.4667V51.6H17.2V54.4667H34.4V51.6L37.2667 51.6V48.7333H40.1333L40.1333 45.8667H43V8.6H40.1333V5.73333H37.2667V2.86667H34.4V5.73333H37.2667V8.6H40.1333L40.1333 45.8667H37.2667V48.7333H34.4V51.6L17.2 51.6V48.7333H11.4667V45.8667H8.6V43V40.1333H2.86667V31.5333H5.73333ZM5.73333 31.5333V34.4H8.6V31.5333H5.73333Z" fill="black"/>
<path fill-rule="evenodd" clip-rule="evenodd" d="M8 34H11V46H8V34ZM25.9999 40.0002H23.0001V52.0002H26.0001V51.9998H31.9999V48.9998H26.0001V43.0002H31.9999V40.0002H26.0001H25.9999ZM22.9999 43.0003H17.0001H16.9999H11.0001V49.0003H16.9999V52.0003H22.9999V43.0003ZM40.9999 43.0003H38.0002H37.9999H35.0002V49.0003H38.0002V46.0003H40.9999V43.0003ZM35.0001 40.0002H32.0001V52.0002H35.0001V40.0002ZM30.4999 45.9997H27.4999V48.9997H30.4999V45.9997Z" fill="#784522"/>
<path fill-rule="evenodd" clip-rule="evenodd" d="M8 34H11V46H8V34ZM35.0002 43.0003H41.0002V46.0003H38.0002V48.9997H35.0002V46.0003V45.9997V43.0003ZM25.9999 48.9998H34.9999V51.9998H25.9999V48.9998ZM19.9999 48.9998H16.9999V51.9998H19.9999V48.9998ZM14.0001 45.9997H16.9998V48.9997H14.0001V49.0003H11.0001V43.0003H14.0001V45.9997Z" fill="black" fill-opacity="0.2" style="mix-blend-mode:multiply"/>
<path fill-rule="evenodd" clip-rule="evenodd" d="M16.6667 2.44458H14.2222V4.88902H11.7778H9.33335V7.33347H6.8889V14.6668H4.44446V29.3335H6.8889V34.2224H9.33335V31.7779H11.7778V34.2224H14.2222V19.5557H16.6667L16.6667 24.4446H21.5556V22.0001H24V19.5557H26.4445V17.1112H28.8889V14.6668H36.2222V17.1112H38.6667L38.6667 26.889H41.1111H43.5556V14.6668H41.1111V9.77791H38.6667L38.6667 4.88902H36.2222V2.44458H28.8889H26.4445H24H21.5556H16.6667Z" fill="#784522"/>
<path fill-rule="evenodd" clip-rule="evenodd" d="M36.2222 2.44458H33.7778V7.33347H36.2222V17.1112H38.6667L38.6667 26.889H41.1111H43.5556V14.6668H41.1111V9.77791H38.6667L38.6667 4.88902H36.2222V2.44458ZM26.4445 4.88902H28.8889V7.33347H31.3333L31.3333 9.77791H33.7778V14.6668H31.3333L31.3333 12.2224H28.8889V9.77791H26.4445H24V7.33347H26.4445V4.88902ZM24 19.5557V14.6668H26.4445V12.2224L28.8889 12.2224V17.1112H26.4445V19.5557H24ZM6.83072 29.3335V34.2224H9.39156V31.7779H11.7778V34.2224H14.2222V19.5557H16.6667L16.6667 24.4446L19.1111 24.4446H21.5556V22.0001H24V19.5557H21.5556H19.1111V17.1112H16.6667L16.6667 14.6668H14.2222H11.7778V9.77791H9.39156V7.33347H6.83072V14.6668H4.44446V29.3335H6.83072Z" fill="black" fill-opacity="0.2" style="mix-blend-mode:multiply"/>
<path fill-rule="evenodd" clip-rule="evenodd" d="M19.1111 4.88892H14.2222V7.33336H19.1111V4.88892ZM21.5556 7.33333H19.1111V9.77778H21.5556V7.33333ZM26.4444 9.77778H28.8889V12.2222H26.4444V9.77778ZM28.8889 12.2222L28.8889 14.6667H31.3333V12.2222H28.8889Z" fill="white" fill-opacity="0.3" style="mix-blend-mode:lighten"/>
<path fill-rule="evenodd" clip-rule="evenodd" d="M14.2222 0H36.2222V2.44444H14.2222V0ZM9.33333 4.88889V2.44444H14.2222L14.2222 4.88889H9.33333ZM6.88889 7.33333V4.88889H9.33333V7.33333H6.88889ZM4.44444 14.6667V7.33333H6.88889V14.6667H4.44444ZM4.44444 14.6667V29.3333H6.88889V36.6667H4.44444V34.2222H2V14.6667H4.44444ZM38.6667 4.88889H36.2222V2.44444H38.6667V4.88889ZM41.1111 9.77778H38.6667L38.6667 4.88889H41.1111V9.77778ZM43.5556 14.6667V9.77778H41.1111V14.6667H43.5556ZM43.5556 26.8889V14.6667H46V26.8889H43.5556ZM43.5556 26.8889V31.7778H41.1111V26.8889H43.5556Z" fill="black"/>
<path fill-rule="evenodd" clip-rule="evenodd" d="M23.2001 80.7778H20.4001V80.7779H14.8002V97.4446H20.4002V94.6667H23.2001V80.7778ZM23.2003 80.7778H26.0001H26.0003H28.8001V83.5556H26.0003V91.8889H23.2003V80.7778ZM28.8003 80.7778H34.4002H34.4003H37.2002V94.6667H34.4003V97.4445H28.8003V80.7778Z" fill="#2E8EE6"/>
<path fill-rule="evenodd" clip-rule="evenodd" d="M14.8 78H12V103H14.8V78ZM17.6002 83.5556H14.8002V86.3333H17.6002V83.5556ZM34.3999 83.5556H37.1999V86.3333H34.3999V83.5556ZM37.2001 78H14.8002V80.7778H37.2001V94.6667H40.0001V78H37.2002H37.2001ZM20.4001 94.6667H23.2V91.8889H26V94.6667H23.2001V103H20.4002H20.4001H14.8002V100.222H20.4001V94.6667ZM37.1999 94.6667H34.3999V100.222H28.8001V83.5556H26.0001V103L28.7999 103L28.8001 103L34.3999 103H34.3999H37.1999V94.6667ZM37.2001 100.222H40.0001V103H37.2001V100.222Z" fill="black"/>
<path fill-rule="evenodd" clip-rule="evenodd" d="M37.2003 80.7778H34.4003V83.5556H37.2003V80.7778ZM14.8002 80.7779H17.6002V83.5557H14.8002V80.7779ZM14.8002 86.3334H17.6002V89.1112H14.8002V86.3334ZM20.4001 94.6667H17.6003V97.4445H20.4003V94.6667H23.2001V91.8889H20.4001V94.6667ZM34.4003 86.3334H37.2003V89.1112H34.4003V86.3334ZM31.6003 86.3334H28.8003V97.4445H31.6001H31.6003H34.4001V91.8889H31.6003V86.3334ZM26.0003 83.5556H23.2003V91.8889H26.0003V83.5556Z" fill="black" fill-opacity="0.2" style="mix-blend-mode:multiply"/>
<path fill-rule="evenodd" clip-rule="evenodd" d="M20.4002 97.4446H14.8002V100.222H20.4002V97.4446ZM34.4003 97.4446H28.8003V100.222H34.4003V97.4446Z" fill="#BA6434"/>
<path fill-rule="evenodd" clip-rule="evenodd" d="M17.6002 97.4446H14.8002V100.222H17.6002V97.4446ZM31.6003 97.4446H28.8003V100.222H31.6003V97.4446Z" fill="black" fill-opacity="0.2" style="mix-blend-mode:multiply"/>
<path fill-rule="evenodd" clip-rule="evenodd" d="M28 53H22V56H28V53ZM43 71H40H37V74H40V77H43V71ZM7 74H4V80H7H10V77H13V74H10H7Z" fill="#FAE6CE"/>
<path fill-rule="evenodd" clip-rule="evenodd" d="M22 53H28V56H22V53ZM37 71H40H43V77H40V74H37V71ZM10 74H13V77H10V80H7V74H10Z" fill="#714A1C" fill-opacity="0.25" style="mix-blend-mode:multiply"/>
<path fill-rule="evenodd" clip-rule="evenodd" d="M16 53H19V56H16V53ZM22 56H19V77H22L28 77L31 77V56H28V59H22V56Z" fill="white"/>
<path fill-rule="evenodd" clip-rule="evenodd" d="M16 53H19V56H16V53ZM22 62H19V65H22V62ZM28 71H31V77H28H19V74H28V71ZM31 62H28V65H31V62Z" fill="black" fill-opacity="0.2" style="mix-blend-mode:multiply"/>
<path fill-rule="evenodd" clip-rule="evenodd" d="M28 59H22V74L25 74V77H28L28 74V59Z" fill="#4E4E4E"/>
<path fill-rule="evenodd" clip-rule="evenodd" d="M16 50H13V53H10V56H7V71H10H13V59H16V77H13V83H10V86H13H16L16 83H19V56H16L16 50ZM34 53H31V83H34H37V77H34V62H37V68H40V62L37 62V56H34L34 53Z" fill="#C0C4C7"/>
<path fill-rule="evenodd" clip-rule="evenodd" d="M16 50H13V53H16V50ZM34 53H31V56H34L34 62H37V68H40V62L37 62V56H34V53ZM16 59H19V80H16V83H13V77H16V59ZM16 59H13V56H16V59ZM13 83V86H10V83H13ZM31 74H34V80H37V83H34H31V74ZM10 62H13V71H10V62Z" fill="black" fill-opacity="0.2" style="mix-blend-mode:multiply"/>
<path fill-rule="evenodd" clip-rule="evenodd" d="M16 47H13V50H10V53H7V56H4V74L1 74V80H4V83H7V86H10V89H16V86H19V83H22V80H31V83H34V86H37H40V80H43V77H46V71H43V62L40 62V56H37V53H34V50H31V53H28V56H22V53H19V50H16V47ZM16 50V53H19V56H22V59H28V56H31V62L34 62V77H37V83H34V80H31L31 77H22H19V83H16L16 86H10V83H13V77H16V59H13V71H7V56H10V53H13V50H16ZM34 56H37V62H34V56ZM37 62V68H40V62L37 62ZM34 56H31V53H34V56ZM43 71H40H37V74H40V77H43V71ZM13 77L10 77V80H4V74L7 74H13V77Z" fill="black"/>
</svg>
