<svg width="109" height="246" viewBox="0 0 109 246" fill="none" xmlns="http://www.w3.org/2000/svg">
<path d="M74.9375 6.8125H27.25V13.625H20.4375V20.4375H13.625V109H20.4375V115.812H27.25V122.625H68.125V115.812H81.75V109H88.5625V95.375H102.188V74.9375H95.375V20.4375H88.5625V13.625H74.9375V6.8125Z" fill="#FAE6CE"/>
<path fill-rule="evenodd" clip-rule="evenodd" d="M81.75 129.437H27.25V136.25H20.4375V149.875H27.25V190.75H20.4375V204.375H27.25V238.437H40.875V204.375H47.6875V218H54.5V224.812H61.3125V238.437H74.9375V197.562H68.125V190.75H88.5625V136.25H81.75V129.437ZM74.9375 143.062H68.125V183.937H74.9375V143.062Z" fill="#FAE6CE"/>
<path d="M20.4375 149.875H13.625V170.312H6.81251V183.937H20.4375V149.875Z" fill="#FAE6CE"/>
<path d="M27.25 6.8125H61.3125V13.625H34.0625V20.4375H20.4375V74.9375H13.625V20.4375H20.4375V13.625H27.25V6.8125Z" fill="#E3C4A6"/>
<path d="M88.5625 20.4375H95.375V47.6875H88.5625V20.4375Z" fill="#E3C4A6"/>
<path d="M95.375 81.75H88.5625V74.9375H81.75V109H88.5625V88.5625H95.375V81.75Z" fill="#E3C4A6"/>
<path d="M81.75 109H61.3125V115.812H27.25V122.625H68.125V115.812H81.75V109Z" fill="#E3C4A6"/>
<path d="M20.4375 149.875H13.625V170.312H6.81251V183.937H20.4375V149.875Z" fill="#E3C4A6"/>
<path d="M20.4375 149.875H27.25V143.062H34.0625V136.25H68.125V129.437H27.25V136.25H20.4375V149.875Z" fill="#E3C4A6"/>
<path d="M20.4375 190.75H27.25V156.687H34.0625V190.75H27.25V204.375H20.4375V190.75Z" fill="#E3C4A6"/>
<path d="M34.0625 211.187H27.25V238.437H34.0625V211.187Z" fill="#E3C4A6"/>
<path d="M68.125 197.562H74.9375V238.437H61.3125V224.812H68.125V197.562Z" fill="#E3C4A6"/>
<path d="M54.5 204.375H47.6875V211.187H54.5V204.375Z" fill="#E3C4A6"/>
<path d="M74.9375 156.687H81.75V177.125H88.5625V190.75H68.125V183.937H74.9375V156.687Z" fill="#E3C4A6"/>
<path d="M68.125 20.4375H61.3125V27.25H68.125V20.4375Z" fill="#FFF8EF"/>
<path d="M34.0625 20.4375H54.5V27.25H34.0625V34.0625H27.25V40.875H20.4375V34.0625H27.25V27.25H34.0625V20.4375Z" fill="#FFF8EF"/>
<path d="M95.375 74.9375H102.188V81.75H95.375V74.9375Z" fill="#FFF8EF"/>
<path d="M81.75 129.437H68.125V136.25H81.75V129.437Z" fill="#FFF8EF"/>
<path d="M81.75 136.25V143.062H88.5625V136.25H81.75Z" fill="#FFF8EF"/>
<path d="M54.5 153.281H61.3125V166.906H54.5V153.281Z" fill="#FFF8EF"/>
<path d="M54.5 153.281H47.6875V146.469H54.5V153.281Z" fill="#FFF8EF"/>
<path d="M40.875 197.562H47.6875V204.375H40.875V197.562Z" fill="#FFF8EF"/>
<path fill-rule="evenodd" clip-rule="evenodd" d="M27.25 0H74.9375V6.8125H88.5625V13.625H95.375V20.4375H102.188V74.9375H109V95.375H102.188V102.187H95.375V109H88.5625V115.812H81.75V129.437H88.5625V136.25H95.375V190.75H88.5625V197.562H81.75V245.25H54.5V224.812H47.6875V245.25H13.625V238.437H20.4375V204.375H13.625V190.75H6.81251V183.937H7.62939e-06V170.312H6.81251V149.875H13.625V136.25H20.4375V129.437H27.25V122.625H20.4375V115.812H13.625V109H6.81251V20.4375H13.625V13.625H20.4375V6.8125H27.25V0ZM27.25 6.8125V13.625H20.4375V20.4375H13.625V109H20.4375V115.812H27.25V122.625H68.125V115.812H81.75V109H88.5625V95.375H102.188V74.9375H95.375V81.75H88.5625V74.9375H95.375V20.4375H88.5625V13.625H74.9375V6.8125H27.25ZM20.4375 149.875H27.25V190.75H20.4375V204.375H27.25V238.437H40.875V204.375H47.6875V211.187H54.5V224.812H61.3125V238.437H74.9375V197.562H61.3125V183.937H68.125V143.062H74.9375V183.937H68.125V190.75H88.5625V136.25H81.75V129.437H27.25V136.25H20.4375V149.875ZM20.4375 149.875V183.937H6.81251V170.312H13.625V149.875H20.4375Z" fill="black"/>
<path fill-rule="evenodd" clip-rule="evenodd" d="M27.4867 6.79272H75.036V13.5855H81.8288H88.6215V20.3782H95.4143V74.7203H102.207V95.0985H95.4143H88.6215V108.684H81.8288V115.477L75.036 115.477L68.2433 115.477V122.27H27.4867V115.477H20.694V108.684H13.9012V20.3782H20.694V13.5855H27.4867V6.79272Z" fill="#FAE6CE"/>
<path fill-rule="evenodd" clip-rule="evenodd" d="M61.4503 6.79272H27.4865V13.5855H20.6938L20.6938 20.3782H34.2793V13.5855H61.4503V6.79272ZM20.6938 20.3782H13.901V74.7203H20.6938V20.3782ZM95.4141 20.3782H88.6213V74.7203H95.4141V20.3782ZM81.8286 108.684H88.6213V88.3058H95.4141V81.513H88.6213V74.7203H81.8286V108.684ZM61.4503 115.477V108.684H81.8286V115.477H68.243V122.27H27.4865V115.477H61.4503ZM88.6213 20.3782V13.5855H81.8286V20.3782H88.6213Z" fill="#714A1C" fill-opacity="0.25" style="mix-blend-mode:multiply"/>
<path fill-rule="evenodd" clip-rule="evenodd" d="M61.4505 20.3784H68.2433V27.1712H61.4505V20.3784ZM54.6578 20.3784H34.2795V27.1712H54.6578V20.3784ZM27.4867 33.9639V27.1712H34.2795V33.9639H27.4867ZM27.4867 33.9639V40.7567H20.694V33.9639H27.4867ZM102.207 74.7204H95.4143V81.5132H102.207V74.7204Z" fill="#FFFCF9" fill-opacity="0.7" style="mix-blend-mode:lighten"/>
<path fill-rule="evenodd" clip-rule="evenodd" d="M47.8639 67.9275H68.2422V74.7202H61.4494V88.3057H54.6567V74.7202H47.8639V67.9275ZM47.8639 101.891H34.2784V108.684H47.8639V101.891ZM47.8639 108.684V115.477H54.6567V108.684H47.8639ZM34.2784 67.9275H27.4857H20.6929V74.7202H27.4857V88.3057H34.2784V67.9275Z" fill="black"/>
<path fill-rule="evenodd" clip-rule="evenodd" d="M41.0727 67.9275H47.8654V74.7202H54.6582V81.513H47.8654V74.7202H41.0727V67.9275Z" fill="#714A1C" fill-opacity="0.25" style="mix-blend-mode:multiply"/>
<path fill-rule="evenodd" clip-rule="evenodd" d="M75.0362 0H27.487V6.79275H75.0362V0ZM88.6217 13.5855V6.79275H75.0362V13.5855H88.6217ZM95.4145 20.3783V13.5855H88.6217V20.3783H95.4145ZM95.4145 74.7203V20.3783H102.207V74.7203H109V95.0985H102.207V101.891H95.4145V108.684H88.6217V115.477H81.829V122.27H68.2435V129.062H27.487V122.27H20.6942V115.477H13.9015L13.9015 108.684H7.1087V20.3783H13.9015V13.5855H20.6942V6.79275H27.487V13.5855H20.6942V20.3783H13.9015L13.9015 108.684H20.6942V115.477H27.487V122.27H68.2435V115.477H81.829V108.684H88.6217V101.891V95.0985H102.207V74.7203H95.4145ZM95.4145 74.7203V81.513H88.6217V74.7203H95.4145Z" fill="black"/>
<path fill-rule="evenodd" clip-rule="evenodd" d="M90.043 80.5652H82.9343V101.892H68.7219V116.109H82.9393V109H90.043V80.5652ZM47.3929 94.783H54.4965V123.218H47.3879V123.217H33.1755V116.108H47.3879V101.892H33.1755V94.783H47.3879H47.3929ZM54.5005 101.892H68.7179V123.218H54.5005V101.892ZM11.8414 101.892H18.9501V109.001H11.8414V101.892ZM26.0628 101.892H18.9592V116.109H26.0628V123.218H33.1715V94.783H26.0628V101.892ZM36.7324 108.999H43.8411V116.108H36.7324V108.999Z" fill="#784522"/>
<path fill-rule="evenodd" clip-rule="evenodd" d="M90.043 80.5652H82.9343V101.892H75.8306V116.109H82.9393V109H90.043V80.5652ZM26.0679 101.892H11.8505V109.001H18.9592V116.108H26.0679V109.001V108.999V101.892ZM47.3929 116.108H26.0668V123.217H47.3929V116.108ZM61.6092 116.108H68.7179V123.217H61.6092V116.108ZM75.8216 108.999H68.7129V116.108H75.8216V108.999Z" fill="black" fill-opacity="0.2" style="mix-blend-mode:multiply"/>
<path fill-rule="evenodd" clip-rule="evenodd" d="M69.5094 5.79224H75.3016V11.5845H81.0939H86.8862V17.3768H92.6784V34.7536H98.4707V69.5072H92.6784V81.0917H86.8862V75.2995H81.0939V81.0917H75.3016V46.3381H69.5094L69.5094 57.9227H57.9248V52.1304H52.1325V46.3381H46.3403V40.5459H40.548V34.7536H23.1712V40.5459H17.3789L17.3789 63.7149H11.5867H5.79438V34.7536H11.5867V23.169H17.3789L17.3789 11.5845H23.1712V5.79224H40.548H46.3403H52.1325H57.9248H69.5094Z" fill="#784522"/>
<path fill-rule="evenodd" clip-rule="evenodd" d="M23.1712 5.79224H28.9635V17.3768H23.1712V40.5459H17.3789L17.3789 63.7149H11.5867H5.79438V34.7536H11.5867V23.169H17.3789L17.3789 11.5845H23.1712V5.79224ZM46.3403 11.5845H40.548V17.3768H34.7557L34.7557 23.169H28.9635V34.7536H34.7557L34.7557 28.9613H40.548V23.169H46.3403H52.1325V17.3768H46.3403V11.5845ZM52.1325 46.3381V34.7536H46.3403V28.9613L40.548 28.9613V40.5459H46.3403V46.3381H52.1325ZM92.8142 69.5072V81.0917H86.7461V75.2995H81.0939V81.0917H75.3016V46.3381H69.5094L69.5094 57.9227L63.7171 57.9227H57.9248V52.1304H52.1325V46.3381H57.9248H63.7171V40.5459H69.5094L69.5094 34.7536H75.3016H81.0939V23.169H86.7461V17.3768H92.8142V34.7536H98.4707V69.5072H92.8142Z" fill="black" fill-opacity="0.2" style="mix-blend-mode:multiply"/>
<path fill-rule="evenodd" clip-rule="evenodd" d="M63.7162 11.5847H75.3008V17.377H63.7162V23.1693H57.924V17.377H63.7162V11.5847ZM46.3394 23.1693H40.5472V28.9615H46.3394V23.1693ZM40.5472 28.9615V34.7538H34.7549V28.9615H40.5472Z" fill="white" fill-opacity="0.3" style="mix-blend-mode:lighten"/>
<path fill-rule="evenodd" clip-rule="evenodd" d="M75.3004 0H23.1699V5.79227H75.3004V0ZM86.8849 11.5845V5.79227H75.3004L75.3004 11.5845H86.8849ZM92.6772 17.3768V11.5845H86.8849V17.3768H92.6772ZM98.4694 34.7536V17.3768H92.6772V34.7536H98.4694ZM98.4694 34.7536V69.5072H92.6772V86.884H98.4694V81.0918H104.262V34.7536H98.4694ZM17.3777 11.5845H23.1699V5.79227H17.3777V11.5845ZM11.5854 23.1691H17.3777L17.3777 11.5845H11.5854V23.1691ZM5.79313 34.7536V23.1691H11.5854V34.7536H5.79313ZM5.79313 63.715V34.7536H0.000862122V63.715H5.79313ZM5.79313 63.715V75.2995H11.5854V63.715H5.79313Z" fill="black"/>
<path fill-rule="evenodd" clip-rule="evenodd" d="M60.6645 191.408H73.9316V230.901H60.6621V224.319H54.0298V217.737H47.3962V197.991H40.7639V230.901H27.4943V191.408H40.7627H40.7639H47.3962H47.3975H54.0298H54.031H60.6621H60.6645ZM20.8492 191.408H27.484V224.319H20.8492V191.408Z" fill="#2E8EE6"/>
<path fill-rule="evenodd" clip-rule="evenodd" d="M73.9329 184.826H80.5664V244.065H73.9329H73.9316H60.6658H60.6633H54.031V224.319L47.3987 224.319V244.065H40.7639V197.99H47.3987V217.737H54.0322V224.319L60.6658 224.319V237.483H73.9316V204.573H67.2981V197.99H73.9316V191.408H20.8546V184.826H73.9316H73.9329ZM20.8516 197.99H27.4852V204.573H20.8516V224.319H27.4852V237.483H40.7523V244.065H27.4852H27.4827H20.8516H20.8504H14.2168V237.483H20.8504V224.319H14.2168V184.826H20.8516V197.99Z" fill="black"/>
<path fill-rule="evenodd" clip-rule="evenodd" d="M73.9316 191.408H67.2969V197.991H73.9316V191.408ZM73.9316 204.573H67.2969V211.155H73.9316V204.573ZM60.6645 224.319H67.2981V230.901H60.6633V224.319H54.0298V217.737H47.3962V197.991H54.031V217.737H60.6645V224.319ZM20.8492 191.408H27.484V197.991H20.8492V191.408ZM27.484 204.573H20.8492V211.155H27.484V204.573ZM34.1291 204.573H40.7639V230.901H34.1291V204.573ZM34.1175 217.737H27.4827V230.901H34.1175V217.737Z" fill="black" fill-opacity="0.2" style="mix-blend-mode:multiply"/>
<path fill-rule="evenodd" clip-rule="evenodd" d="M60.6621 230.901H73.9316V237.483H60.6621V230.901ZM27.4943 230.901H40.7639V237.483H27.4943V230.901Z" fill="#BA6434"/>
<path fill-rule="evenodd" clip-rule="evenodd" d="M67.2969 230.901H73.9316V237.483H67.2969V230.901ZM34.1291 230.901H40.7639V237.483H34.1291V230.901Z" fill="black" fill-opacity="0.2" style="mix-blend-mode:multiply"/>
<path fill-rule="evenodd" clip-rule="evenodd" d="M42.6539 125.587H56.8713V132.696H42.6539V125.587ZM7.1104 168.239H14.2191H21.3278V175.348H14.2191V182.457H7.1104V168.239ZM92.4147 175.348H99.5234V189.565H92.4147H85.306V182.457H78.1974V175.348H85.306H92.4147Z" fill="#FAE6CE"/>
<path fill-rule="evenodd" clip-rule="evenodd" d="M56.8686 125.587H42.6512V132.696H56.8686V125.587ZM21.3252 168.239H14.2165H7.10776V182.457H14.2165V175.348H21.3252V168.239ZM85.3034 175.348H78.1947V182.457H85.3034V189.565H92.4121V175.348H85.3034Z" fill="#714A1C" fill-opacity="0.25" style="mix-blend-mode:multiply"/>
<path fill-rule="evenodd" clip-rule="evenodd" d="M71.0859 125.587H63.9772V132.696H71.0859V125.587ZM42.6512 139.805H56.8685V132.696H63.9772V182.457H56.8685L42.6512 182.457L35.5425 182.457V132.696H42.6512V139.805Z" fill="white"/>
<path fill-rule="evenodd" clip-rule="evenodd" d="M71.0859 125.587H63.9772V132.696H71.0859V125.587ZM56.8685 146.913H63.9772V154.022H56.8685V146.913ZM42.6512 168.239H35.5425V182.457H42.6512H63.9772V175.348H42.6512V168.239ZM35.5425 146.913H42.6512V154.022H35.5425V146.913Z" fill="black" fill-opacity="0.2" style="mix-blend-mode:multiply"/>
<path fill-rule="evenodd" clip-rule="evenodd" d="M42.6537 139.804H56.8711V175.348L49.7624 175.348V182.457H42.6537V175.348V139.804Z" fill="#4E4E4E"/>
<path fill-rule="evenodd" clip-rule="evenodd" d="M71.086 118.478H78.1947V125.587H85.3034V132.696H92.4121V168.239L85.3034 168.239H78.1947V139.804H71.086V182.457H78.1947V196.674H85.3034V203.783H78.1947H71.086L71.086 196.674H63.9773V132.696H71.086L71.086 118.478ZM28.4338 125.587H35.5425V196.674H28.4338H21.3252V182.457H28.4339V146.913H21.3252V161.13H14.2165V146.913L21.3252 146.913V132.696H28.4339L28.4338 125.587Z" fill="#C0C4C7"/>
<path fill-rule="evenodd" clip-rule="evenodd" d="M71.0873 118.478H78.196V125.587H71.0873V118.478ZM28.4351 125.587H35.5438V132.696H28.4351L28.4351 146.913H21.3264V161.13H14.2177V146.913L21.3264 146.913V132.696H28.4351V125.587ZM71.0873 139.804H63.9786V189.565H71.0873V196.674H78.196V182.457H71.0873V139.804ZM71.0873 139.804H78.196V132.696H71.0873V139.804ZM78.196 196.674V203.783H85.3047V196.674H78.196ZM35.5438 175.348H28.4351V189.565H21.3264V196.674H28.4351H35.5438V175.348ZM85.3047 146.913H78.196V168.239H85.3047V146.913Z" fill="black" fill-opacity="0.2" style="mix-blend-mode:multiply"/>
<path fill-rule="evenodd" clip-rule="evenodd" d="M71.0874 111.37H78.1961V118.478H85.3048V125.587H92.4135V132.696H99.5222V175.348L106.631 175.348V189.565H99.5222V196.674H92.4135V203.783H85.3048V210.891H71.0874V203.783H63.9787V196.674H56.87V189.565H35.5439V196.674H28.4352V203.783H21.3265H14.2178V189.565H7.10912V182.457H0.000427246V168.239L7.10912 168.239V146.913H14.2178V132.696H21.3265V125.587H28.4352V118.478H35.5439V125.587H42.6526V132.696H56.87V125.587H63.9787V118.478H71.0874V111.37ZM71.0874 118.478V125.587H63.9787V132.696H56.87V139.804H42.6526V132.696H35.5439V146.913H28.4352V182.457H21.3265V196.674H28.4352V189.565H35.5439V182.457H56.87H63.9787V196.674H71.0874V203.783H85.3048V196.674H78.1961V182.457H71.0874V139.804H78.1961V168.239H92.4135V132.696H85.3048V125.587H78.1961V118.478H71.0874ZM28.4352 132.696H21.3265V146.913H28.4352V132.696ZM21.3265 146.913V161.13H14.2178V146.913H21.3265ZM28.4352 132.696H35.5439V125.587H28.4352V132.696ZM7.10912 168.239L14.2178 168.239H21.3265V175.348H14.2178V182.457H7.10912V168.239ZM78.1961 182.457H85.3048V189.565H99.5222V175.348L92.4135 175.348H78.1961V182.457Z" fill="black"/>
</svg>
