<svg width="46" height="104" viewBox="0 0 46 104" fill="none" xmlns="http://www.w3.org/2000/svg">
<path d="M31.625 2.875H11.5V5.75H8.625V8.625H5.75V46H8.625V48.875H11.5V51.75H28.75V48.875H34.5V46H37.375V40.25H43.125V31.625H40.25V8.625H37.375V5.75H31.625V2.875Z" fill="#FAE6CE"/>
<path fill-rule="evenodd" clip-rule="evenodd" d="M34.5 54.625H11.5V57.5H8.625V63.25H11.5V80.5H8.625V86.25H11.5V100.625H17.25V86.25H20.125V92H23V94.875H25.875V100.625H31.625V83.375H28.75V80.5H37.375V57.5H34.5V54.625ZM31.625 60.375H28.75V77.625H31.625V60.375Z" fill="#FAE6CE"/>
<path d="M8.625 63.25H5.75V71.875H2.875V77.625H8.625V63.25Z" fill="#FAE6CE"/>
<path d="M11.5 2.875H25.875V5.75H14.375V8.625H8.625V31.625H5.75V8.625H8.625V5.75H11.5V2.875Z" fill="#E3C4A6"/>
<path d="M37.375 8.625H40.25V20.125H37.375V8.625Z" fill="#E3C4A6"/>
<path d="M40.25 34.5H37.375V31.625H34.5V46H37.375V37.375H40.25V34.5Z" fill="#E3C4A6"/>
<path d="M34.5 46H25.875V48.875H11.5V51.75H28.75V48.875H34.5V46Z" fill="#E3C4A6"/>
<path d="M8.625 63.25H5.75V71.875H2.875V77.625H8.625V63.25Z" fill="#E3C4A6"/>
<path d="M8.625 63.25H11.5V60.375H14.375V57.5H28.75V54.625H11.5V57.5H8.625V63.25Z" fill="#E3C4A6"/>
<path d="M8.625 80.5H11.5V66.125H14.375V80.5H11.5V86.25H8.625V80.5Z" fill="#E3C4A6"/>
<path d="M14.375 89.125H11.5V100.625H14.375V89.125Z" fill="#E3C4A6"/>
<path d="M28.75 83.375H31.625V100.625H25.875V94.875H28.75V83.375Z" fill="#E3C4A6"/>
<path d="M23 86.25H20.125V89.125H23V86.25Z" fill="#E3C4A6"/>
<path d="M31.625 66.125H34.5V74.75H37.375V80.5H28.75V77.625H31.625V66.125Z" fill="#E3C4A6"/>
<path d="M28.75 8.625H25.875V11.5H28.75V8.625Z" fill="#FFF8EF"/>
<path d="M14.375 8.625H23V11.5H14.375V14.375H11.5V17.25H8.625V14.375H11.5V11.5H14.375V8.625Z" fill="#FFF8EF"/>
<path d="M40.25 31.625H43.125V34.5H40.25V31.625Z" fill="#FFF8EF"/>
<path d="M34.5 54.625H28.75V57.5H34.5V54.625Z" fill="#FFF8EF"/>
<path d="M34.5 57.5V60.375H37.375V57.5H34.5Z" fill="#FFF8EF"/>
<path d="M23 64.6875H25.875V70.4375H23V64.6875Z" fill="#FFF8EF"/>
<path d="M23 64.6875H20.125V61.8125H23V64.6875Z" fill="#FFF8EF"/>
<path d="M17.25 83.375H20.125V86.25H17.25V83.375Z" fill="#FFF8EF"/>
<path fill-rule="evenodd" clip-rule="evenodd" d="M11.5 0H31.625V2.875H37.375V5.75H40.25V8.625H43.125V31.625H46V40.25H43.125V43.125H40.25V46H37.375V48.875H34.5V54.625H37.375V57.5H40.25V80.5H37.375V83.375H34.5V103.5H23V94.875H20.125V103.5H5.75V100.625H8.625V86.25H5.75V80.5H2.875V77.625H0V71.875H2.875V63.25H5.75V57.5H8.625V54.625H11.5V51.75H8.625V48.875H5.75V46H2.875V8.625H5.75V5.75H8.625V2.875H11.5V0ZM11.5 2.875V5.75H8.625V8.625H5.75V46H8.625V48.875H11.5V51.75H28.75V48.875H34.5V46H37.375V40.25H43.125V31.625H40.25V34.5H37.375V31.625H40.25V8.625H37.375V5.75H31.625V2.875H11.5ZM8.625 63.25H11.5V80.5H8.625V86.25H11.5V100.625H17.25V86.25H20.125V89.125H23V94.875H25.875V100.625H31.625V83.375H25.875V77.625H28.75V60.375H31.625V77.625H28.75V80.5H37.375V57.5H34.5V54.625H11.5V57.5H8.625V63.25ZM8.625 63.25V77.625H2.875V71.875H5.75V63.25H8.625Z" fill="black"/>
<path fill-rule="evenodd" clip-rule="evenodd" d="M11.6014 2.8667H31.6681V5.73337H34.5348H37.4014V8.60003H40.2681V31.5334H43.1348V40.1334H40.2681H37.4014V45.8667H34.5348V48.7334L31.6681 48.7334H28.8014V51.6H11.6014V48.7334L8.73476 48.7334V45.8667H5.86809V8.60003H8.73476V5.73337H11.6014V2.8667Z" fill="#FAE6CE"/>
<path fill-rule="evenodd" clip-rule="evenodd" d="M25.9323 2.8667H11.599V5.73337H8.73229V8.60003H14.4656V5.73337H25.9323V2.8667ZM8.73229 8.60003H5.86562V31.5334H8.73229V8.60003ZM40.2656 8.60003H37.399V31.5334H40.2656V8.60003ZM34.5323 45.8667H37.399V37.2667H40.2656V34.4H37.399V31.5334H34.5323V45.8667ZM25.9323 48.7334V45.8667H34.5323V48.7334H28.799V51.6H11.599V48.7334H25.9323ZM37.399 8.60003V5.73337H34.5323V8.60003H37.399Z" fill="#714A1C" fill-opacity="0.25" style="mix-blend-mode:multiply"/>
<path fill-rule="evenodd" clip-rule="evenodd" d="M25.9348 8.59985H28.8014V11.4665H25.9348V8.59985ZM23.0681 8.59985H14.4681V11.4665H23.0681V8.59985ZM11.6014 14.3332V11.4665H14.4681V14.3332H11.6014ZM11.6014 14.3332V17.1999H8.73476V14.3332H11.6014ZM43.1348 31.5332H40.2681V34.3999H43.1348V31.5332Z" fill="#FFFCF9" fill-opacity="0.7" style="mix-blend-mode:lighten"/>
<path fill-rule="evenodd" clip-rule="evenodd" d="M20.1988 28.6665H28.7988V31.5332H25.9322V37.2665H23.0655V31.5332H20.1988V28.6665ZM20.1988 42.9998H14.4655V45.8665H20.1988V42.9998ZM20.1988 45.8665V48.7332H23.0655V45.8665H20.1988ZM14.4655 28.6665H11.5988H8.73216V31.5332H11.5988V37.2665H14.4655V28.6665Z" fill="black"/>
<path fill-rule="evenodd" clip-rule="evenodd" d="M17.3331 28.6665H20.1997V31.5332H23.0664V34.3998H20.1997V31.5332H17.3331V28.6665Z" fill="#714A1C" fill-opacity="0.25" style="mix-blend-mode:multiply"/>
<path fill-rule="evenodd" clip-rule="evenodd" d="M31.6667 0H11.6V2.86667H31.6667V0ZM37.4 5.73333V2.86667H31.6667V5.73333H37.4ZM40.2667 8.6V5.73333H37.4V8.6H40.2667ZM40.2667 31.5333V8.6H43.1333V31.5333H46V40.1333H43.1333V43H40.2667V45.8667H37.4V48.7333H34.5333V51.6H28.8V54.4667H11.6V51.6L8.73333 51.6V48.7333H5.86666L5.86666 45.8667H3V8.6H5.86666V5.73333H8.73333V2.86667H11.6V5.73333H8.73333V8.6H5.86666L5.86666 45.8667H8.73333V48.7333H11.6V51.6L28.8 51.6V48.7333H34.5333V45.8667H37.4V43V40.1333H43.1333V31.5333H40.2667ZM40.2667 31.5333V34.4H37.4V31.5333H40.2667Z" fill="black"/>
<path fill-rule="evenodd" clip-rule="evenodd" d="M38 34H35V43.0003H29.0021V49.0003H35.0021V46H38V34ZM20.0009 40.0002H22.9988V52.0002H19.9988V51.9998H14.0009V48.9998H19.9988V43.0002H14.0009V40.0002H19.9988H20.0009ZM23.0004 43.0003H29.0004V52.0003H23.0004V43.0003ZM4.99751 43.0003H7.99751V46.0003H4.99751V43.0003ZM10.9992 43.0003H8.00133V49.0003H10.9992V52.0002H13.9992V40.0002H10.9992V43.0003ZM15.502 45.9997H18.502V48.9997H15.502V45.9997Z" fill="#784522"/>
<path fill-rule="evenodd" clip-rule="evenodd" d="M38 34H35V43.0003H32.0021V49.0003H35.0021V46H38V34ZM11.0013 43.0003H5.00133V46.0003H8.00133V48.9997H11.0013V46.0003V45.9997V43.0003ZM20.0009 48.9998H11.0009V51.9998H20.0009V48.9998ZM26.0004 48.9998H29.0004V51.9998H26.0004V48.9998ZM31.9983 45.9997H28.9983V48.9997H31.9983V45.9997Z" fill="black" fill-opacity="0.2" style="mix-blend-mode:multiply"/>
<path fill-rule="evenodd" clip-rule="evenodd" d="M19.9992 89.1111H31.1992V94.6666H19.9992V89.1111ZM8.80183 89.1111H17.2018V94.6666H8.80183V89.1111Z" fill="#FAE6CE"/>
<path fill-rule="evenodd" clip-rule="evenodd" d="M31.1992 89.1111H28.3992V91.8889H31.1992V89.1111ZM11.5974 89.1111H8.79744V94.6666H11.5974V89.1111ZM22.8008 91.8889H25.6003V94.6666H22.8003V91.8889H20.0008V89.1111H22.8008V91.8889ZM14.4018 91.8889H17.2018V94.6666H14.4018V91.8889Z" fill="#714A1C" fill-opacity="0.25" style="mix-blend-mode:multiply"/>
<path d="M31.1992 80.7778H8.79922V86.3334H31.1992V80.7778Z" fill="#4A141B"/>
<path fill-rule="evenodd" clip-rule="evenodd" d="M31.1992 80.7778H28.3992V83.5556H31.1992V80.7778ZM11.5974 80.7778H8.79744V83.5556H11.5974V80.7778ZM20.0008 83.5556H22.8008V86.3334H20.0008V83.5556Z" fill="black" fill-opacity="0.2" style="mix-blend-mode:multiply"/>
<path fill-rule="evenodd" clip-rule="evenodd" d="M25.5992 97.4446H31.1992V100.222H25.5992V97.4446ZM11.6018 97.4446H17.2018V100.222H11.6018V97.4446Z" fill="#BA6434"/>
<path fill-rule="evenodd" clip-rule="evenodd" d="M28.3992 97.4446H31.1992V100.222H28.3992V97.4446ZM14.4018 97.4446H17.2018V100.222H14.4018V97.4446Z" fill="black" fill-opacity="0.2" style="mix-blend-mode:multiply"/>
<path fill-rule="evenodd" clip-rule="evenodd" d="M31.2005 78H34V103H31.2005H31.2H25.6016H25.6005H22.8016V94.6667H20.0026V103H17.2026V83.5556H20.0026V86.3333H28.4005V83.5556H31.2V80.7778H8.80052V78H31.2H31.2005ZM20.0026 89.1111H31.2V94.6667H25.6016H25.6005H22.8021V91.8889H20.0026V89.1111ZM25.6016 100.222V97.4444H31.2V100.222H25.6016ZM8.79926 83.5556H11.5987V86.3333H17.1977V89.1111H8.79926V94.6667H11.5977H11.5987H17.1977V97.4444H11.5987V100.222H17.1977V103H11.5987H11.5977H8.79926H8.79874H5.99926V100.222H8.79874V94.6667H5.99926V78H8.79926V83.5556Z" fill="black"/>
<path fill-rule="evenodd" clip-rule="evenodd" d="M30 47H33V50H36V53H39V56H42V74L45 74V80H42V83H36V80H3V77H-3.8147e-06V71H3V62L6 62V56H9V53H12V50H15V53H18V56H24V53H27V50H30V47ZM30 50V53H27V56H24V59H18V56H15V53H12V56H9V62H12V77L30 77V59H33V71H39V56H36V53H33V50H30ZM6 71V62L9 62V71H6ZM6 77H3V71H6V77ZM33 77L36 77V80H42V74L39 74H33V77Z" fill="black"/>
<path fill-rule="evenodd" clip-rule="evenodd" d="M24 53H18V56H24V53ZM6 71H3V77H6V71ZM42 74H39H36H33V77H36V80H39H42V74Z" fill="#FAE6CE"/>
<path fill-rule="evenodd" clip-rule="evenodd" d="M24 53H18V56H24V53ZM3 71H6V77H3V71ZM33 74H36H39V80H36V77H33V74Z" fill="#714A1C" fill-opacity="0.25" style="mix-blend-mode:multiply"/>
<path fill-rule="evenodd" clip-rule="evenodd" d="M33 50H30L30 53H27V56H24V59H21H18V56H15V53H12L12 56H9V62L12 62L12 77L15 77H18H21H24L27 77H30L30 59H33V71H36H39V56H36V53H33V50ZM9 62V71H6V62H9Z" fill="#B2DDD8"/>
<path fill-rule="evenodd" clip-rule="evenodd" d="M30 50H33V53H30V50ZM12 53H15V56H12L12 62H9V71H6V62L9 62V56H12V53ZM30 74H12V77H30V74ZM33 56H30V59H33V56ZM33 59L33 71H36V59H33Z" fill="black" fill-opacity="0.2" style="mix-blend-mode:multiply"/>
</svg>
