<svg width="164" height="183" viewBox="0 0 164 183" fill="none" xmlns="http://www.w3.org/2000/svg">
<path fill-rule="evenodd" clip-rule="evenodd" d="M138.712 13.7693H100.38V18.5386H94.9058V90.0783L100.38 90.0783L100.382 90.0783L105.856 90.0782V94.8476H138.713V90.0782L138.712 90.0783V13.7693ZM144.191 18.5386H138.715V90.0783H144.191V18.5386ZM149.667 23.3079H144.191V85.309H149.667V23.3079ZM78.4766 61.4624H83.9527V75.7704H78.4766V61.4624ZM89.4291 23.3079H83.953V75.7704H89.4291V23.3079ZM89.4294 18.5386H94.9055V85.309H89.4294V18.5386Z" fill="#FAE6CE"/>
<path fill-rule="evenodd" clip-rule="evenodd" d="M111.333 13.7693H138.713V18.5386H111.333V13.7693ZM144.191 23.3079H149.667V61.4624H144.191V23.3079ZM144.19 18.5386H133.238V23.3079H144.19V18.5386ZM83.9531 23.3079H89.4292V61.4624H83.9531V23.3079ZM94.9056 18.5386H89.4296V23.3079H94.9056V18.5386ZM83.9531 66.2318H89.4292V71.0011H83.9531V66.2318ZM94.9056 61.4624H89.4296V85.309H94.9056V61.4624ZM94.906 85.309H111.334V90.0782H138.715V94.8476H105.859V90.0783H94.906V85.309Z" fill="#714A1C" fill-opacity="0.25" style="mix-blend-mode:multiply"/>
<path fill-rule="evenodd" clip-rule="evenodd" d="M111.332 23.3079H105.856V28.0772H111.332V23.3079ZM116.809 23.3079H133.237V28.0772H116.809V23.3079ZM133.238 28.0773H138.714V32.8466H133.238V28.0773ZM78.4766 61.4624H83.9527V66.2317H78.4766V61.4624ZM144.191 32.8466H138.715V37.6159H144.191V32.8466Z" fill="#FFFCF9" fill-opacity="0.7" style="mix-blend-mode:lighten"/>
<path fill-rule="evenodd" clip-rule="evenodd" d="M116.808 56.6932H111.332V61.4625H116.808V56.6932ZM111.332 61.4625H105.855V66.2318H111.332V61.4625ZM116.808 61.4625H122.284V66.2318H116.808V61.4625ZM133.237 80.5397H122.285V85.3091H133.237V80.5397ZM116.808 75.7704H122.284V80.5397H116.808V75.7704ZM133.235 61.4625H127.759V66.2318H133.235V61.4625ZM133.235 56.6932H138.711V61.4625H133.235V56.6932ZM144.187 61.4625H138.711V66.2318H144.187V61.4625Z" fill="black"/>
<path fill-rule="evenodd" clip-rule="evenodd" d="M122.285 56.6932H116.809V61.4625H122.285V56.6932ZM127.761 61.4625H122.285V66.2318H127.761V61.4625Z" fill="#714A1C" fill-opacity="0.25" style="mix-blend-mode:multiply"/>
<path fill-rule="evenodd" clip-rule="evenodd" d="M100.379 9H138.712V13.7693H100.379V9ZM100.381 13.7693H89.4293V18.5386H100.381V13.7693ZM83.9529 18.5387H89.4289V23.308H83.9529V18.5387ZM78.4761 61.4625H73V75.7704H78.4761V61.4625ZM89.4286 75.7704H78.4764V80.5397H89.4286V75.7704ZM89.4289 80.5397V85.309H83.9529V80.5397H89.4289ZM94.9054 85.309H89.4293V90.0783H94.9054V85.309ZM144.188 13.7693H138.712V18.5386H144.188V13.7693ZM144.188 18.5387H149.664V23.308H144.188V18.5387ZM155.141 23.3079H149.665V85.309H155.141V23.3079ZM94.9057 90.0783H105.858V94.8476H94.9057V90.0783ZM138.712 94.8476H105.856V99.6169H138.712V94.8476ZM144.188 85.309H149.664V90.0783H144.188V85.309ZM144.188 90.0783H138.712V94.8476H144.188V90.0783ZM78.4764 23.3079H83.9525V61.4624H78.4764V23.3079ZM89.4289 61.4625H83.9529V66.2318H89.4289V61.4625Z" fill="black"/>
<path fill-rule="evenodd" clip-rule="evenodd" d="M133.98 98.2762H113.047V102.834H133.98V98.2762ZM118.281 107.392V102.834H128.747V107.392H118.281ZM144.449 125.624H149.682V139.298H144.449V125.624ZM92.1146 130.182H97.3479V143.856H92.1146V130.182ZM149.683 130.182H154.916V139.298H149.683V130.182ZM92.1142 134.74H86.8809V143.856H92.1142V134.74ZM102.582 130.182H97.3483V139.298H102.582V130.182Z" fill="#FAE6CE"/>
<path fill-rule="evenodd" clip-rule="evenodd" d="M133.986 98.2762H113.052V102.834H133.986V98.2762ZM144.452 125.624H149.685V134.74H144.452V125.624ZM97.3509 130.182H102.584V143.856H97.3509V130.182ZM149.685 130.182H154.919V139.298H149.685V130.182ZM97.3506 134.74H92.1172V143.856H97.3506V134.74Z" fill="#714A1C" fill-opacity="0.25" style="mix-blend-mode:multiply"/>
<path fill-rule="evenodd" clip-rule="evenodd" d="M107.815 98.2762H102.582V107.392H107.813V139.298H102.582V166.645L107.813 166.645H113.047V102.834H107.815V98.2762ZM97.3483 152.971H102.582V166.645H97.3483V152.971ZM97.3479 162.087H92.1146V166.645H97.3479V162.087ZM102.582 102.834H97.3483V125.624H102.582V102.834ZM92.1146 107.392H97.3479V125.624H92.1146V107.392ZM92.1142 116.508H86.8809V125.624H92.1142V116.508ZM113.047 107.392H118.28V166.645H113.047V107.392ZM128.747 111.95H118.281V166.645H128.747V111.95ZM128.748 107.392H133.981V166.645H128.748V107.392ZM139.215 102.834H133.982V166.645H139.215V102.834ZM139.215 139.298H144.449V166.645H139.215V139.298ZM149.682 116.508H144.449V121.066H149.682V116.508ZM139.215 107.392H144.449V121.066H139.215V107.392ZM149.682 157.529H144.449V166.645H149.682V157.529Z" fill="#2E8EE6"/>
<path fill-rule="evenodd" clip-rule="evenodd" d="M102.583 98.2762H107.817V102.834H102.583V98.2762ZM133.983 102.834H139.216V107.392H133.983V102.834ZM139.217 107.392H144.45V116.508H139.217V107.392ZM133.983 107.392H128.749V111.95H133.983V107.392ZM113.05 102.834H107.817V107.392H113.05V102.834ZM128.749 148.413H133.983V157.529H128.749V148.413ZM133.983 139.298H128.749V143.855H133.983V139.298ZM128.749 125.624H133.983V134.74H128.749V125.624ZM123.515 152.971H118.284V157.529H113.051V152.971H118.282V143.855H123.515V152.971ZM113.05 157.529H107.817V162.087H113.05V157.529ZM123.516 157.529H128.749V166.645H123.516V157.529ZM113.05 125.624H107.817V139.298H113.05V125.624ZM102.583 139.298H107.817V148.413H102.583V139.298ZM102.583 152.971H97.3496V157.529H102.583V152.971ZM144.45 157.529H149.684V166.645H144.45V157.529ZM144.45 139.298H139.217V148.413H144.45V139.298Z" fill="black" fill-opacity="0.2" style="mix-blend-mode:multiply"/>
<path fill-rule="evenodd" clip-rule="evenodd" d="M107.815 102.834H102.582V107.392H107.815V102.834ZM128.75 130.182H123.517V139.298H128.75V130.182ZM113.049 148.413H118.283V152.971H113.049V148.413ZM107.816 152.971H113.049V157.529H107.816V152.971ZM102.582 157.529H107.815V166.645H102.582V157.529ZM118.283 157.529H123.517V166.645H118.283V157.529ZM128.75 152.971H123.517V157.529H128.75V152.971Z" fill="white" fill-opacity="0.3" style="mix-blend-mode:lighten"/>
<path fill-rule="evenodd" clip-rule="evenodd" d="M113.049 171.203H102.582V175.761H113.049V171.203ZM139.215 171.203H128.748V175.761H139.215V171.203Z" fill="#BA6434"/>
<path fill-rule="evenodd" clip-rule="evenodd" d="M107.815 171.203H102.582V175.761H107.815V171.203ZM133.981 171.203H128.748V175.761H133.981V171.203Z" fill="black" fill-opacity="0.2" style="mix-blend-mode:multiply"/>
<path fill-rule="evenodd" clip-rule="evenodd" d="M102.583 93.7183H107.817V98.2762H102.583V93.7183ZM102.583 98.2762H97.3495V102.834H102.583V98.2762ZM92.1158 125.624V130.182H102.583V125.624H92.1158ZM113.048 98.2762H107.814V102.834H113.048V98.2762ZM133.983 98.2762H139.216V102.834H133.983V98.2762ZM133.983 102.834H128.749V107.392H133.983V102.834ZM113.048 102.834H118.282V107.392H113.048V102.834ZM128.749 107.392H118.282V111.95H128.749V107.392ZM92.1158 102.834H97.3492V107.392H92.1158V102.834ZM92.1155 107.392H86.8821V116.508H92.1155V107.392ZM81.6484 116.508H86.8818V125.624H81.6484V116.508ZM92.1155 125.624H86.8821V134.74H92.1155V125.624ZM97.3489 143.856V148.413H86.8821V143.856H97.3489ZM107.817 107.392H102.583V139.298H107.817V107.392ZM81.6484 134.74H86.8818V143.855H81.6484V134.74ZM144.45 102.834H139.217V107.392H144.448V116.508H149.681V107.392H144.45V102.834ZM139.217 121.066H144.448H144.45H149.681V125.624H144.45V134.74H149.681V157.529H144.448V139.298H139.217V121.066ZM154.915 116.508H149.682V130.182H154.915V116.508ZM154.915 130.182H160.149V139.298H154.915V130.182ZM154.915 139.298H149.682V143.856H154.915V139.298ZM97.3495 180.319V171.203H102.583V180.319H97.3495ZM118.282 180.319V171.203H113.048V175.761H102.583V180.319H113.05L118.282 180.319ZM139.217 175.761V171.203H144.45V175.761H139.217ZM149.682 157.529H154.915V166.645L154.916 166.645V171.203H86.8821V166.645V166.645V162.087H92.1155V166.645L149.682 166.645V157.529ZM92.1158 152.971H97.3492V162.087H92.1158V152.971ZM97.3495 139.298H102.583V152.971H97.3495V139.298ZM128.749 175.761H149.683V180.319H128.749V175.761ZM128.749 171.203H123.516V180.319H128.749V171.203Z" fill="black"/>
<path fill-rule="evenodd" clip-rule="evenodd" d="M101.673 12.929H96.8948V48.2895H101.673V12.929ZM111.229 12.929H101.674V44.3606H111.23V40.4316H120.786V36.5027H125.563V12.929H120.786H120.785H111.23H111.229ZM87.337 16.8579H96.8936V56.1474H87.337V52.2185H82.5602V20.7868H87.337V16.8579ZM130.342 12.929H125.564V32.5737H130.342V12.929ZM130.343 12.929H135.121V36.5027H130.343V12.929ZM139.9 12.929H135.122V40.4316H139.899V44.3606H144.677V16.8579H139.9V12.929ZM82.5602 71.8633H87.3385V75.7922H92.1153V91.508L87.3385 91.508L87.337 91.508L82.5602 91.508V71.8633ZM77.7812 87.579H82.5596V91.508H77.7812V87.579ZM92.1159 79.7211H96.8942V87.579H92.1159V79.7211ZM144.678 24.7158H149.456V52.2185H144.678V24.7158ZM154.235 36.5027H149.457V75.7922H154.235V36.5027ZM144.678 67.9343H149.456V95.437H144.678V67.9343ZM144.677 79.7211H139.899V91.508H144.677V79.7211ZM149.457 83.6501H154.235V87.579H159.012V91.508H154.235H154.233H149.457V83.6501Z" fill="black"/>
<path fill-rule="evenodd" clip-rule="evenodd" d="M135.118 16.8578H130.339V24.7158H135.118V16.8578ZM82.5566 20.7868H87.3349V52.2184H82.5566V20.7868ZM120.783 36.5026H111.226V40.4316L101.67 40.4316V44.3605H111.227V40.4316L120.783 40.4316V36.5026ZM149.452 67.9343H144.674V79.7211H139.897V91.5079H144.674V95.4369H149.452V67.9343ZM101.67 44.3605H96.8913V48.2895H101.67V44.3605ZM92.1123 44.3605H96.8907V56.1474L92.1139 56.1474L92.1123 56.1474L87.3356 56.1474V48.2895H92.1123V44.3605ZM154.231 36.5026H149.453V75.7922H154.231V36.5026ZM149.453 83.65H154.231V91.5079H149.453V83.65ZM159.01 87.579H154.232V91.5079H159.01V87.579ZM125.561 32.5736L120.784 32.5736V36.5026H125.562V32.5736L130.339 32.5736V24.7157H125.561V32.5736Z" fill="black" fill-opacity="0.2" style="mix-blend-mode:multiply"/>
<path fill-rule="evenodd" clip-rule="evenodd" d="M120.786 16.8578H125.564V24.7158H120.786V16.8578ZM106.45 24.7157H96.8936V28.6447L92.1168 28.6447V32.5736H96.8951V28.6447L106.45 28.6447V24.7157ZM120.785 24.7157H116.007V28.6447L106.451 28.6447V32.5736H116.008V28.6447L120.785 28.6447V24.7157ZM111.23 16.8578H106.451V24.7158H111.23V16.8578ZM101.673 32.5736H106.451V36.5026H101.673V32.5736ZM92.1162 32.5736H87.3379V40.4315H92.1162V32.5736Z" fill="white" fill-opacity="0.3" style="mix-blend-mode:lighten"/>
<path fill-rule="evenodd" clip-rule="evenodd" d="M139.899 9H96.8944V12.929L139.898 12.9289V16.8579H144.677V12.9289L139.899 12.929V9ZM87.3366 12.9289H96.8932V16.8579H87.3366V12.9289ZM87.336 16.8579H82.5577V20.7868L77.7809 20.7868V52.2184H82.5592V20.7868L87.336 20.7868V16.8579ZM77.7809 71.8632H82.5592V87.579H77.7809V71.8632ZM77.7803 87.579H73.002V91.508H77.7803V87.579ZM77.7809 91.508L92.1155 91.508V87.579H96.8938V91.508L92.1158 91.508V95.4369H77.7809V91.508ZM149.456 16.8579H144.677V24.7158L149.454 24.7158V36.5026H154.232V24.7158L149.456 24.7158V16.8579ZM159.011 36.5027H154.233V75.7922H159.011V36.5027ZM149.454 75.7922H154.232V83.6501H149.454V75.7922ZM159.011 83.6501H154.233V87.579H159.011V83.6501ZM159.012 87.579H163.79V91.508H159.012V87.579ZM159.011 95.4369V91.508H149.454V95.4369L144.677 95.4369V99.3659H149.456V95.4369L159.011 95.4369ZM139.898 67.9343H144.677V79.7212H139.898V67.9343ZM139.898 83.6501H135.119V91.508H139.898V83.6501ZM96.8944 83.6501H101.673V87.579H96.8944V83.6501ZM139.898 91.508H144.677V95.4369H139.898V91.508Z" fill="black"/>
<path d="M26.0592 15.3087H59.5974V20.0999H64.3886V24.8911H69.1798V87.1763H64.3886V91.9675H59.5974V96.7587H30.8504V91.9675H21.2681V87.1763H16.4769V77.594H6.89453V63.2205H11.6857V24.8911H16.4769V20.0999H26.0592V15.3087Z" fill="#FAE6CE"/>
<path fill-rule="evenodd" clip-rule="evenodd" d="M21.2681 101.55H59.5974V106.341H64.3886V115.923H59.5974V144.67H64.3886V154.253H59.5974V178.209H50.0151V154.253H45.2239V163.835H40.4328V168.626H35.6416V178.209H26.0592V149.462H30.8504V144.67H16.4769V106.341H21.2681V101.55ZM26.0592 111.132H30.8504V139.879H26.0592V111.132Z" fill="#FAE6CE"/>
<path d="M64.3886 115.923H69.1798V130.297H73.971V139.879H64.3886V115.923Z" fill="#FAE6CE"/>
<path d="M59.5973 15.3087H35.6414V20.0999H54.8061V24.8911H64.3884V63.2205H69.1796V24.8911H64.3884V20.0999H59.5973V15.3087Z" fill="#E3C4A6"/>
<path d="M16.4767 24.8911H11.6855V44.0558H16.4767V24.8911Z" fill="#E3C4A6"/>
<path d="M11.6855 68.0116H16.4767V63.2205H21.2679V87.1763H16.4767V72.8028H11.6855V68.0116Z" fill="#E3C4A6"/>
<path d="M21.2679 87.1763H35.6414V91.9675H59.5973V96.7587H30.8502V91.9675H21.2679V87.1763Z" fill="#E3C4A6"/>
<path d="M64.3884 115.923H69.1796V130.297H73.9708V139.879H64.3884V115.923Z" fill="#E3C4A6"/>
<path d="M64.3884 115.923H59.5973V111.132H54.8061V106.341H30.8502V101.55H59.5973V106.341H64.3884V115.923Z" fill="#E3C4A6"/>
<path d="M64.3884 144.67H59.5973V120.715H54.8061V144.67H59.5973V154.253H64.3884V144.67Z" fill="#E3C4A6"/>
<path d="M54.8061 159.044H59.5973V178.209H54.8061V159.044Z" fill="#E3C4A6"/>
<path d="M30.8502 149.462H26.0591V178.209H35.6414V168.626H30.8502V149.462Z" fill="#E3C4A6"/>
<path d="M40.4326 154.253H45.2238V159.044H40.4326V154.253Z" fill="#E3C4A6"/>
<path d="M26.0591 120.715H21.2679V135.088H16.4767V144.67H30.8502V139.879H26.0591V120.715Z" fill="#E3C4A6"/>
<path d="M30.8504 24.8898H35.6416V29.681H30.8504V24.8898Z" fill="#FFF8EF"/>
<path d="M54.8063 24.8898H40.4327V29.681H54.8063V34.4722H59.5974V39.2634H64.3886V34.4722H59.5974V29.681H54.8063V24.8898Z" fill="#FFF8EF"/>
<path d="M11.6857 63.2192H6.89453V68.0104H11.6857V63.2192Z" fill="#FFF8EF"/>
<path d="M21.2681 101.549H30.8504V106.34H21.2681V101.549Z" fill="#FFF8EF"/>
<path d="M21.2681 106.34V111.131H16.4769V106.34H21.2681Z" fill="#FFF8EF"/>
<path d="M40.4327 118.318H35.6416V127.9H40.4327V118.318Z" fill="#FFF8EF"/>
<path d="M40.4327 118.318H45.2239V113.527H40.4327V118.318Z" fill="#FFF8EF"/>
<path d="M50.0151 149.46H45.2239V154.252H50.0151V149.46Z" fill="#FFF8EF"/>
<path fill-rule="evenodd" clip-rule="evenodd" d="M59.5976 10.5173H26.0594V15.3084H16.477V20.0996H11.6859V24.8908H6.89469V63.2202H2.10352V77.5937H6.89469V82.3849H11.6859V87.176H16.477V91.9672H21.2682V101.55H16.477V106.341H11.6859V144.67H16.477V149.461H21.2682V183H40.4329V168.626H45.2241V183H69.1799V178.208H64.3888V154.252H69.1799V144.67H73.9711V139.879H78.7623V130.297H73.9711V115.923H69.1799V106.341H64.3888V101.55H59.5976V96.7584H64.3888V91.9672H69.1799V87.176H73.9711V24.8908H69.1799V20.0996H64.3888V15.3084H59.5976V10.5173ZM59.5976 15.3084V20.0996H64.3888V24.8908H69.1799V87.176H64.3888V91.9672H59.5976V96.7584H30.8506V91.9672H21.2682V87.176H16.477V77.5937H6.89469V63.2202H11.6859V68.0113H16.477V63.2202H11.6859V24.8908H16.477V20.0996H26.0594V15.3084H59.5976ZM64.3888 115.923H59.5976V144.67H64.3888V154.252H59.5976V178.208H50.0153V154.252H45.2241V159.044H40.4329V168.626H35.6417V178.208H26.0594V149.461H35.6417V139.879H30.8506V111.132H26.0594V139.879H30.8506V144.67H16.477V106.341H21.2682V101.55H59.5976V106.341H64.3888V115.923ZM64.3888 115.923V139.879H73.9711V130.297H69.1799V115.923H64.3888Z" fill="black"/>
<path fill-rule="evenodd" clip-rule="evenodd" d="M59.3169 15.2855H25.9423V20.0533H21.1745H16.4067V24.8211H11.6389V62.9635H6.87109V77.2669H11.6389H16.4067V86.8025H21.1745V91.5703L25.9423 91.5703H30.7101V96.3381H59.3169V91.5703L64.0847 91.5703V86.8025H68.8525V24.8211H64.0847V20.0533H59.3169V15.2855Z" fill="#FAE6CE"/>
<path fill-rule="evenodd" clip-rule="evenodd" d="M35.4777 15.2855H59.3167V20.0533H64.0845V24.8211H54.5489V20.0533H35.4777V15.2855ZM64.0845 24.8211H68.8523V62.9635H64.0845V24.8211ZM11.6387 24.8211H16.4065V62.9635H11.6387V24.8211ZM21.1743 86.8025H16.4065V72.4991H11.6387V67.7313H16.4065V62.9635H21.1743V86.8025ZM35.4777 91.5703V86.8025H21.1743V91.5703H30.7099V96.3381H59.3167V91.5703H35.4777ZM16.4065 24.8211V20.0533H21.1743V24.8211H16.4065Z" fill="#714A1C" fill-opacity="0.25" style="mix-blend-mode:multiply"/>
<path fill-rule="evenodd" clip-rule="evenodd" d="M35.4779 24.8211H30.7101V29.5889H35.4779V24.8211ZM40.2457 24.8211H54.5491V29.5889H40.2457V24.8211ZM59.3169 34.3567V29.5889H54.5491V34.3567H59.3169ZM59.3169 34.3567V39.1245H64.0847V34.3567H59.3169ZM6.87109 62.9635H11.6389V67.7313H6.87109V62.9635Z" fill="#FFFCF9" fill-opacity="0.7" style="mix-blend-mode:lighten"/>
<path fill-rule="evenodd" clip-rule="evenodd" d="M35.4768 58.1957H40.2446V62.9635H35.4768V58.1957ZM35.4768 62.9635V67.7313H30.709V62.9635H35.4768ZM40.2446 62.9635H45.0124V67.7313H40.2446V62.9635ZM54.548 82.0347V86.8025H45.0124V82.0347H54.548ZM59.3158 58.1957H54.548V62.9635H49.7802V67.7313H54.548V62.9635H59.3158V67.7313H64.0836V62.9635H59.3158V58.1957Z" fill="black"/>
<path fill-rule="evenodd" clip-rule="evenodd" d="M45.0139 58.1957H40.2461V62.9635H45.0139V67.7313H49.7817V62.9635H45.0139V58.1957Z" fill="#714A1C" fill-opacity="0.25" style="mix-blend-mode:multiply"/>
<path fill-rule="evenodd" clip-rule="evenodd" d="M25.9425 10.5177H59.3171V15.2855H25.9425V10.5177ZM16.4069 20.0533V15.2855H25.9425V20.0533H16.4069ZM11.6391 24.8211V20.0533H16.4069V24.8211H11.6391ZM11.6391 62.9635V24.8211H6.87132V62.9635H2.10352V77.2669H6.87132V82.0347L11.6391 82.0347V86.8025H16.4069V91.5703H21.1747V96.3381H30.7103V101.106H59.3171V96.3381L64.0849 96.3381V91.5703H68.8527V86.8025H73.6205V24.8211H68.8527V20.0533H64.0849V15.2855H59.3171V20.0533H64.0849V24.8211H68.8527V86.8025H64.0849V91.5703H59.3171V96.3381L30.7103 96.3381V91.5703H21.1747V86.8025H16.4069V82.0347V77.2669H6.87132V62.9635H11.6391ZM11.6391 62.9635V67.7313H16.4069V62.9635H11.6391Z" fill="black"/>
<path fill-rule="evenodd" clip-rule="evenodd" d="M53.6367 4.46985H49.1669V8.93966H44.6971V13.4095H35.7574H31.2876H26.8178H22.348V8.93966H17.8782H13.4084H8.93856H4.46875V22.3491L8.93856 22.3491V35.7585H4.46875V62.5774H8.93856V67.0472H13.4084V71.5171H17.8782V62.5774H22.348V58.1076H26.8178L26.8178 53.6378H31.2876V44.6982H35.7574V40.2284H44.6971H49.1669H53.6367H58.1065V49.168H62.5763V53.6378H67.0461V58.1076H71.516V26.8189H67.0461V22.3491H62.5763V17.8793V4.46985H58.1065H53.6367ZM13.4084 22.3491H8.93856V17.8793H13.4084V22.3491Z" fill="#BA6434"/>
<path fill-rule="evenodd" clip-rule="evenodd" d="M53.6367 8.93964H44.6971V13.4095H35.7574V17.8793H40.2273V22.3491H44.6971V26.8189H35.7574V22.3491H26.8178V17.8793H22.348L22.348 13.4095H13.4084V17.8793H22.348V22.3491H26.8178L26.8178 26.8189L31.2876 26.8189V31.2887H26.8178H22.348V35.7585H17.8782V31.2887H13.4084V26.8189H8.93856V35.7585H13.4084V40.2283H17.8782V44.6981H13.4084V49.168H8.93856V44.6981H4.46875V62.5774H8.93856V67.0472H13.4084V71.517H17.8782V62.5774H22.348V58.1076H26.8178V53.6378L31.2876 53.6378V44.6981H35.7574V40.2283H44.6971H58.1065L58.1065 49.168H62.5763V53.6378H67.0461V58.1076H71.516V53.6378L67.0461 53.6378V49.168H62.5763V40.2283H58.1065V35.7585H44.6971H35.7574V40.2283H31.2876V44.6981H26.8178L26.8178 53.6378H22.348V58.1076H17.8782V49.168H22.348V40.2283H26.8178L26.8178 35.7585H31.2876V31.2887H62.5763H67.0461V26.8189H62.5763L53.6367 26.8189V22.3491H49.1669V17.8793H44.6971V13.4095H53.6367L53.6367 17.8793H62.5763V13.4095H53.6367V8.93964ZM4.46875 13.4095H8.93856V22.3491H4.46875V13.4095Z" fill="black" fill-opacity="0.2" style="mix-blend-mode:multiply"/>
<path fill-rule="evenodd" clip-rule="evenodd" d="M62.5772 4.46985H53.6376V8.93966H62.5772V4.46985ZM17.8791 8.93966H8.93945V13.4095H17.8791V8.93966ZM40.2282 35.7585V31.2887H31.2885V35.7585H26.8187V40.2284H22.3489V44.6982H26.8187L26.8187 40.2284H31.2885V35.7585H40.2282ZM44.698 13.4095H53.6376V17.8793H44.698V13.4095ZM53.6376 17.8793H62.5772V22.3491H53.6376L53.6376 17.8793ZM35.7583 13.4095H26.8187V17.8793H35.7583V22.3491H40.2282V17.8793H35.7583V13.4095ZM22.3489 17.8793V22.3491H13.4093V17.8793H22.3489ZM22.3489 22.3491V26.8189H26.8187V22.3491H22.3489ZM62.5772 31.2887H58.1074V35.7585H62.5772V44.6982H67.047V49.168H71.5168V44.6982H67.047V35.7585H62.5772V31.2887Z" fill="white" fill-opacity="0.3" style="mix-blend-mode:lighten"/>
<path fill-rule="evenodd" clip-rule="evenodd" d="M62.5774 0H49.168V4.46981H44.6981V8.93963H22.3491V4.46981H4.46981V8.93963H0V22.3491L4.46981 22.3491V35.7585H0V62.5774H4.46981V35.7585H8.93963V22.3491H13.4094V17.8793H8.93963V22.3491H4.46981V8.93963H22.3491V13.4094H44.6981V8.93963H49.168V4.46981H62.5774V17.8793V22.3491H67.0472L67.0472 35.7585H71.517V58.1076H75.9868V35.7585H71.517V22.3491H67.0472V17.8793V4.46981H62.5774V0Z" fill="black"/>
<path fill-rule="evenodd" clip-rule="evenodd" d="M44.4043 159.629H25.707V168.977H44.4043V159.629ZM63.1016 159.629H49.0786V168.977H63.1016V159.629Z" fill="#FAE6CE"/>
<path fill-rule="evenodd" clip-rule="evenodd" d="M25.707 159.629H30.3813V164.303H25.707V159.629ZM58.4272 159.629H63.1016V168.977H58.4272V159.629ZM39.73 164.303H35.0557V168.977H39.73V164.303ZM39.73 164.303H44.4043V159.629H39.73V164.303ZM53.7529 164.303H49.0786V168.977H53.7529V164.303Z" fill="#714A1C" fill-opacity="0.25" style="mix-blend-mode:multiply"/>
<path d="M25.707 145.606H63.1016V154.954H25.707V145.606Z" fill="#A70000"/>
<path fill-rule="evenodd" clip-rule="evenodd" d="M25.707 145.606H30.3813V150.28H25.707V145.606ZM58.4272 145.606H63.1016V150.28H58.4272V145.606ZM44.4043 150.28H39.73V154.954H44.4043V150.28Z" fill="black" fill-opacity="0.2" style="mix-blend-mode:multiply"/>
<path fill-rule="evenodd" clip-rule="evenodd" d="M35.0557 173.652H25.707V178.326H35.0557V173.652ZM58.4272 173.652H49.0786V178.326H58.4272V173.652Z" fill="#BA6434"/>
<path fill-rule="evenodd" clip-rule="evenodd" d="M30.3813 173.652H25.707V178.326H30.3813V173.652ZM53.7529 173.652H49.0786V178.326H53.7529V173.652Z" fill="black" fill-opacity="0.2" style="mix-blend-mode:multiply"/>
<path fill-rule="evenodd" clip-rule="evenodd" d="M25.7075 140.931H21.0332V183H25.7075L35.0562 183H39.7305V168.977L44.4048 168.977V183H49.0791L58.4277 183H63.102L67.7764 183V178.326H63.102V168.977H67.7764V140.931H63.102H25.7075ZM49.0791 168.977H58.4277H63.102L63.102 159.629H49.0791V168.977ZM49.0791 173.652V178.326H58.4277V173.652H49.0791ZM49.0791 154.954H58.4277V150.28H63.102V145.606H25.7075V150.28H30.3818V154.954H44.4048V150.28H49.0791L49.0791 154.954ZM44.4048 159.629V164.303H39.7305V168.977H35.0562H25.7075V159.629H44.4048ZM35.0562 178.326V173.652H25.7075V178.326H35.0562Z" fill="black"/>
<path fill-rule="evenodd" clip-rule="evenodd" d="M51.7463 100.615H41.6498V105.698H51.7463V100.615ZM76.9884 131.115H71.9401V141.281H76.9884V131.115ZM16.4076 136.198H11.3594V146.364H16.4076V136.198ZM16.4085 131.115H21.4567V146.365H16.4085V131.115ZM66.887 126.031H71.9352V136.198H66.887V126.031ZM26.5058 131.115H21.4575V141.281H26.5058V131.115Z" fill="#FAE6CE"/>
<path fill-rule="evenodd" clip-rule="evenodd" d="M41.6554 100.615H51.7519V105.698H41.6554V100.615ZM66.8967 126.031H71.9449V131.115H76.9899V141.281H71.9416V136.198H66.8967V126.031ZM21.4631 131.115H26.5114V141.281H21.4631V131.115ZM21.4623 136.198H16.4141V146.364H21.4623V136.198Z" fill="#714A1C" fill-opacity="0.25" style="mix-blend-mode:multiply"/>
<path fill-rule="evenodd" clip-rule="evenodd" d="M31.5525 95.5318H26.5043V110.782H31.5525V95.5318ZM21.4552 100.615H26.5034V126.032H21.4552V126.032H16.4135V126.032H11.3652V115.865H16.4102V105.698H21.4552V100.615ZM71.9411 115.865H66.8928V120.948H71.9411V115.865ZM31.5533 100.615H36.6016V141.282H31.5533V100.615ZM41.6507 105.698H36.6024V141.282H41.6507V105.698ZM41.6515 110.782H46.6998V141.282H41.6515V110.782ZM51.7489 110.782H46.7006V141.282H51.7489V110.782ZM51.7497 105.698H56.7946V100.615H61.8429V141.282H56.7946V141.282H51.7497V105.698ZM61.8437 105.698H66.892V115.865H61.8437V105.698Z" fill="#403F3F"/>
<path fill-rule="evenodd" clip-rule="evenodd" d="M31.5557 95.5318H26.5074V100.615H31.5557V95.5318ZM61.842 100.615H56.7937V105.698H61.8387V115.865H66.887V105.698H61.842V100.615ZM51.7438 105.698H56.7921V110.782H51.7438V105.698ZM61.8412 126.032H56.7929V136.198H61.8412V126.032ZM61.8453 136.199H31.5557V141.282H61.8453V136.199ZM16.4076 115.865H11.3594V126.032H16.4076V115.865ZM31.5557 131.115H36.604V136.198H31.5557V131.115ZM36.604 115.865H31.5557V120.948H36.604V115.865ZM26.5074 105.698H31.5557V110.782H26.5074V105.698ZM21.4543 110.782H26.5025V115.865H21.4543V110.782ZM66.8919 115.865H71.9401V120.948H66.8919V115.865Z" fill="black" fill-opacity="0.2" style="mix-blend-mode:multiply"/>
<path fill-rule="evenodd" clip-rule="evenodd" d="M26.5069 90.4482H31.5551V95.5315H26.5069V90.4482ZM21.4578 95.5315H26.5061V100.615H21.4578V95.5315ZM31.5518 95.5315H36.6001V100.615H31.5518V95.5315ZM61.8414 95.5315H56.7932V100.615H61.8381V105.698H66.8864V100.615H61.8414V95.5315ZM41.6492 100.615H36.6009V105.698H41.6492V100.615ZM51.7441 100.615H56.7923V105.698H51.7441V100.615ZM51.7465 105.698H41.65V110.781H51.7465V105.698ZM16.4046 100.615H21.4529V105.698H16.4046V100.615ZM26.5011 126.031H16.4079H16.4046H11.3596V136.198H16.4079V131.115H26.5011V126.031ZM11.3596 105.698H16.4079V115.865H11.3596V105.698ZM11.3588 115.865H6.31055V126.031H11.3588V115.865ZM11.3588 136.198H6.31055V146.365H11.3588V136.198ZM11.3596 146.365H21.4562V151.448H11.3596V146.365ZM31.5551 110.781H26.5069V141.281H21.4578V146.365H76.9887V141.282H82.0336V131.115H76.9854V141.281H31.5551V141.281H36.6001V136.198H31.5551V110.781ZM46.695 110.781H51.7432V115.865H46.695V110.781ZM51.7432 136.198H46.695V141.281H51.7432V136.198ZM46.695 126.031H51.7432V131.115H46.695V126.031ZM56.7932 136.198H61.8381V115.865H56.7932V105.698H61.8414V115.865H66.8864V141.281H61.8414V141.281H56.7932V136.198ZM66.8872 120.948H71.9355V126.031H66.8872V120.948ZM71.9355 105.698H66.8872V115.865H71.9355V105.698ZM71.9404 115.865H76.9887V131.115H71.9404V115.865ZM66.8872 136.198H71.9355V141.281H66.8872V136.198Z" fill="black"/>
</svg>
