<svg width="48" height="107" viewBox="0 0 48 107" fill="none" xmlns="http://www.w3.org/2000/svg">
<path fill-rule="evenodd" clip-rule="evenodd" d="M10.1949 15.6216H28.427V18.2262H31.0316H33.6362V20.8307H36.2408V41.6674H38.8453V49.4811H36.2408H33.6362V54.6903H31.0316V57.2949L28.427 57.2949H25.8224V59.8995H10.1949V57.2949L7.59036 57.2949V54.6903H4.98578V20.8307H7.59036V18.2262H10.1949V15.6216Z" fill="#FAE6CE"/>
<path fill-rule="evenodd" clip-rule="evenodd" d="M23.2179 15.6216H10.195V18.2262H7.59045L7.59045 20.8307H12.7996V18.2262H23.2179V15.6216ZM7.59045 20.8307H4.98587V41.6674H7.59045V20.8307ZM36.2408 20.8307H33.6363V41.6674H36.2408V20.8307ZM31.0317 54.6903H33.6363V46.8766H36.2408V44.272H33.6363V41.6674H31.0317V54.6903ZM23.2179 57.2949V54.6903H31.0317V57.2949H25.8225V59.8995H10.195V57.2949H23.2179ZM33.6363 20.8307V18.2262H31.0317V20.8307H33.6363Z" fill="#714A1C" fill-opacity="0.25" style="mix-blend-mode:multiply"/>
<path fill-rule="evenodd" clip-rule="evenodd" d="M23.2178 20.8308H25.8224V23.4354H23.2178V20.8308ZM20.6133 20.8308H12.7995V23.4354H20.6133V20.8308ZM10.1949 26.04V23.4354H12.7995V26.04H10.1949ZM10.1949 26.04L10.1949 28.6446H7.59036V26.04H10.1949ZM38.8453 41.6675H36.2408V44.272H38.8453V41.6675Z" fill="#FFFCF9" fill-opacity="0.7" style="mix-blend-mode:lighten"/>
<path fill-rule="evenodd" clip-rule="evenodd" d="M20.6133 39.063H23.2179V41.6676H25.8225V44.2722H23.2179V41.6676H20.6133V44.2722H18.0088V41.6676H20.6133V39.063ZM12.7996 54.6905V52.0859H18.0088V49.4813H20.6133V52.0859H18.0088V54.6905H12.7996ZM12.7996 41.6676H15.4042V44.2722H12.7996V41.6676ZM10.195 41.6676H12.7996L12.7996 39.063H10.195V41.6676ZM10.195 41.6676V44.2722H7.59044V41.6676H10.195Z" fill="black"/>
<path fill-rule="evenodd" clip-rule="evenodd" d="M18.0087 39.063H20.6133V41.6676H18.0087V44.2721H15.4041V41.6675H18.0087V39.063Z" fill="#714A1C" fill-opacity="0.25" style="mix-blend-mode:multiply"/>
<path fill-rule="evenodd" clip-rule="evenodd" d="M28.427 13.0171H10.195V15.6217H28.427V13.0171ZM33.6362 18.2263V15.6217H28.427L28.427 18.2263H33.6362ZM36.2408 20.8308V18.2263H33.6362V20.8308H36.2408ZM36.2408 41.6675V20.8308H38.8454V41.6675H41.45V49.4812H38.8454V52.0858L36.2408 52.0858V54.6904H33.6362V57.295H31.0316V59.8996H25.8225V62.5041H10.195V59.8996L7.59039 59.8996L7.59039 57.295H4.98581V54.6904H2.38123V20.8308H4.98581V18.2263H7.59039V15.6217H10.195V18.2263H7.59039L7.59039 20.8308H4.98581V54.6904H7.59039V57.295H10.195V59.8996L25.8225 59.8996V57.295H31.0316V54.6904H33.6362V52.0858V49.4812H38.8454V41.6675H36.2408ZM36.2408 41.6675V44.2721H33.6362V41.6675H36.2408Z" fill="black"/>
<path fill-rule="evenodd" clip-rule="evenodd" d="M12.4457 61.7717H22.4023V64.2609H19.9132V66.75H14.9349V64.2609H12.4457V61.7717ZM7.46745 76.7066H4.97831L4.97831 79.1957H2.48917V84.174H4.97831H7.46745V76.7066ZM32.3589 79.1957H29.8697H27.3806V84.174H29.8697V86.6632H32.3589H34.848V81.6849H32.3589V79.1957Z" fill="#FAE6CE"/>
<path fill-rule="evenodd" clip-rule="evenodd" d="M12.4457 61.7717H22.4023V64.2609H12.4457V61.7717ZM7.46746 76.7066H4.97832L4.97832 79.1957H2.48917V84.174H4.97832L4.97832 81.6849H7.46746V76.7066ZM29.8697 79.1957H27.3806V86.6632H29.8697H32.3589V81.6849H29.8697V79.1957Z" fill="#714A1C" fill-opacity="0.25" style="mix-blend-mode:multiply"/>
<path fill-rule="evenodd" clip-rule="evenodd" d="M24.8915 61.7717H27.3806V64.2609H29.8697V66.75H32.3589V71.7283H34.848V76.7066L32.3589 76.7066L29.8697 76.7066H27.3806V66.75H24.8915V84.174H27.3806V91.6414H29.8697V96.6197H32.3589V99.1089H29.8697H27.3806H24.8915H22.4023L19.9132 99.1089L14.9349 99.1089L12.4457 99.1089L9.9566 99.1089H7.46745H4.97831V94.1306H7.46745V84.174H9.9566V74.2174L7.46745 74.2174H4.97831V71.7283H7.46745V66.75H9.9566V64.2609H12.4457L12.4457 66.75H14.9349V69.2392H19.9132V66.75H22.4023L22.4023 64.2609H24.8915V61.7717Z" fill="#258A02"/>
<path fill-rule="evenodd" clip-rule="evenodd" d="M27.3806 61.7717H24.8915V64.2609H27.3806V61.7717ZM24.8915 64.2609H22.4023V66.75H24.8915V64.2609ZM12.4458 64.2609H9.95661V66.75H12.4458V64.2609ZM12.4458 66.75V69.2392H14.9349V66.75H12.4458ZM9.95661 66.75H7.46747V71.7283H9.95661V66.75ZM14.9349 89.1523H12.4458V94.1306H14.9349V89.1523ZM14.9349 94.1306V99.1089H17.424V94.1306L14.9349 94.1306ZM12.4458 84.174H14.9349V86.6632H12.4458V84.174ZM14.9349 76.7066H12.4458V81.6849H14.9349V76.7066ZM19.9132 91.6414H22.4023V94.1306H24.8915V96.6197H22.4023L22.4023 94.1306H19.9132V91.6414ZM19.9132 91.6414H17.424V86.6632H19.9132V91.6414ZM22.4023 76.7066H24.8915V84.174H27.3806V89.1523H24.8915V84.174H22.4023V76.7066ZM27.3806 91.6414H29.8698V94.1306H27.3806V91.6414ZM7.46747 94.1306H4.97832V99.1089H7.46747V94.1306ZM7.46747 84.174H9.95661V89.1523H7.46747V84.174Z" fill="black" fill-opacity="0.2" style="mix-blend-mode:multiply"/>
<path fill-rule="evenodd" clip-rule="evenodd" d="M24.8915 64.261H27.3806V66.7501H24.8915V64.261ZM14.9349 79.1959H17.424V84.1741H14.9349V79.1959ZM22.4023 89.1524H19.9132V91.6416H22.4023V89.1524ZM24.8914 94.1307V91.6416L22.4023 91.6416V94.1307H24.8914ZM24.8914 94.1307V99.109H27.3806V94.1307H24.8914ZM19.9132 94.1307H17.424V99.109H19.9132V94.1307ZM17.424 94.1307V91.6416H14.9349V94.1307H17.424Z" fill="white" fill-opacity="0.3" style="mix-blend-mode:lighten"/>
<path fill-rule="evenodd" clip-rule="evenodd" d="M9.95659 101.598H14.9349V104.087H9.95659V101.598ZM22.4023 101.598H27.3806V104.087H22.4023V101.598Z" fill="#CF0000"/>
<path fill-rule="evenodd" clip-rule="evenodd" d="M12.4457 101.598H14.9349V104.087H12.4457V101.598ZM24.8915 101.598H27.3806V104.087H24.8915V101.598Z" fill="black" fill-opacity="0.2" style="mix-blend-mode:multiply"/>
<path fill-rule="evenodd" clip-rule="evenodd" d="M27.3806 59.2827H24.8914V61.7719H27.3806V59.2827ZM29.8697 64.261V61.7719H27.3806V64.261H29.8697ZM32.3589 66.7501V64.261H29.8697V66.7501H32.3589ZM34.848 71.7284V66.7501H32.3589V71.7284H34.848ZM34.848 76.7067H37.3372V71.7284H34.848V76.7067ZM27.3806 84.1741H24.8914V66.7501H27.3806V76.7067H32.3589H34.848V81.685L37.3372 81.685V86.6633H34.848V89.1524H29.8697V91.6416H32.3589V96.6199L34.848 96.6199V99.109V101.598H29.8697V106.576H27.3806H22.4023H19.9132V101.598H17.424V106.576H14.9349H4.9783V104.087H7.46745V101.598H2.48916V99.109V94.1307L4.9783 94.1307V86.6633H2.48916L2.48916 84.1741H1.90735e-05V79.1959H2.48916V71.7284H4.9783V66.7501H7.46745V64.261H9.95659V61.7719H12.4457V64.261H14.9349V66.7501H19.9132V64.261H22.4023V61.7719H24.8914V64.261H22.4023L22.4023 66.7501H19.9132L19.9132 69.2393H14.9349L14.9349 66.7501H12.4457L12.4457 64.261H9.95659V66.7501H7.46745V71.7284H4.9783V74.2176H7.46745H9.95659V84.1741H7.46745V94.1307H4.9783V99.109H32.3589V96.6199H29.8697V91.6416H27.3806V84.1741ZM2.48916 79.1959H4.9783V76.7067H7.46745V81.685H4.9783V84.1741H2.48916L2.48916 79.1959ZM14.9349 104.087H9.95659V101.598H14.9349V104.087ZM27.3806 84.1741V79.1959H32.3589V81.685H34.848V86.6633H29.8697V84.1741H27.3806ZM22.4023 104.087V101.598H27.3806V104.087H22.4023Z" fill="black"/>
<path fill-rule="evenodd" clip-rule="evenodd" d="M34.3222 6.58008H41.1403V9.8703H43.413V13.1603H41.1403V13.1601H34.3222V6.58008ZM29.7767 13.16H27.5041H27.5041H25.2315H25.2314H13.868V26.32H25.2314V29.61H27.5041V39.48H29.7767V49.35H32.0494V46.06H34.3221V13.16H32.0494H32.0494H29.7768H29.7767ZM13.8679 16.4502H9.32253V19.7399H7.04991V29.6099H9.3226V26.3202H13.8679V16.4502ZM34.3223 23.0302H36.595V42.7702H34.3223V23.0302Z" fill="#905329"/>
<path fill-rule="evenodd" clip-rule="evenodd" d="M34.3222 6.58008H41.1403V9.8703H43.413V13.1603H41.1403V13.1601H34.3222V6.58008ZM36.595 23.0302H34.3223V42.7702H36.595V23.0302ZM32.0494 13.16H34.3221V46.06H32.0494V49.35H29.7767V39.4799H27.5041V26.3199H25.2315V26.3202H9.32258L9.3226 29.6099H7.04991V19.7399H9.3226L9.32258 23.0302H25.2314V19.7399H27.5041H27.5041H29.7767V16.45H27.5041V13.16H29.7767H29.7768H32.0494H32.0494Z" fill="black" fill-opacity="0.2" style="mix-blend-mode:multiply"/>
<path fill-rule="evenodd" clip-rule="evenodd" d="M32.0494 23.03H34.3221V26.32H32.0494V23.03ZM34.322 26.3203H36.5947V29.6103H34.3221V32.9H32.0494V29.6103H29.7768V32.9H27.5041V29.61H29.7767V26.3203H32.0494V29.61H34.322V26.3203ZM29.7768 23.03H27.5041V26.32H29.7768V23.03ZM27.5038 26.3203H25.2311V29.6103H27.5038V26.3203ZM29.7767 32.9002H32.0494V36.1902H29.7767V32.9002Z" fill="white" fill-opacity="0.3" style="mix-blend-mode:lighten"/>
<path fill-rule="evenodd" clip-rule="evenodd" d="M32.0494 9.87012H34.3221V13.1601H32.0494V9.87012ZM34.322 13.1603H36.5947V16.4503H34.322V13.1603Z" fill="#2E8EE6"/>
<path d="M36.5947 13.1599H34.322V16.4499H36.5947V13.1599Z" fill="black" fill-opacity="0.2" style="mix-blend-mode:multiply"/>
<path fill-rule="evenodd" clip-rule="evenodd" d="M38.8676 0H41.1403V6.57994H43.4129V3.29023H45.6856V9.87016H47.9583V13.1602H43.4129V16.4499H36.5949V13.1599H43.4129V9.87016H43.4129V9.86993H41.1402V6.58H38.8676V0ZM34.322 3.29023H38.8674V6.58022H34.3221V9.86993H32.0494V6.57994H34.322V3.29023ZM34.322 16.4501H36.5947V23.03H38.8674V46.06H36.5947V23.0301H34.322V16.4501ZM13.8678 9.87016H32.0494V13.1602H13.8679V16.4499H9.3225V13.1599H13.8678V9.87016ZM7.04962 16.4501H9.32232V19.7401H7.04966V32.8998H4.77697V19.7398H7.04962V16.4501ZM41.1402 19.7401V16.4501H45.6856V19.7401H41.1402Z" fill="black"/>
</svg>
